  0
SECTION
  2
HEADER
  9
$ACADVER
  1
AC1014
  9
$HANDSEED
  5
FFFF
  9
$MEASUREMENT
 70
     1
  0
ENDSEC
  0
SECTION
  2
TABLES
  0
TABLE
  2
VPORT
  5
8
330
0
100
AcDbSymbolTable
 70
     4
  0
VPORT
  5
2E
330
8
100
AcDbSymbolTableRecord
100
AcDbViewportTableRecord
  2
*ACTIVE
 70
     0
 10
0.0
 20
0.0
 11
1.0
 21
1.0
 12
210.0
 22
148.5
 13
0.0
 23
0.0
 14
10.0
 24
10.0
 15
10.0
 25
10.0
 16
0.0
 26
0.0
 36
1.0
 17
0.0
 27
0.0
 37
0.0
 40
341.0
 41
1.24
 42
50.0
 43
0.0
 44
0.0
 50
0.0
 51
0.0
 71
     0
 72
   100
 73
     1
 74
     3
 75
     0
 76
     0
 77
     0
 78
     0
  0
ENDTAB
  0
TABLE
  2
LTYPE
  5
5
330
0
100
AcDbSymbolTable
 70
     1
  0
LTYPE
  5
14
330
5
100
AcDbSymbolTableRecord
100
AcDbLinetypeTableRecord
  2
BYBLOCK
 70
     0
  3

 72
    65
 73
     0
 40
0.0
  0
LTYPE
  5
15
330
5
100
AcDbSymbolTableRecord
100
AcDbLinetypeTableRecord
  2
BYLAYER
 70
     0
  3

 72
    65
 73
     0
 40
0.0
  0
LTYPE
  5
16
330
5
100
AcDbSymbolTableRecord
100
AcDbLinetypeTableRecord
  2
CONTINUOUS
 70
     0
  3
Solid line
 72
    65
 73
     0
 40
0.0
  0
ENDTAB
  0
TABLE
  2
LAYER
  5
2
100
AcDbSymbolTable
 70
2
  0
LAYER
  5
50
100
AcDbSymbolTableRecord
100
AcDbLayerTableRecord
  2
0
 70
0
  6
CONTINUOUS
  0
LAYER
  5
51
100
AcDbSymbolTableRecord
100
AcDbLayerTableRecord
  2
Layer_1
 70
0
  6
CONTINUOUS
  0
ENDTAB
  0
TABLE
  2
STYLE
  5
3
330
0
100
AcDbSymbolTable
 70
     1
  0
STYLE
  5
11
330
3
100
AcDbSymbolTableRecord
100
AcDbTextStyleTableRecord
  2
STANDARD
 70
     0
 40
0.0
 41
1.0
 50
0.0
 71
     0
 42
2.5
  3
txt
  4

  0
ENDTAB
  0
TABLE
  2
VIEW
  5
6
330
0
100
AcDbSymbolTable
 70
     0
  0
ENDTAB
  0
TABLE
  2
UCS
  5
7
330
0
100
AcDbSymbolTable
 70
     0
  0
ENDTAB
  0
TABLE
  2
APPID
  5
9
330
0
100
AcDbSymbolTable
 70
     2
  0
APPID
  5
12
330
9
100
AcDbSymbolTableRecord
100
AcDbRegAppTableRecord
  2
ACAD
 70
     0
  0
ENDTAB
  0
TABLE
  2
DIMSTYLE
  5
A
330
0
100
AcDbSymbolTable
 70
     1
  0
DIMSTYLE
105
27
330
A
100
AcDbSymbolTableRecord
100
AcDbDimStyleTableRecord
  2
ISO-25
 70
     0
  3

  4

  5

  6

  7

 40
1.0
 41
2.5
 42
0.625
 43
3.75
 44
1.25
 45
0.0
 46
0.0
 47
0.0
 48
0.0
140
2.5
141
2.5
142
0.0
143
0.03937007874016
144
1.0
145
0.0
146
1.0
147
0.625
 71
     0
 72
     0
 73
     0
 74
     0
 75
     0
 76
     0
 77
     1
 78
     8
170
     0
171
     3
172
     1
173
     0
174
     0
175
     0
176
     0
177
     0
178
     0
270
     2
271
     2
272
     2
273
     2
274
     3
340
11
275
     0
280
     0
281
     0
282
     0
283
     0
284
     8
285
     0
286
     0
287
     3
288
     0
  0
ENDTAB
  0
TABLE
  2
BLOCK_RECORD
  5
1
330
0
100
AcDbSymbolTable
 70
     1
  0
BLOCK_RECORD
  5
1F
330
1
100
AcDbSymbolTableRecord
100
AcDbBlockTableRecord
  2
*MODEL_SPACE
  0
BLOCK_RECORD
  5
1B
330
1
100
AcDbSymbolTableRecord
100
AcDbBlockTableRecord
  2
*PAPER_SPACE
  0
ENDTAB
  0
ENDSEC
  0
SECTION
  2
BLOCKS
  0
BLOCK
  5
20
330
1F
100
AcDbEntity
  8
0
100
AcDbBlockBegin
  2
*MODEL_SPACE
 70
     0
 10
0.0
 20
0.0
 30
0.0
  3
*MODEL_SPACE
  1

  0
ENDBLK
  5
21
330
1F
100
AcDbEntity
  8
0
100
AcDbBlockEnd
  0
BLOCK
  5
1C
330
1B
100
AcDbEntity
 67
     1
  8
0
100
AcDbBlockBegin
  2
*PAPER_SPACE
  1

  0
ENDBLK
  5
1D
330
1B
100
AcDbEntity
 67
     1
  8
0
100
AcDbBlockEnd
  0
ENDSEC
  0
SECTION
  2
ENTITIES
  0
SPLINE
  5
100
100
AcDbEntity
  8
Layer_1
 62
7
100
AcDbSpline
 70
8
 71
3
 72
8
 73
4
 74
0
 40
0
 40
0
 40
0
 40
0
 40
1
 40
1
 40
1
 40
1
 10
73.122192
 20
5.304914
 30
0.0
 10
73.116992
 20
-2.976436
 30
0.0
 10
66.401543
 20
-9.686706
 30
0.0
 10
58.120193
 20
-9.685596
 30
0.0
  0
SPLINE
  5
101
100
AcDbEntity
  8
Layer_1
 62
7
100
AcDbSpline
 70
8
 71
3
 72
8
 73
4
 74
0
 40
0
 40
0
 40
0
 40
0
 40
1
 40
1
 40
1
 40
1
 10
58.120193
 20
-9.685596
 30
0.0
 10
49.838843
 20
-9.684596
 30
0.0
 10
43.125219
 20
-2.972446
 30
0.0
 10
43.122192
 20
5.308914
 30
0.0
  0
LWPOLYLINE
  5
102
100
AcDbEntity
  8
Layer_1
 62
7
100
AcDbPolyline
 90
3
 70
0
 10
43.148582
 20
285.306934
 30
0.0
 10
73.148592
 20
285.304934
 30
0.0
 10
73.122192
 20
5.304914
 30
0.0
  0
SPLINE
  5
103
100
AcDbEntity
  8
Layer_1
 62
1
100
AcDbSpline
 70
8
 71
3
 72
8
 73
4
 74
0
 40
0
 40
0
 40
0
 40
0
 40
1
 40
1
 40
1
 40
1
 10
68.089222
 20
274.226834
 30
0.0
 10
68.474492
 20
274.741855
 30
0.0
 10
68.555684
 20
275.423311
 30
0.0
 10
68.302206
 20
276.014436
 30
0.0
  0
SPLINE
  5
104
100
AcDbEntity
  8
Layer_1
 62
1
100
AcDbSpline
 70
8
 71
3
 72
8
 73
4
 74
0
 40
0
 40
0
 40
0
 40
0
 40
1
 40
1
 40
1
 40
1
 10
68.302206
 20
276.014436
 30
0.0
 10
68.048728
 20
276.605560
 30
0.0
 10
67.499101
 20
277.016518
 30
0.0
 10
66.860421
 20
277.092462
 30
0.0
  0
SPLINE
  5
105
100
AcDbEntity
  8
Layer_1
 62
1
100
AcDbSpline
 70
8
 71
3
 72
8
 73
4
 74
0
 40
0
 40
0
 40
0
 40
0
 40
1
 40
1
 40
1
 40
1
 10
66.860421
 20
277.092462
 30
0.0
 10
66.221741
 20
277.168406
 30
0.0
 10
65.591071
 20
276.897795
 30
0.0
 10
65.206042
 20
276.382594
 30
0.0
  0
SPLINE
  5
106
100
AcDbEntity
  8
Layer_1
 62
1
100
AcDbSpline
 70
8
 71
3
 72
8
 73
4
 74
0
 40
0
 40
0
 40
0
 40
0
 40
1
 40
1
 40
1
 40
1
 10
65.206042
 20
276.382594
 30
0.0
 10
64.820772
 20
275.867573
 30
0.0
 10
64.739580
 20
275.186117
 30
0.0
 10
64.993058
 20
274.594992
 30
0.0
  0
SPLINE
  5
107
100
AcDbEntity
  8
Layer_1
 62
1
100
AcDbSpline
 70
8
 71
3
 72
8
 73
4
 74
0
 40
0
 40
0
 40
0
 40
0
 40
1
 40
1
 40
1
 40
1
 10
64.993058
 20
274.594992
 30
0.0
 10
65.246536
 20
274.003868
 30
0.0
 10
65.796163
 20
273.592910
 30
0.0
 10
66.434843
 20
273.516966
 30
0.0
  0
SPLINE
  5
108
100
AcDbEntity
  8
Layer_1
 62
1
100
AcDbSpline
 70
8
 71
3
 72
8
 73
4
 74
0
 40
0
 40
0
 40
0
 40
0
 40
1
 40
1
 40
1
 40
1
 10
66.434843
 20
273.516966
 30
0.0
 10
67.073523
 20
273.441022
 30
0.0
 10
67.704193
 20
273.711633
 30
0.0
 10
68.089222
 20
274.226834
 30
0.0
  0
LWPOLYLINE
  5
109
100
AcDbEntity
  8
Layer_1
 62
7
100
AcDbPolyline
 90
2
 70
0
 10
43.122192
 20
5.308914
 30
0.0
 10
43.148582
 20
285.306934
 30
0.0
  0
SPLINE
  5
10a
100
AcDbEntity
  8
Layer_1
 62
1
100
AcDbSpline
 70
8
 71
3
 72
8
 73
4
 74
0
 40
0
 40
0
 40
0
 40
0
 40
1
 40
1
 40
1
 40
1
 10
51.089232
 20
274.228454
 30
0.0
 10
51.475954
 20
274.743395
 30
0.0
 10
51.558114
 20
275.425705
 30
0.0
 10
51.304687
 20
276.017729
 30
0.0
  0
SPLINE
  5
10b
100
AcDbEntity
  8
Layer_1
 62
1
100
AcDbSpline
 70
8
 71
3
 72
8
 73
4
 74
0
 40
0
 40
0
 40
0
 40
0
 40
1
 40
1
 40
1
 40
1
 10
51.304687
 20
276.017729
 30
0.0
 10
51.051260
 20
276.609754
 30
0.0
 10
50.500860
 20
277.021285
 30
0.0
 10
49.861331
 20
277.096920
 30
0.0
  0
SPLINE
  5
10c
100
AcDbEntity
  8
Layer_1
 62
1
100
AcDbSpline
 70
8
 71
3
 72
8
 73
4
 74
0
 40
0
 40
0
 40
0
 40
0
 40
1
 40
1
 40
1
 40
1
 10
49.861331
 20
277.096920
 30
0.0
 10
49.221802
 20
277.172554
 30
0.0
 10
48.590589
 20
276.900769
 30
0.0
 10
48.206052
 20
276.384194
 30
0.0
  0
SPLINE
  5
10d
100
AcDbEntity
  8
Layer_1
 62
1
100
AcDbSpline
 70
8
 71
3
 72
8
 73
4
 74
0
 40
0
 40
0
 40
0
 40
0
 40
1
 40
1
 40
1
 40
1
 10
48.206052
 20
276.384194
 30
0.0
 10
47.819330
 20
275.869253
 30
0.0
 10
47.737170
 20
275.186943
 30
0.0
 10
47.990597
 20
274.594919
 30
0.0
  0
SPLINE
  5
10e
100
AcDbEntity
  8
Layer_1
 62
1
100
AcDbSpline
 70
8
 71
3
 72
8
 73
4
 74
0
 40
0
 40
0
 40
0
 40
0
 40
1
 40
1
 40
1
 40
1
 10
47.990597
 20
274.594919
 30
0.0
 10
48.244024
 20
274.002894
 30
0.0
 10
48.794424
 20
273.591363
 30
0.0
 10
49.433953
 20
273.515728
 30
0.0
  0
SPLINE
  5
10f
100
AcDbEntity
  8
Layer_1
 62
1
100
AcDbSpline
 70
8
 71
3
 72
8
 73
4
 74
0
 40
0
 40
0
 40
0
 40
0
 40
1
 40
1
 40
1
 40
1
 10
49.433953
 20
273.515728
 30
0.0
 10
50.073482
 20
273.440093
 30
0.0
 10
50.704695
 20
273.711879
 30
0.0
 10
51.089232
 20
274.228454
 30
0.0
  0
LWPOLYLINE
  5
110
100
AcDbEntity
  8
Layer_1
 62
1
100
AcDbPolyline
 90
1
 70
1
 10
68.089222
 20
274.226834
 30
0.0
  0
SPLINE
  5
111
100
AcDbEntity
  8
Layer_1
 62
1
100
AcDbSpline
 70
8
 71
3
 72
8
 73
4
 74
0
 40
0
 40
0
 40
0
 40
0
 40
1
 40
1
 40
1
 40
1
 10
60.538962
 20
153.509074
 30
0.0
 10
61.183330
 20
154.367320
 30
0.0
 10
61.320151
 20
155.504406
 30
0.0
 10
60.897764
 20
156.491010
 30
0.0
  0
SPLINE
  5
112
100
AcDbEntity
  8
Layer_1
 62
1
100
AcDbSpline
 70
8
 71
3
 72
8
 73
4
 74
0
 40
0
 40
0
 40
0
 40
0
 40
1
 40
1
 40
1
 40
1
 10
60.897764
 20
156.491010
 30
0.0
 10
60.475378
 20
157.477614
 30
0.0
 10
59.558133
 20
158.163432
 30
0.0
 10
58.492348
 20
158.289524
 30
0.0
  0
SPLINE
  5
113
100
AcDbEntity
  8
Layer_1
 62
1
100
AcDbSpline
 70
8
 71
3
 72
8
 73
4
 74
0
 40
0
 40
0
 40
0
 40
0
 40
1
 40
1
 40
1
 40
1
 10
58.492348
 20
158.289524
 30
0.0
 10
57.426563
 20
158.415617
 30
0.0
 10
56.374604
 20
157.962775
 30
0.0
 10
55.733652
 20
157.101974
 30
0.0
  0
SPLINE
  5
114
100
AcDbEntity
  8
Layer_1
 62
1
100
AcDbSpline
 70
8
 71
3
 72
8
 73
4
 74
0
 40
0
 40
0
 40
0
 40
0
 40
1
 40
1
 40
1
 40
1
 10
55.733652
 20
157.101974
 30
0.0
 10
55.089284
 20
156.243728
 30
0.0
 10
54.952463
 20
155.106642
 30
0.0
 10
55.374850
 20
154.120038
 30
0.0
  0
SPLINE
  5
115
100
AcDbEntity
  8
Layer_1
 62
1
100
AcDbSpline
 70
8
 71
3
 72
8
 73
4
 74
0
 40
0
 40
0
 40
0
 40
0
 40
1
 40
1
 40
1
 40
1
 10
55.374850
 20
154.120038
 30
0.0
 10
55.797236
 20
153.133434
 30
0.0
 10
56.714481
 20
152.447616
 30
0.0
 10
57.780266
 20
152.321524
 30
0.0
  0
SPLINE
  5
116
100
AcDbEntity
  8
Layer_1
 62
1
100
AcDbSpline
 70
8
 71
3
 72
8
 73
4
 74
0
 40
0
 40
0
 40
0
 40
0
 40
1
 40
1
 40
1
 40
1
 10
57.780266
 20
152.321524
 30
0.0
 10
58.846051
 20
152.195431
 30
0.0
 10
59.898010
 20
152.648273
 30
0.0
 10
60.538962
 20
153.509074
 30
0.0
  0
LWPOLYLINE
  5
117
100
AcDbEntity
  8
Layer_1
 62
1
100
AcDbPolyline
 90
1
 70
1
 10
51.089232
 20
274.228454
 30
0.0
  0
SPLINE
  5
118
100
AcDbEntity
  8
Layer_1
 62
1
100
AcDbSpline
 70
8
 71
3
 72
8
 73
4
 74
0
 40
0
 40
0
 40
0
 40
0
 40
1
 40
1
 40
1
 40
1
 10
60.524792
 20
3.509054
 30
0.0
 10
61.166806
 20
4.367429
 30
0.0
 10
61.302057
 20
5.503132
 30
0.0
 10
60.879587
 20
6.488276
 30
0.0
  0
SPLINE
  5
119
100
AcDbEntity
  8
Layer_1
 62
1
100
AcDbSpline
 70
8
 71
3
 72
8
 73
4
 74
0
 40
0
 40
0
 40
0
 40
0
 40
1
 40
1
 40
1
 40
1
 10
60.879587
 20
6.488276
 30
0.0
 10
60.457116
 20
7.473420
 30
0.0
 10
59.541123
 20
8.158306
 30
0.0
 10
58.476715
 20
8.284898
 30
0.0
  0
SPLINE
  5
11a
100
AcDbEntity
  8
Layer_1
 62
1
100
AcDbSpline
 70
8
 71
3
 72
8
 73
4
 74
0
 40
0
 40
0
 40
0
 40
0
 40
1
 40
1
 40
1
 40
1
 10
58.476715
 20
8.284898
 30
0.0
 10
57.412307
 20
8.411489
 30
0.0
 10
56.361228
 20
7.960549
 30
0.0
 10
55.719482
 20
7.101974
 30
0.0
  0
SPLINE
  5
11b
100
AcDbEntity
  8
Layer_1
 62
1
100
AcDbSpline
 70
8
 71
3
 72
8
 73
4
 74
0
 40
0
 40
0
 40
0
 40
0
 40
1
 40
1
 40
1
 40
1
 10
55.719482
 20
7.101974
 30
0.0
 10
55.077468
 20
6.243599
 30
0.0
 10
54.942217
 20
5.107896
 30
0.0
 10
55.364687
 20
4.122752
 30
0.0
  0
SPLINE
  5
11c
100
AcDbEntity
  8
Layer_1
 62
1
100
AcDbSpline
 70
8
 71
3
 72
8
 73
4
 74
0
 40
0
 40
0
 40
0
 40
0
 40
1
 40
1
 40
1
 40
1
 10
55.364687
 20
4.122752
 30
0.0
 10
55.787158
 20
3.137608
 30
0.0
 10
56.703151
 20
2.452722
 30
0.0
 10
57.767559
 20
2.326130
 30
0.0
  0
SPLINE
  5
11d
100
AcDbEntity
  8
Layer_1
 62
1
100
AcDbSpline
 70
8
 71
3
 72
8
 73
4
 74
0
 40
0
 40
0
 40
0
 40
0
 40
1
 40
1
 40
1
 40
1
 10
57.767559
 20
2.326130
 30
0.0
 10
58.831967
 20
2.199539
 30
0.0
 10
59.883046
 20
2.650478
 30
0.0
 10
60.524792
 20
3.509054
 30
0.0
  0
LWPOLYLINE
  5
11e
100
AcDbEntity
  8
Layer_1
 62
1
100
AcDbPolyline
 90
1
 70
1
 10
60.538962
 20
153.509074
 30
0.0
  0
SPLINE
  5
11f
100
AcDbEntity
  8
Layer_1
 62
1
100
AcDbSpline
 70
8
 71
3
 72
8
 73
4
 74
0
 40
0
 40
0
 40
0
 40
0
 40
1
 40
1
 40
1
 40
1
 10
60.545992
 20
82.102014
 30
0.0
 10
61.191341
 20
81.243824
 30
0.0
 10
61.328817
 20
80.106163
 30
0.0
 10
60.906468
 20
79.118952
 30
0.0
  0
SPLINE
  5
120
100
AcDbEntity
  8
Layer_1
 62
1
100
AcDbSpline
 70
8
 71
3
 72
8
 73
4
 74
0
 40
0
 40
0
 40
0
 40
0
 40
1
 40
1
 40
1
 40
1
 10
60.906468
 20
79.118952
 30
0.0
 10
60.484119
 20
78.131740
 30
0.0
 10
59.566355
 20
77.445532
 30
0.0
 10
58.499998
 20
77.319645
 30
0.0
  0
SPLINE
  5
121
100
AcDbEntity
  8
Layer_1
 62
1
100
AcDbSpline
 70
8
 71
3
 72
8
 73
4
 74
0
 40
0
 40
0
 40
0
 40
0
 40
1
 40
1
 40
1
 40
1
 10
58.499998
 20
77.319645
 30
0.0
 10
57.433640
 20
77.193758
 30
0.0
 10
56.381314
 20
77.647390
 30
0.0
 10
55.740692
 20
78.509114
 30
0.0
  0
SPLINE
  5
122
100
AcDbEntity
  8
Layer_1
 62
1
100
AcDbSpline
 70
8
 71
3
 72
8
 73
4
 74
0
 40
0
 40
0
 40
0
 40
0
 40
1
 40
1
 40
1
 40
1
 10
55.740692
 20
78.509114
 30
0.0
 10
55.095343
 20
79.367304
 30
0.0
 10
54.957867
 20
80.504965
 30
0.0
 10
55.380216
 20
81.492176
 30
0.0
  0
SPLINE
  5
123
100
AcDbEntity
  8
Layer_1
 62
1
100
AcDbSpline
 70
8
 71
3
 72
8
 73
4
 74
0
 40
0
 40
0
 40
0
 40
0
 40
1
 40
1
 40
1
 40
1
 10
55.380216
 20
81.492176
 30
0.0
 10
55.802565
 20
82.479388
 30
0.0
 10
56.720329
 20
83.165595
 30
0.0
 10
57.786686
 20
83.291483
 30
0.0
  0
SPLINE
  5
124
100
AcDbEntity
  8
Layer_1
 62
1
100
AcDbSpline
 70
8
 71
3
 72
8
 73
4
 74
0
 40
0
 40
0
 40
0
 40
0
 40
1
 40
1
 40
1
 40
1
 10
57.786686
 20
83.291483
 30
0.0
 10
58.853044
 20
83.417370
 30
0.0
 10
59.905370
 20
82.963738
 30
0.0
 10
60.545992
 20
82.102014
 30
0.0
  0
LWPOLYLINE
  5
125
100
AcDbEntity
  8
Layer_1
 62
1
100
AcDbPolyline
 90
1
 70
1
 10
60.524792
 20
3.509054
 30
0.0
  0
SPLINE
  5
126
100
AcDbEntity
  8
Layer_1
 62
1
100
AcDbSpline
 70
8
 71
3
 72
8
 73
4
 74
0
 40
0
 40
0
 40
0
 40
0
 40
1
 40
1
 40
1
 40
1
 10
60.547422
 20
67.102034
 30
0.0
 10
61.189424
 20
66.243656
 30
0.0
 10
61.324665
 20
65.107959
 30
0.0
 10
60.902193
 20
64.122822
 30
0.0
  0
SPLINE
  5
127
100
AcDbEntity
  8
Layer_1
 62
1
100
AcDbSpline
 70
8
 71
3
 72
8
 73
4
 74
0
 40
0
 40
0
 40
0
 40
0
 40
1
 40
1
 40
1
 40
1
 10
60.902193
 20
64.122822
 30
0.0
 10
60.479721
 20
63.137685
 30
0.0
 10
59.563732
 20
62.452804
 30
0.0
 10
58.499330
 20
62.326210
 30
0.0
  0
SPLINE
  5
128
100
AcDbEntity
  8
Layer_1
 62
1
100
AcDbSpline
 70
8
 71
3
 72
8
 73
4
 74
0
 40
0
 40
0
 40
0
 40
0
 40
1
 40
1
 40
1
 40
1
 10
58.499330
 20
62.326210
 30
0.0
 10
57.434927
 20
62.199617
 30
0.0
 10
56.383852
 20
62.650548
 30
0.0
 10
55.742102
 20
63.509114
 30
0.0
  0
SPLINE
  5
129
100
AcDbEntity
  8
Layer_1
 62
1
100
AcDbSpline
 70
8
 71
3
 72
8
 73
4
 74
0
 40
0
 40
0
 40
0
 40
0
 40
1
 40
1
 40
1
 40
1
 10
55.742102
 20
63.509114
 30
0.0
 10
55.100100
 20
64.367492
 30
0.0
 10
54.964859
 20
65.503188
 30
0.0
 10
55.387331
 20
66.488326
 30
0.0
  0
SPLINE
  5
12a
100
AcDbEntity
  8
Layer_1
 62
1
100
AcDbSpline
 70
8
 71
3
 72
8
 73
4
 74
0
 40
0
 40
0
 40
0
 40
0
 40
1
 40
1
 40
1
 40
1
 10
55.387331
 20
66.488326
 30
0.0
 10
55.809803
 20
67.473463
 30
0.0
 10
56.725792
 20
68.158344
 30
0.0
 10
57.790194
 20
68.284938
 30
0.0
  0
SPLINE
  5
12b
100
AcDbEntity
  8
Layer_1
 62
1
100
AcDbSpline
 70
8
 71
3
 72
8
 73
4
 74
0
 40
0
 40
0
 40
0
 40
0
 40
1
 40
1
 40
1
 40
1
 10
57.790194
 20
68.284938
 30
0.0
 10
58.854597
 20
68.411531
 30
0.0
 10
59.905672
 20
67.960599
 30
0.0
 10
60.547422
 20
67.102034
 30
0.0
  0
LWPOLYLINE
  5
12c
100
AcDbEntity
  8
Layer_1
 62
1
100
AcDbPolyline
 90
1
 70
1
 10
60.545992
 20
82.102014
 30
0.0
  0
SPLINE
  5
12d
100
AcDbEntity
  8
Layer_1
 62
1
100
AcDbSpline
 70
8
 71
3
 72
8
 73
4
 74
0
 40
0
 40
0
 40
0
 40
0
 40
1
 40
1
 40
1
 40
1
 10
60.543622
 20
107.102014
 30
0.0
 10
61.189986
 20
106.243886
 30
0.0
 10
61.328142
 20
105.105634
 30
0.0
 10
60.905835
 20
104.117795
 30
0.0
  0
SPLINE
  5
12e
100
AcDbEntity
  8
Layer_1
 62
1
100
AcDbSpline
 70
8
 71
3
 72
8
 73
4
 74
0
 40
0
 40
0
 40
0
 40
0
 40
1
 40
1
 40
1
 40
1
 10
60.905835
 20
104.117795
 30
0.0
 10
60.483527
 20
103.129956
 30
0.0
 10
59.565230
 20
102.443345
 30
0.0
 10
58.498283
 20
102.317669
 30
0.0
  0
SPLINE
  5
12f
100
AcDbEntity
  8
Layer_1
 62
1
100
AcDbSpline
 70
8
 71
3
 72
8
 73
4
 74
0
 40
0
 40
0
 40
0
 40
0
 40
1
 40
1
 40
1
 40
1
 10
58.498283
 20
102.317669
 30
0.0
 10
57.431336
 20
102.191993
 30
0.0
 10
56.378633
 20
102.646438
 30
0.0
 10
55.738352
 20
103.509114
 30
0.0
  0
SPLINE
  5
130
100
AcDbEntity
  8
Layer_1
 62
1
100
AcDbSpline
 70
8
 71
3
 72
8
 73
4
 74
0
 40
0
 40
0
 40
0
 40
0
 40
1
 40
1
 40
1
 40
1
 10
55.738352
 20
103.509114
 30
0.0
 10
55.091988
 20
104.367242
 30
0.0
 10
54.953832
 20
105.505494
 30
0.0
 10
55.376139
 20
106.493333
 30
0.0
  0
SPLINE
  5
131
100
AcDbEntity
  8
Layer_1
 62
1
100
AcDbSpline
 70
8
 71
3
 72
8
 73
4
 74
0
 40
0
 40
0
 40
0
 40
0
 40
1
 40
1
 40
1
 40
1
 10
55.376139
 20
106.493333
 30
0.0
 10
55.798447
 20
107.481172
 30
0.0
 10
56.716744
 20
108.167783
 30
0.0
 10
57.783691
 20
108.293459
 30
0.0
  0
SPLINE
  5
132
100
AcDbEntity
  8
Layer_1
 62
1
100
AcDbSpline
 70
8
 71
3
 72
8
 73
4
 74
0
 40
0
 40
0
 40
0
 40
0
 40
1
 40
1
 40
1
 40
1
 10
57.783691
 20
108.293459
 30
0.0
 10
58.850638
 20
108.419135
 30
0.0
 10
59.903341
 20
107.964690
 30
0.0
 10
60.543622
 20
107.102014
 30
0.0
  0
LWPOLYLINE
  5
133
100
AcDbEntity
  8
Layer_1
 62
1
100
AcDbPolyline
 90
1
 70
1
 10
60.547422
 20
67.102034
 30
0.0
  0
LWPOLYLINE
  5
134
100
AcDbEntity
  8
Layer_1
 62
1
100
AcDbPolyline
 90
1
 70
1
 10
60.543622
 20
107.102014
 30
0.0
  0
LWPOLYLINE
  5
135
100
AcDbEntity
  8
Layer_1
 62
5
100
AcDbPolyline
 90
4
 70
0
 10
54.263481
 20
150.075061
 30
0.0
 10
54.556412
 20
150.221527
 30
0.0
 10
54.995810
 20
150.660924
 30
0.0
 10
54.995810
 20
147.585143
 30
0.0
  0
LWPOLYLINE
  5
136
100
AcDbEntity
  8
Layer_1
 62
5
100
AcDbPolyline
 90
2
 70
0
 10
59.243317
 20
151.246787
 30
0.0
 10
56.606933
 20
146.559883
 30
0.0
  0
LWPOLYLINE
  5
137
100
AcDbEntity
  8
Layer_1
 62
5
100
AcDbPolyline
 90
14
 70
0
 10
60.122112
 20
149.928595
 30
0.0
 10
60.122112
 20
150.075061
 30
0.0
 10
60.268577
 20
150.367992
 30
0.0
 10
60.415043
 20
150.514458
 30
0.0
 10
60.707974
 20
150.660924
 30
0.0
 10
61.293838
 20
150.660924
 30
0.0
 10
61.586769
 20
150.514458
 30
0.0
 10
61.733235
 20
150.367992
 30
0.0
 10
61.879701
 20
150.075061
 30
0.0
 10
61.879701
 20
149.782129
 30
0.0
 10
61.733235
 20
149.489198
 30
0.0
 10
61.440303
 20
149.049800
 30
0.0
 10
59.975646
 20
147.585143
 30
0.0
 10
62.026166
 20
147.585143
 30
0.0
  0
LWPOLYLINE
  5
138
100
AcDbEntity
  8
Layer_1
 62
5
100
AcDbPolyline
 90
4
 70
0
 10
54.259649
 20
99.568261
 30
0.0
 10
54.552580
 20
99.714727
 30
0.0
 10
54.991977
 20
100.154124
 30
0.0
 10
54.991977
 20
97.078343
 30
0.0
  0
LWPOLYLINE
  5
139
100
AcDbEntity
  8
Layer_1
 62
5
100
AcDbPolyline
 90
2
 70
0
 10
59.239484
 20
100.739987
 30
0.0
 10
56.603101
 20
96.053083
 30
0.0
  0
LWPOLYLINE
  5
13a
100
AcDbEntity
  8
Layer_1
 62
5
100
AcDbPolyline
 90
15
 70
0
 10
60.264744
 20
100.154124
 30
0.0
 10
61.875868
 20
100.154124
 30
0.0
 10
60.997073
 20
98.982398
 30
0.0
 10
61.436471
 20
98.982398
 30
0.0
 10
61.729402
 20
98.835932
 30
0.0
 10
61.875868
 20
98.689466
 30
0.0
 10
62.022334
 20
98.250069
 30
0.0
 10
62.022334
 20
97.957137
 30
0.0
 10
61.875868
 20
97.517740
 30
0.0
 10
61.582936
 20
97.224809
 30
0.0
 10
61.143539
 20
97.078343
 30
0.0
 10
60.704142
 20
97.078343
 30
0.0
 10
60.264744
 20
97.224809
 30
0.0
 10
60.118279
 20
97.371275
 30
0.0
 10
59.971813
 20
97.664206
 30
0.0
  0
LWPOLYLINE
  5
13b
100
AcDbEntity
  8
Layer_1
 62
5
100
AcDbPolyline
 90
4
 70
0
 10
54.186415
 20
75.100041
 30
0.0
 10
54.479347
 20
75.246507
 30
0.0
 10
54.918744
 20
75.685904
 30
0.0
 10
54.918744
 20
72.610123
 30
0.0
  0
LWPOLYLINE
  5
13c
100
AcDbEntity
  8
Layer_1
 62
5
100
AcDbPolyline
 90
2
 70
0
 10
59.166251
 20
76.271767
 30
0.0
 10
56.529867
 20
71.584863
 30
0.0
  0
LWPOLYLINE
  5
13d
100
AcDbEntity
  8
Layer_1
 62
5
100
AcDbPolyline
 90
3
 70
0
 10
61.363238
 20
75.685904
 30
0.0
 10
59.898580
 20
73.635383
 30
0.0
 10
62.095567
 20
73.635383
 30
0.0
  0
LWPOLYLINE
  5
13e
100
AcDbEntity
  8
Layer_1
 62
5
100
AcDbPolyline
 90
2
 70
0
 10
61.363238
 20
75.685904
 30
0.0
 10
61.363238
 20
72.610123
 30
0.0
  0
LWPOLYLINE
  5
13f
100
AcDbEntity
  8
Layer_1
 62
5
100
AcDbPolyline
 90
4
 70
0
 10
54.259653
 20
59.801861
 30
0.0
 10
54.552584
 20
59.948327
 30
0.0
 10
54.991981
 20
60.387724
 30
0.0
 10
54.991981
 20
57.311943
 30
0.0
  0
LWPOLYLINE
  5
140
100
AcDbEntity
  8
Layer_1
 62
5
100
AcDbPolyline
 90
2
 70
0
 10
59.239489
 20
60.973587
 30
0.0
 10
56.603105
 20
56.286683
 30
0.0
  0
SPLINE
  5
141
100
AcDbEntity
  8
Layer_1
 62
5
100
AcDbSpline
 70
8
 71
3
 72
8
 73
4
 74
0
 40
0
 40
0
 40
0
 40
0
 40
1
 40
1
 40
1
 40
1
 10
58.616842
 20
154.946234
 30
0.0
 10
58.745912
 20
155.117872
 30
0.0
 10
58.773407
 20
155.345404
 30
0.0
 10
58.688937
 20
155.542846
 30
0.0
  0
SPLINE
  5
142
100
AcDbEntity
  8
Layer_1
 62
5
100
AcDbSpline
 70
8
 71
3
 72
8
 73
4
 74
0
 40
0
 40
0
 40
0
 40
0
 40
1
 40
1
 40
1
 40
1
 10
58.688937
 20
155.542846
 30
0.0
 10
58.604467
 20
155.740289
 30
0.0
 10
58.420915
 20
155.877530
 30
0.0
 10
58.207643
 20
155.902708
 30
0.0
  0
SPLINE
  5
143
100
AcDbEntity
  8
Layer_1
 62
5
100
AcDbSpline
 70
8
 71
3
 72
8
 73
4
 74
0
 40
0
 40
0
 40
0
 40
0
 40
1
 40
1
 40
1
 40
1
 10
58.207643
 20
155.902708
 30
0.0
 10
57.994372
 20
155.927885
 30
0.0
 10
57.783906
 20
155.837159
 30
0.0
 10
57.655782
 20
155.664814
 30
0.0
  0
SPLINE
  5
144
100
AcDbEntity
  8
Layer_1
 62
5
100
AcDbSpline
 70
8
 71
3
 72
8
 73
4
 74
0
 40
0
 40
0
 40
0
 40
0
 40
1
 40
1
 40
1
 40
1
 10
57.655782
 20
155.664814
 30
0.0
 10
57.526712
 20
155.493176
 30
0.0
 10
57.499217
 20
155.265644
 30
0.0
 10
57.583687
 20
155.068202
 30
0.0
  0
SPLINE
  5
145
100
AcDbEntity
  8
Layer_1
 62
5
100
AcDbSpline
 70
8
 71
3
 72
8
 73
4
 74
0
 40
0
 40
0
 40
0
 40
0
 40
1
 40
1
 40
1
 40
1
 10
57.583687
 20
155.068202
 30
0.0
 10
57.668157
 20
154.870759
 30
0.0
 10
57.851709
 20
154.733518
 30
0.0
 10
58.064981
 20
154.708340
 30
0.0
  0
SPLINE
  5
146
100
AcDbEntity
  8
Layer_1
 62
5
100
AcDbSpline
 70
8
 71
3
 72
8
 73
4
 74
0
 40
0
 40
0
 40
0
 40
0
 40
1
 40
1
 40
1
 40
1
 10
58.064981
 20
154.708340
 30
0.0
 10
58.278252
 20
154.683163
 30
0.0
 10
58.488718
 20
154.773889
 30
0.0
 10
58.616842
 20
154.946234
 30
0.0
  0
LWPOLYLINE
  5
147
100
AcDbEntity
  8
Layer_1
 62
5
100
AcDbPolyline
 90
17
 70
0
 10
61.729407
 20
60.387724
 30
0.0
 10
60.264749
 20
60.387724
 30
0.0
 10
60.118283
 20
59.069532
 30
0.0
 10
60.264749
 20
59.215998
 30
0.0
 10
60.704146
 20
59.362464
 30
0.0
 10
61.143543
 20
59.362464
 30
0.0
 10
61.582941
 20
59.215998
 30
0.0
 10
61.875872
 20
58.923066
 30
0.0
 10
62.022338
 20
58.483669
 30
0.0
 10
62.022338
 20
58.190737
 30
0.0
 10
61.875872
 20
57.751340
 30
0.0
 10
61.582941
 20
57.458409
 30
0.0
 10
61.143543
 20
57.311943
 30
0.0
 10
60.704146
 20
57.311943
 30
0.0
 10
60.264749
 20
57.458409
 30
0.0
 10
60.118283
 20
57.604875
 30
0.0
 10
59.971818
 20
57.897806
 30
0.0
  0
SPLINE
  5
148
100
AcDbEntity
  8
Layer_1
 62
5
100
AcDbSpline
 70
8
 71
3
 72
8
 73
4
 74
0
 40
0
 40
0
 40
0
 40
0
 40
1
 40
1
 40
1
 40
1
 10
58.621522
 20
104.946254
 30
0.0
 10
58.750592
 20
105.117892
 30
0.0
 10
58.778087
 20
105.345424
 30
0.0
 10
58.693617
 20
105.542866
 30
0.0
  0
SPLINE
  5
149
100
AcDbEntity
  8
Layer_1
 62
5
100
AcDbSpline
 70
8
 71
3
 72
8
 73
4
 74
0
 40
0
 40
0
 40
0
 40
0
 40
1
 40
1
 40
1
 40
1
 10
58.693617
 20
105.542866
 30
0.0
 10
58.609147
 20
105.740309
 30
0.0
 10
58.425595
 20
105.877550
 30
0.0
 10
58.212323
 20
105.902728
 30
0.0
  0
SPLINE
  5
14a
100
AcDbEntity
  8
Layer_1
 62
5
100
AcDbSpline
 70
8
 71
3
 72
8
 73
4
 74
0
 40
0
 40
0
 40
0
 40
0
 40
1
 40
1
 40
1
 40
1
 10
58.212323
 20
105.902728
 30
0.0
 10
57.999052
 20
105.927905
 30
0.0
 10
57.788586
 20
105.837179
 30
0.0
 10
57.660462
 20
105.664834
 30
0.0
  0
SPLINE
  5
14b
100
AcDbEntity
  8
Layer_1
 62
5
100
AcDbSpline
 70
8
 71
3
 72
8
 73
4
 74
0
 40
0
 40
0
 40
0
 40
0
 40
1
 40
1
 40
1
 40
1
 10
57.660462
 20
105.664834
 30
0.0
 10
57.531392
 20
105.493196
 30
0.0
 10
57.503897
 20
105.265664
 30
0.0
 10
57.588367
 20
105.068222
 30
0.0
  0
SPLINE
  5
14c
100
AcDbEntity
  8
Layer_1
 62
5
100
AcDbSpline
 70
8
 71
3
 72
8
 73
4
 74
0
 40
0
 40
0
 40
0
 40
0
 40
1
 40
1
 40
1
 40
1
 10
57.588367
 20
105.068222
 30
0.0
 10
57.672837
 20
104.870779
 30
0.0
 10
57.856389
 20
104.733538
 30
0.0
 10
58.069661
 20
104.708360
 30
0.0
  0
SPLINE
  5
14d
100
AcDbEntity
  8
Layer_1
 62
5
100
AcDbSpline
 70
8
 71
3
 72
8
 73
4
 74
0
 40
0
 40
0
 40
0
 40
0
 40
1
 40
1
 40
1
 40
1
 10
58.069661
 20
104.708360
 30
0.0
 10
58.282932
 20
104.683183
 30
0.0
 10
58.493398
 20
104.773909
 30
0.0
 10
58.621522
 20
104.946254
 30
0.0
  0
LWPOLYLINE
  5
14e
100
AcDbEntity
  8
Layer_1
 62
5
100
AcDbPolyline
 90
1
 70
1
 10
58.616842
 20
154.946234
 30
0.0
  0
SPLINE
  5
14f
100
AcDbEntity
  8
Layer_1
 62
5
100
AcDbSpline
 70
8
 71
3
 72
8
 73
4
 74
0
 40
0
 40
0
 40
0
 40
0
 40
1
 40
1
 40
1
 40
1
 10
58.623872
 20
79.946274
 30
0.0
 10
58.752238
 20
80.117951
 30
0.0
 10
58.779264
 20
80.345069
 30
0.0
 10
58.694770
 20
80.542075
 30
0.0
  0
SPLINE
  5
150
100
AcDbEntity
  8
Layer_1
 62
5
100
AcDbSpline
 70
8
 71
3
 72
8
 73
4
 74
0
 40
0
 40
0
 40
0
 40
0
 40
1
 40
1
 40
1
 40
1
 10
58.694770
 20
80.542075
 30
0.0
 10
58.610276
 20
80.739081
 30
0.0
 10
58.427099
 20
80.876046
 30
0.0
 10
58.214240
 20
80.901375
 30
0.0
  0
SPLINE
  5
151
100
AcDbEntity
  8
Layer_1
 62
5
100
AcDbSpline
 70
8
 71
3
 72
8
 73
4
 74
0
 40
0
 40
0
 40
0
 40
0
 40
1
 40
1
 40
1
 40
1
 10
58.214240
 20
80.901375
 30
0.0
 10
58.001381
 20
80.926705
 30
0.0
 10
57.791178
 20
80.836551
 30
0.0
 10
57.662812
 20
80.664874
 30
0.0
  0
SPLINE
  5
152
100
AcDbEntity
  8
Layer_1
 62
5
100
AcDbSpline
 70
8
 71
3
 72
8
 73
4
 74
0
 40
0
 40
0
 40
0
 40
0
 40
1
 40
1
 40
1
 40
1
 10
57.662812
 20
80.664874
 30
0.0
 10
57.464376
 20
80.399485
 30
0.0
 10
57.518653
 20
80.023480
 30
0.0
 10
57.784042
 20
79.825044
 30
0.0
  0
SPLINE
  5
153
100
AcDbEntity
  8
Layer_1
 62
5
100
AcDbSpline
 70
8
 71
3
 72
8
 73
4
 74
0
 40
0
 40
0
 40
0
 40
0
 40
1
 40
1
 40
1
 40
1
 10
57.784042
 20
79.825044
 30
0.0
 10
58.049431
 20
79.626608
 30
0.0
 10
58.425436
 20
79.680885
 30
0.0
 10
58.623872
 20
79.946274
 30
0.0
  0
LWPOLYLINE
  5
154
100
AcDbEntity
  8
Layer_1
 62
5
100
AcDbPolyline
 90
1
 70
1
 10
58.621522
 20
104.946254
 30
0.0
  0
SPLINE
  5
155
100
AcDbEntity
  8
Layer_1
 62
5
100
AcDbSpline
 70
8
 71
3
 72
8
 73
4
 74
0
 40
0
 40
0
 40
0
 40
0
 40
1
 40
1
 40
1
 40
1
 10
58.625292
 20
64.946274
 30
0.0
 10
58.753658
 20
65.117951
 30
0.0
 10
58.780684
 20
65.345069
 30
0.0
 10
58.696190
 20
65.542075
 30
0.0
  0
SPLINE
  5
156
100
AcDbEntity
  8
Layer_1
 62
5
100
AcDbSpline
 70
8
 71
3
 72
8
 73
4
 74
0
 40
0
 40
0
 40
0
 40
0
 40
1
 40
1
 40
1
 40
1
 10
58.696190
 20
65.542075
 30
0.0
 10
58.611696
 20
65.739081
 30
0.0
 10
58.428519
 20
65.876046
 30
0.0
 10
58.215660
 20
65.901375
 30
0.0
  0
SPLINE
  5
157
100
AcDbEntity
  8
Layer_1
 62
5
100
AcDbSpline
 70
8
 71
3
 72
8
 73
4
 74
0
 40
0
 40
0
 40
0
 40
0
 40
1
 40
1
 40
1
 40
1
 10
58.215660
 20
65.901375
 30
0.0
 10
58.002801
 20
65.926705
 30
0.0
 10
57.792598
 20
65.836551
 30
0.0
 10
57.664232
 20
65.664874
 30
0.0
  0
SPLINE
  5
158
100
AcDbEntity
  8
Layer_1
 62
5
100
AcDbSpline
 70
8
 71
3
 72
8
 73
4
 74
0
 40
0
 40
0
 40
0
 40
0
 40
1
 40
1
 40
1
 40
1
 10
57.664232
 20
65.664874
 30
0.0
 10
57.535866
 20
65.493197
 30
0.0
 10
57.508840
 20
65.266079
 30
0.0
 10
57.593334
 20
65.069073
 30
0.0
  0
SPLINE
  5
159
100
AcDbEntity
  8
Layer_1
 62
5
100
AcDbSpline
 70
8
 71
3
 72
8
 73
4
 74
0
 40
0
 40
0
 40
0
 40
0
 40
1
 40
1
 40
1
 40
1
 10
57.593334
 20
65.069073
 30
0.0
 10
57.677828
 20
64.872067
 30
0.0
 10
57.861005
 20
64.735102
 30
0.0
 10
58.073864
 20
64.709773
 30
0.0
  0
SPLINE
  5
15a
100
AcDbEntity
  8
Layer_1
 62
5
100
AcDbSpline
 70
8
 71
3
 72
8
 73
4
 74
0
 40
0
 40
0
 40
0
 40
0
 40
1
 40
1
 40
1
 40
1
 10
58.073864
 20
64.709773
 30
0.0
 10
58.286723
 20
64.684443
 30
0.0
 10
58.496926
 20
64.774597
 30
0.0
 10
58.625292
 20
64.946274
 30
0.0
  0
LWPOLYLINE
  5
15b
100
AcDbEntity
  8
Layer_1
 62
5
100
AcDbPolyline
 90
1
 70
1
 10
58.623872
 20
79.946274
 30
0.0
  0
SPLINE
  5
15c
100
AcDbEntity
  8
Layer_1
 62
5
100
AcDbSpline
 70
8
 71
3
 72
8
 73
4
 74
0
 40
0
 40
0
 40
0
 40
0
 40
1
 40
1
 40
1
 40
1
 10
58.625292
 20
4.946214
 30
0.0
 10
58.753658
 20
5.117891
 30
0.0
 10
58.780684
 20
5.345009
 30
0.0
 10
58.696190
 20
5.542015
 30
0.0
  0
SPLINE
  5
15d
100
AcDbEntity
  8
Layer_1
 62
5
100
AcDbSpline
 70
8
 71
3
 72
8
 73
4
 74
0
 40
0
 40
0
 40
0
 40
0
 40
1
 40
1
 40
1
 40
1
 10
58.696190
 20
5.542015
 30
0.0
 10
58.611696
 20
5.739021
 30
0.0
 10
58.428519
 20
5.875986
 30
0.0
 10
58.215660
 20
5.901315
 30
0.0
  0
SPLINE
  5
15e
100
AcDbEntity
  8
Layer_1
 62
5
100
AcDbSpline
 70
8
 71
3
 72
8
 73
4
 74
0
 40
0
 40
0
 40
0
 40
0
 40
1
 40
1
 40
1
 40
1
 10
58.215660
 20
5.901315
 30
0.0
 10
58.002801
 20
5.926645
 30
0.0
 10
57.792598
 20
5.836491
 30
0.0
 10
57.664232
 20
5.664814
 30
0.0
  0
SPLINE
  5
15f
100
AcDbEntity
  8
Layer_1
 62
5
100
AcDbSpline
 70
8
 71
3
 72
8
 73
4
 74
0
 40
0
 40
0
 40
0
 40
0
 40
1
 40
1
 40
1
 40
1
 10
57.664232
 20
5.664814
 30
0.0
 10
57.535866
 20
5.493137
 30
0.0
 10
57.508840
 20
5.266019
 30
0.0
 10
57.593334
 20
5.069013
 30
0.0
  0
SPLINE
  5
160
100
AcDbEntity
  8
Layer_1
 62
5
100
AcDbSpline
 70
8
 71
3
 72
8
 73
4
 74
0
 40
0
 40
0
 40
0
 40
0
 40
1
 40
1
 40
1
 40
1
 10
57.593334
 20
5.069013
 30
0.0
 10
57.677828
 20
4.872007
 30
0.0
 10
57.861005
 20
4.735042
 30
0.0
 10
58.073864
 20
4.709713
 30
0.0
  0
SPLINE
  5
161
100
AcDbEntity
  8
Layer_1
 62
5
100
AcDbSpline
 70
8
 71
3
 72
8
 73
4
 74
0
 40
0
 40
0
 40
0
 40
0
 40
1
 40
1
 40
1
 40
1
 10
58.073864
 20
4.709713
 30
0.0
 10
58.286723
 20
4.684383
 30
0.0
 10
58.496926
 20
4.774537
 30
0.0
 10
58.625292
 20
4.946214
 30
0.0
  0
LWPOLYLINE
  5
162
100
AcDbEntity
  8
Layer_1
 62
5
100
AcDbPolyline
 90
1
 70
1
 10
58.625292
 20
64.946274
 30
0.0
  0
SPLINE
  5
163
100
AcDbEntity
  8
Layer_1
 62
5
100
AcDbSpline
 70
8
 71
3
 72
8
 73
4
 74
0
 40
0
 40
0
 40
0
 40
0
 40
1
 40
1
 40
1
 40
1
 10
50.128172
 20
274.947034
 30
0.0
 10
50.257242
 20
275.118672
 30
0.0
 10
50.284737
 20
275.346204
 30
0.0
 10
50.200267
 20
275.543646
 30
0.0
  0
SPLINE
  5
164
100
AcDbEntity
  8
Layer_1
 62
5
100
AcDbSpline
 70
8
 71
3
 72
8
 73
4
 74
0
 40
0
 40
0
 40
0
 40
0
 40
1
 40
1
 40
1
 40
1
 10
50.200267
 20
275.543646
 30
0.0
 10
50.115797
 20
275.741089
 30
0.0
 10
49.932245
 20
275.878330
 30
0.0
 10
49.718973
 20
275.903508
 30
0.0
  0
SPLINE
  5
165
100
AcDbEntity
  8
Layer_1
 62
5
100
AcDbSpline
 70
8
 71
3
 72
8
 73
4
 74
0
 40
0
 40
0
 40
0
 40
0
 40
1
 40
1
 40
1
 40
1
 10
49.718973
 20
275.903508
 30
0.0
 10
49.505702
 20
275.928685
 30
0.0
 10
49.295236
 20
275.837959
 30
0.0
 10
49.167112
 20
275.665614
 30
0.0
  0
SPLINE
  5
166
100
AcDbEntity
  8
Layer_1
 62
5
100
AcDbSpline
 70
8
 71
3
 72
8
 73
4
 74
0
 40
0
 40
0
 40
0
 40
0
 40
1
 40
1
 40
1
 40
1
 10
49.167112
 20
275.665614
 30
0.0
 10
49.038042
 20
275.493976
 30
0.0
 10
49.010547
 20
275.266444
 30
0.0
 10
49.095017
 20
275.069002
 30
0.0
  0
SPLINE
  5
167
100
AcDbEntity
  8
Layer_1
 62
5
100
AcDbSpline
 70
8
 71
3
 72
8
 73
4
 74
0
 40
0
 40
0
 40
0
 40
0
 40
1
 40
1
 40
1
 40
1
 10
49.095017
 20
275.069002
 30
0.0
 10
49.179487
 20
274.871559
 30
0.0
 10
49.363039
 20
274.734318
 30
0.0
 10
49.576311
 20
274.709140
 30
0.0
  0
SPLINE
  5
168
100
AcDbEntity
  8
Layer_1
 62
5
100
AcDbSpline
 70
8
 71
3
 72
8
 73
4
 74
0
 40
0
 40
0
 40
0
 40
0
 40
1
 40
1
 40
1
 40
1
 10
49.576311
 20
274.709140
 30
0.0
 10
49.789582
 20
274.683963
 30
0.0
 10
50.000048
 20
274.774689
 30
0.0
 10
50.128172
 20
274.947034
 30
0.0
  0
LWPOLYLINE
  5
169
100
AcDbEntity
  8
Layer_1
 62
5
100
AcDbPolyline
 90
1
 70
1
 10
58.625292
 20
4.946214
 30
0.0
  0
SPLINE
  5
16a
100
AcDbEntity
  8
Layer_1
 62
5
100
AcDbSpline
 70
8
 71
3
 72
8
 73
4
 74
0
 40
0
 40
0
 40
0
 40
0
 40
1
 40
1
 40
1
 40
1
 10
67.128162
 20
274.947034
 30
0.0
 10
67.257232
 20
275.118672
 30
0.0
 10
67.284727
 20
275.346204
 30
0.0
 10
67.200257
 20
275.543646
 30
0.0
  0
SPLINE
  5
16b
100
AcDbEntity
  8
Layer_1
 62
5
100
AcDbSpline
 70
8
 71
3
 72
8
 73
4
 74
0
 40
0
 40
0
 40
0
 40
0
 40
1
 40
1
 40
1
 40
1
 10
67.200257
 20
275.543646
 30
0.0
 10
67.115787
 20
275.741089
 30
0.0
 10
66.932235
 20
275.878330
 30
0.0
 10
66.718963
 20
275.903508
 30
0.0
  0
SPLINE
  5
16c
100
AcDbEntity
  8
Layer_1
 62
5
100
AcDbSpline
 70
8
 71
3
 72
8
 73
4
 74
0
 40
0
 40
0
 40
0
 40
0
 40
1
 40
1
 40
1
 40
1
 10
66.718963
 20
275.903508
 30
0.0
 10
66.505692
 20
275.928685
 30
0.0
 10
66.295226
 20
275.837959
 30
0.0
 10
66.167102
 20
275.665614
 30
0.0
  0
SPLINE
  5
16d
100
AcDbEntity
  8
Layer_1
 62
5
100
AcDbSpline
 70
8
 71
3
 72
8
 73
4
 74
0
 40
0
 40
0
 40
0
 40
0
 40
1
 40
1
 40
1
 40
1
 10
66.167102
 20
275.665614
 30
0.0
 10
66.038032
 20
275.493976
 30
0.0
 10
66.010537
 20
275.266444
 30
0.0
 10
66.095007
 20
275.069002
 30
0.0
  0
SPLINE
  5
16e
100
AcDbEntity
  8
Layer_1
 62
5
100
AcDbSpline
 70
8
 71
3
 72
8
 73
4
 74
0
 40
0
 40
0
 40
0
 40
0
 40
1
 40
1
 40
1
 40
1
 10
66.095007
 20
275.069002
 30
0.0
 10
66.179477
 20
274.871559
 30
0.0
 10
66.363029
 20
274.734318
 30
0.0
 10
66.576301
 20
274.709140
 30
0.0
  0
SPLINE
  5
16f
100
AcDbEntity
  8
Layer_1
 62
5
100
AcDbSpline
 70
8
 71
3
 72
8
 73
4
 74
0
 40
0
 40
0
 40
0
 40
0
 40
1
 40
1
 40
1
 40
1
 10
66.576301
 20
274.709140
 30
0.0
 10
66.789572
 20
274.683963
 30
0.0
 10
67.000038
 20
274.774689
 30
0.0
 10
67.128162
 20
274.947034
 30
0.0
  0
LWPOLYLINE
  5
170
100
AcDbEntity
  8
Layer_1
 62
5
100
AcDbPolyline
 90
1
 70
1
 10
50.128172
 20
274.947034
 30
0.0
  0
SPLINE
  5
171
100
AcDbEntity
  8
Layer_1
 62
1
100
AcDbSpline
 70
8
 71
3
 72
8
 73
4
 74
0
 40
0
 40
0
 40
0
 40
0
 40
1
 40
1
 40
1
 40
1
 10
126.912620
 20
153.509074
 30
0.0
 10
127.556988
 20
154.367320
 30
0.0
 10
127.693809
 20
155.504406
 30
0.0
 10
127.271422
 20
156.491010
 30
0.0
  0
SPLINE
  5
172
100
AcDbEntity
  8
Layer_1
 62
1
100
AcDbSpline
 70
8
 71
3
 72
8
 73
4
 74
0
 40
0
 40
0
 40
0
 40
0
 40
1
 40
1
 40
1
 40
1
 10
127.271422
 20
156.491010
 30
0.0
 10
126.849036
 20
157.477614
 30
0.0
 10
125.931791
 20
158.163432
 30
0.0
 10
124.866006
 20
158.289524
 30
0.0
  0
SPLINE
  5
173
100
AcDbEntity
  8
Layer_1
 62
1
100
AcDbSpline
 70
8
 71
3
 72
8
 73
4
 74
0
 40
0
 40
0
 40
0
 40
0
 40
1
 40
1
 40
1
 40
1
 10
124.866006
 20
158.289524
 30
0.0
 10
123.800221
 20
158.415617
 30
0.0
 10
122.748262
 20
157.962775
 30
0.0
 10
122.107310
 20
157.101974
 30
0.0
  0
SPLINE
  5
174
100
AcDbEntity
  8
Layer_1
 62
1
100
AcDbSpline
 70
8
 71
3
 72
8
 73
4
 74
0
 40
0
 40
0
 40
0
 40
0
 40
1
 40
1
 40
1
 40
1
 10
122.107310
 20
157.101974
 30
0.0
 10
121.462942
 20
156.243728
 30
0.0
 10
121.326121
 20
155.106642
 30
0.0
 10
121.748508
 20
154.120038
 30
0.0
  0
SPLINE
  5
175
100
AcDbEntity
  8
Layer_1
 62
1
100
AcDbSpline
 70
8
 71
3
 72
8
 73
4
 74
0
 40
0
 40
0
 40
0
 40
0
 40
1
 40
1
 40
1
 40
1
 10
121.748508
 20
154.120038
 30
0.0
 10
122.170894
 20
153.133434
 30
0.0
 10
123.088139
 20
152.447616
 30
0.0
 10
124.153924
 20
152.321524
 30
0.0
  0
SPLINE
  5
176
100
AcDbEntity
  8
Layer_1
 62
1
100
AcDbSpline
 70
8
 71
3
 72
8
 73
4
 74
0
 40
0
 40
0
 40
0
 40
0
 40
1
 40
1
 40
1
 40
1
 10
124.153924
 20
152.321524
 30
0.0
 10
125.219709
 20
152.195431
 30
0.0
 10
126.271668
 20
152.648273
 30
0.0
 10
126.912620
 20
153.509074
 30
0.0
  0
LWPOLYLINE
  5
177
100
AcDbEntity
  8
Layer_1
 62
5
100
AcDbPolyline
 90
1
 70
1
 10
67.128162
 20
274.947034
 30
0.0
  0
LWPOLYLINE
  5
178
100
AcDbEntity
  8
Layer_1
 62
1
100
AcDbPolyline
 90
1
 70
1
 10
126.912620
 20
153.509074
 30
0.0
  0
SPLINE
  5
179
100
AcDbEntity
  8
Layer_1
 62
7
100
AcDbSpline
 70
8
 71
3
 72
8
 73
4
 74
0
 40
0
 40
0
 40
0
 40
0
 40
1
 40
1
 40
1
 40
1
 10
106.309030
 20
5.304914
 30
0.0
 10
106.308030
 20
-2.979366
 30
0.0
 10
99.591298
 20
-9.694186
 30
0.0
 10
91.307023
 20
-9.693086
 30
0.0
  0
SPLINE
  5
17a
100
AcDbEntity
  8
Layer_1
 62
7
100
AcDbSpline
 70
8
 71
3
 72
8
 73
4
 74
0
 40
0
 40
0
 40
0
 40
0
 40
1
 40
1
 40
1
 40
1
 10
91.307023
 20
-9.693086
 30
0.0
 10
83.022748
 20
-9.692086
 30
0.0
 10
76.307911
 20
-2.975366
 30
0.0
 10
76.309016
 20
5.308914
 30
0.0
  0
LWPOLYLINE
  5
17b
100
AcDbEntity
  8
Layer_1
 62
7
100
AcDbPolyline
 90
3
 70
0
 10
76.335416
 20
285.306934
 30
0.0
 10
106.335430
 20
285.304934
 30
0.0
 10
106.309030
 20
5.304914
 30
0.0
  0
SPLINE
  5
17c
100
AcDbEntity
  8
Layer_1
 62
1
100
AcDbSpline
 70
8
 71
3
 72
8
 73
4
 74
0
 40
0
 40
0
 40
0
 40
0
 40
1
 40
1
 40
1
 40
1
 10
101.276060
 20
274.226834
 30
0.0
 10
101.661327
 20
274.741856
 30
0.0
 10
101.742517
 20
275.423311
 30
0.0
 10
101.489038
 20
276.014434
 30
0.0
  0
SPLINE
  5
17d
100
AcDbEntity
  8
Layer_1
 62
1
100
AcDbSpline
 70
8
 71
3
 72
8
 73
4
 74
0
 40
0
 40
0
 40
0
 40
0
 40
1
 40
1
 40
1
 40
1
 10
101.489038
 20
276.014434
 30
0.0
 10
101.235559
 20
276.605557
 30
0.0
 10
100.685933
 20
277.016513
 30
0.0
 10
100.047254
 20
277.092457
 30
0.0
  0
SPLINE
  5
17e
100
AcDbEntity
  8
Layer_1
 62
1
100
AcDbSpline
 70
8
 71
3
 72
8
 73
4
 74
0
 40
0
 40
0
 40
0
 40
0
 40
1
 40
1
 40
1
 40
1
 10
100.047254
 20
277.092457
 30
0.0
 10
99.408576
 20
277.168401
 30
0.0
 10
98.777906
 20
276.897793
 30
0.0
 10
98.392876
 20
276.382594
 30
0.0
  0
SPLINE
  5
17f
100
AcDbEntity
  8
Layer_1
 62
1
100
AcDbSpline
 70
8
 71
3
 72
8
 73
4
 74
0
 40
0
 40
0
 40
0
 40
0
 40
1
 40
1
 40
1
 40
1
 10
98.392876
 20
276.382594
 30
0.0
 10
98.007609
 20
275.867572
 30
0.0
 10
97.926419
 20
275.186117
 30
0.0
 10
98.179898
 20
274.594994
 30
0.0
  0
SPLINE
  5
180
100
AcDbEntity
  8
Layer_1
 62
1
100
AcDbSpline
 70
8
 71
3
 72
8
 73
4
 74
0
 40
0
 40
0
 40
0
 40
0
 40
1
 40
1
 40
1
 40
1
 10
98.179898
 20
274.594994
 30
0.0
 10
98.433377
 20
274.003871
 30
0.0
 10
98.983003
 20
273.592915
 30
0.0
 10
99.621682
 20
273.516971
 30
0.0
  0
SPLINE
  5
181
100
AcDbEntity
  8
Layer_1
 62
1
100
AcDbSpline
 70
8
 71
3
 72
8
 73
4
 74
0
 40
0
 40
0
 40
0
 40
0
 40
1
 40
1
 40
1
 40
1
 10
99.621682
 20
273.516971
 30
0.0
 10
100.260360
 20
273.441027
 30
0.0
 10
100.891030
 20
273.711635
 30
0.0
 10
101.276060
 20
274.226834
 30
0.0
  0
LWPOLYLINE
  5
182
100
AcDbEntity
  8
Layer_1
 62
7
100
AcDbPolyline
 90
2
 70
0
 10
76.309016
 20
5.308914
 30
0.0
 10
76.335416
 20
285.306934
 30
0.0
  0
SPLINE
  5
183
100
AcDbEntity
  8
Layer_1
 62
1
100
AcDbSpline
 70
8
 71
3
 72
8
 73
4
 74
0
 40
0
 40
0
 40
0
 40
0
 40
1
 40
1
 40
1
 40
1
 10
84.276076
 20
274.228454
 30
0.0
 10
84.662432
 20
274.743417
 30
0.0
 10
84.744346
 20
275.425513
 30
0.0
 10
84.490904
 20
276.017311
 30
0.0
  0
SPLINE
  5
184
100
AcDbEntity
  8
Layer_1
 62
1
100
AcDbSpline
 70
8
 71
3
 72
8
 73
4
 74
0
 40
0
 40
0
 40
0
 40
0
 40
1
 40
1
 40
1
 40
1
 10
84.490904
 20
276.017311
 30
0.0
 10
84.237462
 20
276.609109
 30
0.0
 10
83.687256
 20
277.020495
 30
0.0
 10
83.047939
 20
277.096206
 30
0.0
  0
SPLINE
  5
185
100
AcDbEntity
  8
Layer_1
 62
1
100
AcDbSpline
 70
8
 71
3
 72
8
 73
4
 74
0
 40
0
 40
0
 40
0
 40
0
 40
1
 40
1
 40
1
 40
1
 10
83.047939
 20
277.096206
 30
0.0
 10
82.408623
 20
277.171917
 30
0.0
 10
81.777546
 20
276.900425
 30
0.0
 10
81.392886
 20
276.384194
 30
0.0
  0
SPLINE
  5
186
100
AcDbEntity
  8
Layer_1
 62
1
100
AcDbSpline
 70
8
 71
3
 72
8
 73
4
 74
0
 40
0
 40
0
 40
0
 40
0
 40
1
 40
1
 40
1
 40
1
 10
81.392886
 20
276.384194
 30
0.0
 10
81.006530
 20
275.869231
 30
0.0
 10
80.924616
 20
275.187135
 30
0.0
 10
81.178058
 20
274.595337
 30
0.0
  0
SPLINE
  5
187
100
AcDbEntity
  8
Layer_1
 62
1
100
AcDbSpline
 70
8
 71
3
 72
8
 73
4
 74
0
 40
0
 40
0
 40
0
 40
0
 40
1
 40
1
 40
1
 40
1
 10
81.178058
 20
274.595337
 30
0.0
 10
81.431500
 20
274.003539
 30
0.0
 10
81.981706
 20
273.592153
 30
0.0
 10
82.621023
 20
273.516442
 30
0.0
  0
SPLINE
  5
188
100
AcDbEntity
  8
Layer_1
 62
1
100
AcDbSpline
 70
8
 71
3
 72
8
 73
4
 74
0
 40
0
 40
0
 40
0
 40
0
 40
1
 40
1
 40
1
 40
1
 10
82.621023
 20
273.516442
 30
0.0
 10
83.260339
 20
273.440731
 30
0.0
 10
83.891416
 20
273.712223
 30
0.0
 10
84.276076
 20
274.228454
 30
0.0
  0
LWPOLYLINE
  5
189
100
AcDbEntity
  8
Layer_1
 62
1
100
AcDbPolyline
 90
1
 70
1
 10
101.276060
 20
274.226834
 30
0.0
  0
SPLINE
  5
18a
100
AcDbEntity
  8
Layer_1
 62
1
100
AcDbSpline
 70
8
 71
3
 72
8
 73
4
 74
0
 40
0
 40
0
 40
0
 40
0
 40
1
 40
1
 40
1
 40
1
 10
93.730506
 20
203.509074
 30
0.0
 10
94.375761
 20
204.367267
 30
0.0
 10
94.513175
 20
205.504871
 30
0.0
 10
94.090824
 20
206.492023
 30
0.0
  0
SPLINE
  5
18b
100
AcDbEntity
  8
Layer_1
 62
1
100
AcDbSpline
 70
8
 71
3
 72
8
 73
4
 74
0
 40
0
 40
0
 40
0
 40
0
 40
1
 40
1
 40
1
 40
1
 10
94.090824
 20
206.492023
 30
0.0
 10
93.668473
 20
207.479175
 30
0.0
 10
92.750761
 20
208.165345
 30
0.0
 10
91.684460
 20
208.291253
 30
0.0
  0
SPLINE
  5
18c
100
AcDbEntity
  8
Layer_1
 62
1
100
AcDbSpline
 70
8
 71
3
 72
8
 73
4
 74
0
 40
0
 40
0
 40
0
 40
0
 40
1
 40
1
 40
1
 40
1
 10
91.684460
 20
208.291253
 30
0.0
 10
90.618160
 20
208.417161
 30
0.0
 10
89.565870
 20
207.963607
 30
0.0
 10
88.925216
 20
207.101974
 30
0.0
  0
SPLINE
  5
18d
100
AcDbEntity
  8
Layer_1
 62
1
100
AcDbSpline
 70
8
 71
3
 72
8
 73
4
 74
0
 40
0
 40
0
 40
0
 40
0
 40
1
 40
1
 40
1
 40
1
 10
88.925216
 20
207.101974
 30
0.0
 10
88.279961
 20
206.243781
 30
0.0
 10
88.142547
 20
205.106177
 30
0.0
 10
88.564898
 20
204.119025
 30
0.0
  0
SPLINE
  5
18e
100
AcDbEntity
  8
Layer_1
 62
1
100
AcDbSpline
 70
8
 71
3
 72
8
 73
4
 74
0
 40
0
 40
0
 40
0
 40
0
 40
1
 40
1
 40
1
 40
1
 10
88.564898
 20
204.119025
 30
0.0
 10
88.987249
 20
203.131873
 30
0.0
 10
89.904961
 20
202.445703
 30
0.0
 10
90.971262
 20
202.319795
 30
0.0
  0
SPLINE
  5
18f
100
AcDbEntity
  8
Layer_1
 62
1
100
AcDbSpline
 70
8
 71
3
 72
8
 73
4
 74
0
 40
0
 40
0
 40
0
 40
0
 40
1
 40
1
 40
1
 40
1
 10
90.971262
 20
202.319795
 30
0.0
 10
92.037562
 20
202.193887
 30
0.0
 10
93.089852
 20
202.647441
 30
0.0
 10
93.730506
 20
203.509074
 30
0.0
  0
LWPOLYLINE
  5
190
100
AcDbEntity
  8
Layer_1
 62
1
100
AcDbPolyline
 90
1
 70
1
 10
84.276076
 20
274.228454
 30
0.0
  0
SPLINE
  5
191
100
AcDbEntity
  8
Layer_1
 62
1
100
AcDbSpline
 70
8
 71
3
 72
8
 73
4
 74
0
 40
0
 40
0
 40
0
 40
0
 40
1
 40
1
 40
1
 40
1
 10
93.734316
 20
243.509074
 30
0.0
 10
94.376318
 20
244.367452
 30
0.0
 10
94.511559
 20
245.503148
 30
0.0
 10
94.089087
 20
246.488286
 30
0.0
  0
SPLINE
  5
192
100
AcDbEntity
  8
Layer_1
 62
1
100
AcDbSpline
 70
8
 71
3
 72
8
 73
4
 74
0
 40
0
 40
0
 40
0
 40
0
 40
1
 40
1
 40
1
 40
1
 10
94.089087
 20
246.488286
 30
0.0
 10
93.666615
 20
247.473423
 30
0.0
 10
92.750626
 20
248.158304
 30
0.0
 10
91.686224
 20
248.284898
 30
0.0
  0
SPLINE
  5
193
100
AcDbEntity
  8
Layer_1
 62
1
100
AcDbSpline
 70
8
 71
3
 72
8
 73
4
 74
0
 40
0
 40
0
 40
0
 40
0
 40
1
 40
1
 40
1
 40
1
 10
91.686224
 20
248.284898
 30
0.0
 10
90.621821
 20
248.411491
 30
0.0
 10
89.570746
 20
247.960559
 30
0.0
 10
88.928996
 20
247.101994
 30
0.0
  0
SPLINE
  5
194
100
AcDbEntity
  8
Layer_1
 62
1
100
AcDbSpline
 70
8
 71
3
 72
8
 73
4
 74
0
 40
0
 40
0
 40
0
 40
0
 40
1
 40
1
 40
1
 40
1
 10
88.928996
 20
247.101994
 30
0.0
 10
88.286994
 20
246.243616
 30
0.0
 10
88.151753
 20
245.107919
 30
0.0
 10
88.574225
 20
244.122782
 30
0.0
  0
SPLINE
  5
195
100
AcDbEntity
  8
Layer_1
 62
1
100
AcDbSpline
 70
8
 71
3
 72
8
 73
4
 74
0
 40
0
 40
0
 40
0
 40
0
 40
1
 40
1
 40
1
 40
1
 10
88.574225
 20
244.122782
 30
0.0
 10
88.996697
 20
243.137645
 30
0.0
 10
89.912686
 20
242.452764
 30
0.0
 10
90.977088
 20
242.326170
 30
0.0
  0
SPLINE
  5
196
100
AcDbEntity
  8
Layer_1
 62
1
100
AcDbSpline
 70
8
 71
3
 72
8
 73
4
 74
0
 40
0
 40
0
 40
0
 40
0
 40
1
 40
1
 40
1
 40
1
 10
90.977088
 20
242.326170
 30
0.0
 10
92.041491
 20
242.199577
 30
0.0
 10
93.092566
 20
242.650508
 30
0.0
 10
93.734316
 20
243.509074
 30
0.0
  0
LWPOLYLINE
  5
197
100
AcDbEntity
  8
Layer_1
 62
1
100
AcDbPolyline
 90
1
 70
1
 10
93.730506
 20
203.509074
 30
0.0
  0
SPLINE
  5
198
100
AcDbEntity
  8
Layer_1
 62
1
100
AcDbSpline
 70
8
 71
3
 72
8
 73
4
 74
0
 40
0
 40
0
 40
0
 40
0
 40
1
 40
1
 40
1
 40
1
 10
93.732896
 20
228.509054
 30
0.0
 10
94.374898
 20
229.367432
 30
0.0
 10
94.510139
 20
230.503128
 30
0.0
 10
94.087667
 20
231.488266
 30
0.0
  0
SPLINE
  5
199
100
AcDbEntity
  8
Layer_1
 62
1
100
AcDbSpline
 70
8
 71
3
 72
8
 73
4
 74
0
 40
0
 40
0
 40
0
 40
0
 40
1
 40
1
 40
1
 40
1
 10
94.087667
 20
231.488266
 30
0.0
 10
93.665195
 20
232.473403
 30
0.0
 10
92.749206
 20
233.158284
 30
0.0
 10
91.684804
 20
233.284878
 30
0.0
  0
SPLINE
  5
19a
100
AcDbEntity
  8
Layer_1
 62
1
100
AcDbSpline
 70
8
 71
3
 72
8
 73
4
 74
0
 40
0
 40
0
 40
0
 40
0
 40
1
 40
1
 40
1
 40
1
 10
91.684804
 20
233.284878
 30
0.0
 10
90.620401
 20
233.411471
 30
0.0
 10
89.569326
 20
232.960539
 30
0.0
 10
88.927576
 20
232.101974
 30
0.0
  0
SPLINE
  5
19b
100
AcDbEntity
  8
Layer_1
 62
1
100
AcDbSpline
 70
8
 71
3
 72
8
 73
4
 74
0
 40
0
 40
0
 40
0
 40
0
 40
1
 40
1
 40
1
 40
1
 10
88.927576
 20
232.101974
 30
0.0
 10
88.285574
 20
231.243596
 30
0.0
 10
88.150333
 20
230.107899
 30
0.0
 10
88.572805
 20
229.122762
 30
0.0
  0
SPLINE
  5
19c
100
AcDbEntity
  8
Layer_1
 62
1
100
AcDbSpline
 70
8
 71
3
 72
8
 73
4
 74
0
 40
0
 40
0
 40
0
 40
0
 40
1
 40
1
 40
1
 40
1
 10
88.572805
 20
229.122762
 30
0.0
 10
88.995277
 20
228.137625
 30
0.0
 10
89.911266
 20
227.452744
 30
0.0
 10
90.975668
 20
227.326150
 30
0.0
  0
SPLINE
  5
19d
100
AcDbEntity
  8
Layer_1
 62
1
100
AcDbSpline
 70
8
 71
3
 72
8
 73
4
 74
0
 40
0
 40
0
 40
0
 40
0
 40
1
 40
1
 40
1
 40
1
 10
90.975668
 20
227.326150
 30
0.0
 10
92.040071
 20
227.199557
 30
0.0
 10
93.091146
 20
227.650488
 30
0.0
 10
93.732896
 20
228.509054
 30
0.0
  0
LWPOLYLINE
  5
19e
100
AcDbEntity
  8
Layer_1
 62
1
100
AcDbPolyline
 90
1
 70
1
 10
93.734316
 20
243.509074
 30
0.0
  0
SPLINE
  5
19f
100
AcDbEntity
  8
Layer_1
 62
1
100
AcDbSpline
 70
8
 71
3
 72
8
 73
4
 74
0
 40
0
 40
0
 40
0
 40
0
 40
1
 40
1
 40
1
 40
1
 10
93.725796
 20
153.509074
 30
0.0
 10
94.370712
 20
154.367288
 30
0.0
 10
94.507899
 20
155.504694
 30
0.0
 10
94.085534
 20
156.491637
 30
0.0
  0
SPLINE
  5
1a0
100
AcDbEntity
  8
Layer_1
 62
1
100
AcDbSpline
 70
8
 71
3
 72
8
 73
4
 74
0
 40
0
 40
0
 40
0
 40
0
 40
1
 40
1
 40
1
 40
1
 10
94.085534
 20
156.491637
 30
0.0
 10
93.663169
 20
157.478580
 30
0.0
 10
92.745635
 20
158.164615
 30
0.0
 10
91.679531
 20
158.290594
 30
0.0
  0
SPLINE
  5
1a1
100
AcDbEntity
  8
Layer_1
 62
1
100
AcDbSpline
 70
8
 71
3
 72
8
 73
4
 74
0
 40
0
 40
0
 40
0
 40
0
 40
1
 40
1
 40
1
 40
1
 10
91.679531
 20
158.290594
 30
0.0
 10
90.613428
 20
158.416572
 30
0.0
 10
89.561264
 20
157.963290
 30
0.0
 10
88.920496
 20
157.101974
 30
0.0
  0
SPLINE
  5
1a2
100
AcDbEntity
  8
Layer_1
 62
1
100
AcDbSpline
 70
8
 71
3
 72
8
 73
4
 74
0
 40
0
 40
0
 40
0
 40
0
 40
1
 40
1
 40
1
 40
1
 10
88.920496
 20
157.101974
 30
0.0
 10
88.275580
 20
156.243760
 30
0.0
 10
88.138393
 20
155.106354
 30
0.0
 10
88.560758
 20
154.119411
 30
0.0
  0
SPLINE
  5
1a3
100
AcDbEntity
  8
Layer_1
 62
1
100
AcDbSpline
 70
8
 71
3
 72
8
 73
4
 74
0
 40
0
 40
0
 40
0
 40
0
 40
1
 40
1
 40
1
 40
1
 10
88.560758
 20
154.119411
 30
0.0
 10
88.983123
 20
153.132468
 30
0.0
 10
89.900657
 20
152.446433
 30
0.0
 10
90.966761
 20
152.320454
 30
0.0
  0
SPLINE
  5
1a4
100
AcDbEntity
  8
Layer_1
 62
1
100
AcDbSpline
 70
8
 71
3
 72
8
 73
4
 74
0
 40
0
 40
0
 40
0
 40
0
 40
1
 40
1
 40
1
 40
1
 10
90.966761
 20
152.320454
 30
0.0
 10
92.032864
 20
152.194476
 30
0.0
 10
93.085028
 20
152.647758
 30
0.0
 10
93.725796
 20
153.509074
 30
0.0
  0
LWPOLYLINE
  5
1a5
100
AcDbEntity
  8
Layer_1
 62
1
100
AcDbPolyline
 90
1
 70
1
 10
93.732896
 20
228.509054
 30
0.0
  0
SPLINE
  5
1a6
100
AcDbEntity
  8
Layer_1
 62
5
100
AcDbSpline
 70
8
 71
3
 72
8
 73
4
 74
0
 40
0
 40
0
 40
0
 40
0
 40
1
 40
1
 40
1
 40
1
 10
91.812186
 20
244.946234
 30
0.0
 10
91.941256
 20
245.117872
 30
0.0
 10
91.968751
 20
245.345404
 30
0.0
 10
91.884281
 20
245.542846
 30
0.0
  0
SPLINE
  5
1a7
100
AcDbEntity
  8
Layer_1
 62
5
100
AcDbSpline
 70
8
 71
3
 72
8
 73
4
 74
0
 40
0
 40
0
 40
0
 40
0
 40
1
 40
1
 40
1
 40
1
 10
91.884281
 20
245.542846
 30
0.0
 10
91.799811
 20
245.740289
 30
0.0
 10
91.616259
 20
245.877530
 30
0.0
 10
91.402987
 20
245.902708
 30
0.0
  0
SPLINE
  5
1a8
100
AcDbEntity
  8
Layer_1
 62
5
100
AcDbSpline
 70
8
 71
3
 72
8
 73
4
 74
0
 40
0
 40
0
 40
0
 40
0
 40
1
 40
1
 40
1
 40
1
 10
91.402987
 20
245.902708
 30
0.0
 10
91.189716
 20
245.927885
 30
0.0
 10
90.979250
 20
245.837159
 30
0.0
 10
90.851126
 20
245.664814
 30
0.0
  0
SPLINE
  5
1a9
100
AcDbEntity
  8
Layer_1
 62
5
100
AcDbSpline
 70
8
 71
3
 72
8
 73
4
 74
0
 40
0
 40
0
 40
0
 40
0
 40
1
 40
1
 40
1
 40
1
 10
90.851126
 20
245.664814
 30
0.0
 10
90.722056
 20
245.493176
 30
0.0
 10
90.694561
 20
245.265644
 30
0.0
 10
90.779031
 20
245.068202
 30
0.0
  0
SPLINE
  5
1aa
100
AcDbEntity
  8
Layer_1
 62
5
100
AcDbSpline
 70
8
 71
3
 72
8
 73
4
 74
0
 40
0
 40
0
 40
0
 40
0
 40
1
 40
1
 40
1
 40
1
 10
90.779031
 20
245.068202
 30
0.0
 10
90.863501
 20
244.870759
 30
0.0
 10
91.047053
 20
244.733518
 30
0.0
 10
91.260325
 20
244.708340
 30
0.0
  0
SPLINE
  5
1ab
100
AcDbEntity
  8
Layer_1
 62
5
100
AcDbSpline
 70
8
 71
3
 72
8
 73
4
 74
0
 40
0
 40
0
 40
0
 40
0
 40
1
 40
1
 40
1
 40
1
 10
91.260325
 20
244.708340
 30
0.0
 10
91.473596
 20
244.683163
 30
0.0
 10
91.684062
 20
244.773889
 30
0.0
 10
91.812186
 20
244.946234
 30
0.0
  0
LWPOLYLINE
  5
1ac
100
AcDbEntity
  8
Layer_1
 62
1
100
AcDbPolyline
 90
1
 70
1
 10
93.725796
 20
153.509074
 30
0.0
  0
SPLINE
  5
1ad
100
AcDbEntity
  8
Layer_1
 62
5
100
AcDbSpline
 70
8
 71
3
 72
8
 73
4
 74
0
 40
0
 40
0
 40
0
 40
0
 40
1
 40
1
 40
1
 40
1
 10
91.810766
 20
229.946234
 30
0.0
 10
91.939836
 20
230.117872
 30
0.0
 10
91.967331
 20
230.345404
 30
0.0
 10
91.882861
 20
230.542846
 30
0.0
  0
SPLINE
  5
1ae
100
AcDbEntity
  8
Layer_1
 62
5
100
AcDbSpline
 70
8
 71
3
 72
8
 73
4
 74
0
 40
0
 40
0
 40
0
 40
0
 40
1
 40
1
 40
1
 40
1
 10
91.882861
 20
230.542846
 30
0.0
 10
91.798391
 20
230.740289
 30
0.0
 10
91.614839
 20
230.877530
 30
0.0
 10
91.401567
 20
230.902708
 30
0.0
  0
SPLINE
  5
1af
100
AcDbEntity
  8
Layer_1
 62
5
100
AcDbSpline
 70
8
 71
3
 72
8
 73
4
 74
0
 40
0
 40
0
 40
0
 40
0
 40
1
 40
1
 40
1
 40
1
 10
91.401567
 20
230.902708
 30
0.0
 10
91.188296
 20
230.927885
 30
0.0
 10
90.977830
 20
230.837159
 30
0.0
 10
90.849706
 20
230.664814
 30
0.0
  0
SPLINE
  5
1b0
100
AcDbEntity
  8
Layer_1
 62
5
100
AcDbSpline
 70
8
 71
3
 72
8
 73
4
 74
0
 40
0
 40
0
 40
0
 40
0
 40
1
 40
1
 40
1
 40
1
 10
90.849706
 20
230.664814
 30
0.0
 10
90.720636
 20
230.493176
 30
0.0
 10
90.693141
 20
230.265644
 30
0.0
 10
90.777611
 20
230.068202
 30
0.0
  0
SPLINE
  5
1b1
100
AcDbEntity
  8
Layer_1
 62
5
100
AcDbSpline
 70
8
 71
3
 72
8
 73
4
 74
0
 40
0
 40
0
 40
0
 40
0
 40
1
 40
1
 40
1
 40
1
 10
90.777611
 20
230.068202
 30
0.0
 10
90.862081
 20
229.870759
 30
0.0
 10
91.045633
 20
229.733518
 30
0.0
 10
91.258905
 20
229.708340
 30
0.0
  0
SPLINE
  5
1b2
100
AcDbEntity
  8
Layer_1
 62
5
100
AcDbSpline
 70
8
 71
3
 72
8
 73
4
 74
0
 40
0
 40
0
 40
0
 40
0
 40
1
 40
1
 40
1
 40
1
 10
91.258905
 20
229.708340
 30
0.0
 10
91.472176
 20
229.683163
 30
0.0
 10
91.682642
 20
229.773889
 30
0.0
 10
91.810766
 20
229.946234
 30
0.0
  0
LWPOLYLINE
  5
1b3
100
AcDbEntity
  8
Layer_1
 62
5
100
AcDbPolyline
 90
1
 70
1
 10
91.812186
 20
244.946234
 30
0.0
  0
SPLINE
  5
1b4
100
AcDbEntity
  8
Layer_1
 62
5
100
AcDbSpline
 70
8
 71
3
 72
8
 73
4
 74
0
 40
0
 40
0
 40
0
 40
0
 40
1
 40
1
 40
1
 40
1
 10
91.808396
 20
204.946234
 30
0.0
 10
91.937466
 20
205.117872
 30
0.0
 10
91.964961
 20
205.345404
 30
0.0
 10
91.880491
 20
205.542846
 30
0.0
  0
SPLINE
  5
1b5
100
AcDbEntity
  8
Layer_1
 62
5
100
AcDbSpline
 70
8
 71
3
 72
8
 73
4
 74
0
 40
0
 40
0
 40
0
 40
0
 40
1
 40
1
 40
1
 40
1
 10
91.880491
 20
205.542846
 30
0.0
 10
91.796021
 20
205.740289
 30
0.0
 10
91.612469
 20
205.877530
 30
0.0
 10
91.399197
 20
205.902708
 30
0.0
  0
SPLINE
  5
1b6
100
AcDbEntity
  8
Layer_1
 62
5
100
AcDbSpline
 70
8
 71
3
 72
8
 73
4
 74
0
 40
0
 40
0
 40
0
 40
0
 40
1
 40
1
 40
1
 40
1
 10
91.399197
 20
205.902708
 30
0.0
 10
91.185926
 20
205.927885
 30
0.0
 10
90.975460
 20
205.837159
 30
0.0
 10
90.847336
 20
205.664814
 30
0.0
  0
SPLINE
  5
1b7
100
AcDbEntity
  8
Layer_1
 62
5
100
AcDbSpline
 70
8
 71
3
 72
8
 73
4
 74
0
 40
0
 40
0
 40
0
 40
0
 40
1
 40
1
 40
1
 40
1
 10
90.847336
 20
205.664814
 30
0.0
 10
90.718266
 20
205.493176
 30
0.0
 10
90.690771
 20
205.265644
 30
0.0
 10
90.775241
 20
205.068202
 30
0.0
  0
SPLINE
  5
1b8
100
AcDbEntity
  8
Layer_1
 62
5
100
AcDbSpline
 70
8
 71
3
 72
8
 73
4
 74
0
 40
0
 40
0
 40
0
 40
0
 40
1
 40
1
 40
1
 40
1
 10
90.775241
 20
205.068202
 30
0.0
 10
90.859711
 20
204.870759
 30
0.0
 10
91.043263
 20
204.733518
 30
0.0
 10
91.256535
 20
204.708340
 30
0.0
  0
SPLINE
  5
1b9
100
AcDbEntity
  8
Layer_1
 62
5
100
AcDbSpline
 70
8
 71
3
 72
8
 73
4
 74
0
 40
0
 40
0
 40
0
 40
0
 40
1
 40
1
 40
1
 40
1
 10
91.256535
 20
204.708340
 30
0.0
 10
91.469806
 20
204.683163
 30
0.0
 10
91.680272
 20
204.773889
 30
0.0
 10
91.808396
 20
204.946234
 30
0.0
  0
LWPOLYLINE
  5
1ba
100
AcDbEntity
  8
Layer_1
 62
5
100
AcDbPolyline
 90
1
 70
1
 10
91.810766
 20
229.946234
 30
0.0
  0
SPLINE
  5
1bb
100
AcDbEntity
  8
Layer_1
 62
5
100
AcDbSpline
 70
8
 71
3
 72
8
 73
4
 74
0
 40
0
 40
0
 40
0
 40
0
 40
1
 40
1
 40
1
 40
1
 10
91.803676
 20
154.946234
 30
0.0
 10
91.932746
 20
155.117872
 30
0.0
 10
91.960241
 20
155.345404
 30
0.0
 10
91.875771
 20
155.542846
 30
0.0
  0
SPLINE
  5
1bc
100
AcDbEntity
  8
Layer_1
 62
5
100
AcDbSpline
 70
8
 71
3
 72
8
 73
4
 74
0
 40
0
 40
0
 40
0
 40
0
 40
1
 40
1
 40
1
 40
1
 10
91.875771
 20
155.542846
 30
0.0
 10
91.791301
 20
155.740289
 30
0.0
 10
91.607749
 20
155.877530
 30
0.0
 10
91.394477
 20
155.902708
 30
0.0
  0
SPLINE
  5
1bd
100
AcDbEntity
  8
Layer_1
 62
5
100
AcDbSpline
 70
8
 71
3
 72
8
 73
4
 74
0
 40
0
 40
0
 40
0
 40
0
 40
1
 40
1
 40
1
 40
1
 10
91.394477
 20
155.902708
 30
0.0
 10
91.181206
 20
155.927885
 30
0.0
 10
90.970740
 20
155.837159
 30
0.0
 10
90.842616
 20
155.664814
 30
0.0
  0
SPLINE
  5
1be
100
AcDbEntity
  8
Layer_1
 62
5
100
AcDbSpline
 70
8
 71
3
 72
8
 73
4
 74
0
 40
0
 40
0
 40
0
 40
0
 40
1
 40
1
 40
1
 40
1
 10
90.842616
 20
155.664814
 30
0.0
 10
90.713546
 20
155.493176
 30
0.0
 10
90.686051
 20
155.265644
 30
0.0
 10
90.770521
 20
155.068202
 30
0.0
  0
SPLINE
  5
1bf
100
AcDbEntity
  8
Layer_1
 62
5
100
AcDbSpline
 70
8
 71
3
 72
8
 73
4
 74
0
 40
0
 40
0
 40
0
 40
0
 40
1
 40
1
 40
1
 40
1
 10
90.770521
 20
155.068202
 30
0.0
 10
90.854991
 20
154.870759
 30
0.0
 10
91.038543
 20
154.733518
 30
0.0
 10
91.251815
 20
154.708340
 30
0.0
  0
SPLINE
  5
1c0
100
AcDbEntity
  8
Layer_1
 62
5
100
AcDbSpline
 70
8
 71
3
 72
8
 73
4
 74
0
 40
0
 40
0
 40
0
 40
0
 40
1
 40
1
 40
1
 40
1
 10
91.251815
 20
154.708340
 30
0.0
 10
91.465086
 20
154.683163
 30
0.0
 10
91.675552
 20
154.773889
 30
0.0
 10
91.803676
 20
154.946234
 30
0.0
  0
LWPOLYLINE
  5
1c1
100
AcDbEntity
  8
Layer_1
 62
5
100
AcDbPolyline
 90
1
 70
1
 10
91.808396
 20
204.946234
 30
0.0
  0
LWPOLYLINE
  5
1c2
100
AcDbEntity
  8
Layer_1
 62
5
100
AcDbPolyline
 90
1
 70
1
 10
91.803676
 20
154.946234
 30
0.0
  0
LWPOLYLINE
  5
1c3
100
AcDbEntity
  8
Layer_1
 62
5
100
AcDbPolyline
 90
4
 70
0
 10
87.441805
 20
150.075061
 30
0.0
 10
87.734736
 20
150.221527
 30
0.0
 10
88.174134
 20
150.660924
 30
0.0
 10
88.174134
 20
147.585143
 30
0.0
  0
LWPOLYLINE
  5
1c4
100
AcDbEntity
  8
Layer_1
 62
5
100
AcDbPolyline
 90
2
 70
0
 10
92.421641
 20
151.246787
 30
0.0
 10
89.785257
 20
146.559883
 30
0.0
  0
LWPOLYLINE
  5
1c5
100
AcDbEntity
  8
Layer_1
 62
5
100
AcDbPolyline
 90
14
 70
0
 10
93.300436
 20
149.928595
 30
0.0
 10
93.300436
 20
150.075061
 30
0.0
 10
93.446901
 20
150.367992
 30
0.0
 10
93.593367
 20
150.514458
 30
0.0
 10
93.886298
 20
150.660924
 30
0.0
 10
94.472162
 20
150.660924
 30
0.0
 10
94.765093
 20
150.514458
 30
0.0
 10
94.911559
 20
150.367992
 30
0.0
 10
95.058025
 20
150.075061
 30
0.0
 10
95.058025
 20
149.782129
 30
0.0
 10
94.911559
 20
149.489198
 30
0.0
 10
94.618627
 20
149.049800
 30
0.0
 10
93.153970
 20
147.585143
 30
0.0
 10
95.204490
 20
147.585143
 30
0.0
  0
LWPOLYLINE
  5
1c6
100
AcDbEntity
  8
Layer_1
 62
5
100
AcDbPolyline
 90
4
 70
0
 10
87.441803
 20
200.069641
 30
0.0
 10
87.734734
 20
200.216107
 30
0.0
 10
88.174131
 20
200.655504
 30
0.0
 10
88.174131
 20
197.579723
 30
0.0
  0
LWPOLYLINE
  5
1c7
100
AcDbEntity
  8
Layer_1
 62
5
100
AcDbPolyline
 90
2
 70
0
 10
92.421638
 20
201.241367
 30
0.0
 10
89.785255
 20
196.554463
 30
0.0
  0
LWPOLYLINE
  5
1c8
100
AcDbEntity
  8
Layer_1
 62
5
100
AcDbPolyline
 90
15
 70
0
 10
93.446898
 20
200.655504
 30
0.0
 10
95.058022
 20
200.655504
 30
0.0
 10
94.179227
 20
199.483778
 30
0.0
 10
94.618625
 20
199.483778
 30
0.0
 10
94.911556
 20
199.337312
 30
0.0
 10
95.058022
 20
199.190846
 30
0.0
 10
95.204488
 20
198.751449
 30
0.0
 10
95.204488
 20
198.458517
 30
0.0
 10
95.058022
 20
198.019120
 30
0.0
 10
94.765090
 20
197.726189
 30
0.0
 10
94.325693
 20
197.579723
 30
0.0
 10
93.886296
 20
197.579723
 30
0.0
 10
93.446898
 20
197.726189
 30
0.0
 10
93.300433
 20
197.872655
 30
0.0
 10
93.153967
 20
198.165586
 30
0.0
  0
LWPOLYLINE
  5
1c9
100
AcDbEntity
  8
Layer_1
 62
5
100
AcDbPolyline
 90
4
 70
0
 10
87.368569
 20
225.075101
 30
0.0
 10
87.661501
 20
225.221567
 30
0.0
 10
88.100898
 20
225.660964
 30
0.0
 10
88.100898
 20
222.585183
 30
0.0
  0
LWPOLYLINE
  5
1ca
100
AcDbEntity
  8
Layer_1
 62
5
100
AcDbPolyline
 90
2
 70
0
 10
92.348405
 20
226.246827
 30
0.0
 10
89.712021
 20
221.559923
 30
0.0
  0
LWPOLYLINE
  5
1cb
100
AcDbEntity
  8
Layer_1
 62
5
100
AcDbPolyline
 90
3
 70
0
 10
94.545392
 20
225.660964
 30
0.0
 10
93.080734
 20
223.610443
 30
0.0
 10
95.277721
 20
223.610443
 30
0.0
  0
LWPOLYLINE
  5
1cc
100
AcDbEntity
  8
Layer_1
 62
5
100
AcDbPolyline
 90
2
 70
0
 10
94.545392
 20
225.660964
 30
0.0
 10
94.545392
 20
222.585183
 30
0.0
  0
LWPOLYLINE
  5
1cd
100
AcDbEntity
  8
Layer_1
 62
5
100
AcDbPolyline
 90
4
 70
0
 10
87.441813
 20
240.075101
 30
0.0
 10
87.734744
 20
240.221567
 30
0.0
 10
88.174141
 20
240.660964
 30
0.0
 10
88.174141
 20
237.585183
 30
0.0
  0
LWPOLYLINE
  5
1ce
100
AcDbEntity
  8
Layer_1
 62
5
100
AcDbPolyline
 90
2
 70
0
 10
92.421649
 20
241.246827
 30
0.0
 10
89.785265
 20
236.559923
 30
0.0
  0
SPLINE
  5
1cf
100
AcDbEntity
  8
Layer_1
 62
1
100
AcDbSpline
 70
8
 71
3
 72
8
 73
4
 74
0
 40
0
 40
0
 40
0
 40
0
 40
1
 40
1
 40
1
 40
1
 10
27.421424
 20
172.754794
 30
0.0
 10
26.812709
 20
173.637152
 30
0.0
 10
25.779447
 20
174.127672
 30
0.0
 10
24.710958
 20
174.041531
 30
0.0
  0
SPLINE
  5
1d0
100
AcDbEntity
  8
Layer_1
 62
1
100
AcDbSpline
 70
8
 71
3
 72
8
 73
4
 74
0
 40
0
 40
0
 40
0
 40
0
 40
1
 40
1
 40
1
 40
1
 10
24.710958
 20
174.041531
 30
0.0
 10
23.642469
 20
173.955390
 30
0.0
 10
22.701131
 20
173.305681
 30
0.0
 10
22.241629
 20
172.337204
 30
0.0
  0
SPLINE
  5
1d1
100
AcDbEntity
  8
Layer_1
 62
1
100
AcDbSpline
 70
8
 71
3
 72
8
 73
4
 74
0
 40
0
 40
0
 40
0
 40
0
 40
1
 40
1
 40
1
 40
1
 10
22.241629
 20
172.337204
 30
0.0
 10
21.782126
 20
171.368727
 30
0.0
 10
21.874290
 20
170.228663
 30
0.0
 10
22.483394
 20
169.346574
 30
0.0
  0
SPLINE
  5
1d2
100
AcDbEntity
  8
Layer_1
 62
1
100
AcDbSpline
 70
8
 71
3
 72
8
 73
4
 74
0
 40
0
 40
0
 40
0
 40
0
 40
1
 40
1
 40
1
 40
1
 10
22.483394
 20
169.346574
 30
0.0
 10
23.092109
 20
168.464216
 30
0.0
 10
24.125371
 20
167.973696
 30
0.0
 10
25.193860
 20
168.059837
 30
0.0
  0
SPLINE
  5
1d3
100
AcDbEntity
  8
Layer_1
 62
1
100
AcDbSpline
 70
8
 71
3
 72
8
 73
4
 74
0
 40
0
 40
0
 40
0
 40
0
 40
1
 40
1
 40
1
 40
1
 10
25.193860
 20
168.059837
 30
0.0
 10
26.262349
 20
168.145978
 30
0.0
 10
27.203687
 20
168.795687
 30
0.0
 10
27.663189
 20
169.764164
 30
0.0
  0
SPLINE
  5
1d4
100
AcDbEntity
  8
Layer_1
 62
1
100
AcDbSpline
 70
8
 71
3
 72
8
 73
4
 74
0
 40
0
 40
0
 40
0
 40
0
 40
1
 40
1
 40
1
 40
1
 10
27.663189
 20
169.764164
 30
0.0
 10
28.122692
 20
170.732641
 30
0.0
 10
28.030528
 20
171.872704
 30
0.0
 10
27.421424
 20
172.754794
 30
0.0
  0
LWPOLYLINE
  5
1d5
100
AcDbEntity
  8
Layer_1
 62
5
100
AcDbPolyline
 90
17
 70
0
 10
94.911567
 20
240.660964
 30
0.0
 10
93.446909
 20
240.660964
 30
0.0
 10
93.300443
 20
239.342772
 30
0.0
 10
93.446909
 20
239.489238
 30
0.0
 10
93.886306
 20
239.635704
 30
0.0
 10
94.325703
 20
239.635704
 30
0.0
 10
94.765101
 20
239.489238
 30
0.0
 10
95.058032
 20
239.196306
 30
0.0
 10
95.204498
 20
238.756909
 30
0.0
 10
95.204498
 20
238.463977
 30
0.0
 10
95.058032
 20
238.024580
 30
0.0
 10
94.765101
 20
237.731649
 30
0.0
 10
94.325703
 20
237.585183
 30
0.0
 10
93.886306
 20
237.585183
 30
0.0
 10
93.446909
 20
237.731649
 30
0.0
 10
93.300443
 20
237.878115
 30
0.0
 10
93.153978
 20
238.171046
 30
0.0
  0
SPLINE
  5
1d6
100
AcDbEntity
  8
Layer_1
 62
1
100
AcDbSpline
 70
8
 71
3
 72
8
 73
4
 74
0
 40
0
 40
0
 40
0
 40
0
 40
1
 40
1
 40
1
 40
1
 10
27.424514
 20
212.754814
 30
0.0
 10
26.815799
 20
213.637172
 30
0.0
 10
25.782537
 20
214.127692
 30
0.0
 10
24.714048
 20
214.041551
 30
0.0
  0
SPLINE
  5
1d7
100
AcDbEntity
  8
Layer_1
 62
1
100
AcDbSpline
 70
8
 71
3
 72
8
 73
4
 74
0
 40
0
 40
0
 40
0
 40
0
 40
1
 40
1
 40
1
 40
1
 10
24.714048
 20
214.041551
 30
0.0
 10
23.645559
 20
213.955410
 30
0.0
 10
22.704221
 20
213.305701
 30
0.0
 10
22.244719
 20
212.337224
 30
0.0
  0
SPLINE
  5
1d8
100
AcDbEntity
  8
Layer_1
 62
1
100
AcDbSpline
 70
8
 71
3
 72
8
 73
4
 74
0
 40
0
 40
0
 40
0
 40
0
 40
1
 40
1
 40
1
 40
1
 10
22.244719
 20
212.337224
 30
0.0
 10
21.785216
 20
211.368747
 30
0.0
 10
21.877380
 20
210.228683
 30
0.0
 10
22.486484
 20
209.346594
 30
0.0
  0
SPLINE
  5
1d9
100
AcDbEntity
  8
Layer_1
 62
1
100
AcDbSpline
 70
8
 71
3
 72
8
 73
4
 74
0
 40
0
 40
0
 40
0
 40
0
 40
1
 40
1
 40
1
 40
1
 10
22.486484
 20
209.346594
 30
0.0
 10
23.095199
 20
208.464236
 30
0.0
 10
24.128461
 20
207.973716
 30
0.0
 10
25.196950
 20
208.059857
 30
0.0
  0
SPLINE
  5
1da
100
AcDbEntity
  8
Layer_1
 62
1
100
AcDbSpline
 70
8
 71
3
 72
8
 73
4
 74
0
 40
0
 40
0
 40
0
 40
0
 40
1
 40
1
 40
1
 40
1
 10
25.196950
 20
208.059857
 30
0.0
 10
26.265439
 20
208.145998
 30
0.0
 10
27.206777
 20
208.795707
 30
0.0
 10
27.666279
 20
209.764184
 30
0.0
  0
SPLINE
  5
1db
100
AcDbEntity
  8
Layer_1
 62
1
100
AcDbSpline
 70
8
 71
3
 72
8
 73
4
 74
0
 40
0
 40
0
 40
0
 40
0
 40
1
 40
1
 40
1
 40
1
 10
27.666279
 20
209.764184
 30
0.0
 10
28.125782
 20
210.732661
 30
0.0
 10
28.033618
 20
211.872724
 30
0.0
 10
27.424514
 20
212.754814
 30
0.0
  0
LWPOLYLINE
  5
1dc
100
AcDbEntity
  8
Layer_1
 62
1
100
AcDbPolyline
 90
1
 70
1
 10
27.421424
 20
172.754794
 30
0.0
  0
SPLINE
  5
1dd
100
AcDbEntity
  8
Layer_1
 62
1
100
AcDbSpline
 70
8
 71
3
 72
8
 73
4
 74
0
 40
0
 40
0
 40
0
 40
0
 40
1
 40
1
 40
1
 40
1
 10
27.423364
 20
197.754794
 30
0.0
 10
26.814649
 20
198.637152
 30
0.0
 10
25.781387
 20
199.127672
 30
0.0
 10
24.712898
 20
199.041531
 30
0.0
  0
SPLINE
  5
1de
100
AcDbEntity
  8
Layer_1
 62
1
100
AcDbSpline
 70
8
 71
3
 72
8
 73
4
 74
0
 40
0
 40
0
 40
0
 40
0
 40
1
 40
1
 40
1
 40
1
 10
24.712898
 20
199.041531
 30
0.0
 10
23.644409
 20
198.955390
 30
0.0
 10
22.703071
 20
198.305681
 30
0.0
 10
22.243569
 20
197.337204
 30
0.0
  0
SPLINE
  5
1df
100
AcDbEntity
  8
Layer_1
 62
1
100
AcDbSpline
 70
8
 71
3
 72
8
 73
4
 74
0
 40
0
 40
0
 40
0
 40
0
 40
1
 40
1
 40
1
 40
1
 10
22.243569
 20
197.337204
 30
0.0
 10
21.784066
 20
196.368727
 30
0.0
 10
21.876230
 20
195.228663
 30
0.0
 10
22.485334
 20
194.346574
 30
0.0
  0
SPLINE
  5
1e0
100
AcDbEntity
  8
Layer_1
 62
1
100
AcDbSpline
 70
8
 71
3
 72
8
 73
4
 74
0
 40
0
 40
0
 40
0
 40
0
 40
1
 40
1
 40
1
 40
1
 10
22.485334
 20
194.346574
 30
0.0
 10
23.094049
 20
193.464216
 30
0.0
 10
24.127311
 20
192.973696
 30
0.0
 10
25.195800
 20
193.059837
 30
0.0
  0
SPLINE
  5
1e1
100
AcDbEntity
  8
Layer_1
 62
1
100
AcDbSpline
 70
8
 71
3
 72
8
 73
4
 74
0
 40
0
 40
0
 40
0
 40
0
 40
1
 40
1
 40
1
 40
1
 10
25.195800
 20
193.059837
 30
0.0
 10
26.264289
 20
193.145978
 30
0.0
 10
27.205627
 20
193.795687
 30
0.0
 10
27.665129
 20
194.764164
 30
0.0
  0
SPLINE
  5
1e2
100
AcDbEntity
  8
Layer_1
 62
1
100
AcDbSpline
 70
8
 71
3
 72
8
 73
4
 74
0
 40
0
 40
0
 40
0
 40
0
 40
1
 40
1
 40
1
 40
1
 10
27.665129
 20
194.764164
 30
0.0
 10
28.124632
 20
195.732641
 30
0.0
 10
28.032468
 20
196.872704
 30
0.0
 10
27.423364
 20
197.754794
 30
0.0
  0
LWPOLYLINE
  5
1e3
100
AcDbEntity
  8
Layer_1
 62
1
100
AcDbPolyline
 90
1
 70
1
 10
27.424514
 20
212.754814
 30
0.0
  0
SPLINE
  5
1e4
100
AcDbEntity
  8
Layer_1
 62
1
100
AcDbSpline
 70
8
 71
3
 72
8
 73
4
 74
0
 40
0
 40
0
 40
0
 40
0
 40
1
 40
1
 40
1
 40
1
 10
27.417544
 20
122.754794
 30
0.0
 10
26.809397
 20
123.638568
 30
0.0
 10
25.775615
 20
124.130337
 30
0.0
 10
24.706250
 20
124.044554
 30
0.0
  0
SPLINE
  5
1e5
100
AcDbEntity
  8
Layer_1
 62
1
100
AcDbSpline
 70
8
 71
3
 72
8
 73
4
 74
0
 40
0
 40
0
 40
0
 40
0
 40
1
 40
1
 40
1
 40
1
 10
24.706250
 20
124.044554
 30
0.0
 10
23.636885
 20
123.958770
 30
0.0
 10
22.694717
 20
123.308491
 30
0.0
 10
22.235233
 20
122.339072
 30
0.0
  0
SPLINE
  5
1e6
100
AcDbEntity
  8
Layer_1
 62
1
100
AcDbSpline
 70
8
 71
3
 72
8
 73
4
 74
0
 40
0
 40
0
 40
0
 40
0
 40
1
 40
1
 40
1
 40
1
 10
22.235233
 20
122.339072
 30
0.0
 10
21.775748
 20
121.369652
 30
0.0
 10
21.868889
 20
120.228658
 30
0.0
 10
22.479514
 20
119.346594
 30
0.0
  0
SPLINE
  5
1e7
100
AcDbEntity
  8
Layer_1
 62
1
100
AcDbSpline
 70
8
 71
3
 72
8
 73
4
 74
0
 40
0
 40
0
 40
0
 40
0
 40
1
 40
1
 40
1
 40
1
 10
22.479514
 20
119.346594
 30
0.0
 10
23.087661
 20
118.462820
 30
0.0
 10
24.121443
 20
117.971050
 30
0.0
 10
25.190808
 20
118.056834
 30
0.0
  0
SPLINE
  5
1e8
100
AcDbEntity
  8
Layer_1
 62
1
100
AcDbSpline
 70
8
 71
3
 72
8
 73
4
 74
0
 40
0
 40
0
 40
0
 40
0
 40
1
 40
1
 40
1
 40
1
 10
25.190808
 20
118.056834
 30
0.0
 10
26.260173
 20
118.142618
 30
0.0
 10
27.202341
 20
118.792897
 30
0.0
 10
27.661825
 20
119.762316
 30
0.0
  0
SPLINE
  5
1e9
100
AcDbEntity
  8
Layer_1
 62
1
100
AcDbSpline
 70
8
 71
3
 72
8
 73
4
 74
0
 40
0
 40
0
 40
0
 40
0
 40
1
 40
1
 40
1
 40
1
 10
27.661825
 20
119.762316
 30
0.0
 10
28.121310
 20
120.731736
 30
0.0
 10
28.028169
 20
121.872730
 30
0.0
 10
27.417544
 20
122.754794
 30
0.0
  0
LWPOLYLINE
  5
1ea
100
AcDbEntity
  8
Layer_1
 62
1
100
AcDbPolyline
 90
1
 70
1
 10
27.423364
 20
197.754794
 30
0.0
  0
SPLINE
  5
1eb
100
AcDbEntity
  8
Layer_1
 62
1
100
AcDbSpline
 70
8
 71
3
 72
8
 73
4
 74
0
 40
0
 40
0
 40
0
 40
0
 40
1
 40
1
 40
1
 40
1
 10
27.429164
 20
272.754794
 30
0.0
 10
26.488010
 20
274.118391
 30
0.0
 10
24.619641
 20
274.460848
 30
0.0
 10
23.256044
 20
273.519694
 30
0.0
  0
SPLINE
  5
1ec
100
AcDbEntity
  8
Layer_1
 62
1
100
AcDbSpline
 70
8
 71
3
 72
8
 73
4
 74
0
 40
0
 40
0
 40
0
 40
0
 40
1
 40
1
 40
1
 40
1
 10
23.256044
 20
273.519694
 30
0.0
 10
21.892447
 20
272.578540
 30
0.0
 10
21.549990
 20
270.710171
 30
0.0
 10
22.491144
 20
269.346574
 30
0.0
  0
SPLINE
  5
1ed
100
AcDbEntity
  8
Layer_1
 62
1
100
AcDbSpline
 70
8
 71
3
 72
8
 73
4
 74
0
 40
0
 40
0
 40
0
 40
0
 40
1
 40
1
 40
1
 40
1
 10
22.491144
 20
269.346574
 30
0.0
 10
23.099964
 20
268.464482
 30
0.0
 10
24.133127
 20
267.974196
 30
0.0
 10
25.201452
 20
268.060404
 30
0.0
  0
SPLINE
  5
1ee
100
AcDbEntity
  8
Layer_1
 62
1
100
AcDbSpline
 70
8
 71
3
 72
8
 73
4
 74
0
 40
0
 40
0
 40
0
 40
0
 40
1
 40
1
 40
1
 40
1
 10
25.201452
 20
268.060404
 30
0.0
 10
26.269776
 20
268.146611
 30
0.0
 10
27.210957
 20
268.796214
 30
0.0
 10
27.670462
 20
269.764514
 30
0.0
  0
SPLINE
  5
1ef
100
AcDbEntity
  8
Layer_1
 62
1
100
AcDbSpline
 70
8
 71
3
 72
8
 73
4
 74
0
 40
0
 40
0
 40
0
 40
0
 40
1
 40
1
 40
1
 40
1
 10
27.670462
 20
269.764514
 30
0.0
 10
28.129966
 20
270.732813
 30
0.0
 10
28.037984
 20
271.872702
 30
0.0
 10
27.429164
 20
272.754794
 30
0.0
  0
LWPOLYLINE
  5
1f0
100
AcDbEntity
  8
Layer_1
 62
1
100
AcDbPolyline
 90
1
 70
1
 10
27.417544
 20
122.754794
 30
0.0
  0
SPLINE
  5
1f1
100
AcDbEntity
  8
Layer_1
 62
1
100
AcDbSpline
 70
8
 71
3
 72
8
 73
4
 74
0
 40
0
 40
0
 40
0
 40
0
 40
1
 40
1
 40
1
 40
1
 10
27.405934
 20
-27.245206
 30
0.0
 10
26.797219
 20
-26.362848
 30
0.0
 10
25.763957
 20
-25.872328
 30
0.0
 10
24.695468
 20
-25.958469
 30
0.0
  0
SPLINE
  5
1f2
100
AcDbEntity
  8
Layer_1
 62
1
100
AcDbSpline
 70
8
 71
3
 72
8
 73
4
 74
0
 40
0
 40
0
 40
0
 40
0
 40
1
 40
1
 40
1
 40
1
 10
24.695468
 20
-25.958469
 30
0.0
 10
23.626979
 20
-26.044610
 30
0.0
 10
22.685641
 20
-26.694319
 30
0.0
 10
22.226139
 20
-27.662796
 30
0.0
  0
SPLINE
  5
1f3
100
AcDbEntity
  8
Layer_1
 62
1
100
AcDbSpline
 70
8
 71
3
 72
8
 73
4
 74
0
 40
0
 40
0
 40
0
 40
0
 40
1
 40
1
 40
1
 40
1
 10
22.226139
 20
-27.662796
 30
0.0
 10
21.766636
 20
-28.631273
 30
0.0
 10
21.858800
 20
-29.771337
 30
0.0
 10
22.467904
 20
-30.653426
 30
0.0
  0
SPLINE
  5
1f4
100
AcDbEntity
  8
Layer_1
 62
1
100
AcDbSpline
 70
8
 71
3
 72
8
 73
4
 74
0
 40
0
 40
0
 40
0
 40
0
 40
1
 40
1
 40
1
 40
1
 10
22.467904
 20
-30.653426
 30
0.0
 10
23.076619
 20
-31.535784
 30
0.0
 10
24.109881
 20
-32.026304
 30
0.0
 10
25.178370
 20
-31.940163
 30
0.0
  0
SPLINE
  5
1f5
100
AcDbEntity
  8
Layer_1
 62
1
100
AcDbSpline
 70
8
 71
3
 72
8
 73
4
 74
0
 40
0
 40
0
 40
0
 40
0
 40
1
 40
1
 40
1
 40
1
 10
25.178370
 20
-31.940163
 30
0.0
 10
26.246859
 20
-31.854022
 30
0.0
 10
27.188197
 20
-31.204313
 30
0.0
 10
27.647699
 20
-30.235836
 30
0.0
  0
SPLINE
  5
1f6
100
AcDbEntity
  8
Layer_1
 62
1
100
AcDbSpline
 70
8
 71
3
 72
8
 73
4
 74
0
 40
0
 40
0
 40
0
 40
0
 40
1
 40
1
 40
1
 40
1
 10
27.647699
 20
-30.235836
 30
0.0
 10
28.107202
 20
-29.267359
 30
0.0
 10
28.015038
 20
-28.127296
 30
0.0
 10
27.405934
 20
-27.245206
 30
0.0
  0
LWPOLYLINE
  5
1f7
100
AcDbEntity
  8
Layer_1
 62
1
100
AcDbPolyline
 90
1
 70
1
 10
27.429164
 20
272.754794
 30
0.0
  0
SPLINE
  5
1f8
100
AcDbEntity
  8
Layer_1
 62
7
100
AcDbSpline
 70
8
 71
3
 72
8
 73
4
 74
0
 40
0
 40
0
 40
0
 40
0
 40
1
 40
1
 40
1
 40
1
 10
39.960154
 20
271.049854
 30
0.0
 10
39.960704
 20
279.334114
 30
0.0
 10
33.245424
 20
286.050294
 30
0.0
 10
24.961154
 20
286.050834
 30
0.0
  0
SPLINE
  5
1f9
100
AcDbEntity
  8
Layer_1
 62
7
100
AcDbSpline
 70
8
 71
3
 72
8
 73
4
 74
0
 40
0
 40
0
 40
0
 40
0
 40
1
 40
1
 40
1
 40
1
 10
24.961154
 20
286.050834
 30
0.0
 10
16.676910
 20
286.051394
 30
0.0
 10
9.960766
 20
279.336114
 30
0.0
 10
9.960216
 20
271.051854
 30
0.0
  0
LWPOLYLINE
  5
1fa
100
AcDbEntity
  8
Layer_1
 62
1
100
AcDbPolyline
 90
1
 70
1
 10
27.405934
 20
-27.245206
 30
0.0
  0
SPLINE
  5
1fb
100
AcDbEntity
  8
Layer_1
 62
7
100
AcDbSpline
 70
8
 71
3
 72
8
 73
4
 74
0
 40
0
 40
0
 40
0
 40
0
 40
1
 40
1
 40
1
 40
1
 10
9.937016
 20
-28.948266
 30
0.0
 10
9.939016
 20
-37.231066
 30
0.0
 10
16.653170
 20
-43.944946
 30
0.0
 10
24.935954
 20
-43.945506
 30
0.0
  0
SPLINE
  5
1fc
100
AcDbEntity
  8
Layer_1
 62
7
100
AcDbSpline
 70
8
 71
3
 72
8
 73
4
 74
0
 40
0
 40
0
 40
0
 40
0
 40
1
 40
1
 40
1
 40
1
 10
24.935954
 20
-43.945506
 30
0.0
 10
33.218764
 20
-43.946046
 30
0.0
 10
39.934334
 20
-37.233086
 30
0.0
 10
39.936954
 20
-28.950386
 30
0.0
  0
LWPOLYLINE
  5
1fd
100
AcDbEntity
  8
Layer_1
 62
7
100
AcDbPolyline
 90
2
 70
0
 10
9.960216
 20
271.051854
 30
0.0
 10
9.937016
 20
-28.948266
 30
0.0
  0
SPLINE
  5
1fe
100
AcDbEntity
  8
Layer_1
 62
5
100
AcDbSpline
 70
8
 71
3
 72
8
 73
4
 74
0
 40
0
 40
0
 40
0
 40
0
 40
1
 40
1
 40
1
 40
1
 10
25.436024
 20
210.691414
 30
0.0
 10
25.565094
 20
210.863052
 30
0.0
 10
25.592589
 20
211.090584
 30
0.0
 10
25.508119
 20
211.288026
 30
0.0
  0
SPLINE
  5
1ff
100
AcDbEntity
  8
Layer_1
 62
5
100
AcDbSpline
 70
8
 71
3
 72
8
 73
4
 74
0
 40
0
 40
0
 40
0
 40
0
 40
1
 40
1
 40
1
 40
1
 10
25.508119
 20
211.288026
 30
0.0
 10
25.423649
 20
211.485469
 30
0.0
 10
25.240097
 20
211.622710
 30
0.0
 10
25.026825
 20
211.647888
 30
0.0
  0
SPLINE
  5
200
100
AcDbEntity
  8
Layer_1
 62
5
100
AcDbSpline
 70
8
 71
3
 72
8
 73
4
 74
0
 40
0
 40
0
 40
0
 40
0
 40
1
 40
1
 40
1
 40
1
 10
25.026825
 20
211.647888
 30
0.0
 10
24.813554
 20
211.673065
 30
0.0
 10
24.603088
 20
211.582339
 30
0.0
 10
24.474964
 20
211.409994
 30
0.0
  0
SPLINE
  5
201
100
AcDbEntity
  8
Layer_1
 62
5
100
AcDbSpline
 70
8
 71
3
 72
8
 73
4
 74
0
 40
0
 40
0
 40
0
 40
0
 40
1
 40
1
 40
1
 40
1
 10
24.474964
 20
211.409994
 30
0.0
 10
24.345894
 20
211.238356
 30
0.0
 10
24.318399
 20
211.010824
 30
0.0
 10
24.402869
 20
210.813382
 30
0.0
  0
SPLINE
  5
202
100
AcDbEntity
  8
Layer_1
 62
5
100
AcDbSpline
 70
8
 71
3
 72
8
 73
4
 74
0
 40
0
 40
0
 40
0
 40
0
 40
1
 40
1
 40
1
 40
1
 10
24.402869
 20
210.813382
 30
0.0
 10
24.487339
 20
210.615939
 30
0.0
 10
24.670891
 20
210.478698
 30
0.0
 10
24.884163
 20
210.453520
 30
0.0
  0
SPLINE
  5
203
100
AcDbEntity
  8
Layer_1
 62
5
100
AcDbSpline
 70
8
 71
3
 72
8
 73
4
 74
0
 40
0
 40
0
 40
0
 40
0
 40
1
 40
1
 40
1
 40
1
 10
24.884163
 20
210.453520
 30
0.0
 10
25.097434
 20
210.428343
 30
0.0
 10
25.307900
 20
210.519069
 30
0.0
 10
25.436024
 20
210.691414
 30
0.0
  0
LWPOLYLINE
  5
204
100
AcDbEntity
  8
Layer_1
 62
7
100
AcDbPolyline
 90
2
 70
0
 10
39.936954
 20
-28.950386
 30
0.0
 10
39.960154
 20
271.049854
 30
0.0
  0
SPLINE
  5
205
100
AcDbEntity
  8
Layer_1
 62
5
100
AcDbSpline
 70
8
 71
3
 72
8
 73
4
 74
0
 40
0
 40
0
 40
0
 40
0
 40
1
 40
1
 40
1
 40
1
 10
25.434884
 20
195.691394
 30
0.0
 10
25.563692
 20
195.863048
 30
0.0
 10
25.591012
 20
196.090428
 30
0.0
 10
25.506531
 20
196.287709
 30
0.0
  0
SPLINE
  5
206
100
AcDbEntity
  8
Layer_1
 62
5
100
AcDbSpline
 70
8
 71
3
 72
8
 73
4
 74
0
 40
0
 40
0
 40
0
 40
0
 40
1
 40
1
 40
1
 40
1
 10
25.506531
 20
196.287709
 30
0.0
 10
25.422050
 20
196.484990
 30
0.0
 10
25.238634
 20
196.622128
 30
0.0
 10
25.025514
 20
196.647359
 30
0.0
  0
SPLINE
  5
207
100
AcDbEntity
  8
Layer_1
 62
5
100
AcDbSpline
 70
8
 71
3
 72
8
 73
4
 74
0
 40
0
 40
0
 40
0
 40
0
 40
1
 40
1
 40
1
 40
1
 10
25.025514
 20
196.647359
 30
0.0
 10
24.812394
 20
196.672591
 30
0.0
 10
24.602026
 20
196.582074
 30
0.0
 10
24.473814
 20
196.409974
 30
0.0
  0
SPLINE
  5
208
100
AcDbEntity
  8
Layer_1
 62
5
100
AcDbSpline
 70
8
 71
3
 72
8
 73
4
 74
0
 40
0
 40
0
 40
0
 40
0
 40
1
 40
1
 40
1
 40
1
 10
24.473814
 20
196.409974
 30
0.0
 10
24.345006
 20
196.238320
 30
0.0
 10
24.317686
 20
196.010940
 30
0.0
 10
24.402167
 20
195.813659
 30
0.0
  0
SPLINE
  5
209
100
AcDbEntity
  8
Layer_1
 62
5
100
AcDbSpline
 70
8
 71
3
 72
8
 73
4
 74
0
 40
0
 40
0
 40
0
 40
0
 40
1
 40
1
 40
1
 40
1
 10
24.402167
 20
195.813659
 30
0.0
 10
24.486648
 20
195.616378
 30
0.0
 10
24.670064
 20
195.479240
 30
0.0
 10
24.883184
 20
195.454009
 30
0.0
  0
SPLINE
  5
20a
100
AcDbEntity
  8
Layer_1
 62
5
100
AcDbSpline
 70
8
 71
3
 72
8
 73
4
 74
0
 40
0
 40
0
 40
0
 40
0
 40
1
 40
1
 40
1
 40
1
 10
24.883184
 20
195.454009
 30
0.0
 10
25.096304
 20
195.428777
 30
0.0
 10
25.306672
 20
195.519294
 30
0.0
 10
25.434884
 20
195.691394
 30
0.0
  0
LWPOLYLINE
  5
20b
100
AcDbEntity
  8
Layer_1
 62
5
100
AcDbPolyline
 90
1
 70
1
 10
25.436024
 20
210.691414
 30
0.0
  0
SPLINE
  5
20c
100
AcDbEntity
  8
Layer_1
 62
5
100
AcDbSpline
 70
8
 71
3
 72
8
 73
4
 74
0
 40
0
 40
0
 40
0
 40
0
 40
1
 40
1
 40
1
 40
1
 10
25.432944
 20
170.691394
 30
0.0
 10
25.561324
 20
170.863072
 30
0.0
 10
25.588357
 20
171.090200
 30
0.0
 10
25.503861
 20
171.287215
 30
0.0
  0
SPLINE
  5
20d
100
AcDbEntity
  8
Layer_1
 62
5
100
AcDbSpline
 70
8
 71
3
 72
8
 73
4
 74
0
 40
0
 40
0
 40
0
 40
0
 40
1
 40
1
 40
1
 40
1
 10
25.503861
 20
171.287215
 30
0.0
 10
25.419364
 20
171.484230
 30
0.0
 10
25.236176
 20
171.621197
 30
0.0
 10
25.023307
 20
171.646519
 30
0.0
  0
SPLINE
  5
20e
100
AcDbEntity
  8
Layer_1
 62
5
100
AcDbSpline
 70
8
 71
3
 72
8
 73
4
 74
0
 40
0
 40
0
 40
0
 40
0
 40
1
 40
1
 40
1
 40
1
 10
25.023307
 20
171.646519
 30
0.0
 10
24.810437
 20
171.671841
 30
0.0
 10
24.600230
 20
171.581669
 30
0.0
 10
24.471874
 20
171.409974
 30
0.0
  0
SPLINE
  5
20f
100
AcDbEntity
  8
Layer_1
 62
5
100
AcDbSpline
 70
8
 71
3
 72
8
 73
4
 74
0
 40
0
 40
0
 40
0
 40
0
 40
1
 40
1
 40
1
 40
1
 10
24.471874
 20
171.409974
 30
0.0
 10
24.343494
 20
171.238296
 30
0.0
 10
24.316461
 20
171.011168
 30
0.0
 10
24.400957
 20
170.814153
 30
0.0
  0
SPLINE
  5
210
100
AcDbEntity
  8
Layer_1
 62
5
100
AcDbSpline
 70
8
 71
3
 72
8
 73
4
 74
0
 40
0
 40
0
 40
0
 40
0
 40
1
 40
1
 40
1
 40
1
 10
24.400957
 20
170.814153
 30
0.0
 10
24.485454
 20
170.617138
 30
0.0
 10
24.668642
 20
170.480171
 30
0.0
 10
24.881511
 20
170.454849
 30
0.0
  0
SPLINE
  5
211
100
AcDbEntity
  8
Layer_1
 62
5
100
AcDbSpline
 70
8
 71
3
 72
8
 73
4
 74
0
 40
0
 40
0
 40
0
 40
0
 40
1
 40
1
 40
1
 40
1
 10
24.881511
 20
170.454849
 30
0.0
 10
25.094381
 20
170.429527
 30
0.0
 10
25.304588
 20
170.519699
 30
0.0
 10
25.432944
 20
170.691394
 30
0.0
  0
LWPOLYLINE
  5
212
100
AcDbEntity
  8
Layer_1
 62
5
100
AcDbPolyline
 90
1
 70
1
 10
25.434884
 20
195.691394
 30
0.0
  0
SPLINE
  5
213
100
AcDbEntity
  8
Layer_1
 62
5
100
AcDbSpline
 70
8
 71
3
 72
8
 73
4
 74
0
 40
0
 40
0
 40
0
 40
0
 40
1
 40
1
 40
1
 40
1
 10
25.429064
 20
120.693374
 30
0.0
 10
25.558134
 20
120.865012
 30
0.0
 10
25.585629
 20
121.092544
 30
0.0
 10
25.501159
 20
121.289986
 30
0.0
  0
SPLINE
  5
214
100
AcDbEntity
  8
Layer_1
 62
5
100
AcDbSpline
 70
8
 71
3
 72
8
 73
4
 74
0
 40
0
 40
0
 40
0
 40
0
 40
1
 40
1
 40
1
 40
1
 10
25.501159
 20
121.289986
 30
0.0
 10
25.416689
 20
121.487429
 30
0.0
 10
25.233137
 20
121.624670
 30
0.0
 10
25.019865
 20
121.649848
 30
0.0
  0
SPLINE
  5
215
100
AcDbEntity
  8
Layer_1
 62
5
100
AcDbSpline
 70
8
 71
3
 72
8
 73
4
 74
0
 40
0
 40
0
 40
0
 40
0
 40
1
 40
1
 40
1
 40
1
 10
25.019865
 20
121.649848
 30
0.0
 10
24.806594
 20
121.675025
 30
0.0
 10
24.596128
 20
121.584299
 30
0.0
 10
24.468004
 20
121.411954
 30
0.0
  0
SPLINE
  5
216
100
AcDbEntity
  8
Layer_1
 62
5
100
AcDbSpline
 70
8
 71
3
 72
8
 73
4
 74
0
 40
0
 40
0
 40
0
 40
0
 40
1
 40
1
 40
1
 40
1
 10
24.468004
 20
121.411954
 30
0.0
 10
24.338934
 20
121.240316
 30
0.0
 10
24.311439
 20
121.012784
 30
0.0
 10
24.395909
 20
120.815342
 30
0.0
  0
SPLINE
  5
217
100
AcDbEntity
  8
Layer_1
 62
5
100
AcDbSpline
 70
8
 71
3
 72
8
 73
4
 74
0
 40
0
 40
0
 40
0
 40
0
 40
1
 40
1
 40
1
 40
1
 10
24.395909
 20
120.815342
 30
0.0
 10
24.480379
 20
120.617899
 30
0.0
 10
24.663931
 20
120.480658
 30
0.0
 10
24.877203
 20
120.455480
 30
0.0
  0
SPLINE
  5
218
100
AcDbEntity
  8
Layer_1
 62
5
100
AcDbSpline
 70
8
 71
3
 72
8
 73
4
 74
0
 40
0
 40
0
 40
0
 40
0
 40
1
 40
1
 40
1
 40
1
 10
24.877203
 20
120.455480
 30
0.0
 10
25.090474
 20
120.430303
 30
0.0
 10
25.300940
 20
120.521029
 30
0.0
 10
25.429064
 20
120.693374
 30
0.0
  0
LWPOLYLINE
  5
219
100
AcDbEntity
  8
Layer_1
 62
5
100
AcDbPolyline
 90
1
 70
1
 10
25.432944
 20
170.691394
 30
0.0
  0
LWPOLYLINE
  5
21a
100
AcDbEntity
  8
Layer_1
 62
5
100
AcDbPolyline
 90
1
 70
1
 10
25.429064
 20
120.693374
 30
0.0
  0
LWPOLYLINE
  5
21b
100
AcDbEntity
  8
Layer_1
 62
5
100
AcDbPolyline
 90
4
 70
0
 10
21.071065
 20
115.150081
 30
0.0
 10
21.363996
 20
115.296547
 30
0.0
 10
21.803394
 20
115.735944
 30
0.0
 10
21.803394
 20
112.660163
 30
0.0
  0
LWPOLYLINE
  5
21c
100
AcDbEntity
  8
Layer_1
 62
5
100
AcDbPolyline
 90
2
 70
0
 10
26.050901
 20
116.321807
 30
0.0
 10
23.414517
 20
111.634903
 30
0.0
  0
LWPOLYLINE
  5
21d
100
AcDbEntity
  8
Layer_1
 62
5
100
AcDbPolyline
 90
14
 70
0
 10
26.929696
 20
115.003615
 30
0.0
 10
26.929696
 20
115.150081
 30
0.0
 10
27.076161
 20
115.443012
 30
0.0
 10
27.222627
 20
115.589478
 30
0.0
 10
27.515558
 20
115.735944
 30
0.0
 10
28.101422
 20
115.735944
 30
0.0
 10
28.394353
 20
115.589478
 30
0.0
 10
28.540819
 20
115.443012
 30
0.0
 10
28.687285
 20
115.150081
 30
0.0
 10
28.687285
 20
114.857149
 30
0.0
 10
28.540819
 20
114.564218
 30
0.0
 10
28.247887
 20
114.124820
 30
0.0
 10
26.783230
 20
112.660163
 30
0.0
 10
28.833750
 20
112.660163
 30
0.0
  0
LWPOLYLINE
  5
21e
100
AcDbEntity
  8
Layer_1
 62
5
100
AcDbPolyline
 90
4
 70
0
 10
21.071063
 20
165.144661
 30
0.0
 10
21.363994
 20
165.291127
 30
0.0
 10
21.803391
 20
165.730524
 30
0.0
 10
21.803391
 20
162.654743
 30
0.0
  0
LWPOLYLINE
  5
21f
100
AcDbEntity
  8
Layer_1
 62
5
100
AcDbPolyline
 90
2
 70
0
 10
26.050898
 20
166.316387
 30
0.0
 10
23.414515
 20
161.629483
 30
0.0
  0
LWPOLYLINE
  5
220
100
AcDbEntity
  8
Layer_1
 62
5
100
AcDbPolyline
 90
15
 70
0
 10
27.076158
 20
165.730524
 30
0.0
 10
28.687282
 20
165.730524
 30
0.0
 10
27.808487
 20
164.558798
 30
0.0
 10
28.247885
 20
164.558798
 30
0.0
 10
28.540816
 20
164.412332
 30
0.0
 10
28.687282
 20
164.265866
 30
0.0
 10
28.833748
 20
163.826469
 30
0.0
 10
28.833748
 20
163.533537
 30
0.0
 10
28.687282
 20
163.094140
 30
0.0
 10
28.394350
 20
162.801209
 30
0.0
 10
27.954953
 20
162.654743
 30
0.0
 10
27.515556
 20
162.654743
 30
0.0
 10
27.076158
 20
162.801209
 30
0.0
 10
26.929693
 20
162.947675
 30
0.0
 10
26.783227
 20
163.240606
 30
0.0
  0
LWPOLYLINE
  5
221
100
AcDbEntity
  8
Layer_1
 62
5
100
AcDbPolyline
 90
4
 70
0
 10
20.997829
 20
190.150101
 30
0.0
 10
21.290761
 20
190.296567
 30
0.0
 10
21.730158
 20
190.735964
 30
0.0
 10
21.730158
 20
187.660183
 30
0.0
  0
LWPOLYLINE
  5
222
100
AcDbEntity
  8
Layer_1
 62
5
100
AcDbPolyline
 90
2
 70
0
 10
25.977665
 20
191.321827
 30
0.0
 10
23.341281
 20
186.634923
 30
0.0
  0
LWPOLYLINE
  5
223
100
AcDbEntity
  8
Layer_1
 62
5
100
AcDbPolyline
 90
3
 70
0
 10
28.174652
 20
190.735964
 30
0.0
 10
26.709994
 20
188.685443
 30
0.0
 10
28.906981
 20
188.685443
 30
0.0
  0
LWPOLYLINE
  5
224
100
AcDbEntity
  8
Layer_1
 62
5
100
AcDbPolyline
 90
2
 70
0
 10
28.174652
 20
190.735964
 30
0.0
 10
28.174652
 20
187.660183
 30
0.0
  0
LWPOLYLINE
  5
225
100
AcDbEntity
  8
Layer_1
 62
5
100
AcDbPolyline
 90
4
 70
0
 10
21.071067
 20
205.150101
 30
0.0
 10
21.363998
 20
205.296567
 30
0.0
 10
21.803395
 20
205.735964
 30
0.0
 10
21.803395
 20
202.660183
 30
0.0
  0
LWPOLYLINE
  5
226
100
AcDbEntity
  8
Layer_1
 62
5
100
AcDbPolyline
 90
2
 70
0
 10
26.050903
 20
206.321827
 30
0.0
 10
23.414519
 20
201.634923
 30
0.0
  0
SPLINE
  5
227
100
AcDbEntity
  8
Layer_1
 62
5
100
AcDbSpline
 70
8
 71
3
 72
8
 73
4
 74
0
 40
0
 40
0
 40
0
 40
0
 40
1
 40
1
 40
1
 40
1
 10
25.436024
 20
270.691394
 30
0.0
 10
25.565094
 20
270.863032
 30
0.0
 10
25.592589
 20
271.090564
 30
0.0
 10
25.508119
 20
271.288006
 30
0.0
  0
SPLINE
  5
228
100
AcDbEntity
  8
Layer_1
 62
5
100
AcDbSpline
 70
8
 71
3
 72
8
 73
4
 74
0
 40
0
 40
0
 40
0
 40
0
 40
1
 40
1
 40
1
 40
1
 10
25.508119
 20
271.288006
 30
0.0
 10
25.423649
 20
271.485449
 30
0.0
 10
25.240097
 20
271.622690
 30
0.0
 10
25.026825
 20
271.647868
 30
0.0
  0
SPLINE
  5
229
100
AcDbEntity
  8
Layer_1
 62
5
100
AcDbSpline
 70
8
 71
3
 72
8
 73
4
 74
0
 40
0
 40
0
 40
0
 40
0
 40
1
 40
1
 40
1
 40
1
 10
25.026825
 20
271.647868
 30
0.0
 10
24.813554
 20
271.673045
 30
0.0
 10
24.603088
 20
271.582319
 30
0.0
 10
24.474964
 20
271.409974
 30
0.0
  0
SPLINE
  5
22a
100
AcDbEntity
  8
Layer_1
 62
5
100
AcDbSpline
 70
8
 71
3
 72
8
 73
4
 74
0
 40
0
 40
0
 40
0
 40
0
 40
1
 40
1
 40
1
 40
1
 10
24.474964
 20
271.409974
 30
0.0
 10
24.345894
 20
271.238336
 30
0.0
 10
24.318399
 20
271.010804
 30
0.0
 10
24.402869
 20
270.813362
 30
0.0
  0
SPLINE
  5
22b
100
AcDbEntity
  8
Layer_1
 62
5
100
AcDbSpline
 70
8
 71
3
 72
8
 73
4
 74
0
 40
0
 40
0
 40
0
 40
0
 40
1
 40
1
 40
1
 40
1
 10
24.402869
 20
270.813362
 30
0.0
 10
24.487339
 20
270.615919
 30
0.0
 10
24.670891
 20
270.478678
 30
0.0
 10
24.884163
 20
270.453500
 30
0.0
  0
SPLINE
  5
22c
100
AcDbEntity
  8
Layer_1
 62
5
100
AcDbSpline
 70
8
 71
3
 72
8
 73
4
 74
0
 40
0
 40
0
 40
0
 40
0
 40
1
 40
1
 40
1
 40
1
 10
24.884163
 20
270.453500
 30
0.0
 10
25.097434
 20
270.428323
 30
0.0
 10
25.307900
 20
270.519049
 30
0.0
 10
25.436024
 20
270.691394
 30
0.0
  0
LWPOLYLINE
  5
22d
100
AcDbEntity
  8
Layer_1
 62
5
100
AcDbPolyline
 90
17
 70
0
 10
28.540821
 20
205.735964
 30
0.0
 10
27.076163
 20
205.735964
 30
0.0
 10
26.929697
 20
204.417772
 30
0.0
 10
27.076163
 20
204.564238
 30
0.0
 10
27.515560
 20
204.710704
 30
0.0
 10
27.954957
 20
204.710704
 30
0.0
 10
28.394355
 20
204.564238
 30
0.0
 10
28.687286
 20
204.271306
 30
0.0
 10
28.833752
 20
203.831909
 30
0.0
 10
28.833752
 20
203.538977
 30
0.0
 10
28.687286
 20
203.099580
 30
0.0
 10
28.394355
 20
202.806649
 30
0.0
 10
27.954957
 20
202.660183
 30
0.0
 10
27.515560
 20
202.660183
 30
0.0
 10
27.076163
 20
202.806649
 30
0.0
 10
26.929697
 20
202.953115
 30
0.0
 10
26.783232
 20
203.246046
 30
0.0
  0
SPLINE
  5
22e
100
AcDbEntity
  8
Layer_1
 62
5
100
AcDbSpline
 70
8
 71
3
 72
8
 73
4
 74
0
 40
0
 40
0
 40
0
 40
0
 40
1
 40
1
 40
1
 40
1
 10
25.429064
 20
-29.308606
 30
0.0
 10
25.558134
 20
-29.136968
 30
0.0
 10
25.585629
 20
-28.909436
 30
0.0
 10
25.501159
 20
-28.711994
 30
0.0
  0
SPLINE
  5
22f
100
AcDbEntity
  8
Layer_1
 62
5
100
AcDbSpline
 70
8
 71
3
 72
8
 73
4
 74
0
 40
0
 40
0
 40
0
 40
0
 40
1
 40
1
 40
1
 40
1
 10
25.501159
 20
-28.711994
 30
0.0
 10
25.416689
 20
-28.514551
 30
0.0
 10
25.233137
 20
-28.377310
 30
0.0
 10
25.019865
 20
-28.352132
 30
0.0
  0
SPLINE
  5
230
100
AcDbEntity
  8
Layer_1
 62
5
100
AcDbSpline
 70
8
 71
3
 72
8
 73
4
 74
0
 40
0
 40
0
 40
0
 40
0
 40
1
 40
1
 40
1
 40
1
 10
25.019865
 20
-28.352132
 30
0.0
 10
24.806594
 20
-28.326955
 30
0.0
 10
24.596128
 20
-28.417681
 30
0.0
 10
24.468004
 20
-28.590026
 30
0.0
  0
SPLINE
  5
231
100
AcDbEntity
  8
Layer_1
 62
5
100
AcDbSpline
 70
8
 71
3
 72
8
 73
4
 74
0
 40
0
 40
0
 40
0
 40
0
 40
1
 40
1
 40
1
 40
1
 10
24.468004
 20
-28.590026
 30
0.0
 10
24.338934
 20
-28.761664
 30
0.0
 10
24.311439
 20
-28.989196
 30
0.0
 10
24.395909
 20
-29.186638
 30
0.0
  0
SPLINE
  5
232
100
AcDbEntity
  8
Layer_1
 62
5
100
AcDbSpline
 70
8
 71
3
 72
8
 73
4
 74
0
 40
0
 40
0
 40
0
 40
0
 40
1
 40
1
 40
1
 40
1
 10
24.395909
 20
-29.186638
 30
0.0
 10
24.480379
 20
-29.384081
 30
0.0
 10
24.663931
 20
-29.521322
 30
0.0
 10
24.877203
 20
-29.546500
 30
0.0
  0
SPLINE
  5
233
100
AcDbEntity
  8
Layer_1
 62
5
100
AcDbSpline
 70
8
 71
3
 72
8
 73
4
 74
0
 40
0
 40
0
 40
0
 40
0
 40
1
 40
1
 40
1
 40
1
 10
24.877203
 20
-29.546500
 30
0.0
 10
25.090474
 20
-29.571677
 30
0.0
 10
25.300940
 20
-29.480951
 30
0.0
 10
25.429064
 20
-29.308606
 30
0.0
  0
LWPOLYLINE
  5
234
100
AcDbEntity
  8
Layer_1
 62
5
100
AcDbPolyline
 90
1
 70
1
 10
25.436024
 20
270.691394
 30
0.0
  0
LWPOLYLINE
  5
235
100
AcDbEntity
  8
Layer_1
 62
5
100
AcDbPolyline
 90
1
 70
1
 10
25.429064
 20
-29.308606
 30
0.0
  0
SPLINE
  5
236
100
AcDbEntity
  8
Layer_1
 62
7
100
AcDbSpline
 70
8
 71
3
 72
8
 73
4
 74
0
 40
0
 40
0
 40
0
 40
0
 40
1
 40
1
 40
1
 40
1
 10
139.495850
 20
5.304914
 30
0.0
 10
139.490850
 20
-2.976446
 30
0.0
 10
132.775200
 20
-9.686706
 30
0.0
 10
124.493850
 20
-9.685606
 30
0.0
  0
SPLINE
  5
237
100
AcDbEntity
  8
Layer_1
 62
7
100
AcDbSpline
 70
8
 71
3
 72
8
 73
4
 74
0
 40
0
 40
0
 40
0
 40
0
 40
1
 40
1
 40
1
 40
1
 10
124.493850
 20
-9.685606
 30
0.0
 10
116.212500
 20
-9.684606
 30
0.0
 10
109.498880
 20
-2.972446
 30
0.0
 10
109.495850
 20
5.308914
 30
0.0
  0
LWPOLYLINE
  5
238
100
AcDbEntity
  8
Layer_1
 62
7
100
AcDbPolyline
 90
3
 70
0
 10
109.522240
 20
285.306934
 30
0.0
 10
139.522250
 20
285.304934
 30
0.0
 10
139.495850
 20
5.304914
 30
0.0
  0
SPLINE
  5
239
100
AcDbEntity
  8
Layer_1
 62
1
100
AcDbSpline
 70
8
 71
3
 72
8
 73
4
 74
0
 40
0
 40
0
 40
0
 40
0
 40
1
 40
1
 40
1
 40
1
 10
134.462880
 20
274.226834
 30
0.0
 10
134.848150
 20
274.741855
 30
0.0
 10
134.929342
 20
275.423311
 30
0.0
 10
134.675864
 20
276.014436
 30
0.0
  0
SPLINE
  5
23a
100
AcDbEntity
  8
Layer_1
 62
1
100
AcDbSpline
 70
8
 71
3
 72
8
 73
4
 74
0
 40
0
 40
0
 40
0
 40
0
 40
1
 40
1
 40
1
 40
1
 10
134.675864
 20
276.014436
 30
0.0
 10
134.422386
 20
276.605560
 30
0.0
 10
133.872759
 20
277.016518
 30
0.0
 10
133.234079
 20
277.092462
 30
0.0
  0
SPLINE
  5
23b
100
AcDbEntity
  8
Layer_1
 62
1
100
AcDbSpline
 70
8
 71
3
 72
8
 73
4
 74
0
 40
0
 40
0
 40
0
 40
0
 40
1
 40
1
 40
1
 40
1
 10
133.234079
 20
277.092462
 30
0.0
 10
132.595399
 20
277.168406
 30
0.0
 10
131.964729
 20
276.897795
 30
0.0
 10
131.579700
 20
276.382594
 30
0.0
  0
SPLINE
  5
23c
100
AcDbEntity
  8
Layer_1
 62
1
100
AcDbSpline
 70
8
 71
3
 72
8
 73
4
 74
0
 40
0
 40
0
 40
0
 40
0
 40
1
 40
1
 40
1
 40
1
 10
131.579700
 20
276.382594
 30
0.0
 10
131.194430
 20
275.867573
 30
0.0
 10
131.113238
 20
275.186117
 30
0.0
 10
131.366716
 20
274.594992
 30
0.0
  0
SPLINE
  5
23d
100
AcDbEntity
  8
Layer_1
 62
1
100
AcDbSpline
 70
8
 71
3
 72
8
 73
4
 74
0
 40
0
 40
0
 40
0
 40
0
 40
1
 40
1
 40
1
 40
1
 10
131.366716
 20
274.594992
 30
0.0
 10
131.620194
 20
274.003868
 30
0.0
 10
132.169821
 20
273.592910
 30
0.0
 10
132.808501
 20
273.516966
 30
0.0
  0
SPLINE
  5
23e
100
AcDbEntity
  8
Layer_1
 62
1
100
AcDbSpline
 70
8
 71
3
 72
8
 73
4
 74
0
 40
0
 40
0
 40
0
 40
0
 40
1
 40
1
 40
1
 40
1
 10
132.808501
 20
273.516966
 30
0.0
 10
133.447181
 20
273.441022
 30
0.0
 10
134.077851
 20
273.711633
 30
0.0
 10
134.462880
 20
274.226834
 30
0.0
  0
LWPOLYLINE
  5
23f
100
AcDbEntity
  8
Layer_1
 62
7
100
AcDbPolyline
 90
2
 70
0
 10
109.495850
 20
5.308914
 30
0.0
 10
109.522240
 20
285.306934
 30
0.0
  0
SPLINE
  5
240
100
AcDbEntity
  8
Layer_1
 62
1
100
AcDbSpline
 70
8
 71
3
 72
8
 73
4
 74
0
 40
0
 40
0
 40
0
 40
0
 40
1
 40
1
 40
1
 40
1
 10
117.462890
 20
274.228454
 30
0.0
 10
117.849612
 20
274.743395
 30
0.0
 10
117.931772
 20
275.425705
 30
0.0
 10
117.678345
 20
276.017729
 30
0.0
  0
SPLINE
  5
241
100
AcDbEntity
  8
Layer_1
 62
1
100
AcDbSpline
 70
8
 71
3
 72
8
 73
4
 74
0
 40
0
 40
0
 40
0
 40
0
 40
1
 40
1
 40
1
 40
1
 10
117.678345
 20
276.017729
 30
0.0
 10
117.424918
 20
276.609754
 30
0.0
 10
116.874518
 20
277.021285
 30
0.0
 10
116.234989
 20
277.096920
 30
0.0
  0
SPLINE
  5
242
100
AcDbEntity
  8
Layer_1
 62
1
100
AcDbSpline
 70
8
 71
3
 72
8
 73
4
 74
0
 40
0
 40
0
 40
0
 40
0
 40
1
 40
1
 40
1
 40
1
 10
116.234989
 20
277.096920
 30
0.0
 10
115.595460
 20
277.172554
 30
0.0
 10
114.964247
 20
276.900769
 30
0.0
 10
114.579710
 20
276.384194
 30
0.0
  0
SPLINE
  5
243
100
AcDbEntity
  8
Layer_1
 62
1
100
AcDbSpline
 70
8
 71
3
 72
8
 73
4
 74
0
 40
0
 40
0
 40
0
 40
0
 40
1
 40
1
 40
1
 40
1
 10
114.579710
 20
276.384194
 30
0.0
 10
114.192988
 20
275.869253
 30
0.0
 10
114.110828
 20
275.186943
 30
0.0
 10
114.364255
 20
274.594919
 30
0.0
  0
SPLINE
  5
244
100
AcDbEntity
  8
Layer_1
 62
1
100
AcDbSpline
 70
8
 71
3
 72
8
 73
4
 74
0
 40
0
 40
0
 40
0
 40
0
 40
1
 40
1
 40
1
 40
1
 10
114.364255
 20
274.594919
 30
0.0
 10
114.617682
 20
274.002894
 30
0.0
 10
115.168082
 20
273.591363
 30
0.0
 10
115.807611
 20
273.515728
 30
0.0
  0
SPLINE
  5
245
100
AcDbEntity
  8
Layer_1
 62
1
100
AcDbSpline
 70
8
 71
3
 72
8
 73
4
 74
0
 40
0
 40
0
 40
0
 40
0
 40
1
 40
1
 40
1
 40
1
 10
115.807611
 20
273.515728
 30
0.0
 10
116.447140
 20
273.440093
 30
0.0
 10
117.078353
 20
273.711879
 30
0.0
 10
117.462890
 20
274.228454
 30
0.0
  0
LWPOLYLINE
  5
246
100
AcDbEntity
  8
Layer_1
 62
1
100
AcDbPolyline
 90
1
 70
1
 10
134.462880
 20
274.226834
 30
0.0
  0
SPLINE
  5
247
100
AcDbEntity
  8
Layer_1
 62
1
100
AcDbSpline
 70
8
 71
3
 72
8
 73
4
 74
0
 40
0
 40
0
 40
0
 40
0
 40
1
 40
1
 40
1
 40
1
 10
126.919650
 20
82.102014
 30
0.0
 10
127.564999
 20
81.243824
 30
0.0
 10
127.702475
 20
80.106163
 30
0.0
 10
127.280126
 20
79.118952
 30
0.0
  0
SPLINE
  5
248
100
AcDbEntity
  8
Layer_1
 62
1
100
AcDbSpline
 70
8
 71
3
 72
8
 73
4
 74
0
 40
0
 40
0
 40
0
 40
0
 40
1
 40
1
 40
1
 40
1
 10
127.280126
 20
79.118952
 30
0.0
 10
126.857777
 20
78.131740
 30
0.0
 10
125.940013
 20
77.445532
 30
0.0
 10
124.873656
 20
77.319645
 30
0.0
  0
SPLINE
  5
249
100
AcDbEntity
  8
Layer_1
 62
1
100
AcDbSpline
 70
8
 71
3
 72
8
 73
4
 74
0
 40
0
 40
0
 40
0
 40
0
 40
1
 40
1
 40
1
 40
1
 10
124.873656
 20
77.319645
 30
0.0
 10
123.807298
 20
77.193758
 30
0.0
 10
122.754972
 20
77.647390
 30
0.0
 10
122.114350
 20
78.509114
 30
0.0
  0
SPLINE
  5
24a
100
AcDbEntity
  8
Layer_1
 62
1
100
AcDbSpline
 70
8
 71
3
 72
8
 73
4
 74
0
 40
0
 40
0
 40
0
 40
0
 40
1
 40
1
 40
1
 40
1
 10
122.114350
 20
78.509114
 30
0.0
 10
121.469001
 20
79.367304
 30
0.0
 10
121.331525
 20
80.504965
 30
0.0
 10
121.753874
 20
81.492176
 30
0.0
  0
SPLINE
  5
24b
100
AcDbEntity
  8
Layer_1
 62
1
100
AcDbSpline
 70
8
 71
3
 72
8
 73
4
 74
0
 40
0
 40
0
 40
0
 40
0
 40
1
 40
1
 40
1
 40
1
 10
121.753874
 20
81.492176
 30
0.0
 10
122.176223
 20
82.479388
 30
0.0
 10
123.093987
 20
83.165595
 30
0.0
 10
124.160344
 20
83.291483
 30
0.0
  0
SPLINE
  5
24c
100
AcDbEntity
  8
Layer_1
 62
1
100
AcDbSpline
 70
8
 71
3
 72
8
 73
4
 74
0
 40
0
 40
0
 40
0
 40
0
 40
1
 40
1
 40
1
 40
1
 10
124.160344
 20
83.291483
 30
0.0
 10
125.226702
 20
83.417370
 30
0.0
 10
126.279028
 20
82.963738
 30
0.0
 10
126.919650
 20
82.102014
 30
0.0
  0
LWPOLYLINE
  5
24d
100
AcDbEntity
  8
Layer_1
 62
1
100
AcDbPolyline
 90
1
 70
1
 10
117.462890
 20
274.228454
 30
0.0
  0
SPLINE
  5
24e
100
AcDbEntity
  8
Layer_1
 62
1
100
AcDbSpline
 70
8
 71
3
 72
8
 73
4
 74
0
 40
0
 40
0
 40
0
 40
0
 40
1
 40
1
 40
1
 40
1
 10
126.921080
 20
67.102034
 30
0.0
 10
127.563082
 20
66.243656
 30
0.0
 10
127.698323
 20
65.107959
 30
0.0
 10
127.275851
 20
64.122822
 30
0.0
  0
SPLINE
  5
24f
100
AcDbEntity
  8
Layer_1
 62
1
100
AcDbSpline
 70
8
 71
3
 72
8
 73
4
 74
0
 40
0
 40
0
 40
0
 40
0
 40
1
 40
1
 40
1
 40
1
 10
127.275851
 20
64.122822
 30
0.0
 10
126.853379
 20
63.137685
 30
0.0
 10
125.937390
 20
62.452804
 30
0.0
 10
124.872988
 20
62.326210
 30
0.0
  0
SPLINE
  5
250
100
AcDbEntity
  8
Layer_1
 62
1
100
AcDbSpline
 70
8
 71
3
 72
8
 73
4
 74
0
 40
0
 40
0
 40
0
 40
0
 40
1
 40
1
 40
1
 40
1
 10
124.872988
 20
62.326210
 30
0.0
 10
123.808585
 20
62.199617
 30
0.0
 10
122.757510
 20
62.650548
 30
0.0
 10
122.115760
 20
63.509114
 30
0.0
  0
SPLINE
  5
251
100
AcDbEntity
  8
Layer_1
 62
1
100
AcDbSpline
 70
8
 71
3
 72
8
 73
4
 74
0
 40
0
 40
0
 40
0
 40
0
 40
1
 40
1
 40
1
 40
1
 10
122.115760
 20
63.509114
 30
0.0
 10
121.473758
 20
64.367492
 30
0.0
 10
121.338517
 20
65.503188
 30
0.0
 10
121.760989
 20
66.488326
 30
0.0
  0
SPLINE
  5
252
100
AcDbEntity
  8
Layer_1
 62
1
100
AcDbSpline
 70
8
 71
3
 72
8
 73
4
 74
0
 40
0
 40
0
 40
0
 40
0
 40
1
 40
1
 40
1
 40
1
 10
121.760989
 20
66.488326
 30
0.0
 10
122.183461
 20
67.473463
 30
0.0
 10
123.099450
 20
68.158344
 30
0.0
 10
124.163852
 20
68.284938
 30
0.0
  0
SPLINE
  5
253
100
AcDbEntity
  8
Layer_1
 62
1
100
AcDbSpline
 70
8
 71
3
 72
8
 73
4
 74
0
 40
0
 40
0
 40
0
 40
0
 40
1
 40
1
 40
1
 40
1
 10
124.163852
 20
68.284938
 30
0.0
 10
125.228255
 20
68.411531
 30
0.0
 10
126.279330
 20
67.960599
 30
0.0
 10
126.921080
 20
67.102034
 30
0.0
  0
LWPOLYLINE
  5
254
100
AcDbEntity
  8
Layer_1
 62
1
100
AcDbPolyline
 90
1
 70
1
 10
126.919650
 20
82.102014
 30
0.0
  0
SPLINE
  5
255
100
AcDbEntity
  8
Layer_1
 62
1
100
AcDbSpline
 70
8
 71
3
 72
8
 73
4
 74
0
 40
0
 40
0
 40
0
 40
0
 40
1
 40
1
 40
1
 40
1
 10
126.917280
 20
107.102014
 30
0.0
 10
127.563644
 20
106.243886
 30
0.0
 10
127.701800
 20
105.105634
 30
0.0
 10
127.279493
 20
104.117795
 30
0.0
  0
SPLINE
  5
256
100
AcDbEntity
  8
Layer_1
 62
1
100
AcDbSpline
 70
8
 71
3
 72
8
 73
4
 74
0
 40
0
 40
0
 40
0
 40
0
 40
1
 40
1
 40
1
 40
1
 10
127.279493
 20
104.117795
 30
0.0
 10
126.857185
 20
103.129956
 30
0.0
 10
125.938888
 20
102.443345
 30
0.0
 10
124.871941
 20
102.317669
 30
0.0
  0
SPLINE
  5
257
100
AcDbEntity
  8
Layer_1
 62
1
100
AcDbSpline
 70
8
 71
3
 72
8
 73
4
 74
0
 40
0
 40
0
 40
0
 40
0
 40
1
 40
1
 40
1
 40
1
 10
124.871941
 20
102.317669
 30
0.0
 10
123.804994
 20
102.191993
 30
0.0
 10
122.752291
 20
102.646438
 30
0.0
 10
122.112010
 20
103.509114
 30
0.0
  0
SPLINE
  5
258
100
AcDbEntity
  8
Layer_1
 62
1
100
AcDbSpline
 70
8
 71
3
 72
8
 73
4
 74
0
 40
0
 40
0
 40
0
 40
0
 40
1
 40
1
 40
1
 40
1
 10
122.112010
 20
103.509114
 30
0.0
 10
121.465646
 20
104.367242
 30
0.0
 10
121.327490
 20
105.505494
 30
0.0
 10
121.749797
 20
106.493333
 30
0.0
  0
SPLINE
  5
259
100
AcDbEntity
  8
Layer_1
 62
1
100
AcDbSpline
 70
8
 71
3
 72
8
 73
4
 74
0
 40
0
 40
0
 40
0
 40
0
 40
1
 40
1
 40
1
 40
1
 10
121.749797
 20
106.493333
 30
0.0
 10
122.172105
 20
107.481172
 30
0.0
 10
123.090402
 20
108.167783
 30
0.0
 10
124.157349
 20
108.293459
 30
0.0
  0
SPLINE
  5
25a
100
AcDbEntity
  8
Layer_1
 62
1
100
AcDbSpline
 70
8
 71
3
 72
8
 73
4
 74
0
 40
0
 40
0
 40
0
 40
0
 40
1
 40
1
 40
1
 40
1
 10
124.157349
 20
108.293459
 30
0.0
 10
125.224296
 20
108.419135
 30
0.0
 10
126.276999
 20
107.964690
 30
0.0
 10
126.917280
 20
107.102014
 30
0.0
  0
LWPOLYLINE
  5
25b
100
AcDbEntity
  8
Layer_1
 62
1
100
AcDbPolyline
 90
1
 70
1
 10
126.921080
 20
67.102034
 30
0.0
  0
SPLINE
  5
25c
100
AcDbEntity
  8
Layer_1
 62
5
100
AcDbSpline
 70
8
 71
3
 72
8
 73
4
 74
0
 40
0
 40
0
 40
0
 40
0
 40
1
 40
1
 40
1
 40
1
 10
124.990500
 20
154.946234
 30
0.0
 10
125.119570
 20
155.117872
 30
0.0
 10
125.147065
 20
155.345404
 30
0.0
 10
125.062595
 20
155.542846
 30
0.0
  0
SPLINE
  5
25d
100
AcDbEntity
  8
Layer_1
 62
5
100
AcDbSpline
 70
8
 71
3
 72
8
 73
4
 74
0
 40
0
 40
0
 40
0
 40
0
 40
1
 40
1
 40
1
 40
1
 10
125.062595
 20
155.542846
 30
0.0
 10
124.978125
 20
155.740289
 30
0.0
 10
124.794573
 20
155.877530
 30
0.0
 10
124.581301
 20
155.902708
 30
0.0
  0
SPLINE
  5
25e
100
AcDbEntity
  8
Layer_1
 62
5
100
AcDbSpline
 70
8
 71
3
 72
8
 73
4
 74
0
 40
0
 40
0
 40
0
 40
0
 40
1
 40
1
 40
1
 40
1
 10
124.581301
 20
155.902708
 30
0.0
 10
124.368030
 20
155.927885
 30
0.0
 10
124.157564
 20
155.837159
 30
0.0
 10
124.029440
 20
155.664814
 30
0.0
  0
SPLINE
  5
25f
100
AcDbEntity
  8
Layer_1
 62
5
100
AcDbSpline
 70
8
 71
3
 72
8
 73
4
 74
0
 40
0
 40
0
 40
0
 40
0
 40
1
 40
1
 40
1
 40
1
 10
124.029440
 20
155.664814
 30
0.0
 10
123.900370
 20
155.493176
 30
0.0
 10
123.872875
 20
155.265644
 30
0.0
 10
123.957345
 20
155.068202
 30
0.0
  0
SPLINE
  5
260
100
AcDbEntity
  8
Layer_1
 62
5
100
AcDbSpline
 70
8
 71
3
 72
8
 73
4
 74
0
 40
0
 40
0
 40
0
 40
0
 40
1
 40
1
 40
1
 40
1
 10
123.957345
 20
155.068202
 30
0.0
 10
124.041815
 20
154.870759
 30
0.0
 10
124.225367
 20
154.733518
 30
0.0
 10
124.438639
 20
154.708340
 30
0.0
  0
SPLINE
  5
261
100
AcDbEntity
  8
Layer_1
 62
5
100
AcDbSpline
 70
8
 71
3
 72
8
 73
4
 74
0
 40
0
 40
0
 40
0
 40
0
 40
1
 40
1
 40
1
 40
1
 10
124.438639
 20
154.708340
 30
0.0
 10
124.651910
 20
154.683163
 30
0.0
 10
124.862376
 20
154.773889
 30
0.0
 10
124.990500
 20
154.946234
 30
0.0
  0
LWPOLYLINE
  5
262
100
AcDbEntity
  8
Layer_1
 62
1
100
AcDbPolyline
 90
1
 70
1
 10
126.917280
 20
107.102014
 30
0.0
  0
SPLINE
  5
263
100
AcDbEntity
  8
Layer_1
 62
5
100
AcDbSpline
 70
8
 71
3
 72
8
 73
4
 74
0
 40
0
 40
0
 40
0
 40
0
 40
1
 40
1
 40
1
 40
1
 10
124.995180
 20
104.946254
 30
0.0
 10
125.124250
 20
105.117892
 30
0.0
 10
125.151745
 20
105.345424
 30
0.0
 10
125.067275
 20
105.542866
 30
0.0
  0
SPLINE
  5
264
100
AcDbEntity
  8
Layer_1
 62
5
100
AcDbSpline
 70
8
 71
3
 72
8
 73
4
 74
0
 40
0
 40
0
 40
0
 40
0
 40
1
 40
1
 40
1
 40
1
 10
125.067275
 20
105.542866
 30
0.0
 10
124.982805
 20
105.740309
 30
0.0
 10
124.799253
 20
105.877550
 30
0.0
 10
124.585981
 20
105.902728
 30
0.0
  0
SPLINE
  5
265
100
AcDbEntity
  8
Layer_1
 62
5
100
AcDbSpline
 70
8
 71
3
 72
8
 73
4
 74
0
 40
0
 40
0
 40
0
 40
0
 40
1
 40
1
 40
1
 40
1
 10
124.585981
 20
105.902728
 30
0.0
 10
124.372710
 20
105.927905
 30
0.0
 10
124.162244
 20
105.837179
 30
0.0
 10
124.034120
 20
105.664834
 30
0.0
  0
SPLINE
  5
266
100
AcDbEntity
  8
Layer_1
 62
5
100
AcDbSpline
 70
8
 71
3
 72
8
 73
4
 74
0
 40
0
 40
0
 40
0
 40
0
 40
1
 40
1
 40
1
 40
1
 10
124.034120
 20
105.664834
 30
0.0
 10
123.905050
 20
105.493196
 30
0.0
 10
123.877555
 20
105.265664
 30
0.0
 10
123.962025
 20
105.068222
 30
0.0
  0
SPLINE
  5
267
100
AcDbEntity
  8
Layer_1
 62
5
100
AcDbSpline
 70
8
 71
3
 72
8
 73
4
 74
0
 40
0
 40
0
 40
0
 40
0
 40
1
 40
1
 40
1
 40
1
 10
123.962025
 20
105.068222
 30
0.0
 10
124.046495
 20
104.870779
 30
0.0
 10
124.230047
 20
104.733538
 30
0.0
 10
124.443319
 20
104.708360
 30
0.0
  0
SPLINE
  5
268
100
AcDbEntity
  8
Layer_1
 62
5
100
AcDbSpline
 70
8
 71
3
 72
8
 73
4
 74
0
 40
0
 40
0
 40
0
 40
0
 40
1
 40
1
 40
1
 40
1
 10
124.443319
 20
104.708360
 30
0.0
 10
124.656590
 20
104.683183
 30
0.0
 10
124.867056
 20
104.773909
 30
0.0
 10
124.995180
 20
104.946254
 30
0.0
  0
LWPOLYLINE
  5
269
100
AcDbEntity
  8
Layer_1
 62
5
100
AcDbPolyline
 90
1
 70
1
 10
124.990500
 20
154.946234
 30
0.0
  0
SPLINE
  5
26a
100
AcDbEntity
  8
Layer_1
 62
5
100
AcDbSpline
 70
8
 71
3
 72
8
 73
4
 74
0
 40
0
 40
0
 40
0
 40
0
 40
1
 40
1
 40
1
 40
1
 10
124.997530
 20
79.946274
 30
0.0
 10
125.125896
 20
80.117951
 30
0.0
 10
125.152922
 20
80.345069
 30
0.0
 10
125.068428
 20
80.542075
 30
0.0
  0
SPLINE
  5
26b
100
AcDbEntity
  8
Layer_1
 62
5
100
AcDbSpline
 70
8
 71
3
 72
8
 73
4
 74
0
 40
0
 40
0
 40
0
 40
0
 40
1
 40
1
 40
1
 40
1
 10
125.068428
 20
80.542075
 30
0.0
 10
124.983934
 20
80.739081
 30
0.0
 10
124.800757
 20
80.876046
 30
0.0
 10
124.587898
 20
80.901375
 30
0.0
  0
SPLINE
  5
26c
100
AcDbEntity
  8
Layer_1
 62
5
100
AcDbSpline
 70
8
 71
3
 72
8
 73
4
 74
0
 40
0
 40
0
 40
0
 40
0
 40
1
 40
1
 40
1
 40
1
 10
124.587898
 20
80.901375
 30
0.0
 10
124.375039
 20
80.926705
 30
0.0
 10
124.164836
 20
80.836551
 30
0.0
 10
124.036470
 20
80.664874
 30
0.0
  0
SPLINE
  5
26d
100
AcDbEntity
  8
Layer_1
 62
5
100
AcDbSpline
 70
8
 71
3
 72
8
 73
4
 74
0
 40
0
 40
0
 40
0
 40
0
 40
1
 40
1
 40
1
 40
1
 10
124.036470
 20
80.664874
 30
0.0
 10
123.838034
 20
80.399485
 30
0.0
 10
123.892311
 20
80.023480
 30
0.0
 10
124.157700
 20
79.825044
 30
0.0
  0
SPLINE
  5
26e
100
AcDbEntity
  8
Layer_1
 62
5
100
AcDbSpline
 70
8
 71
3
 72
8
 73
4
 74
0
 40
0
 40
0
 40
0
 40
0
 40
1
 40
1
 40
1
 40
1
 10
124.157700
 20
79.825044
 30
0.0
 10
124.423089
 20
79.626608
 30
0.0
 10
124.799094
 20
79.680885
 30
0.0
 10
124.997530
 20
79.946274
 30
0.0
  0
LWPOLYLINE
  5
26f
100
AcDbEntity
  8
Layer_1
 62
5
100
AcDbPolyline
 90
1
 70
1
 10
124.995180
 20
104.946254
 30
0.0
  0
SPLINE
  5
270
100
AcDbEntity
  8
Layer_1
 62
5
100
AcDbSpline
 70
8
 71
3
 72
8
 73
4
 74
0
 40
0
 40
0
 40
0
 40
0
 40
1
 40
1
 40
1
 40
1
 10
124.998950
 20
64.946274
 30
0.0
 10
125.127316
 20
65.117951
 30
0.0
 10
125.154342
 20
65.345069
 30
0.0
 10
125.069848
 20
65.542075
 30
0.0
  0
SPLINE
  5
271
100
AcDbEntity
  8
Layer_1
 62
5
100
AcDbSpline
 70
8
 71
3
 72
8
 73
4
 74
0
 40
0
 40
0
 40
0
 40
0
 40
1
 40
1
 40
1
 40
1
 10
125.069848
 20
65.542075
 30
0.0
 10
124.985354
 20
65.739081
 30
0.0
 10
124.802177
 20
65.876046
 30
0.0
 10
124.589318
 20
65.901375
 30
0.0
  0
SPLINE
  5
272
100
AcDbEntity
  8
Layer_1
 62
5
100
AcDbSpline
 70
8
 71
3
 72
8
 73
4
 74
0
 40
0
 40
0
 40
0
 40
0
 40
1
 40
1
 40
1
 40
1
 10
124.589318
 20
65.901375
 30
0.0
 10
124.376459
 20
65.926705
 30
0.0
 10
124.166256
 20
65.836551
 30
0.0
 10
124.037890
 20
65.664874
 30
0.0
  0
SPLINE
  5
273
100
AcDbEntity
  8
Layer_1
 62
5
100
AcDbSpline
 70
8
 71
3
 72
8
 73
4
 74
0
 40
0
 40
0
 40
0
 40
0
 40
1
 40
1
 40
1
 40
1
 10
124.037890
 20
65.664874
 30
0.0
 10
123.909524
 20
65.493197
 30
0.0
 10
123.882498
 20
65.266079
 30
0.0
 10
123.966992
 20
65.069073
 30
0.0
  0
SPLINE
  5
274
100
AcDbEntity
  8
Layer_1
 62
5
100
AcDbSpline
 70
8
 71
3
 72
8
 73
4
 74
0
 40
0
 40
0
 40
0
 40
0
 40
1
 40
1
 40
1
 40
1
 10
123.966992
 20
65.069073
 30
0.0
 10
124.051486
 20
64.872067
 30
0.0
 10
124.234663
 20
64.735102
 30
0.0
 10
124.447522
 20
64.709773
 30
0.0
  0
SPLINE
  5
275
100
AcDbEntity
  8
Layer_1
 62
5
100
AcDbSpline
 70
8
 71
3
 72
8
 73
4
 74
0
 40
0
 40
0
 40
0
 40
0
 40
1
 40
1
 40
1
 40
1
 10
124.447522
 20
64.709773
 30
0.0
 10
124.660381
 20
64.684443
 30
0.0
 10
124.870584
 20
64.774597
 30
0.0
 10
124.998950
 20
64.946274
 30
0.0
  0
LWPOLYLINE
  5
276
100
AcDbEntity
  8
Layer_1
 62
5
100
AcDbPolyline
 90
1
 70
1
 10
124.997530
 20
79.946274
 30
0.0
  0
LWPOLYLINE
  5
277
100
AcDbEntity
  8
Layer_1
 62
5
100
AcDbPolyline
 90
1
 70
1
 10
124.998950
 20
64.946274
 30
0.0
  0
LWPOLYLINE
  5
278
100
AcDbEntity
  8
Layer_1
 62
5
100
AcDbPolyline
 90
4
 70
0
 10
120.637139
 20
150.075061
 30
0.0
 10
120.930070
 20
150.221527
 30
0.0
 10
121.369468
 20
150.660924
 30
0.0
 10
121.369468
 20
147.585143
 30
0.0
  0
LWPOLYLINE
  5
279
100
AcDbEntity
  8
Layer_1
 62
5
100
AcDbPolyline
 90
2
 70
0
 10
125.616975
 20
151.246787
 30
0.0
 10
122.980591
 20
146.559883
 30
0.0
  0
LWPOLYLINE
  5
27a
100
AcDbEntity
  8
Layer_1
 62
5
100
AcDbPolyline
 90
14
 70
0
 10
126.495770
 20
149.928595
 30
0.0
 10
126.495770
 20
150.075061
 30
0.0
 10
126.642235
 20
150.367992
 30
0.0
 10
126.788701
 20
150.514458
 30
0.0
 10
127.081632
 20
150.660924
 30
0.0
 10
127.667496
 20
150.660924
 30
0.0
 10
127.960427
 20
150.514458
 30
0.0
 10
128.106893
 20
150.367992
 30
0.0
 10
128.253359
 20
150.075061
 30
0.0
 10
128.253359
 20
149.782129
 30
0.0
 10
128.106893
 20
149.489198
 30
0.0
 10
127.813961
 20
149.049800
 30
0.0
 10
126.349304
 20
147.585143
 30
0.0
 10
128.399824
 20
147.585143
 30
0.0
  0
LWPOLYLINE
  5
27b
100
AcDbEntity
  8
Layer_1
 62
5
100
AcDbPolyline
 90
4
 70
0
 10
120.633297
 20
99.568261
 30
0.0
 10
120.926228
 20
99.714727
 30
0.0
 10
121.365625
 20
100.154124
 30
0.0
 10
121.365625
 20
97.078343
 30
0.0
  0
LWPOLYLINE
  5
27c
100
AcDbEntity
  8
Layer_1
 62
5
100
AcDbPolyline
 90
2
 70
0
 10
125.613132
 20
100.739987
 30
0.0
 10
122.976749
 20
96.053083
 30
0.0
  0
LWPOLYLINE
  5
27d
100
AcDbEntity
  8
Layer_1
 62
5
100
AcDbPolyline
 90
15
 70
0
 10
126.638392
 20
100.154124
 30
0.0
 10
128.249516
 20
100.154124
 30
0.0
 10
127.370721
 20
98.982398
 30
0.0
 10
127.810119
 20
98.982398
 30
0.0
 10
128.103050
 20
98.835932
 30
0.0
 10
128.249516
 20
98.689466
 30
0.0
 10
128.395982
 20
98.250069
 30
0.0
 10
128.395982
 20
97.957137
 30
0.0
 10
128.249516
 20
97.517740
 30
0.0
 10
127.956584
 20
97.224809
 30
0.0
 10
127.517187
 20
97.078343
 30
0.0
 10
127.077790
 20
97.078343
 30
0.0
 10
126.638392
 20
97.224809
 30
0.0
 10
126.491927
 20
97.371275
 30
0.0
 10
126.345461
 20
97.664206
 30
0.0
  0
LWPOLYLINE
  5
27e
100
AcDbEntity
  8
Layer_1
 62
5
100
AcDbPolyline
 90
4
 70
0
 10
120.560067
 20
75.100041
 30
0.0
 10
120.852999
 20
75.246507
 30
0.0
 10
121.292396
 20
75.685904
 30
0.0
 10
121.292396
 20
72.610123
 30
0.0
  0
LWPOLYLINE
  5
27f
100
AcDbEntity
  8
Layer_1
 62
5
100
AcDbPolyline
 90
2
 70
0
 10
125.539903
 20
76.271767
 30
0.0
 10
122.903519
 20
71.584863
 30
0.0
  0
LWPOLYLINE
  5
280
100
AcDbEntity
  8
Layer_1
 62
5
100
AcDbPolyline
 90
3
 70
0
 10
127.736890
 20
75.685904
 30
0.0
 10
126.272232
 20
73.635383
 30
0.0
 10
128.469219
 20
73.635383
 30
0.0
  0
LWPOLYLINE
  5
281
100
AcDbEntity
  8
Layer_1
 62
5
100
AcDbPolyline
 90
2
 70
0
 10
127.736890
 20
75.685904
 30
0.0
 10
127.736890
 20
72.610123
 30
0.0
  0
LWPOLYLINE
  5
282
100
AcDbEntity
  8
Layer_1
 62
5
100
AcDbPolyline
 90
4
 70
0
 10
120.633301
 20
59.801861
 30
0.0
 10
120.926232
 20
59.948327
 30
0.0
 10
121.365629
 20
60.387724
 30
0.0
 10
121.365629
 20
57.311943
 30
0.0
  0
LWPOLYLINE
  5
283
100
AcDbEntity
  8
Layer_1
 62
5
100
AcDbPolyline
 90
2
 70
0
 10
125.613137
 20
60.973587
 30
0.0
 10
122.976753
 20
56.286683
 30
0.0
  0
SPLINE
  5
284
100
AcDbEntity
  8
Layer_1
 62
5
100
AcDbSpline
 70
8
 71
3
 72
8
 73
4
 74
0
 40
0
 40
0
 40
0
 40
0
 40
1
 40
1
 40
1
 40
1
 10
83.315017
 20
274.947024
 30
0.0
 10
83.444087
 20
275.118662
 30
0.0
 10
83.471582
 20
275.346194
 30
0.0
 10
83.387112
 20
275.543636
 30
0.0
  0
SPLINE
  5
285
100
AcDbEntity
  8
Layer_1
 62
5
100
AcDbSpline
 70
8
 71
3
 72
8
 73
4
 74
0
 40
0
 40
0
 40
0
 40
0
 40
1
 40
1
 40
1
 40
1
 10
83.387112
 20
275.543636
 30
0.0
 10
83.302642
 20
275.741079
 30
0.0
 10
83.119090
 20
275.878320
 30
0.0
 10
82.905818
 20
275.903498
 30
0.0
  0
SPLINE
  5
286
100
AcDbEntity
  8
Layer_1
 62
5
100
AcDbSpline
 70
8
 71
3
 72
8
 73
4
 74
0
 40
0
 40
0
 40
0
 40
0
 40
1
 40
1
 40
1
 40
1
 10
82.905818
 20
275.903498
 30
0.0
 10
82.692547
 20
275.928675
 30
0.0
 10
82.482081
 20
275.837949
 30
0.0
 10
82.353957
 20
275.665604
 30
0.0
  0
SPLINE
  5
287
100
AcDbEntity
  8
Layer_1
 62
5
100
AcDbSpline
 70
8
 71
3
 72
8
 73
4
 74
0
 40
0
 40
0
 40
0
 40
0
 40
1
 40
1
 40
1
 40
1
 10
82.353957
 20
275.665604
 30
0.0
 10
82.224887
 20
275.493966
 30
0.0
 10
82.197392
 20
275.266434
 30
0.0
 10
82.281862
 20
275.068992
 30
0.0
  0
SPLINE
  5
288
100
AcDbEntity
  8
Layer_1
 62
5
100
AcDbSpline
 70
8
 71
3
 72
8
 73
4
 74
0
 40
0
 40
0
 40
0
 40
0
 40
1
 40
1
 40
1
 40
1
 10
82.281862
 20
275.068992
 30
0.0
 10
82.366332
 20
274.871549
 30
0.0
 10
82.549884
 20
274.734308
 30
0.0
 10
82.763156
 20
274.709130
 30
0.0
  0
SPLINE
  5
289
100
AcDbEntity
  8
Layer_1
 62
5
100
AcDbSpline
 70
8
 71
3
 72
8
 73
4
 74
0
 40
0
 40
0
 40
0
 40
0
 40
1
 40
1
 40
1
 40
1
 10
82.763156
 20
274.709130
 30
0.0
 10
82.976427
 20
274.683953
 30
0.0
 10
83.186893
 20
274.774679
 30
0.0
 10
83.315017
 20
274.947024
 30
0.0
  0
LWPOLYLINE
  5
28a
100
AcDbEntity
  8
Layer_1
 62
5
100
AcDbPolyline
 90
17
 70
0
 10
128.103055
 20
60.387724
 30
0.0
 10
126.638397
 20
60.387724
 30
0.0
 10
126.491931
 20
59.069532
 30
0.0
 10
126.638397
 20
59.215998
 30
0.0
 10
127.077794
 20
59.362464
 30
0.0
 10
127.517191
 20
59.362464
 30
0.0
 10
127.956589
 20
59.215998
 30
0.0
 10
128.249520
 20
58.923066
 30
0.0
 10
128.395986
 20
58.483669
 30
0.0
 10
128.395986
 20
58.190737
 30
0.0
 10
128.249520
 20
57.751340
 30
0.0
 10
127.956589
 20
57.458409
 30
0.0
 10
127.517191
 20
57.311943
 30
0.0
 10
127.077794
 20
57.311943
 30
0.0
 10
126.638397
 20
57.458409
 30
0.0
 10
126.491931
 20
57.604875
 30
0.0
 10
126.345466
 20
57.897806
 30
0.0
  0
SPLINE
  5
28b
100
AcDbEntity
  8
Layer_1
 62
5
100
AcDbSpline
 70
8
 71
3
 72
8
 73
4
 74
0
 40
0
 40
0
 40
0
 40
0
 40
1
 40
1
 40
1
 40
1
 10
100.315000
 20
274.947024
 30
0.0
 10
100.444130
 20
275.118658
 30
0.0
 10
100.471665
 20
275.346226
 30
0.0
 10
100.387198
 20
275.543705
 30
0.0
  0
SPLINE
  5
28c
100
AcDbEntity
  8
Layer_1
 62
5
100
AcDbSpline
 70
8
 71
3
 72
8
 73
4
 74
0
 40
0
 40
0
 40
0
 40
0
 40
1
 40
1
 40
1
 40
1
 10
100.387198
 20
275.543705
 30
0.0
 10
100.302730
 20
275.741185
 30
0.0
 10
100.119146
 20
275.878450
 30
0.0
 10
99.905839
 20
275.903615
 30
0.0
  0
SPLINE
  5
28d
100
AcDbEntity
  8
Layer_1
 62
5
100
AcDbSpline
 70
8
 71
3
 72
8
 73
4
 74
0
 40
0
 40
0
 40
0
 40
0
 40
1
 40
1
 40
1
 40
1
 10
99.905839
 20
275.903615
 30
0.0
 10
99.692533
 20
275.928780
 30
0.0
 10
99.482045
 20
275.838005
 30
0.0
 10
99.353941
 20
275.665604
 30
0.0
  0
SPLINE
  5
28e
100
AcDbEntity
  8
Layer_1
 62
5
100
AcDbSpline
 70
8
 71
3
 72
8
 73
4
 74
0
 40
0
 40
0
 40
0
 40
0
 40
1
 40
1
 40
1
 40
1
 10
99.353941
 20
275.665604
 30
0.0
 10
99.224811
 20
275.493969
 30
0.0
 10
99.197276
 20
275.266402
 30
0.0
 10
99.281743
 20
275.068923
 30
0.0
  0
SPLINE
  5
28f
100
AcDbEntity
  8
Layer_1
 62
5
100
AcDbSpline
 70
8
 71
3
 72
8
 73
4
 74
0
 40
0
 40
0
 40
0
 40
0
 40
1
 40
1
 40
1
 40
1
 10
99.281743
 20
275.068923
 30
0.0
 10
99.366211
 20
274.871443
 30
0.0
 10
99.549795
 20
274.734178
 30
0.0
 10
99.763102
 20
274.709013
 30
0.0
  0
SPLINE
  5
290
100
AcDbEntity
  8
Layer_1
 62
5
100
AcDbSpline
 70
8
 71
3
 72
8
 73
4
 74
0
 40
0
 40
0
 40
0
 40
0
 40
1
 40
1
 40
1
 40
1
 10
99.763102
 20
274.709013
 30
0.0
 10
99.976408
 20
274.683848
 30
0.0
 10
100.186896
 20
274.774623
 30
0.0
 10
100.315000
 20
274.947024
 30
0.0
  0
LWPOLYLINE
  5
291
100
AcDbEntity
  8
Layer_1
 62
5
100
AcDbPolyline
 90
1
 70
1
 10
83.315017
 20
274.947024
 30
0.0
  0
SPLINE
  5
292
100
AcDbEntity
  8
Layer_1
 62
5
100
AcDbSpline
 70
8
 71
3
 72
8
 73
4
 74
0
 40
0
 40
0
 40
0
 40
0
 40
1
 40
1
 40
1
 40
1
 10
116.501830
 20
274.947024
 30
0.0
 10
116.630900
 20
275.118662
 30
0.0
 10
116.658395
 20
275.346194
 30
0.0
 10
116.573925
 20
275.543636
 30
0.0
  0
SPLINE
  5
293
100
AcDbEntity
  8
Layer_1
 62
5
100
AcDbSpline
 70
8
 71
3
 72
8
 73
4
 74
0
 40
0
 40
0
 40
0
 40
0
 40
1
 40
1
 40
1
 40
1
 10
116.573925
 20
275.543636
 30
0.0
 10
116.489455
 20
275.741079
 30
0.0
 10
116.305903
 20
275.878320
 30
0.0
 10
116.092631
 20
275.903498
 30
0.0
  0
SPLINE
  5
294
100
AcDbEntity
  8
Layer_1
 62
5
100
AcDbSpline
 70
8
 71
3
 72
8
 73
4
 74
0
 40
0
 40
0
 40
0
 40
0
 40
1
 40
1
 40
1
 40
1
 10
116.092631
 20
275.903498
 30
0.0
 10
115.879360
 20
275.928675
 30
0.0
 10
115.668894
 20
275.837949
 30
0.0
 10
115.540770
 20
275.665604
 30
0.0
  0
SPLINE
  5
295
100
AcDbEntity
  8
Layer_1
 62
5
100
AcDbSpline
 70
8
 71
3
 72
8
 73
4
 74
0
 40
0
 40
0
 40
0
 40
0
 40
1
 40
1
 40
1
 40
1
 10
115.540770
 20
275.665604
 30
0.0
 10
115.411700
 20
275.493966
 30
0.0
 10
115.384205
 20
275.266434
 30
0.0
 10
115.468675
 20
275.068992
 30
0.0
  0
SPLINE
  5
296
100
AcDbEntity
  8
Layer_1
 62
5
100
AcDbSpline
 70
8
 71
3
 72
8
 73
4
 74
0
 40
0
 40
0
 40
0
 40
0
 40
1
 40
1
 40
1
 40
1
 10
115.468675
 20
275.068992
 30
0.0
 10
115.553145
 20
274.871549
 30
0.0
 10
115.736697
 20
274.734308
 30
0.0
 10
115.949969
 20
274.709130
 30
0.0
  0
SPLINE
  5
297
100
AcDbEntity
  8
Layer_1
 62
5
100
AcDbSpline
 70
8
 71
3
 72
8
 73
4
 74
0
 40
0
 40
0
 40
0
 40
0
 40
1
 40
1
 40
1
 40
1
 10
115.949969
 20
274.709130
 30
0.0
 10
116.163240
 20
274.683953
 30
0.0
 10
116.373706
 20
274.774679
 30
0.0
 10
116.501830
 20
274.947024
 30
0.0
  0
LWPOLYLINE
  5
298
100
AcDbEntity
  8
Layer_1
 62
5
100
AcDbPolyline
 90
1
 70
1
 10
100.315000
 20
274.947024
 30
0.0
  0
SPLINE
  5
299
100
AcDbEntity
  8
Layer_1
 62
5
100
AcDbSpline
 70
8
 71
3
 72
8
 73
4
 74
0
 40
0
 40
0
 40
0
 40
0
 40
1
 40
1
 40
1
 40
1
 10
133.501820
 20
274.947024
 30
0.0
 10
133.630890
 20
275.118662
 30
0.0
 10
133.658385
 20
275.346194
 30
0.0
 10
133.573915
 20
275.543636
 30
0.0
  0
SPLINE
  5
29a
100
AcDbEntity
  8
Layer_1
 62
5
100
AcDbSpline
 70
8
 71
3
 72
8
 73
4
 74
0
 40
0
 40
0
 40
0
 40
0
 40
1
 40
1
 40
1
 40
1
 10
133.573915
 20
275.543636
 30
0.0
 10
133.489445
 20
275.741079
 30
0.0
 10
133.305893
 20
275.878320
 30
0.0
 10
133.092621
 20
275.903498
 30
0.0
  0
SPLINE
  5
29b
100
AcDbEntity
  8
Layer_1
 62
5
100
AcDbSpline
 70
8
 71
3
 72
8
 73
4
 74
0
 40
0
 40
0
 40
0
 40
0
 40
1
 40
1
 40
1
 40
1
 10
133.092621
 20
275.903498
 30
0.0
 10
132.879350
 20
275.928675
 30
0.0
 10
132.668884
 20
275.837949
 30
0.0
 10
132.540760
 20
275.665604
 30
0.0
  0
SPLINE
  5
29c
100
AcDbEntity
  8
Layer_1
 62
5
100
AcDbSpline
 70
8
 71
3
 72
8
 73
4
 74
0
 40
0
 40
0
 40
0
 40
0
 40
1
 40
1
 40
1
 40
1
 10
132.540760
 20
275.665604
 30
0.0
 10
132.411690
 20
275.493966
 30
0.0
 10
132.384195
 20
275.266434
 30
0.0
 10
132.468665
 20
275.068992
 30
0.0
  0
SPLINE
  5
29d
100
AcDbEntity
  8
Layer_1
 62
5
100
AcDbSpline
 70
8
 71
3
 72
8
 73
4
 74
0
 40
0
 40
0
 40
0
 40
0
 40
1
 40
1
 40
1
 40
1
 10
132.468665
 20
275.068992
 30
0.0
 10
132.553135
 20
274.871549
 30
0.0
 10
132.736687
 20
274.734308
 30
0.0
 10
132.949959
 20
274.709130
 30
0.0
  0
SPLINE
  5
29e
100
AcDbEntity
  8
Layer_1
 62
5
100
AcDbSpline
 70
8
 71
3
 72
8
 73
4
 74
0
 40
0
 40
0
 40
0
 40
0
 40
1
 40
1
 40
1
 40
1
 10
132.949959
 20
274.709130
 30
0.0
 10
133.163230
 20
274.683953
 30
0.0
 10
133.373696
 20
274.774679
 30
0.0
 10
133.501820
 20
274.947024
 30
0.0
  0
LWPOLYLINE
  5
29f
100
AcDbEntity
  8
Layer_1
 62
5
100
AcDbPolyline
 90
1
 70
1
 10
116.501830
 20
274.947024
 30
0.0
  0
LWPOLYLINE
  5
2a0
100
AcDbEntity
  8
Layer_1
 62
5
100
AcDbPolyline
 90
1
 70
1
 10
133.501820
 20
274.947024
 30
0.0
  0
LWPOLYLINE
  5
2a1
100
AcDbEntity
  8
Layer_1
 62
5
100
AcDbPolyline
 90
2
 70
0
 10
18.283665
 20
-6.454026
 30
0.0
 10
16.157599
 20
-12.034946
 30
0.0
  0
LWPOLYLINE
  5
2a2
100
AcDbEntity
  8
Layer_1
 62
5
100
AcDbPolyline
 90
2
 70
0
 10
18.283665
 20
-6.454026
 30
0.0
 10
20.409739
 20
-12.034946
 30
0.0
  0
LWPOLYLINE
  5
2a3
100
AcDbEntity
  8
Layer_1
 62
5
100
AcDbPolyline
 90
2
 70
0
 10
16.954873
 20
-10.174626
 30
0.0
 10
19.612457
 20
-10.174626
 30
0.0
  0
LWPOLYLINE
  5
2a4
100
AcDbEntity
  8
Layer_1
 62
5
100
AcDbPolyline
 90
2
 70
0
 10
16.446593
 20
262.287073
 30
0.0
 10
16.446593
 20
256.706133
 30
0.0
  0
LWPOLYLINE
  5
2a5
100
AcDbEntity
  8
Layer_1
 62
5
100
AcDbPolyline
 90
9
 70
0
 10
16.446593
 20
262.287073
 30
0.0
 10
18.838423
 20
262.287073
 30
0.0
 10
19.635695
 20
262.021315
 30
0.0
 10
19.901451
 20
261.755553
 30
0.0
 10
20.167215
 20
261.224035
 30
0.0
 10
20.167215
 20
260.692515
 30
0.0
 10
19.901451
 20
260.160993
 30
0.0
 10
19.635695
 20
259.895253
 30
0.0
 10
18.838423
 20
259.629473
 30
0.0
  0
LWPOLYLINE
  5
2a6
100
AcDbEntity
  8
Layer_1
 62
5
100
AcDbPolyline
 90
10
 70
0
 10
16.446593
 20
259.629473
 30
0.0
 10
18.838423
 20
259.629473
 30
0.0
 10
19.635695
 20
259.363733
 30
0.0
 10
19.901451
 20
259.097955
 30
0.0
 10
20.167215
 20
258.566435
 30
0.0
 10
20.167215
 20
257.769173
 30
0.0
 10
19.901451
 20
257.237653
 30
0.0
 10
19.635695
 20
256.971895
 30
0.0
 10
18.838423
 20
256.706133
 30
0.0
 10
16.446593
 20
256.706133
 30
0.0
  0
LWPOLYLINE
  5
2a7
100
AcDbEntity
  8
Layer_1
 62
5
100
AcDbPolyline
 90
18
 70
0
 10
53.462075
 20
26.920834
 30
0.0
 10
53.196323
 20
27.452354
 30
0.0
 10
52.664803
 20
27.983894
 30
0.0
 10
52.133287
 20
28.249634
 30
0.0
 10
51.070257
 20
28.249634
 30
0.0
 10
50.538739
 20
27.983894
 30
0.0
 10
50.007219
 20
27.452354
 30
0.0
 10
49.741463
 20
26.920834
 30
0.0
 10
49.475699
 20
26.123554
 30
0.0
 10
49.475699
 20
24.794774
 30
0.0
 10
49.741463
 20
23.997494
 30
0.0
 10
50.007219
 20
23.465974
 30
0.0
 10
50.538739
 20
22.934454
 30
0.0
 10
51.070257
 20
22.668714
 30
0.0
 10
52.133287
 20
22.668714
 30
0.0
 10
52.664803
 20
22.934454
 30
0.0
 10
53.196323
 20
23.465974
 30
0.0
 10
53.462075
 20
23.997494
 30
0.0
  0
LWPOLYLINE
  5
2a8
100
AcDbEntity
  8
Layer_1
 62
5
100
AcDbPolyline
 90
2
 70
0
 10
49.621833
 20
270.160793
 30
0.0
 10
49.621833
 20
264.579855
 30
0.0
  0
LWPOLYLINE
  5
2a9
100
AcDbEntity
  8
Layer_1
 62
5
100
AcDbPolyline
 90
12
 70
0
 10
49.621833
 20
270.160793
 30
0.0
 10
51.482143
 20
270.160793
 30
0.0
 10
52.279413
 20
269.895015
 30
0.0
 10
52.810933
 20
269.363513
 30
0.0
 10
53.076699
 20
268.831993
 30
0.0
 10
53.342453
 20
268.034713
 30
0.0
 10
53.342453
 20
266.705913
 30
0.0
 10
53.076699
 20
265.908653
 30
0.0
 10
52.810933
 20
265.377135
 30
0.0
 10
52.279413
 20
264.845615
 30
0.0
 10
51.482143
 20
264.579855
 30
0.0
 10
49.621833
 20
264.579855
 30
0.0
  0
LWPOLYLINE
  5
2aa
100
AcDbEntity
  8
Layer_1
 62
5
100
AcDbPolyline
 90
2
 70
0
 10
82.941545
 20
270.160793
 30
0.0
 10
82.941545
 20
264.579855
 30
0.0
  0
LWPOLYLINE
  5
2ab
100
AcDbEntity
  8
Layer_1
 62
5
100
AcDbPolyline
 90
2
 70
0
 10
82.941545
 20
270.160793
 30
0.0
 10
86.396401
 20
270.160793
 30
0.0
  0
LWPOLYLINE
  5
2ac
100
AcDbEntity
  8
Layer_1
 62
5
100
AcDbPolyline
 90
2
 70
0
 10
82.941545
 20
267.503193
 30
0.0
 10
85.067609
 20
267.503193
 30
0.0
  0
LWPOLYLINE
  5
2ad
100
AcDbEntity
  8
Layer_1
 62
5
100
AcDbPolyline
 90
2
 70
0
 10
115.995371
 20
270.160957
 30
0.0
 10
115.995371
 20
264.579675
 30
0.0
  0
LWPOLYLINE
  5
2ae
100
AcDbEntity
  8
Layer_1
 62
5
100
AcDbPolyline
 90
2
 70
0
 10
119.716225
 20
270.160957
 30
0.0
 10
119.716225
 20
264.579675
 30
0.0
  0
LWPOLYLINE
  5
2af
100
AcDbEntity
  8
Layer_1
 62
5
100
AcDbPolyline
 90
2
 70
0
 10
115.995371
 20
267.503204
 30
0.0
 10
119.716225
 20
267.503204
 30
0.0
  0
LWPOLYLINE
  5
2b0
100
AcDbEntity
  8
Layer_1
 62
5
100
AcDbPolyline
 90
2
 70
0
 10
82.941545
 20
28.249634
 30
0.0
 10
82.941545
 20
22.668714
 30
0.0
  0
LWPOLYLINE
  5
2b1
100
AcDbEntity
  8
Layer_1
 62
5
100
AcDbPolyline
 90
2
 70
0
 10
82.941545
 20
28.249634
 30
0.0
 10
86.396401
 20
28.249634
 30
0.0
  0
LWPOLYLINE
  5
2b2
100
AcDbEntity
  8
Layer_1
 62
5
100
AcDbPolyline
 90
2
 70
0
 10
82.941545
 20
25.592054
 30
0.0
 10
85.067609
 20
25.592054
 30
0.0
  0
LWPOLYLINE
  5
2b3
100
AcDbEntity
  8
Layer_1
 62
5
100
AcDbPolyline
 90
2
 70
0
 10
82.941545
 20
22.668714
 30
0.0
 10
86.396401
 20
22.668714
 30
0.0
  0
LWPOLYLINE
  5
2b4
100
AcDbEntity
  8
Layer_1
 62
5
100
AcDbPolyline
 90
19
 70
0
 10
119.848990
 20
26.920854
 30
0.0
 10
119.583230
 20
27.452394
 30
0.0
 10
119.051710
 20
27.983894
 30
0.0
 10
118.520190
 20
28.249674
 30
0.0
 10
117.457150
 20
28.249674
 30
0.0
 10
116.925640
 20
27.983894
 30
0.0
 10
116.394130
 20
27.452394
 30
0.0
 10
116.128360
 20
26.920854
 30
0.0
 10
115.862610
 20
26.123574
 30
0.0
 10
115.862610
 20
24.794794
 30
0.0
 10
116.128360
 20
23.997534
 30
0.0
 10
116.394130
 20
23.465994
 30
0.0
 10
116.925640
 20
22.934474
 30
0.0
 10
117.457150
 20
22.668714
 30
0.0
 10
118.520190
 20
22.668714
 30
0.0
 10
119.051710
 20
22.934474
 30
0.0
 10
119.583230
 20
23.465994
 30
0.0
 10
119.848990
 20
23.997534
 30
0.0
 10
119.848990
 20
24.794794
 30
0.0
  0
LWPOLYLINE
  5
2b5
100
AcDbEntity
  8
Layer_1
 62
5
100
AcDbPolyline
 90
2
 70
0
 10
118.520190
 20
24.794794
 30
0.0
 10
119.848990
 20
24.794794
 30
0.0
  0
ENDSEC
  0
SECTION
  2
OBJECTS
  0
DICTIONARY
  5
C
330
0
100
AcDbDictionary
  3
ACAD_GROUP
350
D
  3
ACAD_MLINESTYLE
350
17
  0
DICTIONARY
  5
D
330
C
100
AcDbDictionary
  0
DICTIONARY
  5
1A
330
C
100
AcDbDictionary
  0
DICTIONARY
  5
17
330
C
100
AcDbDictionary
  3
STANDARD
350
18
  0
DICTIONARY
  5
19
330
C
100
AcDbDictionary
  0
ENDSEC
  0
EOF
