<?xml version="1.0" encoding="UTF-8" standalone="no"?>
<!-- Created with Inkscape (http://www.inkscape.org/) -->

<svg
   xmlns:dc="http://purl.org/dc/elements/1.1/"
   xmlns:cc="http://creativecommons.org/ns#"
   xmlns:rdf="http://www.w3.org/1999/02/22-rdf-syntax-ns#"
   xmlns:svg="http://www.w3.org/2000/svg"
   xmlns="http://www.w3.org/2000/svg"
   xmlns:sodipodi="http://sodipodi.sourceforge.net/DTD/sodipodi-0.dtd"
   xmlns:inkscape="http://www.inkscape.org/namespaces/inkscape"
   width="210mm"
   height="297mm"
   viewBox="0 0 210 297"
   version="1.1"
   id="svg8"
   inkscape:version="0.92.0 r15299"
   sodipodi:docname="template holes 2345 - 500.svg">
  <defs
     id="defs2" />
  <sodipodi:namedview
     id="base"
     pagecolor="#ffffff"
     bordercolor="#666666"
     borderopacity="1.0"
     inkscape:pageopacity="0.0"
     inkscape:pageshadow="2"
     inkscape:zoom="0.7"
     inkscape:cx="373.76221"
     inkscape:cy="377.96644"
     inkscape:document-units="mm"
     inkscape:current-layer="layer1"
     showgrid="false"
     inkscape:window-width="1280"
     inkscape:window-height="977"
     inkscape:window-x="-4"
     inkscape:window-y="-4"
     inkscape:window-maximized="1" />
  <metadata
     id="metadata5">
    <rdf:RDF>
      <cc:Work
         rdf:about="">
        <dc:format>image/svg+xml</dc:format>
        <dc:type
           rdf:resource="http://purl.org/dc/dcmitype/StillImage" />
        <dc:title></dc:title>
      </cc:Work>
    </rdf:RDF>
  </metadata>
  <g
     inkscape:label="Layer 1"
     inkscape:groupmode="layer"
     id="layer1">
    <g
       id="g4573"
       transform="translate(0,21.381562)">
      <path
         id="rect4487"
         d="m 22.678572,-11.597139 h 30 l 0,282.894749 h -30 z"
         style="opacity:1;fill:none;fill-opacity:1;stroke:#000000;stroke-width:0.46055192;stroke-linecap:butt;stroke-linejoin:bevel;stroke-miterlimit:4;stroke-dasharray:none;stroke-dashoffset:0;stroke-opacity:1;paint-order:stroke fill markers"
         inkscape:connector-curvature="0"
         sodipodi:nodetypes="ccccc" />
      <g
         transform="translate(0,10.583333)"
         id="g4505">
        <path
           style="opacity:1;fill:none;fill-opacity:1;stroke:#000000;stroke-width:0.20798965;stroke-linecap:butt;stroke-linejoin:bevel;stroke-miterlimit:4;stroke-dasharray:none;stroke-dashoffset:0;stroke-opacity:1;paint-order:stroke fill markers"
           d="m 40.678572,249.71359 a 3,3 0 0 1 -3,3 3,3 0 0 1 -3,-3 3,3 0 0 1 3,-3 3,3 0 0 1 3,3 z"
           id="path4489"
           inkscape:connector-curvature="0" />
        <g
           id="g4497"
           transform="translate(-1.642955,2.0916425)">
          <path
             inkscape:connector-curvature="0"
             id="path4491"
             d="m 24.321527,247.62195 h 30"
             style="fill:none;fill-rule:evenodd;stroke:#000000;stroke-width:0.31261563px;stroke-linecap:butt;stroke-linejoin:miter;stroke-opacity:1" />
          <path
             inkscape:connector-curvature="0"
             id="path4493"
             d="m 39.321527,242.62195 v 10"
             style="fill:none;fill-rule:evenodd;stroke:#000000;stroke-width:0.33557612px;stroke-linecap:butt;stroke-linejoin:miter;stroke-opacity:1" />
        </g>
      </g>
      <g
         id="g4515"
         transform="translate(0,-89.416667)">
        <path
           inkscape:connector-curvature="0"
           id="path4507"
           d="m 40.678572,249.71359 a 3,3 0 0 1 -3,3 3,3 0 0 1 -3,-3 3,3 0 0 1 3,-3 3,3 0 0 1 3,3 z"
           style="opacity:1;fill:none;fill-opacity:1;stroke:#000000;stroke-width:0.20798965;stroke-linecap:butt;stroke-linejoin:bevel;stroke-miterlimit:4;stroke-dasharray:none;stroke-dashoffset:0;stroke-opacity:1;paint-order:stroke fill markers" />
        <g
           transform="translate(-1.642955,2.0916425)"
           id="g4513">
          <path
             style="fill:none;fill-rule:evenodd;stroke:#000000;stroke-width:0.31261563px;stroke-linecap:butt;stroke-linejoin:miter;stroke-opacity:1"
             d="m 24.321527,247.62195 h 30"
             id="path4509"
             inkscape:connector-curvature="0" />
          <path
             style="fill:none;fill-rule:evenodd;stroke:#000000;stroke-width:0.33557612px;stroke-linecap:butt;stroke-linejoin:miter;stroke-opacity:1"
             d="m 39.321527,242.62195 v 10"
             id="path4511"
             inkscape:connector-curvature="0" />
        </g>
      </g>
      <g
         id="g4525"
         transform="translate(0,-114.41667)">
        <path
           inkscape:connector-curvature="0"
           id="path4517"
           d="m 40.678572,249.71359 a 3,3 0 0 1 -3,3 3,3 0 0 1 -3,-3 3,3 0 0 1 3,-3 3,3 0 0 1 3,3 z"
           style="opacity:1;fill:none;fill-opacity:1;stroke:#000000;stroke-width:0.20798965;stroke-linecap:butt;stroke-linejoin:bevel;stroke-miterlimit:4;stroke-dasharray:none;stroke-dashoffset:0;stroke-opacity:1;paint-order:stroke fill markers" />
        <g
           transform="translate(-1.642955,2.0916425)"
           id="g4523">
          <path
             style="fill:none;fill-rule:evenodd;stroke:#000000;stroke-width:0.31261563px;stroke-linecap:butt;stroke-linejoin:miter;stroke-opacity:1"
             d="m 24.321527,247.62195 h 30"
             id="path4519"
             inkscape:connector-curvature="0" />
          <path
             style="fill:none;fill-rule:evenodd;stroke:#000000;stroke-width:0.33557612px;stroke-linecap:butt;stroke-linejoin:miter;stroke-opacity:1"
             d="m 39.321527,242.62195 v 10"
             id="path4521"
             inkscape:connector-curvature="0" />
        </g>
      </g>
      <g
         id="g4535"
         transform="translate(0,-155.41667)">
        <path
           inkscape:connector-curvature="0"
           id="path4527"
           d="m 40.678572,249.71359 a 3,3 0 0 1 -3,3 3,3 0 0 1 -3,-3 3,3 0 0 1 3,-3 3,3 0 0 1 3,3 z"
           style="opacity:1;fill:none;fill-opacity:1;stroke:#000000;stroke-width:0.20798965;stroke-linecap:butt;stroke-linejoin:bevel;stroke-miterlimit:4;stroke-dasharray:none;stroke-dashoffset:0;stroke-opacity:1;paint-order:stroke fill markers" />
        <g
           transform="translate(-1.642955,2.0916425)"
           id="g4533">
          <path
             style="fill:none;fill-rule:evenodd;stroke:#000000;stroke-width:0.31261563px;stroke-linecap:butt;stroke-linejoin:miter;stroke-opacity:1"
             d="m 24.321527,247.62195 h 30"
             id="path4529"
             inkscape:connector-curvature="0" />
          <path
             style="fill:none;fill-rule:evenodd;stroke:#000000;stroke-width:0.33557612px;stroke-linecap:butt;stroke-linejoin:miter;stroke-opacity:1"
             d="m 39.321527,242.62195 v 10"
             id="path4531"
             inkscape:connector-curvature="0" />
        </g>
      </g>
      <g
         id="g4545"
         transform="translate(0,-239.41667)">
        <path
           inkscape:connector-curvature="0"
           id="path4537"
           d="m 40.678572,249.71359 a 3,3 0 0 1 -3,3 3,3 0 0 1 -3,-3 3,3 0 0 1 3,-3 3,3 0 0 1 3,3 z"
           style="opacity:1;fill:none;fill-opacity:1;stroke:#000000;stroke-width:0.20798965;stroke-linecap:butt;stroke-linejoin:bevel;stroke-miterlimit:4;stroke-dasharray:none;stroke-dashoffset:0;stroke-opacity:1;paint-order:stroke fill markers" />
        <g
           transform="translate(-1.642955,2.0916425)"
           id="g4543">
          <path
             style="fill:none;fill-rule:evenodd;stroke:#000000;stroke-width:0.31261563px;stroke-linecap:butt;stroke-linejoin:miter;stroke-opacity:1"
             d="m 24.321527,247.62195 h 30"
             id="path4539"
             inkscape:connector-curvature="0" />
          <path
             style="fill:none;fill-rule:evenodd;stroke:#000000;stroke-width:0.33557612px;stroke-linecap:butt;stroke-linejoin:miter;stroke-opacity:1"
             d="m 39.321527,242.62195 v 10"
             id="path4541"
             inkscape:connector-curvature="0" />
        </g>
      </g>
    </g>
    <g
       transform="translate(30,21.381562)"
       id="g4627">
      <path
         sodipodi:nodetypes="ccccc"
         inkscape:connector-curvature="0"
         style="opacity:1;fill:none;fill-opacity:1;stroke:#000000;stroke-width:0.46055192;stroke-linecap:butt;stroke-linejoin:bevel;stroke-miterlimit:4;stroke-dasharray:none;stroke-dashoffset:0;stroke-opacity:1;paint-order:stroke fill markers"
         d="m 22.678572,-11.597139 h 30 V 271.29761 h -30 z"
         id="path4575" />
      <g
         id="g4585"
         transform="translate(0,10.583333)">
        <path
           inkscape:connector-curvature="0"
           id="path4577"
           d="m 40.678572,249.71359 a 3,3 0 0 1 -3,3 3,3 0 0 1 -3,-3 3,3 0 0 1 3,-3 3,3 0 0 1 3,3 z"
           style="opacity:1;fill:none;fill-opacity:1;stroke:#000000;stroke-width:0.20798965;stroke-linecap:butt;stroke-linejoin:bevel;stroke-miterlimit:4;stroke-dasharray:none;stroke-dashoffset:0;stroke-opacity:1;paint-order:stroke fill markers" />
        <g
           transform="translate(-1.642955,2.0916425)"
           id="g4583">
          <path
             style="fill:none;fill-rule:evenodd;stroke:#000000;stroke-width:0.31261563px;stroke-linecap:butt;stroke-linejoin:miter;stroke-opacity:1"
             d="m 24.321527,247.62195 h 30"
             id="path4579"
             inkscape:connector-curvature="0" />
          <path
             style="fill:none;fill-rule:evenodd;stroke:#000000;stroke-width:0.33557612px;stroke-linecap:butt;stroke-linejoin:miter;stroke-opacity:1"
             d="m 39.321527,242.62195 v 10"
             id="path4581"
             inkscape:connector-curvature="0" />
        </g>
      </g>
      <g
         transform="translate(0,-89.416667)"
         id="g4595">
        <path
           style="opacity:1;fill:none;fill-opacity:1;stroke:#000000;stroke-width:0.20798965;stroke-linecap:butt;stroke-linejoin:bevel;stroke-miterlimit:4;stroke-dasharray:none;stroke-dashoffset:0;stroke-opacity:1;paint-order:stroke fill markers"
           d="m 40.678572,249.71359 a 3,3 0 0 1 -3,3 3,3 0 0 1 -3,-3 3,3 0 0 1 3,-3 3,3 0 0 1 3,3 z"
           id="path4587"
           inkscape:connector-curvature="0" />
        <g
           id="g4593"
           transform="translate(-1.642955,2.0916425)">
          <path
             inkscape:connector-curvature="0"
             id="path4589"
             d="m 24.321527,247.62195 h 30"
             style="fill:none;fill-rule:evenodd;stroke:#000000;stroke-width:0.31261563px;stroke-linecap:butt;stroke-linejoin:miter;stroke-opacity:1" />
          <path
             inkscape:connector-curvature="0"
             id="path4591"
             d="m 39.321527,242.62195 v 10"
             style="fill:none;fill-rule:evenodd;stroke:#000000;stroke-width:0.33557612px;stroke-linecap:butt;stroke-linejoin:miter;stroke-opacity:1" />
        </g>
      </g>
      <g
         transform="translate(0,-114.41667)"
         id="g4605">
        <path
           style="opacity:1;fill:none;fill-opacity:1;stroke:#000000;stroke-width:0.20798965;stroke-linecap:butt;stroke-linejoin:bevel;stroke-miterlimit:4;stroke-dasharray:none;stroke-dashoffset:0;stroke-opacity:1;paint-order:stroke fill markers"
           d="m 40.678572,249.71359 a 3,3 0 0 1 -3,3 3,3 0 0 1 -3,-3 3,3 0 0 1 3,-3 3,3 0 0 1 3,3 z"
           id="path4597"
           inkscape:connector-curvature="0" />
        <g
           id="g4603"
           transform="translate(-1.642955,2.0916425)">
          <path
             inkscape:connector-curvature="0"
             id="path4599"
             d="m 24.321527,247.62195 h 30"
             style="fill:none;fill-rule:evenodd;stroke:#000000;stroke-width:0.31261563px;stroke-linecap:butt;stroke-linejoin:miter;stroke-opacity:1" />
          <path
             inkscape:connector-curvature="0"
             id="path4601"
             d="m 39.321527,242.62195 v 10"
             style="fill:none;fill-rule:evenodd;stroke:#000000;stroke-width:0.33557612px;stroke-linecap:butt;stroke-linejoin:miter;stroke-opacity:1" />
        </g>
      </g>
      <g
         transform="translate(0,-155.41667)"
         id="g4615">
        <path
           style="opacity:1;fill:none;fill-opacity:1;stroke:#000000;stroke-width:0.20798965;stroke-linecap:butt;stroke-linejoin:bevel;stroke-miterlimit:4;stroke-dasharray:none;stroke-dashoffset:0;stroke-opacity:1;paint-order:stroke fill markers"
           d="m 40.678572,249.71359 a 3,3 0 0 1 -3,3 3,3 0 0 1 -3,-3 3,3 0 0 1 3,-3 3,3 0 0 1 3,3 z"
           id="path4607"
           inkscape:connector-curvature="0" />
        <g
           id="g4613"
           transform="translate(-1.642955,2.0916425)">
          <path
             inkscape:connector-curvature="0"
             id="path4609"
             d="m 24.321527,247.62195 h 30"
             style="fill:none;fill-rule:evenodd;stroke:#000000;stroke-width:0.31261563px;stroke-linecap:butt;stroke-linejoin:miter;stroke-opacity:1" />
          <path
             inkscape:connector-curvature="0"
             id="path4611"
             d="m 39.321527,242.62195 v 10"
             style="fill:none;fill-rule:evenodd;stroke:#000000;stroke-width:0.33557612px;stroke-linecap:butt;stroke-linejoin:miter;stroke-opacity:1" />
        </g>
      </g>
      <g
         transform="translate(0,-239.41667)"
         id="g4625">
        <path
           style="opacity:1;fill:none;fill-opacity:1;stroke:#000000;stroke-width:0.20798965;stroke-linecap:butt;stroke-linejoin:bevel;stroke-miterlimit:4;stroke-dasharray:none;stroke-dashoffset:0;stroke-opacity:1;paint-order:stroke fill markers"
           d="m 40.678572,249.71359 a 3,3 0 0 1 -3,3 3,3 0 0 1 -3,-3 3,3 0 0 1 3,-3 3,3 0 0 1 3,3 z"
           id="path4617"
           inkscape:connector-curvature="0" />
        <g
           id="g4623"
           transform="translate(-1.642955,2.0916425)">
          <path
             inkscape:connector-curvature="0"
             id="path4619"
             d="m 24.321527,247.62195 h 30"
             style="fill:none;fill-rule:evenodd;stroke:#000000;stroke-width:0.31261563px;stroke-linecap:butt;stroke-linejoin:miter;stroke-opacity:1" />
          <path
             inkscape:connector-curvature="0"
             id="path4621"
             d="m 39.321527,242.62195 v 10"
             style="fill:none;fill-rule:evenodd;stroke:#000000;stroke-width:0.33557612px;stroke-linecap:butt;stroke-linejoin:miter;stroke-opacity:1" />
        </g>
      </g>
    </g>
    <g
       id="g4681"
       transform="translate(60,21.381562)">
      <path
         id="path4629"
         d="m 22.678572,-11.597139 h 30 V 271.29761 h -30 z"
         style="opacity:1;fill:none;fill-opacity:1;stroke:#000000;stroke-width:0.46055192;stroke-linecap:butt;stroke-linejoin:bevel;stroke-miterlimit:4;stroke-dasharray:none;stroke-dashoffset:0;stroke-opacity:1;paint-order:stroke fill markers"
         inkscape:connector-curvature="0"
         sodipodi:nodetypes="ccccc" />
      <g
         transform="translate(0,10.583333)"
         id="g4639">
        <path
           style="opacity:1;fill:none;fill-opacity:1;stroke:#000000;stroke-width:0.20798965;stroke-linecap:butt;stroke-linejoin:bevel;stroke-miterlimit:4;stroke-dasharray:none;stroke-dashoffset:0;stroke-opacity:1;paint-order:stroke fill markers"
           d="m 40.678572,249.71359 a 3,3 0 0 1 -3,3 3,3 0 0 1 -3,-3 3,3 0 0 1 3,-3 3,3 0 0 1 3,3 z"
           id="path4631"
           inkscape:connector-curvature="0" />
        <g
           id="g4637"
           transform="translate(-1.642955,2.0916425)">
          <path
             inkscape:connector-curvature="0"
             id="path4633"
             d="m 24.321527,247.62195 h 30"
             style="fill:none;fill-rule:evenodd;stroke:#000000;stroke-width:0.31261563px;stroke-linecap:butt;stroke-linejoin:miter;stroke-opacity:1" />
          <path
             inkscape:connector-curvature="0"
             id="path4635"
             d="m 39.321527,242.62195 v 10"
             style="fill:none;fill-rule:evenodd;stroke:#000000;stroke-width:0.33557612px;stroke-linecap:butt;stroke-linejoin:miter;stroke-opacity:1" />
        </g>
      </g>
      <g
         id="g4649"
         transform="translate(0,-89.416667)">
        <path
           inkscape:connector-curvature="0"
           id="path4641"
           d="m 40.678572,249.71359 a 3,3 0 0 1 -3,3 3,3 0 0 1 -3,-3 3,3 0 0 1 3,-3 3,3 0 0 1 3,3 z"
           style="opacity:1;fill:none;fill-opacity:1;stroke:#000000;stroke-width:0.20798965;stroke-linecap:butt;stroke-linejoin:bevel;stroke-miterlimit:4;stroke-dasharray:none;stroke-dashoffset:0;stroke-opacity:1;paint-order:stroke fill markers" />
        <g
           transform="translate(-1.642955,2.0916425)"
           id="g4647">
          <path
             style="fill:none;fill-rule:evenodd;stroke:#000000;stroke-width:0.31261563px;stroke-linecap:butt;stroke-linejoin:miter;stroke-opacity:1"
             d="m 24.321527,247.62195 h 30"
             id="path4643"
             inkscape:connector-curvature="0" />
          <path
             style="fill:none;fill-rule:evenodd;stroke:#000000;stroke-width:0.33557612px;stroke-linecap:butt;stroke-linejoin:miter;stroke-opacity:1"
             d="m 39.321527,242.62195 v 10"
             id="path4645"
             inkscape:connector-curvature="0" />
        </g>
      </g>
      <g
         id="g4659"
         transform="translate(0,-114.41667)">
        <path
           inkscape:connector-curvature="0"
           id="path4651"
           d="m 40.678572,249.71359 a 3,3 0 0 1 -3,3 3,3 0 0 1 -3,-3 3,3 0 0 1 3,-3 3,3 0 0 1 3,3 z"
           style="opacity:1;fill:none;fill-opacity:1;stroke:#000000;stroke-width:0.20798965;stroke-linecap:butt;stroke-linejoin:bevel;stroke-miterlimit:4;stroke-dasharray:none;stroke-dashoffset:0;stroke-opacity:1;paint-order:stroke fill markers" />
        <g
           transform="translate(-1.642955,2.0916425)"
           id="g4657">
          <path
             style="fill:none;fill-rule:evenodd;stroke:#000000;stroke-width:0.31261563px;stroke-linecap:butt;stroke-linejoin:miter;stroke-opacity:1"
             d="m 24.321527,247.62195 h 30"
             id="path4653"
             inkscape:connector-curvature="0" />
          <path
             style="fill:none;fill-rule:evenodd;stroke:#000000;stroke-width:0.33557612px;stroke-linecap:butt;stroke-linejoin:miter;stroke-opacity:1"
             d="m 39.321527,242.62195 v 10"
             id="path4655"
             inkscape:connector-curvature="0" />
        </g>
      </g>
      <g
         id="g4669"
         transform="translate(0,-155.41667)">
        <path
           inkscape:connector-curvature="0"
           id="path4661"
           d="m 40.678572,249.71359 a 3,3 0 0 1 -3,3 3,3 0 0 1 -3,-3 3,3 0 0 1 3,-3 3,3 0 0 1 3,3 z"
           style="opacity:1;fill:none;fill-opacity:1;stroke:#000000;stroke-width:0.20798965;stroke-linecap:butt;stroke-linejoin:bevel;stroke-miterlimit:4;stroke-dasharray:none;stroke-dashoffset:0;stroke-opacity:1;paint-order:stroke fill markers" />
        <g
           transform="translate(-1.642955,2.0916425)"
           id="g4667">
          <path
             style="fill:none;fill-rule:evenodd;stroke:#000000;stroke-width:0.31261563px;stroke-linecap:butt;stroke-linejoin:miter;stroke-opacity:1"
             d="m 24.321527,247.62195 h 30"
             id="path4663"
             inkscape:connector-curvature="0" />
          <path
             style="fill:none;fill-rule:evenodd;stroke:#000000;stroke-width:0.33557612px;stroke-linecap:butt;stroke-linejoin:miter;stroke-opacity:1"
             d="m 39.321527,242.62195 v 10"
             id="path4665"
             inkscape:connector-curvature="0" />
        </g>
      </g>
      <g
         id="g4679"
         transform="translate(0,-239.41667)">
        <path
           inkscape:connector-curvature="0"
           id="path4671"
           d="m 40.678572,249.71359 a 3,3 0 0 1 -3,3 3,3 0 0 1 -3,-3 3,3 0 0 1 3,-3 3,3 0 0 1 3,3 z"
           style="opacity:1;fill:none;fill-opacity:1;stroke:#000000;stroke-width:0.20798965;stroke-linecap:butt;stroke-linejoin:bevel;stroke-miterlimit:4;stroke-dasharray:none;stroke-dashoffset:0;stroke-opacity:1;paint-order:stroke fill markers" />
        <g
           transform="translate(-1.642955,2.0916425)"
           id="g4677">
          <path
             style="fill:none;fill-rule:evenodd;stroke:#000000;stroke-width:0.31261563px;stroke-linecap:butt;stroke-linejoin:miter;stroke-opacity:1"
             d="m 24.321527,247.62195 h 30"
             id="path4673"
             inkscape:connector-curvature="0" />
          <path
             style="fill:none;fill-rule:evenodd;stroke:#000000;stroke-width:0.33557612px;stroke-linecap:butt;stroke-linejoin:miter;stroke-opacity:1"
             d="m 39.321527,242.62195 v 10"
             id="path4675"
             inkscape:connector-curvature="0" />
        </g>
      </g>
    </g>
    <g
       transform="translate(90,21.381562)"
       id="g4735">
      <path
         sodipodi:nodetypes="ccccc"
         inkscape:connector-curvature="0"
         style="opacity:1;fill:none;fill-opacity:1;stroke:#000000;stroke-width:0.46055192;stroke-linecap:butt;stroke-linejoin:bevel;stroke-miterlimit:4;stroke-dasharray:none;stroke-dashoffset:0;stroke-opacity:1;paint-order:stroke fill markers"
         d="m 22.678572,-11.597139 h 30 V 271.29761 h -30 z"
         id="path4683" />
      <g
         id="g4693"
         transform="translate(0,10.583333)">
        <path
           inkscape:connector-curvature="0"
           id="path4685"
           d="m 40.678572,249.71359 a 3,3 0 0 1 -3,3 3,3 0 0 1 -3,-3 3,3 0 0 1 3,-3 3,3 0 0 1 3,3 z"
           style="opacity:1;fill:none;fill-opacity:1;stroke:#000000;stroke-width:0.20798965;stroke-linecap:butt;stroke-linejoin:bevel;stroke-miterlimit:4;stroke-dasharray:none;stroke-dashoffset:0;stroke-opacity:1;paint-order:stroke fill markers" />
        <g
           transform="translate(-1.642955,2.0916425)"
           id="g4691">
          <path
             style="fill:none;fill-rule:evenodd;stroke:#000000;stroke-width:0.31261563px;stroke-linecap:butt;stroke-linejoin:miter;stroke-opacity:1"
             d="m 24.321527,247.62195 h 30"
             id="path4687"
             inkscape:connector-curvature="0" />
          <path
             style="fill:none;fill-rule:evenodd;stroke:#000000;stroke-width:0.33557612px;stroke-linecap:butt;stroke-linejoin:miter;stroke-opacity:1"
             d="m 39.321527,242.62195 v 10"
             id="path4689"
             inkscape:connector-curvature="0" />
        </g>
      </g>
      <g
         transform="translate(0,-89.416667)"
         id="g4703">
        <path
           style="opacity:1;fill:none;fill-opacity:1;stroke:#000000;stroke-width:0.20798965;stroke-linecap:butt;stroke-linejoin:bevel;stroke-miterlimit:4;stroke-dasharray:none;stroke-dashoffset:0;stroke-opacity:1;paint-order:stroke fill markers"
           d="m 40.678572,249.71359 a 3,3 0 0 1 -3,3 3,3 0 0 1 -3,-3 3,3 0 0 1 3,-3 3,3 0 0 1 3,3 z"
           id="path4695"
           inkscape:connector-curvature="0" />
        <g
           id="g4701"
           transform="translate(-1.642955,2.0916425)">
          <path
             inkscape:connector-curvature="0"
             id="path4697"
             d="m 24.321527,247.62195 h 30"
             style="fill:none;fill-rule:evenodd;stroke:#000000;stroke-width:0.31261563px;stroke-linecap:butt;stroke-linejoin:miter;stroke-opacity:1" />
          <path
             inkscape:connector-curvature="0"
             id="path4699"
             d="m 39.321527,242.62195 v 10"
             style="fill:none;fill-rule:evenodd;stroke:#000000;stroke-width:0.33557612px;stroke-linecap:butt;stroke-linejoin:miter;stroke-opacity:1" />
        </g>
      </g>
      <g
         transform="translate(0,-114.41667)"
         id="g4713">
        <path
           style="opacity:1;fill:none;fill-opacity:1;stroke:#000000;stroke-width:0.20798965;stroke-linecap:butt;stroke-linejoin:bevel;stroke-miterlimit:4;stroke-dasharray:none;stroke-dashoffset:0;stroke-opacity:1;paint-order:stroke fill markers"
           d="m 40.678572,249.71359 a 3,3 0 0 1 -3,3 3,3 0 0 1 -3,-3 3,3 0 0 1 3,-3 3,3 0 0 1 3,3 z"
           id="path4705"
           inkscape:connector-curvature="0" />
        <g
           id="g4711"
           transform="translate(-1.642955,2.0916425)">
          <path
             inkscape:connector-curvature="0"
             id="path4707"
             d="m 24.321527,247.62195 h 30"
             style="fill:none;fill-rule:evenodd;stroke:#000000;stroke-width:0.31261563px;stroke-linecap:butt;stroke-linejoin:miter;stroke-opacity:1" />
          <path
             inkscape:connector-curvature="0"
             id="path4709"
             d="m 39.321527,242.62195 v 10"
             style="fill:none;fill-rule:evenodd;stroke:#000000;stroke-width:0.33557612px;stroke-linecap:butt;stroke-linejoin:miter;stroke-opacity:1" />
        </g>
      </g>
      <g
         transform="translate(0,-155.41667)"
         id="g4723">
        <path
           style="opacity:1;fill:none;fill-opacity:1;stroke:#000000;stroke-width:0.20798965;stroke-linecap:butt;stroke-linejoin:bevel;stroke-miterlimit:4;stroke-dasharray:none;stroke-dashoffset:0;stroke-opacity:1;paint-order:stroke fill markers"
           d="m 40.678572,249.71359 a 3,3 0 0 1 -3,3 3,3 0 0 1 -3,-3 3,3 0 0 1 3,-3 3,3 0 0 1 3,3 z"
           id="path4715"
           inkscape:connector-curvature="0" />
        <g
           id="g4721"
           transform="translate(-1.642955,2.0916425)">
          <path
             inkscape:connector-curvature="0"
             id="path4717"
             d="m 24.321527,247.62195 h 30"
             style="fill:none;fill-rule:evenodd;stroke:#000000;stroke-width:0.31261563px;stroke-linecap:butt;stroke-linejoin:miter;stroke-opacity:1" />
          <path
             inkscape:connector-curvature="0"
             id="path4719"
             d="m 39.321527,242.62195 v 10"
             style="fill:none;fill-rule:evenodd;stroke:#000000;stroke-width:0.33557612px;stroke-linecap:butt;stroke-linejoin:miter;stroke-opacity:1" />
        </g>
      </g>
      <g
         transform="translate(0,-239.41667)"
         id="g4733">
        <path
           style="opacity:1;fill:none;fill-opacity:1;stroke:#000000;stroke-width:0.20798965;stroke-linecap:butt;stroke-linejoin:bevel;stroke-miterlimit:4;stroke-dasharray:none;stroke-dashoffset:0;stroke-opacity:1;paint-order:stroke fill markers"
           d="m 40.678572,249.71359 a 3,3 0 0 1 -3,3 3,3 0 0 1 -3,-3 3,3 0 0 1 3,-3 3,3 0 0 1 3,3 z"
           id="path4725"
           inkscape:connector-curvature="0" />
        <g
           id="g4731"
           transform="translate(-1.642955,2.0916425)">
          <path
             inkscape:connector-curvature="0"
             id="path4727"
             d="m 24.321527,247.62195 h 30"
             style="fill:none;fill-rule:evenodd;stroke:#000000;stroke-width:0.31261563px;stroke-linecap:butt;stroke-linejoin:miter;stroke-opacity:1" />
          <path
             inkscape:connector-curvature="0"
             id="path4729"
             d="m 39.321527,242.62195 v 10"
             style="fill:none;fill-rule:evenodd;stroke:#000000;stroke-width:0.33557612px;stroke-linecap:butt;stroke-linejoin:miter;stroke-opacity:1" />
        </g>
      </g>
    </g>
    <text
       xml:space="preserve"
       style="font-style:normal;font-weight:normal;font-size:6.61458302px;line-height:6.61458302px;font-family:sans-serif;letter-spacing:0px;word-spacing:0px;fill:#000000;fill-opacity:1;stroke:none;stroke-width:0.26458332px;stroke-linecap:butt;stroke-linejoin:miter;stroke-opacity:1"
       x="25.513393"
       y="273.94345"
       id="text4739"><tspan
         sodipodi:role="line"
         id="tspan4737"
         x="25.513393"
         y="273.94345"
         style="stroke-width:0.26458332px">ABC</tspan></text>
    <text
       id="text4743"
       y="273.94345"
       x="55.108929"
       style="font-style:normal;font-weight:normal;font-size:6.61458302px;line-height:6.61458302px;font-family:sans-serif;letter-spacing:0px;word-spacing:0px;fill:#000000;fill-opacity:1;stroke:none;stroke-width:0.26458332px;stroke-linecap:butt;stroke-linejoin:miter;stroke-opacity:1"
       xml:space="preserve"
       inkscape:transform-center-x="0.75595238"><tspan
         style="stroke-width:0.26458332px"
         y="273.94345"
         x="55.108929"
         id="tspan4741"
         sodipodi:role="line">ABC</tspan></text>
    <text
       inkscape:transform-center-x="13.985119"
       xml:space="preserve"
       style="font-style:normal;font-weight:normal;font-size:6.61458302px;line-height:6.61458302px;font-family:sans-serif;letter-spacing:0px;word-spacing:0px;fill:#000000;fill-opacity:1;stroke:none;stroke-width:0.26458332px;stroke-linecap:butt;stroke-linejoin:miter;stroke-opacity:1"
       x="85.233627"
       y="273.94345"
       id="text4747"
       inkscape:transform-center-y="-0.56696429"><tspan
         sodipodi:role="line"
         id="tspan4745"
         x="85.233627"
         y="273.94345"
         style="stroke-width:0.26458332px">ABC</tspan></text>
    <text
       inkscape:transform-center-y="-0.56696429"
       id="text4751"
       y="273.94345"
       x="116.22768"
       style="font-style:normal;font-weight:normal;font-size:6.61458302px;line-height:6.61458302px;font-family:sans-serif;letter-spacing:0px;word-spacing:0px;fill:#000000;fill-opacity:1;stroke:none;stroke-width:0.26458332px;stroke-linecap:butt;stroke-linejoin:miter;stroke-opacity:1"
       xml:space="preserve"
       inkscape:transform-center-x="13.985119"><tspan
         style="stroke-width:0.26458332px"
         y="273.94345"
         x="116.22768"
         id="tspan4749"
         sodipodi:role="line">ABC</tspan></text>
  </g>
</svg>
