<?xml version="1.0" encoding="UTF-8" standalone="no"?>
<!-- Created with Inkscape (http://www.inkscape.org/) -->

<svg
   xmlns:dc="http://purl.org/dc/elements/1.1/"
   xmlns:cc="http://creativecommons.org/ns#"
   xmlns:rdf="http://www.w3.org/1999/02/22-rdf-syntax-ns#"
   xmlns:svg="http://www.w3.org/2000/svg"
   xmlns="http://www.w3.org/2000/svg"
   xmlns:sodipodi="http://sodipodi.sourceforge.net/DTD/sodipodi-0.dtd"
   xmlns:inkscape="http://www.inkscape.org/namespaces/inkscape"
   width="502.70834mm"
   height="285.75mm"
   viewBox="0 0 502.70834 285.75"
   version="1.1"
   id="svg5842"
   inkscape:version="0.92.0 r15299"
   sodipodi:docname="titre panto.svg">
  <defs
     id="defs5836">
    <clipPath
       id="clipPath6403"
       clipPathUnits="userSpaceOnUse">
      <path
         inkscape:connector-curvature="0"
         id="path6401"
         d="M 0,0 H 419.528 V 595.276 H 0 Z" />
    </clipPath>
  </defs>
  <sodipodi:namedview
     id="base"
     pagecolor="#ffffff"
     bordercolor="#666666"
     borderopacity="1.0"
     inkscape:pageopacity="0.0"
     inkscape:pageshadow="2"
     inkscape:zoom="0.49497475"
     inkscape:cx="1042.2811"
     inkscape:cy="620.46084"
     inkscape:document-units="mm"
     inkscape:current-layer="layer1"
     showgrid="false"
     inkscape:window-width="1600"
     inkscape:window-height="837"
     inkscape:window-x="-8"
     inkscape:window-y="-8"
     inkscape:window-maximized="1"
     fit-margin-top="0"
     fit-margin-left="0"
     fit-margin-right="0"
     fit-margin-bottom="0" />
  <metadata
     id="metadata5839">
    <rdf:RDF>
      <cc:Work
         rdf:about="">
        <dc:format>image/svg+xml</dc:format>
        <dc:type
           rdf:resource="http://purl.org/dc/dcmitype/StillImage" />
        <dc:title></dc:title>
      </cc:Work>
    </rdf:RDF>
  </metadata>
  <g
     inkscape:label="Layer 1"
     inkscape:groupmode="layer"
     id="layer1"
     transform="translate(56.318455,37.886906)">
    <g
       id="g6421"
       transform="matrix(0.35277777,0,0,-0.35277777,105.7782,173.77961)" />
    <g
       id="g6425"
       transform="matrix(0.35277777,0,0,-0.35277777,105.7782,173.77961)" />
    <g
       id="g6501"
       transform="matrix(0.35277777,0,0,-0.35277777,80.452921,174.40216)" />
    <g
       id="g6505"
       transform="matrix(0.35277777,0,0,-0.35277777,80.452921,174.40216)" />
    <g
       id="g6509"
       transform="matrix(0.35277777,0,0,-0.35277777,146.08515,179.91463)" />
    <g
       id="g6517"
       transform="matrix(0.35277777,0,0,-0.35277777,123.4595,172.8584)" />
    <g
       id="g6541"
       transform="matrix(0.35277777,0,0,-0.35277777,94.295356,185.71549)" />
    <g
       id="g7941"
       transform="matrix(1.8491673,0,0,1.8491673,23.255322,-142.32183)">
      <g
         transform="matrix(0.35277777,0,0,-0.35277777,72.50721,166.45672)"
         id="g6413">
        <path
           inkscape:connector-curvature="0"
           id="path6415"
           style="fill:#2c3792;fill-opacity:1;fill-rule:nonzero;stroke:none"
           d="m 0,0 c -0.97,-0.37 -1.357,0.502 -1.657,1.619 -1.122,4.171 -2.223,8.36 -3.398,12.499 -1.047,3.7 -2.157,7.36 -3.283,11.006 -1.699,5.51 -3.434,10.997 -5.156,16.492 -0.093,0.293 -0.198,0.577 -0.382,1.12 0.124,-2.905 0.277,-5.505 0.338,-8.108 0.084,-3.542 0.079,-7.093 0.147,-10.637 0.07,-3.618 0.153,-7.24 0.284,-10.851 0.153,-4.097 0.367,-8.188 0.552,-12.282 0.05,-1.096 0.104,-2.193 0.129,-3.292 0.021,-0.972 -0.253,-1.768 -0.907,-1.915 -0.727,-0.16 -0.999,0.736 -1.107,1.606 -0.125,0.973 -0.131,1.986 -0.188,2.979 -0.31,5.432 -0.687,10.859 -0.904,16.299 -0.14,3.49 -0.002,7.003 -0.068,10.501 -0.071,3.921 -0.19,7.844 -0.358,11.758 -0.157,3.676 -0.392,7.341 -0.62,11.012 -0.079,1.264 -0.248,2.519 -0.362,3.674 1.165,1.43 2.653,0.913 2.724,-0.961 0.1,-2.657 1.083,-4.661 1.789,-6.881 0.809,-2.545 1.716,-5.017 2.506,-7.572 2.001,-6.467 4.001,-12.935 5.923,-19.454 1.403,-4.759 2.681,-9.602 3.881,-13.923 0,5.675 0.015,11.891 -0.009,18.109 -0.008,2.091 -0.14,4.179 -0.17,6.272 -0.04,3.106 -0.011,6.214 -0.07,9.316 -0.064,3.398 -0.199,6.796 -0.291,10.192 -0.038,1.388 -0.069,2.782 -0.054,4.169 0.006,0.511 0.069,1.114 0.257,1.505 0.219,0.455 0.6,0.986 0.917,0.999 0.318,0.013 0.726,-0.486 0.951,-0.925 C 1.604,53.953 1.65,53.344 1.66,52.835 1.701,50.212 1.704,47.586 1.729,44.96 1.771,40.361 1.818,35.759 1.862,31.156 1.879,29.389 1.895,27.614 1.908,25.847 1.937,22.353 1.947,18.86 1.999,15.367 2.049,11.98 2.146,8.594 2.215,5.207 2.242,3.819 2.243,2.43 2.274,1.044 2.298,-0.018 2.248,-1.203 1.461,-1.389 1.005,-1.495 0.466,-0.779 -0.035,-0.434 -0.024,-0.291 -0.012,-0.145 0,0" />
      </g>
      <g
         transform="matrix(0.35277777,0,0,-0.35277777,72.50721,166.45672)"
         id="g6417">
        <path
           inkscape:connector-curvature="0"
           id="path6419"
           style="fill:none;stroke:#2c3792;stroke-width:6;stroke-linecap:round;stroke-linejoin:round;stroke-miterlimit:10;stroke-dasharray:none;stroke-opacity:1"
           d="m 0,0 c -0.97,-0.37 -1.357,0.502 -1.657,1.619 -1.122,4.171 -2.223,8.36 -3.398,12.499 -1.047,3.7 -2.157,7.36 -3.283,11.006 -1.699,5.51 -3.434,10.997 -5.156,16.492 -0.093,0.293 -0.198,0.577 -0.382,1.12 0.124,-2.905 0.277,-5.505 0.338,-8.108 0.084,-3.542 0.079,-7.093 0.147,-10.637 0.07,-3.618 0.153,-7.24 0.284,-10.851 0.153,-4.097 0.367,-8.188 0.552,-12.282 0.05,-1.096 0.104,-2.193 0.129,-3.292 0.021,-0.972 -0.253,-1.768 -0.907,-1.915 -0.727,-0.16 -0.999,0.736 -1.107,1.606 -0.125,0.973 -0.131,1.986 -0.188,2.979 -0.31,5.432 -0.687,10.859 -0.904,16.299 -0.14,3.49 -0.002,7.003 -0.068,10.501 -0.071,3.921 -0.19,7.844 -0.358,11.758 -0.157,3.676 -0.392,7.341 -0.62,11.012 -0.079,1.264 -0.248,2.519 -0.362,3.674 1.165,1.43 2.653,0.913 2.724,-0.961 0.1,-2.657 1.083,-4.661 1.789,-6.881 0.809,-2.545 1.716,-5.017 2.506,-7.572 2.001,-6.467 4.001,-12.935 5.923,-19.454 1.403,-4.759 2.681,-9.602 3.881,-13.923 0,5.675 0.015,11.891 -0.009,18.109 -0.008,2.091 -0.14,4.179 -0.17,6.272 -0.04,3.106 -0.011,6.214 -0.07,9.316 -0.064,3.398 -0.199,6.796 -0.291,10.192 -0.038,1.388 -0.069,2.782 -0.054,4.169 0.006,0.511 0.069,1.114 0.257,1.505 0.219,0.455 0.6,0.986 0.917,0.999 0.318,0.013 0.726,-0.486 0.951,-0.925 C 1.604,53.953 1.65,53.344 1.66,52.835 1.701,50.212 1.704,47.586 1.729,44.96 1.771,40.361 1.818,35.759 1.862,31.156 1.879,29.389 1.895,27.614 1.908,25.847 1.937,22.353 1.947,18.86 1.999,15.367 2.049,11.98 2.146,8.594 2.215,5.207 2.242,3.819 2.243,2.43 2.274,1.044 2.298,-0.018 2.248,-1.203 1.461,-1.389 1.005,-1.495 0.466,-0.779 -0.035,-0.434 -0.024,-0.291 -0.012,-0.145 0,0 Z" />
      </g>
      <g
         transform="matrix(0.35277777,0,0,-0.35277777,59.120952,167.64632)"
         id="g6429">
        <path
           inkscape:connector-curvature="0"
           id="path6431"
           style="fill:#2c3792;fill-opacity:1;fill-rule:nonzero;stroke:none"
           d="m 0,0 c -0.108,1.234 -0.318,2.581 -0.327,3.933 -0.019,2.574 0.12,5.152 0.115,7.725 -0.004,2.154 -0.099,4.301 -0.191,6.448 -0.088,2.003 -0.249,4.001 -0.335,6.005 -0.205,4.773 -0.345,9.555 -0.586,14.324 -0.198,3.896 -0.54,7.777 -0.751,11.672 -0.135,2.508 -0.079,2.514 1.243,3.147 0.975,1.568 1.728,3.001 2.627,4.171 1.839,2.383 4.149,1.807 6.025,0.093 2.433,-2.22 3.715,-5.503 4.236,-9.727 0.753,-6.138 1.285,-12.283 1.323,-18.528 0.02,-3.298 0.026,-6.6 0.151,-9.886 0.126,-3.242 0.421,-6.47 0.597,-9.715 0.163,-3.003 0.295,-6.012 0.38,-9.024 0.037,-1.305 -0.51,-1.789 -1.791,-1.591 -0.145,0.66 -0.426,1.426 -0.473,2.224 -0.304,5.048 -0.564,10.104 -0.82,15.158 -0.1,1.986 -0.143,3.972 -0.226,5.961 -0.019,0.465 -0.096,0.925 -0.187,1.76 C 7.877,23.917 4.771,23.687 1.518,23.448 1.518,22.77 1.505,22.117 1.522,21.471 1.635,16.927 1.768,12.385 1.864,7.839 1.906,5.794 1.884,3.746 1.868,1.699 1.855,-0.163 1.377,-0.646 0,0 m 11.02,27.258 c 0,2.516 0.131,5.109 -0.033,7.659 -0.244,3.849 -0.715,7.662 -1.048,11.5 C 9.615,50.143 8.597,53.21 6.349,55.049 5.77,55.52 5.006,55.867 4.374,55.737 2.749,55.406 0.253,50.426 0.301,47.909 0.304,47.765 0.322,47.623 0.329,47.479 0.657,41.141 0.992,34.802 1.3,28.461 c 0.048,-1 0.389,-1.498 0.972,-1.665 0.401,-0.116 0.821,-0.125 1.232,-0.107 2.429,0.115 4.856,0.248 7.287,0.381 0.056,0.003 0.109,0.086 0.229,0.188" />
      </g>
      <g
         transform="matrix(0.35277777,0,0,-0.35277777,59.120952,167.64632)"
         id="g6433">
        <path
           inkscape:connector-curvature="0"
           id="path6435"
           style="fill:none;stroke:#2c3792;stroke-width:6;stroke-linecap:round;stroke-linejoin:round;stroke-miterlimit:10;stroke-dasharray:none;stroke-opacity:1"
           d="m 0,0 c -0.108,1.234 -0.318,2.581 -0.327,3.933 -0.019,2.574 0.12,5.152 0.115,7.725 -0.004,2.154 -0.099,4.301 -0.191,6.448 -0.088,2.003 -0.249,4.001 -0.335,6.005 -0.205,4.773 -0.345,9.555 -0.586,14.324 -0.198,3.896 -0.54,7.777 -0.751,11.672 -0.135,2.508 -0.079,2.514 1.243,3.147 0.975,1.568 1.728,3.001 2.627,4.171 1.839,2.383 4.149,1.807 6.025,0.093 2.433,-2.22 3.715,-5.503 4.236,-9.727 0.753,-6.138 1.285,-12.283 1.323,-18.528 0.02,-3.298 0.026,-6.6 0.151,-9.886 0.126,-3.242 0.421,-6.47 0.597,-9.715 0.163,-3.003 0.295,-6.012 0.38,-9.024 0.037,-1.305 -0.51,-1.789 -1.791,-1.591 -0.145,0.66 -0.426,1.426 -0.473,2.224 -0.304,5.048 -0.564,10.104 -0.82,15.158 -0.1,1.986 -0.143,3.972 -0.226,5.961 -0.019,0.465 -0.096,0.925 -0.187,1.76 C 7.877,23.917 4.771,23.687 1.518,23.448 1.518,22.77 1.505,22.117 1.522,21.471 1.635,16.927 1.768,12.385 1.864,7.839 1.906,5.794 1.884,3.746 1.868,1.699 1.855,-0.163 1.377,-0.646 0,0 Z m 11.02,27.258 c 0,2.516 0.131,5.109 -0.033,7.659 -0.244,3.849 -0.715,7.662 -1.048,11.5 C 9.615,50.143 8.597,53.21 6.349,55.049 5.77,55.52 5.006,55.867 4.374,55.737 2.749,55.406 0.253,50.426 0.301,47.909 0.304,47.765 0.322,47.623 0.329,47.479 0.657,41.141 0.992,34.802 1.3,28.461 c 0.048,-1 0.389,-1.498 0.972,-1.665 0.401,-0.116 0.821,-0.125 1.232,-0.107 2.429,0.115 4.856,0.248 7.287,0.381 0.056,0.003 0.109,0.086 0.229,0.188 z" />
      </g>
      <g
         transform="matrix(0.35277777,0,0,-0.35277777,113.09323,167.23428)"
         id="g6437">
        <path
           inkscape:connector-curvature="0"
           id="path6439"
           style="fill:#2c3792;fill-opacity:1;fill-rule:nonzero;stroke:none"
           d="m 0,0 c -0.972,3.046 -0.833,6.021 -0.794,8.986 0.073,5.618 0.186,11.24 0.155,16.858 -0.024,4.088 -0.302,8.172 -0.384,12.262 -0.066,3.261 -0.004,6.528 -0.008,9.796 -0.003,1.322 0.212,2.256 1.18,2.465 0.325,0.073 0.659,0.728 0.876,1.239 1.285,3.008 2.822,5.49 4.94,6.981 1.287,0.904 2.41,0.821 3.576,-0.51 2.027,-2.31 3.025,-5.557 3.487,-9.35 0.965,-7.948 1.625,-15.954 1.594,-24.074 -0.023,-6.157 0.515,-12.222 1.013,-18.302 0.178,-2.175 0.18,-4.388 0.261,-6.583 0.04,-1.08 -0.238,-1.83 -0.936,-1.924 -0.741,-0.095 -1.002,0.768 -1.075,1.746 -0.472,6.235 -1.017,12.465 -1.352,18.719 -0.268,5.042 -0.157,10.134 -0.439,15.174 -0.259,4.623 -0.851,9.197 -1.228,13.807 -0.231,2.838 -0.844,5.353 -2.058,7.428 C 7.91,56.254 7.71,56.2 6.5,55.228 4.184,53.374 2.727,50.209 1.716,46.591 1.09,44.34 0.909,41.777 1.024,39.226 1.2,35.401 1.327,31.572 1.478,27.744 c 0.052,-1.321 0.12,-2.641 0.19,-4.203 1.27,0 2.52,-0.104 3.762,0.026 1.512,0.155 3.018,0.503 4.527,0.77 0.961,0.176 1.509,-0.742 1.398,-2.682 C 8.261,20.04 5.044,19.527 1.832,20.164 1.629,15.271 1.41,10.443 1.251,5.612 1.215,4.506 1.345,3.367 1.469,2.266 1.559,1.465 1.876,0.539 1.321,0.059 0.975,-0.249 0.442,0 0,0" />
      </g>
      <g
         transform="matrix(0.35277777,0,0,-0.35277777,113.09323,167.23428)"
         id="g6441">
        <path
           inkscape:connector-curvature="0"
           id="path6443"
           style="fill:none;stroke:#2c3792;stroke-width:6;stroke-linecap:round;stroke-linejoin:round;stroke-miterlimit:10;stroke-dasharray:none;stroke-opacity:1"
           d="m 0,0 c -0.972,3.046 -0.833,6.021 -0.794,8.986 0.073,5.618 0.186,11.24 0.155,16.858 -0.024,4.088 -0.302,8.172 -0.384,12.262 -0.066,3.261 -0.004,6.528 -0.008,9.796 -0.003,1.322 0.212,2.256 1.18,2.465 0.325,0.073 0.659,0.728 0.876,1.239 1.285,3.008 2.822,5.49 4.94,6.981 1.287,0.904 2.41,0.821 3.576,-0.51 2.027,-2.31 3.025,-5.557 3.487,-9.35 0.965,-7.948 1.625,-15.954 1.594,-24.074 -0.023,-6.157 0.515,-12.222 1.013,-18.302 0.178,-2.175 0.18,-4.388 0.261,-6.583 0.04,-1.08 -0.238,-1.83 -0.936,-1.924 -0.741,-0.095 -1.002,0.768 -1.075,1.746 -0.472,6.235 -1.017,12.465 -1.352,18.719 -0.268,5.042 -0.157,10.134 -0.439,15.174 -0.259,4.623 -0.851,9.197 -1.228,13.807 -0.231,2.838 -0.844,5.353 -2.058,7.428 C 7.91,56.254 7.71,56.2 6.5,55.228 4.184,53.374 2.727,50.209 1.716,46.591 1.09,44.34 0.909,41.777 1.024,39.226 1.2,35.401 1.327,31.572 1.478,27.744 c 0.052,-1.321 0.12,-2.641 0.19,-4.203 1.27,0 2.52,-0.104 3.762,0.026 1.512,0.155 3.018,0.503 4.527,0.77 0.961,0.176 1.509,-0.742 1.398,-2.682 C 8.261,20.04 5.044,19.527 1.832,20.164 1.629,15.271 1.41,10.443 1.251,5.612 1.215,4.506 1.345,3.367 1.469,2.266 1.559,1.465 1.876,0.539 1.321,0.059 0.975,-0.249 0.442,0 0,0 Z" />
      </g>
      <g
         transform="matrix(0.35277777,0,0,-0.35277777,135.09979,159.00327)"
         id="g6445">
        <path
           inkscape:connector-curvature="0"
           id="path6447"
           style="fill:#2c3792;fill-opacity:1;fill-rule:nonzero;stroke:none"
           d="M 0,0 C -3.335,0.136 -6.498,-1.727 -9.731,0.063 V -24.88 c -0.452,-0.202 -0.785,-0.349 -1.078,-0.48 -0.848,0.494 -0.899,1.672 -0.92,2.694 -0.097,5.215 -0.15,10.432 -0.194,15.645 -0.03,3.276 -0.048,6.552 -0.022,9.827 0.043,5.83 0.19,11.66 0.166,17.491 -0.016,3.884 -0.239,7.762 -0.393,11.639 -0.046,1.139 0.084,2.033 0.815,2.444 1.001,-0.453 1.562,-1.746 1.576,-3.513 0.016,-2.296 0.081,-4.591 0.092,-6.887 0.018,-3.918 0.017,-7.832 0.016,-11.749 0,-2.097 -0.023,-4.194 -0.023,-6.293 0,-1.927 0.456,-2.965 1.644,-3.012 1.77,-0.068 3.543,0.145 5.313,0.296 0.81,0.07 1.616,0.279 2.499,0.44 0.045,0.705 0.115,1.3 0.116,1.894 0.009,5.327 0.05,10.659 -0.018,15.988 -0.027,2.23 -0.328,4.447 -0.439,6.68 -0.069,1.385 -0.013,2.787 -0.013,4.01 1.53,1.01 2.131,0.192 2.324,-2.179 0.674,-8.271 0.276,-16.577 0.404,-24.863 0.089,-5.781 0.302,-11.555 0.356,-17.34 0.035,-3.785 -0.118,-7.571 -0.176,-11.358 -0.017,-1.12 -0.263,-1.923 -1.02,-1.986 -0.777,-0.065 -1.216,0.615 -1.208,2.015 0.031,4.753 0.138,9.51 0.138,14.264 C 0.224,-6.219 0.083,-3.229 0,0" />
      </g>
      <g
         transform="matrix(0.35277777,0,0,-0.35277777,135.09979,159.00327)"
         id="g6449">
        <path
           inkscape:connector-curvature="0"
           id="path6451"
           style="fill:none;stroke:#2c3792;stroke-width:6;stroke-linecap:round;stroke-linejoin:round;stroke-miterlimit:10;stroke-dasharray:none;stroke-opacity:1"
           d="M 0,0 C -3.335,0.136 -6.498,-1.727 -9.731,0.063 V -24.88 c -0.452,-0.202 -0.785,-0.349 -1.078,-0.48 -0.848,0.494 -0.899,1.672 -0.92,2.694 -0.097,5.215 -0.15,10.432 -0.194,15.645 -0.03,3.276 -0.048,6.552 -0.022,9.827 0.043,5.83 0.19,11.66 0.166,17.491 -0.016,3.884 -0.239,7.762 -0.393,11.639 -0.046,1.139 0.084,2.033 0.815,2.444 1.001,-0.453 1.562,-1.746 1.576,-3.513 0.016,-2.296 0.081,-4.591 0.092,-6.887 0.018,-3.918 0.017,-7.832 0.016,-11.749 0,-2.097 -0.023,-4.194 -0.023,-6.293 0,-1.927 0.456,-2.965 1.644,-3.012 1.77,-0.068 3.543,0.145 5.313,0.296 0.81,0.07 1.616,0.279 2.499,0.44 0.045,0.705 0.115,1.3 0.116,1.894 0.009,5.327 0.05,10.659 -0.018,15.988 -0.027,2.23 -0.328,4.447 -0.439,6.68 -0.069,1.385 -0.013,2.787 -0.013,4.01 1.53,1.01 2.131,0.192 2.324,-2.179 0.674,-8.271 0.276,-16.577 0.404,-24.863 0.089,-5.781 0.302,-11.555 0.356,-17.34 0.035,-3.785 -0.118,-7.571 -0.176,-11.358 -0.017,-1.12 -0.263,-1.923 -1.02,-1.986 -0.777,-0.065 -1.216,0.615 -1.208,2.015 0.031,4.753 0.138,9.51 0.138,14.264 C 0.224,-6.219 0.083,-3.229 0,0 Z" />
      </g>
      <g
         transform="matrix(0.35277777,0,0,-0.35277777,86.299692,147.1735)"
         id="g6453">
        <path
           inkscape:connector-curvature="0"
           id="path6455"
           style="fill:#2c3792;fill-opacity:1;fill-rule:nonzero;stroke:none"
           d="m 0,0 c 0.123,0.162 0.247,0.322 0.369,0.485 2.179,2.839 3.97,1.882 5.061,-1.736 1.377,-4.555 2.682,-9.306 2.682,-14.593 -0.002,-5.211 0.121,-10.437 -0.056,-15.635 -0.148,-4.34 -0.859,-8.549 -1.77,-12.681 -0.714,-3.252 -1.442,-6.457 -2.675,-9.293 -1.364,-3.152 -3.138,-5.366 -5.605,-5.563 -2.004,-0.157 -3.034,1.084 -3.743,4.133 -0.745,3.191 -1.044,6.515 -1.192,9.904 -0.153,3.518 -0.434,7.021 -0.552,10.541 -0.188,5.77 0.576,11.409 1.033,17.084 0.223,2.786 0.447,5.591 0.889,8.295 0.501,3.054 1.588,5.697 3.105,7.705 0.616,0.825 1.502,1.114 2.267,1.644 C -0.126,0.193 -0.062,0.098 0,0 m -0.895,-3.771 c -1.724,-2.56 -2.675,-5.745 -3.01,-9.386 -0.428,-4.657 -0.834,-9.319 -1.142,-13.998 -0.183,-2.784 -0.229,-5.607 -0.192,-8.405 0.042,-3.117 0.173,-6.242 0.403,-9.336 0.208,-2.786 0.51,-5.569 0.937,-8.288 0.493,-3.125 1.75,-3.847 3.427,-2.064 0.703,0.749 1.402,1.678 1.883,2.775 2.14,4.903 3.291,10.501 4.035,16.299 C 6.098,-31.09 6,-25.892 6.081,-20.713 6.18,-14.335 5.02,-8.496 3.535,-2.749 3.364,-2.09 2.931,-1.604 2.619,-1.041 2.506,-1.084 2.393,-1.129 2.281,-1.172 2.123,-1.888 1.965,-2.599 1.774,-3.465 0.922,-3.562 0.011,-3.667 -0.895,-3.771" />
      </g>
      <g
         transform="matrix(0.35277777,0,0,-0.35277777,86.299692,147.1735)"
         id="g6457">
        <path
           inkscape:connector-curvature="0"
           id="path6459"
           style="fill:none;stroke:#2c3792;stroke-width:6;stroke-linecap:round;stroke-linejoin:round;stroke-miterlimit:10;stroke-dasharray:none;stroke-opacity:1"
           d="m 0,0 c 0.123,0.162 0.247,0.322 0.369,0.485 2.179,2.839 3.97,1.882 5.061,-1.736 1.377,-4.555 2.682,-9.306 2.682,-14.593 -0.002,-5.211 0.121,-10.437 -0.056,-15.635 -0.148,-4.34 -0.859,-8.549 -1.77,-12.681 -0.714,-3.252 -1.442,-6.457 -2.675,-9.293 -1.364,-3.152 -3.138,-5.366 -5.605,-5.563 -2.004,-0.157 -3.034,1.084 -3.743,4.133 -0.745,3.191 -1.044,6.515 -1.192,9.904 -0.153,3.518 -0.434,7.021 -0.552,10.541 -0.188,5.77 0.576,11.409 1.033,17.084 0.223,2.786 0.447,5.591 0.889,8.295 0.501,3.054 1.588,5.697 3.105,7.705 0.616,0.825 1.502,1.114 2.267,1.644 C -0.126,0.193 -0.062,0.098 0,0 Z m -0.895,-3.771 c -1.724,-2.56 -2.675,-5.745 -3.01,-9.386 -0.428,-4.657 -0.834,-9.319 -1.142,-13.998 -0.183,-2.784 -0.229,-5.607 -0.192,-8.405 0.042,-3.117 0.173,-6.242 0.403,-9.336 0.208,-2.786 0.51,-5.569 0.937,-8.288 0.493,-3.125 1.75,-3.847 3.427,-2.064 0.703,0.749 1.402,1.678 1.883,2.775 2.14,4.903 3.291,10.501 4.035,16.299 C 6.098,-31.09 6,-25.892 6.081,-20.713 6.18,-14.335 5.02,-8.496 3.535,-2.749 3.364,-2.09 2.931,-1.604 2.619,-1.041 2.506,-1.084 2.393,-1.129 2.281,-1.172 2.123,-1.888 1.965,-2.599 1.774,-3.465 0.922,-3.562 0.011,-3.667 -0.895,-3.771 Z" />
      </g>
      <g
         transform="matrix(0.35277777,0,0,-0.35277777,114.94045,139.10233)"
         id="g6461" />
      <g
         transform="matrix(0.35277777,0,0,-0.35277777,114.94045,139.10233)"
         id="g6465" />
      <g
         transform="matrix(0.35277777,0,0,-0.35277777,104.58833,158.59397)"
         id="g6469">
        <path
           inkscape:connector-curvature="0"
           id="path6471"
           style="fill:#2c3792;fill-opacity:1;fill-rule:nonzero;stroke:none"
           d="m 0,0 c 0.389,-0.618 0.845,-1.273 1.255,-2.005 1.359,-2.422 2.817,-4.717 4.027,-7.34 2.102,-4.566 4.503,-8.491 7.375,-11.603 0.612,-0.662 1.173,-1.495 1.69,-2.372 0.664,-1.122 0.592,-2.076 -0.304,-3.336 -0.484,0.462 -1.075,0.905 -1.59,1.534 -1.472,1.792 -2.924,3.631 -4.361,5.503 -2.092,2.727 -3.57,6.429 -5.269,9.785 -1.632,3.218 -3.382,6.271 -5.337,8.94 -0.1,-0.043 -0.202,-0.089 -0.303,-0.132 0,-2.57 -0.037,-5.144 0.011,-7.714 0.039,-2.11 0.181,-4.216 0.27,-6.323 0.118,-2.701 0.219,-5.403 0.348,-8.101 0.051,-1.068 -0.139,-1.887 -0.765,-2.116 -0.613,-0.234 -0.971,0.419 -1.068,1.39 -0.149,1.548 -0.321,3.106 -0.351,4.667 -0.156,8.184 -0.234,16.375 -0.418,24.557 -0.131,5.784 -0.391,11.559 -0.59,17.333 -0.05,1.455 -0.089,2.91 -0.138,4.36 -0.079,2.376 0.66,3.959 1.808,4.927 2.329,1.963 4.667,2.293 6.938,-0.367 0.679,-0.798 1.398,-1.49 2.081,-2.278 C 7.207,27.117 7.93,24.135 7.599,20.205 7.045,13.637 5.475,7.96 2.737,3.297 1.993,2.027 1.003,1.187 0,0 m -2.531,2.248 c 1.091,0.858 2.19,1.272 2.927,2.382 2.887,4.348 4.648,9.824 5.114,16.433 0.17,2.419 -0.215,4.403 -1.48,5.726 -0.595,0.625 -1.222,1.173 -1.776,1.887 -1.28,1.646 -2.62,1.62 -4.054,0.729 -1.506,-0.935 -1.819,-1.841 -1.659,-4.49 0.225,-3.716 0.405,-7.442 0.536,-11.174 0.117,-3.289 0.138,-6.584 0.211,-9.88 0.01,-0.366 0.078,-0.725 0.181,-1.613" />
      </g>
      <g
         transform="matrix(0.35277777,0,0,-0.35277777,104.58833,158.59397)"
         id="g6473">
        <path
           inkscape:connector-curvature="0"
           id="path6475"
           style="fill:none;stroke:#2c3792;stroke-width:6;stroke-linecap:round;stroke-linejoin:round;stroke-miterlimit:10;stroke-dasharray:none;stroke-opacity:1"
           d="m 0,0 c 0.389,-0.618 0.845,-1.273 1.255,-2.005 1.359,-2.422 2.817,-4.717 4.027,-7.34 2.102,-4.566 4.503,-8.491 7.375,-11.603 0.612,-0.662 1.173,-1.495 1.69,-2.372 0.664,-1.122 0.592,-2.076 -0.304,-3.336 -0.484,0.462 -1.075,0.905 -1.59,1.534 -1.472,1.792 -2.924,3.631 -4.361,5.503 -2.092,2.727 -3.57,6.429 -5.269,9.785 -1.632,3.218 -3.382,6.271 -5.337,8.94 -0.1,-0.043 -0.202,-0.089 -0.303,-0.132 0,-2.57 -0.037,-5.144 0.011,-7.714 0.039,-2.11 0.181,-4.216 0.27,-6.323 0.118,-2.701 0.219,-5.403 0.348,-8.101 0.051,-1.068 -0.139,-1.887 -0.765,-2.116 -0.613,-0.234 -0.971,0.419 -1.068,1.39 -0.149,1.548 -0.321,3.106 -0.351,4.667 -0.156,8.184 -0.234,16.375 -0.418,24.557 -0.131,5.784 -0.391,11.559 -0.59,17.333 -0.05,1.455 -0.089,2.91 -0.138,4.36 -0.079,2.376 0.66,3.959 1.808,4.927 2.329,1.963 4.667,2.293 6.938,-0.367 0.679,-0.798 1.398,-1.49 2.081,-2.278 C 7.207,27.117 7.93,24.135 7.599,20.205 7.045,13.637 5.475,7.96 2.737,3.297 1.993,2.027 1.003,1.187 0,0 Z m -2.531,2.248 c 1.091,0.858 2.19,1.272 2.927,2.382 2.887,4.348 4.648,9.824 5.114,16.433 0.17,2.419 -0.215,4.403 -1.48,5.726 -0.595,0.625 -1.222,1.173 -1.776,1.887 -1.28,1.646 -2.62,1.62 -4.054,0.729 -1.506,-0.935 -1.819,-1.841 -1.659,-4.49 0.225,-3.716 0.405,-7.442 0.536,-11.174 0.117,-3.289 0.138,-6.584 0.211,-9.88 0.01,-0.366 0.078,-0.725 0.181,-1.613 z" />
      </g>
      <g
         transform="matrix(0.35277777,0,0,-0.35277777,50.272227,147.94382)"
         id="g6477">
        <path
           inkscape:connector-curvature="0"
           id="path6479"
           style="fill:#2c3792;fill-opacity:1;fill-rule:nonzero;stroke:none"
           d="m 0,0 c 0.142,-3.351 0.319,-6.424 0.393,-9.508 0.122,-4.98 0.136,-9.966 0.268,-14.949 0.091,-3.49 0.31,-6.976 0.46,-10.465 0.037,-0.851 0.017,-1.71 0.046,-2.561 0.175,-5.201 0.353,-10.399 0.546,-15.599 0.021,-0.621 0.137,-1.24 0.235,-1.853 0.131,-0.819 0.123,-1.557 -0.556,-1.853 -0.582,-0.253 -1.292,0.354 -1.448,1.308 -0.191,1.177 -0.331,2.381 -0.423,3.584 -0.103,1.335 -0.15,2.683 -0.181,4.025 -0.089,3.909 -0.045,7.828 -0.257,11.719 -0.454,8.34 -0.572,16.688 -0.577,25.048 -0.002,3.222 -0.303,6.441 -0.47,9.72 -1.194,1.576 -1.074,2.89 0.543,3.805 2.163,1.224 4.335,0.669 6.515,-0.19 4.048,-1.595 6.409,-5.688 8.146,-10.744 0.636,-1.854 1.323,-3.696 1.775,-5.643 1.275,-5.479 0.299,-10.326 -2.544,-14.294 -1.538,-2.149 -3.651,-3.027 -5.714,-3.803 -1.037,-0.391 -2.11,-0.601 -3.176,-0.818 -0.841,-0.169 -1.597,0.034 -1.907,1.437 0.397,1.227 1.165,1.363 1.981,1.432 2.255,0.18 4.362,1.129 6.348,2.602 2.112,1.568 2.692,4.527 3.198,7.46 0.487,2.827 -0.221,5.445 -1.084,7.902 -0.829,2.364 -1.758,4.683 -2.804,6.869 C 7.523,-1.62 4.818,-0.14 1.742,0.183 1.208,0.237 0.664,0.076 0,0" />
      </g>
      <g
         transform="matrix(0.35277777,0,0,-0.35277777,50.272227,147.94382)"
         id="g6481">
        <path
           inkscape:connector-curvature="0"
           id="path6483"
           style="fill:none;stroke:#2c3792;stroke-width:6;stroke-linecap:round;stroke-linejoin:round;stroke-miterlimit:10;stroke-dasharray:none;stroke-opacity:1"
           d="m 0,0 c 0.142,-3.351 0.319,-6.424 0.393,-9.508 0.122,-4.98 0.136,-9.966 0.268,-14.949 0.091,-3.49 0.31,-6.976 0.46,-10.465 0.037,-0.851 0.017,-1.71 0.046,-2.561 0.175,-5.201 0.353,-10.399 0.546,-15.599 0.021,-0.621 0.137,-1.24 0.235,-1.853 0.131,-0.819 0.123,-1.557 -0.556,-1.853 -0.582,-0.253 -1.292,0.354 -1.448,1.308 -0.191,1.177 -0.331,2.381 -0.423,3.584 -0.103,1.335 -0.15,2.683 -0.181,4.025 -0.089,3.909 -0.045,7.828 -0.257,11.719 -0.454,8.34 -0.572,16.688 -0.577,25.048 -0.002,3.222 -0.303,6.441 -0.47,9.72 -1.194,1.576 -1.074,2.89 0.543,3.805 2.163,1.224 4.335,0.669 6.515,-0.19 4.048,-1.595 6.409,-5.688 8.146,-10.744 0.636,-1.854 1.323,-3.696 1.775,-5.643 1.275,-5.479 0.299,-10.326 -2.544,-14.294 -1.538,-2.149 -3.651,-3.027 -5.714,-3.803 -1.037,-0.391 -2.11,-0.601 -3.176,-0.818 -0.841,-0.169 -1.597,0.034 -1.907,1.437 0.397,1.227 1.165,1.363 1.981,1.432 2.255,0.18 4.362,1.129 6.348,2.602 2.112,1.568 2.692,4.527 3.198,7.46 0.487,2.827 -0.221,5.445 -1.084,7.902 -0.829,2.364 -1.758,4.683 -2.804,6.869 C 7.523,-1.62 4.818,-0.14 1.742,0.183 1.208,0.237 0.664,0.076 0,0 Z" />
      </g>
      <g
         transform="matrix(0.35277777,0,0,-0.35277777,98.451193,148.32451)"
         id="g6485">
        <path
           inkscape:connector-curvature="0"
           id="path6487"
           style="fill:#2c3792;fill-opacity:1;fill-rule:nonzero;stroke:none"
           d="m 0,0 c -0.372,-0.537 -0.594,-0.854 -0.655,-0.944 -1.141,0.419 -2.014,0.988 -2.892,1.006 -1.75,0.035 -2.812,-2.041 -3.984,-3.629 -2.207,-2.995 -3.218,-7.067 -3.976,-11.256 -1.377,-7.616 -2.33,-15.361 -2.227,-23.31 0.061,-4.707 1.034,-9.079 2.455,-13.213 0.507,-1.472 1.556,-1.95 2.437,-0.993 0.81,0.876 1.602,1.941 2.173,3.176 2.05,4.413 3.259,9.431 4.179,14.621 0.096,0.547 0.073,1.143 0.123,2.027 -0.838,0 -1.582,-0.033 -2.326,0.014 -0.372,0.024 -0.826,0.03 -1.088,0.346 -0.301,0.362 -0.624,1.112 -0.572,1.593 0.052,0.455 0.554,1.021 0.91,1.121 0.61,0.174 1.273,-0.114 1.892,0.03 1.79,0.423 3.569,0.961 5.399,1.464 0.243,-0.276 0.489,-0.556 0.745,-0.847 -0.248,-2.196 -1.686,-2.057 -2.417,-3.058 0,-3.285 -0.024,-6.479 0.01,-9.667 0.031,-3.186 0.116,-6.37 0.181,-9.598 -0.949,-0.926 -1.25,-0.735 -1.793,0.79 -0.539,1.517 -0.44,3.107 -0.449,4.703 -0.01,1.121 -10e-4,2.24 -10e-4,3.658 -0.904,-3.668 -1.797,-7.023 -3.318,-9.852 -0.994,-1.848 -2.044,-3.567 -3.761,-3.885 -1.739,-0.323 -3.053,0.608 -3.977,2.806 -1.141,2.726 -1.679,5.814 -2.31,8.876 -0.56,2.723 -0.578,5.472 -0.637,8.214 -0.053,2.46 0.116,4.959 0.364,7.401 0.39,3.836 0.818,7.678 1.435,11.442 0.781,4.766 1.714,9.55 3.753,13.435 1.156,2.196 2.651,4.058 4.163,5.706 1.465,1.597 3.17,1.228 4.716,0.009 C -0.935,1.781 -0.58,0.9 0,0" />
      </g>
      <g
         transform="matrix(0.35277777,0,0,-0.35277777,98.451193,148.32451)"
         id="g6489">
        <path
           inkscape:connector-curvature="0"
           id="path6491"
           style="fill:none;stroke:#2c3792;stroke-width:6;stroke-linecap:round;stroke-linejoin:round;stroke-miterlimit:10;stroke-dasharray:none;stroke-opacity:1"
           d="m 0,0 c -0.372,-0.537 -0.594,-0.854 -0.655,-0.944 -1.141,0.419 -2.014,0.988 -2.892,1.006 -1.75,0.035 -2.812,-2.041 -3.984,-3.629 -2.207,-2.995 -3.218,-7.067 -3.976,-11.256 -1.377,-7.616 -2.33,-15.361 -2.227,-23.31 0.061,-4.707 1.034,-9.079 2.455,-13.213 0.507,-1.472 1.556,-1.95 2.437,-0.993 0.81,0.876 1.602,1.941 2.173,3.176 2.05,4.413 3.259,9.431 4.179,14.621 0.096,0.547 0.073,1.143 0.123,2.027 -0.838,0 -1.582,-0.033 -2.326,0.014 -0.372,0.024 -0.826,0.03 -1.088,0.346 -0.301,0.362 -0.624,1.112 -0.572,1.593 0.052,0.455 0.554,1.021 0.91,1.121 0.61,0.174 1.273,-0.114 1.892,0.03 1.79,0.423 3.569,0.961 5.399,1.464 0.243,-0.276 0.489,-0.556 0.745,-0.847 -0.248,-2.196 -1.686,-2.057 -2.417,-3.058 0,-3.285 -0.024,-6.479 0.01,-9.667 0.031,-3.186 0.116,-6.37 0.181,-9.598 -0.949,-0.926 -1.25,-0.735 -1.793,0.79 -0.539,1.517 -0.44,3.107 -0.449,4.703 -0.01,1.121 -10e-4,2.24 -10e-4,3.658 -0.904,-3.668 -1.797,-7.023 -3.318,-9.852 -0.994,-1.848 -2.044,-3.567 -3.761,-3.885 -1.739,-0.323 -3.053,0.608 -3.977,2.806 -1.141,2.726 -1.679,5.814 -2.31,8.876 -0.56,2.723 -0.578,5.472 -0.637,8.214 -0.053,2.46 0.116,4.959 0.364,7.401 0.39,3.836 0.818,7.678 1.435,11.442 0.781,4.766 1.714,9.55 3.753,13.435 1.156,2.196 2.651,4.058 4.163,5.706 1.465,1.597 3.17,1.228 4.716,0.009 C -0.935,1.781 -0.58,0.9 0,0 Z" />
      </g>
      <g
         transform="matrix(0.35277777,0,0,-0.35277777,122.66953,167.86716)"
         id="g6493">
        <path
           inkscape:connector-curvature="0"
           id="path6495"
           style="fill:#2c3792;fill-opacity:1;fill-rule:nonzero;stroke:none"
           d="m 0,0 c -0.173,1.797 -0.412,3.672 -0.522,5.564 -0.131,2.291 -0.151,4.597 -0.225,6.897 -0.16,4.797 -0.326,9.592 -0.481,14.389 -0.044,1.374 -0.045,2.753 -0.094,4.125 -0.223,6.537 -0.451,13.069 -0.691,19.6 -0.036,0.955 -0.175,1.904 -0.215,2.862 -0.067,1.594 0.525,2.6 1.306,3.295 1.987,1.76 4.132,2.327 6.359,1.745 2.661,-0.7 5.113,-2.407 7.457,-4.491 2.243,-1.994 3.134,-5.323 2.783,-9.099 C 14.871,36.269 11.69,30.567 7.109,26.701 5.305,25.177 3.299,24.279 1.191,22.981 1.191,22.846 1.179,22.359 1.193,21.877 1.292,18.506 1.383,15.133 1.504,11.763 1.598,9.158 1.733,6.563 1.84,3.961 1.872,3.145 1.887,2.318 1.869,1.501 1.829,-0.343 1.389,-0.783 0,0 m -0.282,53.102 c 0.223,-1.255 0.54,-2.304 0.585,-3.382 0.246,-5.812 0.418,-11.63 0.628,-17.443 0.063,-1.766 0.167,-3.527 0.26,-5.443 0.452,0.137 0.794,0.187 1.115,0.352 2.497,1.288 4.793,3.158 6.812,5.918 2.626,3.585 4.09,8.109 4.432,13.616 0.091,1.461 -0.188,2.663 -0.917,3.493 -3.06,3.47 -6.326,5.911 -10.198,4.732 -0.983,-0.302 -2.081,-0.469 -2.717,-1.843" />
      </g>
      <g
         transform="matrix(0.35277777,0,0,-0.35277777,122.66953,167.86716)"
         id="g6497">
        <path
           inkscape:connector-curvature="0"
           id="path6499"
           style="fill:none;stroke:#2c3792;stroke-width:6;stroke-linecap:round;stroke-linejoin:round;stroke-miterlimit:10;stroke-dasharray:none;stroke-opacity:1"
           d="m 0,0 c -0.173,1.797 -0.412,3.672 -0.522,5.564 -0.131,2.291 -0.151,4.597 -0.225,6.897 -0.16,4.797 -0.326,9.592 -0.481,14.389 -0.044,1.374 -0.045,2.753 -0.094,4.125 -0.223,6.537 -0.451,13.069 -0.691,19.6 -0.036,0.955 -0.175,1.904 -0.215,2.862 -0.067,1.594 0.525,2.6 1.306,3.295 1.987,1.76 4.132,2.327 6.359,1.745 2.661,-0.7 5.113,-2.407 7.457,-4.491 2.243,-1.994 3.134,-5.323 2.783,-9.099 C 14.871,36.269 11.69,30.567 7.109,26.701 5.305,25.177 3.299,24.279 1.191,22.981 1.191,22.846 1.179,22.359 1.193,21.877 1.292,18.506 1.383,15.133 1.504,11.763 1.598,9.158 1.733,6.563 1.84,3.961 1.872,3.145 1.887,2.318 1.869,1.501 1.829,-0.343 1.389,-0.783 0,0 Z m -0.282,53.102 c 0.223,-1.255 0.54,-2.304 0.585,-3.382 0.246,-5.812 0.418,-11.63 0.628,-17.443 0.063,-1.766 0.167,-3.527 0.26,-5.443 0.452,0.137 0.794,0.187 1.115,0.352 2.497,1.288 4.793,3.158 6.812,5.918 2.626,3.585 4.09,8.109 4.432,13.616 0.091,1.461 -0.188,2.663 -0.917,3.493 -3.06,3.47 -6.326,5.911 -10.198,4.732 -0.983,-0.302 -2.081,-0.469 -2.717,-1.843 z" />
      </g>
      <g
         transform="matrix(0.35277777,0,0,-0.35277777,146.08515,179.91463)"
         id="g6513" />
      <g
         transform="matrix(0.35277777,0,0,-0.35277777,55.033386,144.65512)"
         id="g6525" />
      <g
         transform="matrix(0.35277777,0,0,-0.35277777,55.033386,144.65512)"
         id="g6529" />
      <g
         transform="matrix(0.35277777,0,0,-0.35277777,100.78662,126.50086)"
         id="g6533" />
      <g
         transform="matrix(0.35277777,0,0,-0.35277777,100.78662,126.50086)"
         id="g6537" />
      <g
         transform="matrix(0.35277777,0,0,-0.35277777,94.295356,185.71549)"
         id="g6545">
        <path
           d="m 0,0 c -1.141,0.149 -2.138,0.282 -3.242,0.427 -0.126,1.588 -0.295,3.062 -0.346,4.539 -0.077,2.216 -0.074,4.432 -0.099,6.65 -0.006,0.505 0.022,1.011 0.014,1.518 -0.059,3.836 -0.056,7.676 -0.214,11.508 -0.128,3.034 -0.457,6.059 -0.693,9.045 1.035,1.313 2.11,1.266 2.53,-0.214 0.544,-1.906 0.882,-3.878 1.175,-5.844 0.436,-2.942 0.811,-5.896 1.113,-8.855 C 0.517,16.068 0.533,13.329 0.9,10.636 1.334,7.462 0.597,4.387 0.456,1.264 0.438,0.886 0.194,0.517 0,0 Z m -1.357,10.829 c 0.062,0.004 0.126,0.01 0.187,0.016 -0.218,2.445 -0.437,4.888 -0.61,6.802 0,-1.467 -0.025,-3.469 0.02,-5.47 0.01,-0.451 0.262,-0.9 0.403,-1.348 z M -0.923,7.682 C -0.976,7.687 -1.029,7.692 -1.082,7.698 -1.228,6.329 -1.37,4.961 -1.515,3.594 -1.443,3.586 -1.37,3.58 -1.298,3.571 c 0.126,1.37 0.249,2.741 0.375,4.111 z M 0,0 c -1.141,0.149 -2.138,0.282 -3.242,0.427 -0.126,1.588 -0.295,3.062 -0.346,4.539 -0.077,2.216 -0.074,4.432 -0.099,6.65 -0.006,0.505 0.022,1.011 0.014,1.518 -0.059,3.836 -0.056,7.676 -0.214,11.508 -0.128,3.034 -0.457,6.059 -0.693,9.045 1.035,1.313 2.11,1.266 2.53,-0.214 0.544,-1.906 0.882,-3.878 1.175,-5.844 0.436,-2.942 0.811,-5.896 1.113,-8.855 C 0.517,16.068 0.533,13.329 0.9,10.636 1.334,7.462 0.597,4.387 0.456,1.264 0.438,0.886 0.194,0.517 0,0 m -1.357,10.829 c 0.062,0.004 0.126,0.01 0.187,0.016 -0.218,2.445 -0.437,4.888 -0.61,6.802 0,-1.467 -0.025,-3.469 0.02,-5.47 0.01,-0.451 0.262,-0.9 0.403,-1.348 M -0.923,7.682 C -0.976,7.687 -1.029,7.692 -1.082,7.698 -1.228,6.329 -1.37,4.961 -1.515,3.594 -1.443,3.586 -1.37,3.58 -1.298,3.571 c 0.126,1.37 0.249,2.741 0.375,4.111 m -38.315399,24.387283 c 0.748,-0.528 0.868,-1.083 0.748,-1.725 -0.835,-4.484 -1.65,-8.971 -2.506,-13.451 -0.884,-4.634 -1.878,-9.2500004 -2.682,-13.8980004 -0.49,-2.837 -0.709,-5.719 -1.049,-8.581 -0.032,-0.28 -0.058,-0.561 -0.085,-0.816 -0.731,-0.578 -1.313,-0.445 -1.818,0.226 -1.492,-0.983 -2,-0.776 -2.662,0.871 -0.857,2.131 -0.505,4.27 -0.045,6.364 0.758,3.464 1.672,6.896 2.557,10.3310004 0.86,3.345 1.685,6.7 2.674,10.004 0.836,2.787 1.868,5.516 2.854,8.254 0.211,0.588 0.548,1.158 0.939,1.647 0.282,0.349 0.75,0.549 1.075,0.774 z m -3.625,-13.923 c -1.318,-2.8 -5.153,-19.2410004 -4.943,-20.9560004 2.311,6.727 3.586,13.9040004 4.943,20.9560004 z m 3.625,13.923 c 0.748,-0.528 0.868,-1.083 0.748,-1.725 -0.835,-4.484 -1.65,-8.971 -2.506,-13.451 -0.884,-4.634 -1.878,-9.2500004 -2.682,-13.8980004 -0.49,-2.837 -0.709,-5.719 -1.049,-8.581 -0.032,-0.28 -0.058,-0.561 -0.085,-0.816 -0.731,-0.578 -1.313,-0.445 -1.818,0.226 -1.492,-0.983 -2,-0.776 -2.662,0.871 -0.857,2.131 -0.505,4.27 -0.045,6.364 0.758,3.464 1.672,6.896 2.557,10.3310004 0.86,3.345 1.685,6.7 2.674,10.004 0.836,2.787 1.868,5.516 2.854,8.254 0.211,0.588 0.548,1.158 0.939,1.647 0.282,0.349 0.75,0.549 1.075,0.774 m -3.625,-13.923 c -1.318,-2.8 -5.153,-19.2410004 -4.943,-20.9560004 2.311,6.727 3.586,13.9040004 4.943,20.9560004 m 75.413194,15.687708 c 1.245,0.984 2.907,0.445 3.232,-1.099 0.723,-3.439 1.352,-6.9 2.111,-10.331 0.69,-3.122 1.541,-6.209 2.239,-9.329 0.357,-1.603 0.546,-3.2459997 0.797,-4.8739997 0.164,-1.062 0.34,-2.128 0.447,-3.2 0.197,-1.979 0.355,-3.966 0.516,-5.95 0.074,-0.918 0.118,-1.833 0.18,-2.751 0.114,-1.676 -0.239,-3.281 -0.737,-4.863 -0.336,-1.073 -0.761,-1.399 -1.971,-1.4590003 -0.162,-0.14 -0.341,-0.319 -0.55,-0.461 -0.179,-0.123 -0.39,-0.199 -0.753,-0.379 -0.237,0.332 -0.616,0.634 -0.683,0.9970003 -0.484,2.551 -1.02,5.1 -1.323,7.675 -0.475,4.026 -0.782,8.072 -1.157,12.111 -0.334,3.5649997 -0.647,7.1309997 -1,10.6949997 -0.274,2.772 -0.608,5.54 -0.896,8.313 -0.168,1.603 -0.298,3.213 -0.452,4.905 z m 0,0 c 1.245,0.984 2.907,0.445 3.232,-1.099 0.723,-3.439 1.352,-6.9 2.111,-10.331 0.69,-3.122 1.541,-6.209 2.239,-9.329 0.357,-1.603 0.546,-3.2459997 0.797,-4.8739997 0.164,-1.062 0.34,-2.128 0.447,-3.2 0.197,-1.979 0.355,-3.966 0.516,-5.95 0.074,-0.918 0.118,-1.833 0.18,-2.751 0.114,-1.676 -0.239,-3.281 -0.737,-4.863 -0.336,-1.073 -0.761,-1.399 -1.971,-1.4590003 -0.162,-0.14 -0.341,-0.319 -0.55,-0.461 -0.179,-0.123 -0.39,-0.199 -0.753,-0.379 -0.237,0.332 -0.616,0.634 -0.683,0.9970003 -0.484,2.551 -1.02,5.1 -1.323,7.675 -0.475,4.026 -0.782,8.072 -1.157,12.111 -0.334,3.5649997 -0.647,7.1309997 -1,10.6949997 -0.274,2.772 -0.608,5.54 -0.896,8.313 -0.168,1.603 -0.298,3.213 -0.452,4.905"
           style="fill:#000000;stroke:#000000;stroke-width:2;stroke-linecap:round;stroke-linejoin:round;stroke-miterlimit:10;stroke-dasharray:none;stroke-opacity:1"
           id="path6547"
           inkscape:connector-curvature="0" />
      </g>
      <g
         transform="matrix(0.35277777,0,0,-0.35277777,140.58884,133.43961)"
         id="g6549" />
      <g
         transform="matrix(0.35277777,0,0,-0.35277777,140.58884,133.43961)"
         id="g6553" />
      <g
         transform="matrix(0.35277777,0,0,-0.35277777,78.111332,167.96121)"
         id="g6557">
        <path
           inkscape:connector-curvature="0"
           id="path6559"
           style="fill:#2c3792;fill-opacity:1;fill-rule:nonzero;stroke:none"
           d="m 0,0 c -0.133,1.268 -0.36,2.549 -0.387,3.844 -0.103,5.272 -0.118,10.548 -0.22,15.823 -0.113,5.729 -0.274,11.456 -0.431,17.183 -0.129,4.638 -0.283,9.274 -0.42,13.909 -0.018,0.589 -0.002,1.184 -0.002,1.743 -1.75,0.852 -3.985,-0.436 -5.009,3.075 0.484,1.242 0.995,1.506 1.664,1.223 1.97,-0.832 3.957,-0.504 5.951,-0.231 1.959,0.276 3.92,0.462 5.879,0.723 0.569,0.076 1.127,0.328 1.695,0.401 0.329,0.04 0.761,0.059 0.979,-0.234 0.331,-0.442 0.745,-1.21 0.7,-1.756 C 10.36,55.186 9.801,54.457 9.427,54.384 7.228,53.949 5.013,53.694 2.806,53.354 2.153,53.252 1.509,53.063 0.963,52.94 0.963,49.647 0.926,46.587 0.971,43.528 1.029,39.688 1.155,35.853 1.252,32.016 1.375,27.109 1.506,22.2 1.615,17.29 1.671,14.834 1.695,12.368 1.72,9.908 1.746,7.256 1.765,4.601 1.767,1.946 1.771,0.044 1.476,-0.322 0,0" />
      </g>
      <g
         transform="matrix(0.35277777,0,0,-0.35277777,78.111332,167.96121)"
         id="g6561">
        <path
           inkscape:connector-curvature="0"
           id="path6563"
           style="fill:none;stroke:#2c3792;stroke-width:6;stroke-linecap:round;stroke-linejoin:round;stroke-miterlimit:10;stroke-dasharray:none;stroke-opacity:1"
           d="m 0,0 c -0.133,1.268 -0.36,2.549 -0.387,3.844 -0.103,5.272 -0.118,10.548 -0.22,15.823 -0.113,5.729 -0.274,11.456 -0.431,17.183 -0.129,4.638 -0.283,9.274 -0.42,13.909 -0.018,0.589 -0.002,1.184 -0.002,1.743 -1.75,0.852 -3.985,-0.436 -5.009,3.075 0.484,1.242 0.995,1.506 1.664,1.223 1.97,-0.832 3.957,-0.504 5.951,-0.231 1.959,0.276 3.92,0.462 5.879,0.723 0.569,0.076 1.127,0.328 1.695,0.401 0.329,0.04 0.761,0.059 0.979,-0.234 0.331,-0.442 0.745,-1.21 0.7,-1.756 C 10.36,55.186 9.801,54.457 9.427,54.384 7.228,53.949 5.013,53.694 2.806,53.354 2.153,53.252 1.509,53.063 0.963,52.94 0.963,49.647 0.926,46.587 0.971,43.528 1.029,39.688 1.155,35.853 1.252,32.016 1.375,27.109 1.506,22.2 1.615,17.29 1.671,14.834 1.695,12.368 1.72,9.908 1.746,7.256 1.765,4.601 1.767,1.946 1.771,0.044 1.476,-0.322 0,0 Z" />
      </g>
      <g
         transform="matrix(0.35277777,0,0,-0.35277777,147.43735,151.43266)"
         id="g6565" />
      <g
         transform="matrix(0.35277777,0,0,-0.35277777,147.43735,151.43266)"
         id="g6569" />
      <g
         transform="matrix(0.35277777,0,0,-0.35277777,85.64991,128.21649)"
         id="g6573" />
      <g
         transform="matrix(0.35277777,0,0,-0.35277777,85.64991,128.21649)"
         id="g6577" />
      <g
         transform="matrix(0.35277777,0,0,-0.35277777,72.774227,140.2423)"
         id="g6581" />
      <g
         transform="matrix(0.35277777,0,0,-0.35277777,72.774227,140.2423)"
         id="g6585">
        <path
           d="m 0,0 c -0.288,-0.05 -0.595,-0.103 -0.902,-0.155 -0.835,0.74 -1.378,1.552 -1.748,2.634 -0.772,2.246 -1.708,4.451 -2.758,6.582 -2.258,4.579 -4.663,9.085 -6.938,13.658 -0.971,1.952 -1.966,3.938 -2.564,6.02 -0.318,1.104 0.077,2.471 0.366,3.668 0.175,0.723 1.295,0.793 1.796,0.078 0.684,-0.978 1.316,-2.035 1.726,-3.147 0.809,-2.202 1.446,-4.468 2.163,-6.7 0.852,-2.662 1.823,-5.263 3.166,-7.742 1.191,-2.196 2.076,-4.56 3.072,-6.858 C -1.775,6.089 -0.945,4.131 -0.138,2.166 0.129,1.519 0.629,0.866 0,0 Z m 0,0 c -0.288,-0.05 -0.595,-0.103 -0.902,-0.155 -0.835,0.74 -1.378,1.552 -1.748,2.634 -0.772,2.246 -1.708,4.451 -2.758,6.582 -2.258,4.579 -4.663,9.085 -6.938,13.658 -0.971,1.952 -1.966,3.938 -2.564,6.02 -0.318,1.104 0.077,2.471 0.366,3.668 0.175,0.723 1.295,0.793 1.796,0.078 0.684,-0.978 1.316,-2.035 1.726,-3.147 0.809,-2.202 1.446,-4.468 2.163,-6.7 0.852,-2.662 1.823,-5.263 3.166,-7.742 1.191,-2.196 2.076,-4.56 3.072,-6.858 C -1.775,6.089 -0.945,4.131 -0.138,2.166 0.129,1.519 0.629,0.866 0,0 m 36.498,34.088911 c 0.392,0.629 0.798,1.247 1.166,1.889 0.258,0.448 0.507,1.062 1.092,0.812 0.445,-0.189 0.946,-0.703 1.05,-1.156 0.217,-0.947 0.265,-1.951 0.247,-2.932 -0.033,-1.612 -0.2,-3.224 -0.263,-4.841 -0.148,-3.738 -0.315,-7.48 -0.381,-11.221 -0.039,-2.119 0.143,-4.244 0.156,-6.368 0.01,-1.52 -0.193,-3.045 -0.123,-4.56 0.099,-2.15 0.331,-4.295 0.571,-6.43600001 0.08,-0.71499999 -0.132,-1.10599999 -0.815,-1.23999999 -0.68,-0.135 -1.364,0.248 -1.428,0.923 -0.16,1.63199999 -0.261,3.275 -0.33,4.913 -0.101,2.466 -0.158,4.934 -0.226,7.401 -0.033,1.262 -0.022,2.527 -0.077,3.788 -0.138,3.098 -0.309,6.196 -0.455,9.295 -0.109,2.273 -0.197,4.546 -0.306,6.819 -0.048,0.977 -0.127,1.952 -0.191,2.928 0.104,-0.003 0.209,-0.008 0.313,-0.014 z m 0,0 c 0.392,0.629 0.798,1.247 1.166,1.889 0.258,0.448 0.507,1.062 1.092,0.812 0.445,-0.189 0.946,-0.703 1.05,-1.156 0.217,-0.947 0.265,-1.951 0.247,-2.932 -0.033,-1.612 -0.2,-3.224 -0.263,-4.841 -0.148,-3.738 -0.315,-7.48 -0.381,-11.221 -0.039,-2.119 0.143,-4.244 0.156,-6.368 0.01,-1.52 -0.193,-3.045 -0.123,-4.56 0.099,-2.15 0.331,-4.295 0.571,-6.43600001 0.08,-0.71499999 -0.132,-1.10599999 -0.815,-1.23999999 -0.68,-0.135 -1.364,0.248 -1.428,0.923 -0.16,1.63199999 -0.261,3.275 -0.33,4.913 -0.101,2.466 -0.158,4.934 -0.226,7.401 -0.033,1.262 -0.022,2.527 -0.077,3.788 -0.138,3.098 -0.309,6.196 -0.455,9.295 -0.109,2.273 -0.197,4.546 -0.306,6.819 -0.048,0.977 -0.127,1.952 -0.191,2.928 0.104,-0.003 0.209,-0.008 0.313,-0.014 M 192.2304,19.283216 c -0.339,-0.563 -0.604,-1.232 -1.059,-1.728 -2.234,-2.42 -4.502,-4.815 -6.795,-7.183 -1.743,-1.7969998 -3.503,-3.5809998 -5.323,-5.2979998 -3.135,-2.954 -6.316,-5.86100003 -9.504,-8.76 -0.435,-0.396 -0.994,-0.738 -1.554,-0.893 -0.455,-0.127 -0.999,0.065 -1.505,0.116 0.06,0.502 -0.018,1.078 0.212,1.483 0.367,0.653 0.926,1.201 1.426,1.777 2.642,3.034 5.253,6.097 7.954,9.081 2.294,2.5319998 4.578,5.0619998 7.231,7.2679998 2.181,1.817 4.491,3.395 6.889,4.874 0.921,0.569 1.322,0.423 2.028,-0.737 z M 175.5454,4.2902162 c 0.074,-0.083 0.148,-0.164 0.221,-0.246 3.857,4.05 7.711,8.0979998 11.164,11.7279998 -4.081,-2.987 -7.714,-7.2529998 -11.385,-11.4819998 z m 16.685,14.9929998 c -0.339,-0.563 -0.604,-1.232 -1.059,-1.728 -2.234,-2.42 -4.502,-4.815 -6.795,-7.183 -1.743,-1.7969998 -3.503,-3.5809998 -5.323,-5.2979998 -3.135,-2.954 -6.316,-5.86100003 -9.504,-8.76 -0.435,-0.396 -0.994,-0.738 -1.554,-0.893 -0.455,-0.127 -0.999,0.065 -1.505,0.116 0.06,0.502 -0.018,1.078 0.212,1.483 0.367,0.653 0.926,1.201 1.426,1.777 2.642,3.034 5.253,6.097 7.954,9.081 2.294,2.5319998 4.578,5.0619998 7.231,7.2679998 2.181,1.817 4.491,3.395 6.889,4.874 0.921,0.569 1.322,0.423 2.028,-0.737 M 175.5454,4.2902162 c 0.074,-0.083 0.148,-0.164 0.221,-0.246 3.857,4.05 7.711,8.0979998 11.164,11.7279998 -4.081,-2.987 -7.714,-7.2529998 -11.385,-11.4819998 M 79.40521,38.952114 c 0.711,0.051 1.171,0.089 1.632,0.116 0.845,0.056 1.806,-0.887 1.741,-2.026 -0.102,-1.756 -0.195,-3.571 -0.704,-5.234 -1.534,-5 -3.053,-10.023 -4.994,-14.869 -1.547,-3.866 -2.187,-7.9399998 -3.424,-11.8629998 -0.329,-1.042 -0.42,-2.161 -0.636,-3.335 -0.501,-0.033 -0.922,-0.062 -1.587,-0.108 -0.093,0.713 -0.315,1.355 -0.228,1.954 0.421,2.848 0.885,5.691 1.412,8.5229998 0.62,3.333 1.408,6.634 1.959,9.977 0.418,2.53 1.25,4.89 2.158,7.267 0.719,1.881 1.106,3.889 1.641,5.842 0.347,1.275 0.698,2.549 1.03,3.756 z m 0,0 c 0.711,0.051 1.171,0.089 1.632,0.116 0.845,0.056 1.806,-0.887 1.741,-2.026 -0.102,-1.756 -0.195,-3.571 -0.704,-5.234 -1.534,-5 -3.053,-10.023 -4.994,-14.869 -1.547,-3.866 -2.187,-7.9399998 -3.424,-11.8629998 -0.329,-1.042 -0.42,-2.161 -0.636,-3.335 -0.501,-0.033 -0.922,-0.062 -1.587,-0.108 -0.093,0.713 -0.315,1.355 -0.228,1.954 0.421,2.848 0.885,5.691 1.412,8.5229998 0.62,3.333 1.408,6.634 1.959,9.977 0.418,2.53 1.25,4.89 2.158,7.267 0.719,1.881 1.106,3.889 1.641,5.842 0.347,1.275 0.698,2.549 1.03,3.756 M -50.288999,-12.508781 c -0.595,0.727 -1.167,1.428 -1.785,2.184 -1.367,-0.005 -2.061,1.0629996 -2.698,2.0499996 -2.17,3.355 -4.22,6.789 -6.401,10.136 -1.171,1.797 -2.47,3.512 -3.791,5.202 -1.949,2.494 -3.972,4.9340004 -5.959,7.3980004 -0.371,0.462 -0.362,0.93 0.02,1.383 0.203,0.238 0.412,0.471 0.616,0.703 -0.05,0.331 -0.114,0.608 -0.13,0.889 -0.039,0.602 -0.179,1.371 0.521,1.572 0.541,0.155 1.316,0.074 1.778,-0.225 0.668,-0.434 1.252,-1.093 1.687,-1.774 1.043,-1.627 1.907,-3.37 2.972,-4.98 1.958,-2.9570004 4.043,-5.8300004 6.012,-8.7810004 1.051,-1.58 1.983,-3.24099998 2.941,-4.884 0.863,-1.48 1.646,-3.009 2.553,-4.46 0.449,-0.716 1.116,-1.291 1.65,-1.955 0.205,-0.256 0.5,-0.624 0.444,-0.873 -0.174,-0.779 0.035,-1.4319996 0.373,-2.0989996 0.339,-0.677 -0.051,-1.066 -0.803,-1.486 z m -18.087,28.835 c -0.089,-0.031 -0.18,-0.061 -0.269,-0.091 0.289,-0.853 0.577,-1.703 0.864,-2.555 0.043,0.019 0.086,0.038 0.129,0.055 -0.241,0.863 -0.483,1.728 -0.724,2.591 z m 18.087,-28.835 c -0.595,0.727 -1.167,1.428 -1.785,2.184 -1.367,-0.005 -2.061,1.0629996 -2.698,2.0499996 -2.17,3.355 -4.22,6.789 -6.401,10.136 -1.171,1.797 -2.47,3.512 -3.791,5.202 -1.949,2.494 -3.972,4.9340004 -5.959,7.3980004 -0.371,0.462 -0.362,0.93 0.02,1.383 0.203,0.238 0.412,0.471 0.616,0.703 -0.05,0.331 -0.114,0.608 -0.13,0.889 -0.039,0.602 -0.179,1.371 0.521,1.572 0.541,0.155 1.316,0.074 1.778,-0.225 0.668,-0.434 1.252,-1.093 1.687,-1.774 1.043,-1.627 1.907,-3.37 2.972,-4.98 1.958,-2.9570004 4.043,-5.8300004 6.012,-8.7810004 1.051,-1.58 1.983,-3.24099998 2.941,-4.884 0.863,-1.48 1.646,-3.009 2.553,-4.46 0.449,-0.716 1.116,-1.291 1.65,-1.955 0.205,-0.256 0.5,-0.624 0.444,-0.873 -0.174,-0.779 0.035,-1.4319996 0.373,-2.0989996 0.339,-0.677 -0.051,-1.066 -0.803,-1.486 m -18.087,28.835 c -0.089,-0.031 -0.18,-0.061 -0.269,-0.091 0.289,-0.853 0.577,-1.703 0.864,-2.555 0.043,0.019 0.086,0.038 0.129,0.055 -0.241,0.863 -0.483,1.728 -0.724,2.591 M 119.5263,3.2314111 c -0.348,-0.086 -0.683,-0.168 -1.048,-0.258 -0.244,0.226 -0.471,0.435 -0.698,0.644 -0.022,-0.077 -0.042,-0.154 -0.062,-0.231 -0.499,0.112 -1.13,0.074 -1.465,0.37 -0.501,0.448 -0.148,1.053 0.153,1.557 1.887,3.158 3.724,6.3449999 5.669,9.4639999 3.156,5.058 6.588,9.915 10.545,14.395 1.228,1.391 2.271,2.948 3.409,4.42 0.311,0.398 0.648,0.777 1.001,1.139 0.442,0.455 0.94,0.751 1.613,0.441 0.682,-0.316 0.776,-0.891 0.67,-1.522 -0.527,-3.153 -1.375,-6.204 -3.25,-8.857 -1.409,-1.99 -2.874,-3.939 -4.341,-5.889 -1.829,-2.427 -3.667,-4.847 -5.533,-7.243 -2.181,-2.7999999 -4.4,-5.5709999 -6.663,-8.4299999 z m 6.727,14.4479999 c 0.685,0.808 1.348,1.613 2.035,2.394 2.089,2.375 4.23,4.704 6.262,7.127 0.955,1.136 1.869,2.354 2.347,4.037 -3.808,-4.512 -7.802,-8.596 -10.644,-13.558 z m -6.727,-14.4479999 c -0.348,-0.086 -0.683,-0.168 -1.048,-0.258 -0.244,0.226 -0.471,0.435 -0.698,0.644 -0.022,-0.077 -0.042,-0.154 -0.062,-0.231 -0.499,0.112 -1.13,0.074 -1.465,0.37 -0.501,0.448 -0.148,1.053 0.153,1.557 1.887,3.158 3.724,6.3449999 5.669,9.4639999 3.156,5.058 6.588,9.915 10.545,14.395 1.228,1.391 2.271,2.948 3.409,4.42 0.311,0.398 0.648,0.777 1.001,1.139 0.442,0.455 0.94,0.751 1.613,0.441 0.682,-0.316 0.776,-0.891 0.67,-1.522 -0.527,-3.153 -1.375,-6.204 -3.25,-8.857 -1.409,-1.99 -2.874,-3.939 -4.341,-5.889 -1.829,-2.427 -3.667,-4.847 -5.533,-7.243 -2.181,-2.7999999 -4.4,-5.5709999 -6.663,-8.4299999 m 6.727,14.4479999 c 0.685,0.808 1.348,1.613 2.035,2.394 2.089,2.375 4.23,4.704 6.262,7.127 0.955,1.136 1.869,2.354 2.347,4.037 -3.808,-4.512 -7.802,-8.596 -10.644,-13.558"
           style="fill:#000000;stroke:#000000;stroke-width:2;stroke-linecap:round;stroke-linejoin:round;stroke-miterlimit:10;stroke-dasharray:none;stroke-opacity:1"
           id="path6587"
           inkscape:connector-curvature="0" />
      </g>
      <g
         transform="matrix(0.35277777,0,0,-0.35277777,147.00019,163.06159)"
         id="g6589" />
      <g
         transform="matrix(0.35277777,0,0,-0.35277777,147.00019,163.06159)"
         id="g6593">
        <path
           d="M 0,0 C 0.383,0.41 0.596,0.639 0.833,0.896 1.36,0.657 1.752,0.482 2.173,0.294 v 0.809 c 0.589,0.588 1.27,0.645 1.729,0.103 1.981,-2.349 4.803,-2.996 7.532,-3.775 3.049,-0.871 5.698,-2.415 8.153,-4.368 1.016,-0.809 2.117,-1.515 3.12,-2.338 0.502,-0.412 0.933,-0.943 1.273,-1.495 0.181,-0.291 0.27,-0.907 0.098,-1.082 -0.261,-0.263 -0.797,-0.404 -1.184,-0.355 -0.553,0.072 -1.123,0.286 -1.606,0.574 -3.563,2.115 -7.518,3.338 -11.263,5.04 C 7.587,-5.485 5.352,-3.936 3.034,-2.565 2.436,-2.212 1.844,-1.83 1.308,-1.388 0.863,-1.021 0.508,-0.549 0,0 Z M 7.382,-3.244 C 7.35,-3.318 7.319,-3.393 7.287,-3.468 c 3.42,-1.442 6.84,-2.886 10.26,-4.329 -2.89,2.652 -6.567,3.515 -10.165,4.553 z M 0,0 C 0.383,0.41 0.596,0.639 0.833,0.896 1.36,0.657 1.752,0.482 2.173,0.294 v 0.809 c 0.589,0.588 1.27,0.645 1.729,0.103 1.981,-2.349 4.803,-2.996 7.532,-3.775 3.049,-0.871 5.698,-2.415 8.153,-4.368 1.016,-0.809 2.117,-1.515 3.12,-2.338 0.502,-0.412 0.933,-0.943 1.273,-1.495 0.181,-0.291 0.27,-0.907 0.098,-1.082 -0.261,-0.263 -0.797,-0.404 -1.184,-0.355 -0.553,0.072 -1.123,0.286 -1.606,0.574 -3.563,2.115 -7.518,3.338 -11.263,5.04 C 7.587,-5.485 5.352,-3.936 3.034,-2.565 2.436,-2.212 1.844,-1.83 1.308,-1.388 0.863,-1.021 0.508,-0.549 0,0 M 7.382,-3.244 C 7.35,-3.318 7.319,-3.393 7.287,-3.468 c 3.42,-1.442 6.84,-2.886 10.26,-4.329 -2.89,2.652 -6.567,3.515 -10.165,4.553 M 1.2391937,32.963897 c 1.115,0.44 2.303,0.277 3.567,0.176 0.159,0.29 0.319,0.589 0.535,0.991 0.398,0.024 0.867,0.065 1.334,0.08 2.919,0.069 5.8400003,0.106 8.7590003,0.208 4.439,0.162 8.872,0.447 13.31,0.519 1.855,0.027 3.727,-0.293 5.57,-0.592 1.265,-0.203 2.325,-0.832 2.711,-2.4 -0.355,-0.13 -0.68,-0.34 -1.016,-0.362 -1.804,-0.113 -3.61,-0.214 -5.416,-0.258 -4.919,-0.119 -9.838,-0.288 -14.758,-0.287 -3.675,0 -7.3520003,0.229 -11.0260003,0.369 -0.885,0.035 -1.77,0.116 -2.655,0.192 -0.838,0.07 -1.023,0.332 -0.915,1.364 z m 30.2150003,0.028 c -5.454,0.722 -10.888,0.019 -16.329,-0.121 0.002,-0.084 0.003,-0.17 0.006,-0.255 5.441,0.125 10.881,0.251 16.323,0.376 z m -30.2150003,-0.028 c 1.115,0.44 2.303,0.277 3.567,0.176 0.159,0.29 0.319,0.589 0.535,0.991 0.398,0.024 0.867,0.065 1.334,0.08 2.919,0.069 5.8400003,0.106 8.7590003,0.208 4.439,0.162 8.872,0.447 13.31,0.519 1.855,0.027 3.727,-0.293 5.57,-0.592 1.265,-0.203 2.325,-0.832 2.711,-2.4 -0.355,-0.13 -0.68,-0.34 -1.016,-0.362 -1.804,-0.113 -3.61,-0.214 -5.416,-0.258 -4.919,-0.119 -9.838,-0.288 -14.758,-0.287 -3.675,0 -7.3520003,0.229 -11.0260003,0.369 -0.885,0.035 -1.77,0.116 -2.655,0.192 -0.838,0.07 -1.023,0.332 -0.915,1.364 m 30.2150003,0.028 c -5.454,0.722 -10.888,0.019 -16.329,-0.121 0.002,-0.084 0.003,-0.17 0.006,-0.255 5.441,0.125 10.881,0.251 16.323,0.376 m -98.18371,-60.762383 c 1.321993,0.276095 1.858989,0.07087 2.462003,-1.123993 1.245005,-2.457015 2.401001,-4.960999 3.673984,-7.401997 1.62601,-3.12001 3.265002,-6.235002 5.019024,-9.284004 1.897994,-3.294 3.968986,-6.490998 5.896998,-9.769011 0.878004,-1.494 1.609002,-3.075987 2.377985,-4.633994 0.622998,-1.260992 0.02268,-2.674998 -1.342007,-3.168992 -1.533997,0.885005 -2.898992,1.974983 -3.661001,3.679994 -0.03912,0.08589 -0.128977,0.170929 -0.126142,0.252 0.09893,1.940995 -1.472995,3.088006 -2.220973,4.61999 -0.988016,2.018013 -2.118019,3.967002 -3.189005,5.94601 -1.792999,3.315005 -3.574999,6.638003 -5.391014,9.940989 -1.803005,3.277021 -3.640989,6.530004 -5.461002,9.797018 -0.09411,0.16611 -0.221102,0.343984 -0.225921,0.518995 -0.01134,0.352998 -0.07398,0.856006 0.119055,1.022995 0.250866,0.21515 0.752995,0.269008 1.107978,0.198992 0.34302,-0.07087 0.639014,-0.385993 0.960009,-0.594992 z m 0,0 c 1.321993,0.276095 1.858989,0.07087 2.462003,-1.123993 1.245005,-2.457015 2.401001,-4.960999 3.673984,-7.401997 1.62601,-3.12001 3.265002,-6.235002 5.019024,-9.284004 1.897994,-3.294 3.968986,-6.490998 5.896998,-9.769011 0.878004,-1.494 1.609002,-3.075987 2.377985,-4.633994 0.622998,-1.260992 0.02268,-2.674998 -1.342007,-3.168992 -1.533997,0.885005 -2.898992,1.974983 -3.661001,3.679994 -0.03912,0.08589 -0.128977,0.170929 -0.126142,0.252 0.09893,1.940995 -1.472995,3.088006 -2.220973,4.61999 -0.988016,2.018013 -2.118019,3.967002 -3.189005,5.94601 -1.792999,3.315005 -3.574999,6.638003 -5.391014,9.940989 -1.803005,3.277021 -3.640989,6.530004 -5.461002,9.797018 -0.09411,0.16611 -0.221102,0.343984 -0.225921,0.518995 -0.01134,0.352998 -0.07398,0.856006 0.119055,1.022995 0.250866,0.21515 0.752995,0.269008 1.107978,0.198992 0.34302,-0.07087 0.639014,-0.385993 0.960009,-0.594992 m 64.1357308,-20.001912 c 0.741,-1.964 0.741,-1.964 -0.49,-2.757 -1.313,0.607 -2.847,1.153 -4.206,1.984 -2.8659998,1.749 -5.6829998,3.586 -8.4349998,5.511 -1.524,1.067 -2.843,2.424 -4.316,3.571 -1.924,1.498 -3.916,2.907 -5.867,4.367 -2.95,2.202 -5.403,4.876 -7.5,7.891 -0.272,0.39 -0.629,0.744 -0.806,1.17 -0.15,0.359 -0.27,0.939 -0.087,1.168 0.196,0.247 0.833,0.373 1.15,0.242 0.567,-0.228 1.074,-0.65 1.541,-1.064 2.385,-2.121 5.145,-3.684 7.832,-5.363 3.063,-1.912 6.02,-3.994 9.047,-5.964 2.498,-1.628 5.0929998,-3.113 7.5289998,-4.828 1.615,-1.141 3.042,-2.558 4.521,-3.884 0.685,-0.611 0.599,-1.343 0.087,-2.044 z m -24.1379998,16.314 c -0.083,-0.089 -0.162,-0.181 -0.243,-0.272 1.276,-0.982 2.547,-1.97 3.829,-2.947 1.911,-1.459 3.943,-2.787 5.724,-4.393 3.517,-3.175 7.6609998,-5.749 11.5509998,-7.959 -0.816,1.92 -2.877,2.54 -4.3869998,3.715 -0.057,0.467 -0.103,0.84 -0.142,1.159 -5.481,3.59 -10.907,7.144 -16.332,10.697 z m 24.1379998,-16.314 c 0.741,-1.964 0.741,-1.964 -0.49,-2.757 -1.313,0.607 -2.847,1.153 -4.206,1.984 -2.8659998,1.749 -5.6829998,3.586 -8.4349998,5.511 -1.524,1.067 -2.843,2.424 -4.316,3.571 -1.924,1.498 -3.916,2.907 -5.867,4.367 -2.95,2.202 -5.403,4.876 -7.5,7.891 -0.272,0.39 -0.629,0.744 -0.806,1.17 -0.15,0.359 -0.27,0.939 -0.087,1.168 0.196,0.247 0.833,0.373 1.15,0.242 0.567,-0.228 1.074,-0.65 1.541,-1.064 2.385,-2.121 5.145,-3.684 7.832,-5.363 3.063,-1.912 6.02,-3.994 9.047,-5.964 2.498,-1.628 5.0929998,-3.113 7.5289998,-4.828 1.615,-1.141 3.042,-2.558 4.521,-3.884 0.685,-0.611 0.599,-1.343 0.087,-2.044 m -24.1379998,16.314 c -0.083,-0.089 -0.162,-0.181 -0.243,-0.272 1.276,-0.982 2.547,-1.97 3.829,-2.947 1.911,-1.459 3.943,-2.787 5.724,-4.393 3.517,-3.175 7.6609998,-5.749 11.5509998,-7.959 -0.816,1.92 -2.877,2.54 -4.3869998,3.715 -0.057,0.467 -0.103,0.84 -0.142,1.159 -5.481,3.59 -10.907,7.144 -16.332,10.697"
           style="fill:#000000;stroke:#000000;stroke-width:2;stroke-linecap:round;stroke-linejoin:round;stroke-miterlimit:10;stroke-dasharray:none;stroke-opacity:1"
           id="path6595"
           inkscape:connector-curvature="0" />
        <path
           inkscape:connector-curvature="0"
           id="path7877"
           style="fill:#000000;stroke:#000000;stroke-width:2;stroke-linecap:round;stroke-linejoin:round;stroke-miterlimit:10;stroke-dasharray:none;stroke-opacity:1"
           d="m -306.73196,0 c -0.383,0.41 -0.596,0.639 -0.833,0.896 -0.527,-0.239 -0.919,-0.414 -1.34,-0.602 v 0.809 c -0.589,0.588 -1.27,0.645 -1.729,0.103 -1.981,-2.349 -4.803,-2.996 -7.532,-3.775 -3.049,-0.871 -5.698,-2.415 -8.153,-4.368 -1.016,-0.809 -2.117,-1.515 -3.12,-2.338 -0.502,-0.412 -0.933,-0.943 -1.273,-1.495 -0.181,-0.291 -0.27,-0.907 -0.098,-1.082 0.261,-0.263 0.797,-0.404 1.184,-0.355 0.553,0.072 1.123,0.286 1.606,0.574 3.563,2.115 7.518,3.338 11.263,5.04 2.438,1.108 4.673,2.657 6.991,4.028 0.598,0.353 1.19,0.735 1.726,1.177 0.445,0.367 0.8,0.839 1.308,1.388 z m -7.382,-3.244 c 0.032,-0.074 0.063,-0.149 0.095,-0.224 -3.42,-1.442 -6.84,-2.886 -10.26,-4.329 2.89,2.652 6.567,3.515 10.165,4.553 z m 7.382,3.244 c -0.383,0.41 -0.596,0.639 -0.833,0.896 -0.527,-0.239 -0.919,-0.414 -1.34,-0.602 v 0.809 c -0.589,0.588 -1.27,0.645 -1.729,0.103 -1.981,-2.349 -4.803,-2.996 -7.532,-3.775 -3.049,-0.871 -5.698,-2.415 -8.153,-4.368 -1.016,-0.809 -2.117,-1.515 -3.12,-2.338 -0.502,-0.412 -0.933,-0.943 -1.273,-1.495 -0.181,-0.291 -0.27,-0.907 -0.098,-1.082 0.261,-0.263 0.797,-0.404 1.184,-0.355 0.553,0.072 1.123,0.286 1.606,0.574 3.563,2.115 7.518,3.338 11.263,5.04 2.438,1.108 4.673,2.657 6.991,4.028 0.598,0.353 1.19,0.735 1.726,1.177 0.445,0.367 0.8,0.839 1.308,1.388 m -7.382,-3.244 c 0.032,-0.074 0.063,-0.149 0.095,-0.224 -3.42,-1.442 -6.84,-2.886 -10.26,-4.329 2.89,2.652 6.567,3.515 10.165,4.553 m 6.1428,36.207897 c -1.115,0.44 -2.303,0.277 -3.567,0.176 -0.159,0.29 -0.319,0.589 -0.535,0.991 -0.398,0.024 -0.867,0.065 -1.334,0.08 -2.919,0.069 -5.84,0.106 -8.759,0.208 -4.439,0.162 -8.872,0.447 -13.31,0.519 -1.855,0.027 -3.727,-0.293 -5.57,-0.592 -1.265,-0.203 -2.325,-0.832 -2.711,-2.4 0.355,-0.13 0.68,-0.34 1.016,-0.362 1.804,-0.113 3.61,-0.214 5.416,-0.258 4.919,-0.119 9.838,-0.288 14.758,-0.287 3.675,0 7.352,0.229 11.026,0.369 0.885,0.035 1.77,0.116 2.655,0.192 0.838,0.07 1.023,0.332 0.915,1.364 z m -30.215,0.028 c 5.454,0.722 10.888,0.019 16.329,-0.121 -0.002,-0.084 -0.003,-0.17 -0.006,-0.255 -5.441,0.125 -10.881,0.251 -16.323,0.376 z m 30.215,-0.028 c -1.115,0.44 -2.303,0.277 -3.567,0.176 -0.159,0.29 -0.319,0.589 -0.535,0.991 -0.398,0.024 -0.867,0.065 -1.334,0.08 -2.919,0.069 -5.84,0.106 -8.759,0.208 -4.439,0.162 -8.872,0.447 -13.31,0.519 -1.855,0.027 -3.727,-0.293 -5.57,-0.592 -1.265,-0.203 -2.325,-0.832 -2.711,-2.4 0.355,-0.13 0.68,-0.34 1.016,-0.362 1.804,-0.113 3.61,-0.214 5.416,-0.258 4.919,-0.119 9.838,-0.288 14.758,-0.287 3.675,0 7.352,0.229 11.026,0.369 0.885,0.035 1.77,0.116 2.655,0.192 0.838,0.07 1.023,0.332 0.915,1.364 m -30.215,0.028 c 5.454,0.722 10.888,0.019 16.329,-0.121 -0.002,-0.084 -0.003,-0.17 -0.006,-0.255 -5.441,0.125 -10.881,0.251 -16.323,0.376 m 98.18371,-60.762383 c -1.32199,0.276095 -1.85899,0.07087 -2.462,-1.123993 -1.24501,-2.457015 -2.401,-4.960999 -3.67398,-7.401997 -1.62601,-3.12001 -3.26501,-6.235002 -5.01903,-9.284004 -1.89799,-3.294 -3.96898,-6.490998 -5.897,-9.769011 -0.878,-1.494 -1.609,-3.075987 -2.37798,-4.633994 -0.623,-1.260992 -0.0227,-2.674998 1.34201,-3.168992 1.53399,0.885005 2.89899,1.974983 3.661,3.679994 0.0391,0.08589 0.12897,0.170929 0.12614,0.252 -0.0989,1.940995 1.47299,3.088006 2.22097,4.61999 0.98802,2.018013 2.11802,3.967002 3.18901,5.94601 1.793,3.315005 3.575,6.638003 5.39101,9.940989 1.80301,3.277021 3.64099,6.530004 5.461,9.797018 0.0941,0.16611 0.2211,0.343984 0.22592,0.518995 0.0113,0.352998 0.074,0.856006 -0.11905,1.022995 -0.25087,0.21515 -0.753,0.269008 -1.10798,0.198992 -0.34302,-0.07087 -0.63901,-0.385993 -0.96001,-0.594992 z m 0,0 c -1.32199,0.276095 -1.85899,0.07087 -2.462,-1.123993 -1.24501,-2.457015 -2.401,-4.960999 -3.67398,-7.401997 -1.62601,-3.12001 -3.26501,-6.235002 -5.01903,-9.284004 -1.89799,-3.294 -3.96898,-6.490998 -5.897,-9.769011 -0.878,-1.494 -1.609,-3.075987 -2.37798,-4.633994 -0.623,-1.260992 -0.0227,-2.674998 1.34201,-3.168992 1.53399,0.885005 2.89899,1.974983 3.661,3.679994 0.0391,0.08589 0.12897,0.170929 0.12614,0.252 -0.0989,1.940995 1.47299,3.088006 2.22097,4.61999 0.98802,2.018013 2.11802,3.967002 3.18901,5.94601 1.793,3.315005 3.575,6.638003 5.39101,9.940989 1.80301,3.277021 3.64099,6.530004 5.461,9.797018 0.0941,0.16611 0.2211,0.343984 0.22592,0.518995 0.0113,0.352998 0.074,0.856006 -0.11905,1.022995 -0.25087,0.21515 -0.753,0.269008 -1.10798,0.198992 -0.34302,-0.07087 -0.63901,-0.385993 -0.96001,-0.594992 m -64.13573,-20.001912 c -0.741,-1.964 -0.741,-1.964 0.49,-2.757 1.313,0.607 2.847,1.153 4.206,1.984 2.866,1.749 5.683,3.586 8.435,5.511 1.524,1.067 2.843,2.424 4.316,3.571 1.924,1.498 3.916,2.907 5.867,4.367 2.95,2.202 5.403,4.876 7.5,7.891 0.272,0.39 0.629,0.744 0.806,1.17 0.15,0.359 0.27,0.939 0.087,1.168 -0.196,0.247 -0.833,0.373 -1.15,0.242 -0.567,-0.228 -1.074,-0.65 -1.541,-1.064 -2.385,-2.121 -5.145,-3.684 -7.832,-5.363 -3.063,-1.912 -6.02,-3.994 -9.047,-5.964 -2.498,-1.628 -5.093,-3.113 -7.529,-4.828 -1.615,-1.141 -3.042,-2.558 -4.521,-3.884 -0.685,-0.611 -0.599,-1.343 -0.087,-2.044 z m 24.138,16.314 c 0.083,-0.089 0.162,-0.181 0.243,-0.272 -1.276,-0.982 -2.547,-1.97 -3.829,-2.947 -1.911,-1.459 -3.943,-2.787 -5.724,-4.393 -3.517,-3.175 -7.661,-5.749 -11.551,-7.959 0.816,1.92 2.877,2.54 4.387,3.715 0.057,0.467 0.103,0.84 0.142,1.159 5.481,3.59 10.907,7.144 16.332,10.697 z m -24.138,-16.314 c -0.741,-1.964 -0.741,-1.964 0.49,-2.757 1.313,0.607 2.847,1.153 4.206,1.984 2.866,1.749 5.683,3.586 8.435,5.511 1.524,1.067 2.843,2.424 4.316,3.571 1.924,1.498 3.916,2.907 5.867,4.367 2.95,2.202 5.403,4.876 7.5,7.891 0.272,0.39 0.629,0.744 0.806,1.17 0.15,0.359 0.27,0.939 0.087,1.168 -0.196,0.247 -0.833,0.373 -1.15,0.242 -0.567,-0.228 -1.074,-0.65 -1.541,-1.064 -2.385,-2.121 -5.145,-3.684 -7.832,-5.363 -3.063,-1.912 -6.02,-3.994 -9.047,-5.964 -2.498,-1.628 -5.093,-3.113 -7.529,-4.828 -1.615,-1.141 -3.042,-2.558 -4.521,-3.884 -0.685,-0.611 -0.599,-1.343 -0.087,-2.044 m 24.138,16.314 c 0.083,-0.089 0.162,-0.181 0.243,-0.272 -1.276,-0.982 -2.547,-1.97 -3.829,-2.947 -1.911,-1.459 -3.943,-2.787 -5.724,-4.393 -3.517,-3.175 -7.661,-5.749 -11.551,-7.959 0.816,1.92 2.877,2.54 4.387,3.715 0.057,0.467 0.103,0.84 0.142,1.159 5.481,3.59 10.907,7.144 16.332,10.697" />
      </g>
    </g>
    <g
       id="g6733"
       transform="matrix(0.35277777,0,0,-0.35277777,66.805227,66.53157)"
       style="fill:none;stroke:#000000" />
    <g
       id="g6737"
       transform="matrix(0.35277777,0,0,-0.35277777,66.805227,66.53157)"
       style="fill:none;stroke:#000000" />
    <g
       id="g6741"
       transform="matrix(0.35277777,0,0,-0.35277777,63.276427,62.553683)"
       style="fill:none;stroke:#000000" />
    <g
       id="g6745"
       transform="matrix(0.35277777,0,0,-0.35277777,63.276427,62.553683)"
       style="fill:none;stroke:#000000" />
    <g
       id="g6749"
       transform="matrix(0.35277777,0,0,-0.35277777,88.997842,48.832215)"
       style="fill:none;stroke:#000000" />
    <g
       id="g6753"
       transform="matrix(0.35277777,0,0,-0.35277777,88.997842,48.832215)"
       style="fill:none;stroke:#000000" />
    <g
       id="g6757"
       transform="matrix(0.35277777,0,0,-0.35277777,85.2651,64.715117)"
       style="fill:none;stroke:#000000" />
    <g
       id="g6761"
       transform="matrix(0.35277777,0,0,-0.35277777,85.2651,64.715117)"
       style="fill:none;stroke:#000000" />
    <g
       id="g6765"
       transform="matrix(0.35277777,0,0,-0.35277777,76.963463,63.00224)"
       style="fill:none;stroke:#000000" />
    <g
       id="g6773"
       transform="matrix(0.35277777,0,0,-0.35277777,64.629012,49.803377)"
       style="fill:none;stroke:#000000" />
    <g
       id="g6777"
       transform="matrix(0.35277777,0,0,-0.35277777,64.629012,49.803377)"
       style="fill:none;stroke:#000000" />
    <g
       id="g6789"
       transform="matrix(0.35277777,0,0,-0.35277777,60.543105,52.179618)"
       style="fill:none;stroke:#000000" />
    <g
       id="g6793"
       transform="matrix(0.35277777,0,0,-0.35277777,60.543105,52.179618)"
       style="fill:none;stroke:#000000" />
    <g
       id="g6797"
       transform="matrix(0.35277777,0,0,-0.35277777,71.260775,43.003974)"
       style="fill:none;stroke:#000000" />
    <g
       id="g6801"
       transform="matrix(0.35277777,0,0,-0.35277777,71.260775,43.003974)"
       style="fill:none;stroke:#000000" />
    <g
       id="g6829"
       transform="matrix(0.35277777,0,0,-0.35277777,78.692533,43.305246)"
       style="fill:none;stroke:#000000" />
    <g
       id="g7949"
       transform="matrix(1.8491673,0,0,1.8491673,57.301958,-87.804415)">
      <g
         style="fill:none;stroke:#000000"
         transform="matrix(0.35277777,0,0,-0.35277777,76.963463,63.00224)"
         id="g6769">
        <path
           d="m 0,0 c 0.026,-0.788 0.066,-1.655 0.081,-2.522 0.022,-1.174 0.042,-2.346 0.026,-3.519 -0.022,-1.709 -0.063,-3.417 -0.126,-5.125 -0.031,-0.829 -0.105,-1.658 -0.203,-2.48 -0.097,-0.838 -0.625,-1.104 -1.252,-0.654 -0.416,0.3 -0.718,0.638 -0.675,1.329 0.115,1.825 0.189,3.658 0.207,5.487 0.017,1.856 -0.045,3.714 -0.084,5.569 -0.039,1.87 -0.087,3.738 -0.144,5.607 -0.022,0.728 -0.079,1.454 -0.114,2.181 -0.063,1.281 -0.119,2.561 -0.183,3.841 -0.034,0.693 -0.081,1.385 -0.116,2.078 -0.062,1.16 -0.127,2.32 -0.166,3.482 -0.019,0.511 0.303,0.889 0.837,1.068 0.575,0.197 0.796,0.139 1.05,-0.426 0.175,-0.394 0.34,-0.839 0.355,-1.27 0.068,-2.107 0.068,-4.217 0.129,-6.325 0.035,-1.245 0.132,-2.488 0.207,-3.729 0.008,-0.133 0.049,-0.263 0.075,-0.394 0.13,0.06 0.304,0.076 0.385,0.185 1.325,1.771 3.115,2.873 4.693,4.273 1.361,1.21 2.887,2.173 4.324,3.273 0.708,0.543 1.363,1.179 2.069,1.724 0.549,0.425 1.14,0.784 1.72,1.154 0.315,0.201 0.615,0.252 0.88,-0.147 C 14.3,14.166 14.408,13.6 14.146,13.219 13.98,12.977 13.755,12.779 13.531,12.598 11.538,10.996 9.569,9.353 7.535,7.822 5.728,6.461 4.061,4.892 2.339,3.403 2.12,3.214 2.02,3.157 2.272,2.883 3.215,1.864 4.116,0.795 5.054,-0.228 c 0.611,-0.666 1.229,-1.331 1.896,-1.92 2.457,-2.169 4.959,-4.275 7.395,-6.477 0.762,-0.692 1.632,-1.343 1.935,-2.544 0.169,-0.673 0.142,-1.28 -0.151,-1.544 -0.395,-0.356 -0.986,-0.314 -1.472,0.272 -1.508,1.822 -3.399,3.073 -5.087,4.627 -2.041,1.877 -4.167,3.637 -6.007,5.787 -0.8,0.935 -1.639,1.828 -2.459,2.741 C 1.039,0.787 0.989,0.89 0.911,0.933 0.704,1.049 0.487,1.138 0.272,1.24 0.189,0.993 0.093,0.75 0.026,0.498 -0.008,0.367 0.01,0.219 0,0 Z m 0,0 c 0.026,-0.788 0.066,-1.655 0.081,-2.522 0.022,-1.174 0.042,-2.346 0.026,-3.519 -0.022,-1.709 -0.063,-3.417 -0.126,-5.125 -0.031,-0.829 -0.105,-1.658 -0.203,-2.48 -0.097,-0.838 -0.625,-1.104 -1.252,-0.654 -0.416,0.3 -0.718,0.638 -0.675,1.329 0.115,1.825 0.189,3.658 0.207,5.487 0.017,1.856 -0.045,3.714 -0.084,5.569 -0.039,1.87 -0.087,3.738 -0.144,5.607 -0.022,0.728 -0.079,1.454 -0.114,2.181 -0.063,1.281 -0.119,2.561 -0.183,3.841 -0.034,0.693 -0.081,1.385 -0.116,2.078 -0.062,1.16 -0.127,2.32 -0.166,3.482 -0.019,0.511 0.303,0.889 0.837,1.068 0.575,0.197 0.796,0.139 1.05,-0.426 0.175,-0.394 0.34,-0.839 0.355,-1.27 0.068,-2.107 0.068,-4.217 0.129,-6.325 0.035,-1.245 0.132,-2.488 0.207,-3.729 0.008,-0.133 0.049,-0.263 0.075,-0.394 0.13,0.06 0.304,0.076 0.385,0.185 1.325,1.771 3.115,2.873 4.693,4.273 1.361,1.21 2.887,2.173 4.324,3.273 0.708,0.543 1.363,1.179 2.069,1.724 0.549,0.425 1.14,0.784 1.72,1.154 0.315,0.201 0.615,0.252 0.88,-0.147 C 14.3,14.166 14.408,13.6 14.146,13.219 13.98,12.977 13.755,12.779 13.531,12.598 11.538,10.996 9.569,9.353 7.535,7.822 5.728,6.461 4.061,4.892 2.339,3.403 2.12,3.214 2.02,3.157 2.272,2.883 3.215,1.864 4.116,0.795 5.054,-0.228 c 0.611,-0.666 1.229,-1.331 1.896,-1.92 2.457,-2.169 4.959,-4.275 7.395,-6.477 0.762,-0.692 1.632,-1.343 1.935,-2.544 0.169,-0.673 0.142,-1.28 -0.151,-1.544 -0.395,-0.356 -0.986,-0.314 -1.472,0.272 -1.508,1.822 -3.399,3.073 -5.087,4.627 -2.041,1.877 -4.167,3.637 -6.007,5.787 -0.8,0.935 -1.639,1.828 -2.459,2.741 C 1.039,0.787 0.989,0.89 0.911,0.933 0.704,1.049 0.487,1.138 0.272,1.24 0.189,0.993 0.093,0.75 0.026,0.498 -0.008,0.367 0.01,0.219 0,0 m 23.5322,-4.8553995 c -0.086,1.502 -0.229,3.005 -0.248,4.50900002 -0.027,2.21899998 0.047,4.43799998 0.056,6.65599998 0.006,1.441 -0.029,2.882 -0.037,4.3230005 0,0.207 -0.02,0.479 0.095,0.609 0.352,0.4 0.246,0.744 0.03,1.15 -0.149,0.28 0.086,0.91 0.375,1.016 0.335,0.121 0.74,0.283 1.05,0.196 1.002,-0.278 1.973,-0.011 2.956,0.023 0.091,0.002 0.182,0.028 0.272,0.031 1.575,0.065 3.15,0.104 4.722,0.198 1.236,0.075 2.466,0.247 3.703,0.327 1.513,0.098 3.031,0.139 4.545,0.213 0.538,0.027 0.847,-0.251 1.047,-0.712 0.282,-0.655 0,-1.152 -0.71,-1.232 -0.6,-0.066 -1.202,-0.139 -1.803,-0.182 -1.873,-0.131 -3.746,-0.257 -5.62,-0.375 -2.048,-0.131 -4.098,-0.244 -6.146,-0.375 -0.631,-0.04 -1.259,-0.132 -1.889,-0.17 -0.381,-0.022 -0.557,-0.142 -0.484,-0.561 0.32,-1.8310005 0.107,-3.6570005 0.006,-5.4940005 -0.097,-1.782 0.051,-3.578 0.078,-5.36699998 0.005,-0.317 0.197,-0.351 0.42,-0.339 0.815,0.038 1.631,0.097 2.447,0.139 0.424,0.021 0.853,0.003 1.277,0.04 0.932,0.082 1.864,0.172 2.791,0.293 0.35,0.045 0.657,0.119 0.852,-0.281 0.215,-0.438 0.151,-0.78400002 -0.205,-1.12100002 -0.829,-0.783 -1.891,-0.902 -2.94,-1.02 -1.35,-0.15 -2.704,-0.261 -4.058,-0.377 -0.307,-0.026 -0.515,-0.073 -0.514,-0.463 0.006,-1.864 -0.055,-3.729 10e-4,-5.591 0.027,-0.865 0.219,-1.7349995 0.432,-2.5799995 0.203,-0.799 0.716,-1.077 1.499,-0.895 0.845,0.195 1.67,0.481 2.518,0.66 1.8,0.38 3.607,0.735 5.42,1.053 0.326,0.057 0.729,-0.021 0.926,-0.415 0.208,-0.413 0.252,-0.81 -0.066,-1.188 -0.305,-0.359 -0.674,-0.578 -1.158,-0.65 -1.106,-0.163 -2.215,-0.321 -3.303,-0.571 -1.113,-0.257 -2.204,-0.621 -3.303,-0.939 -0.798,-0.231 -1.63,-0.265 -2.414,-0.084 -0.497,0.114 -1.016,0.447 -1.363,0.83 -0.64,0.705 -1.002,1.62 -1.119,2.548 -0.165,1.3119995 -0.173,2.6449995 -0.223,3.9689995 -0.027,0.731 -0.005,1.463 -0.005,2.195 0.031,0.001 0.06,0.002 0.09,0.004 z m 0,0 c -0.086,1.502 -0.229,3.005 -0.248,4.50900002 -0.027,2.21899998 0.047,4.43799998 0.056,6.65599998 0.006,1.441 -0.029,2.882 -0.037,4.3230005 0,0.207 -0.02,0.479 0.095,0.609 0.352,0.4 0.246,0.744 0.03,1.15 -0.149,0.28 0.086,0.91 0.375,1.016 0.335,0.121 0.74,0.283 1.05,0.196 1.002,-0.278 1.973,-0.011 2.956,0.023 0.091,0.002 0.182,0.028 0.272,0.031 1.575,0.065 3.15,0.104 4.722,0.198 1.236,0.075 2.466,0.247 3.703,0.327 1.513,0.098 3.031,0.139 4.545,0.213 0.538,0.027 0.847,-0.251 1.047,-0.712 0.282,-0.655 0,-1.152 -0.71,-1.232 -0.6,-0.066 -1.202,-0.139 -1.803,-0.182 -1.873,-0.131 -3.746,-0.257 -5.62,-0.375 -2.048,-0.131 -4.098,-0.244 -6.146,-0.375 -0.631,-0.04 -1.259,-0.132 -1.889,-0.17 -0.381,-0.022 -0.557,-0.142 -0.484,-0.561 0.32,-1.8310005 0.107,-3.6570005 0.006,-5.4940005 -0.097,-1.782 0.051,-3.578 0.078,-5.36699998 0.005,-0.317 0.197,-0.351 0.42,-0.339 0.815,0.038 1.631,0.097 2.447,0.139 0.424,0.021 0.853,0.003 1.277,0.04 0.932,0.082 1.864,0.172 2.791,0.293 0.35,0.045 0.657,0.119 0.852,-0.281 0.215,-0.438 0.151,-0.78400002 -0.205,-1.12100002 -0.829,-0.783 -1.891,-0.902 -2.94,-1.02 -1.35,-0.15 -2.704,-0.261 -4.058,-0.377 -0.307,-0.026 -0.515,-0.073 -0.514,-0.463 0.006,-1.864 -0.055,-3.729 10e-4,-5.591 0.027,-0.865 0.219,-1.7349995 0.432,-2.5799995 0.203,-0.799 0.716,-1.077 1.499,-0.895 0.845,0.195 1.67,0.481 2.518,0.66 1.8,0.38 3.607,0.735 5.42,1.053 0.326,0.057 0.729,-0.021 0.926,-0.415 0.208,-0.413 0.252,-0.81 -0.066,-1.188 -0.305,-0.359 -0.674,-0.578 -1.158,-0.65 -1.106,-0.163 -2.215,-0.321 -3.303,-0.571 -1.113,-0.257 -2.204,-0.621 -3.303,-0.939 -0.798,-0.231 -1.63,-0.265 -2.414,-0.084 -0.497,0.114 -1.016,0.447 -1.363,0.83 -0.64,0.705 -1.002,1.62 -1.119,2.548 -0.165,1.3119995 -0.173,2.6449995 -0.223,3.9689995 -0.027,0.731 -0.005,1.463 -0.005,2.195 0.031,0.001 0.06,0.002 0.09,0.004 m -62.330098,6.1268997 c 0,-1.81600001 -0.109,-3.131 0.024,-4.42 0.229,-2.193 0.142,-4.414 0.632,-6.586 0.171,-0.7630002 0.15,-1.5660002 0.227,-2.3490002 0.035,-0.36 0.126,-0.716 0.135,-1.076 0.006,-0.29 0,-0.623 -0.133,-0.863 -0.147,-0.267 -0.36,-0.57 -0.789,-0.477 -0.563,0.121 -1.082,0.536 -1.15,1.026 -0.069,0.5 -0.071,1.01 -0.132,1.511 -0.244,1.949 -0.569,3.8900002 -0.726,5.8460002 -0.102,1.277 -0.291,2.562 -0.101,3.86 0.06,0.403 -0.125,0.835 -0.132,1.255 -0.026,1.42099999 -0.002,2.843 -0.038,4.264 -0.032,1.285 -0.045,2.578 -0.189,3.854 -0.168,1.497 -0.464,2.9799998 -0.712,4.4689998 -0.024,0.134 -0.117,0.257 -0.178,0.385 -0.099,-0.095 -0.221,-0.175 -0.295,-0.287 -0.561,-0.852 -1.108,-1.7169998 -1.673,-2.5689998 -0.76,-1.145 -1.606,-2.249 -2.707,-3.055 -1.071,-0.783 -2.331,-0.736 -3.546,-0.221 -1.097,0.464 -2.081,1.113 -2.984,1.888 -0.114,0.095 -0.236,0.178 -0.354,0.267 -0.002,-0.175 -0.028,-0.354 0,-0.523 0.103,-0.625 0.256,-1.243 0.331,-1.87 0.274,-2.28 0.535,-4.559 0.578,-6.863 0.031,-1.742 0.237,-3.479 0.377,-5.217 0.168,-2.072 0.346,-4.1430002 0.52,-6.2130002 0.012,-0.151 0.037,-0.301 0.068,-0.449 0.142,-0.718 0.023,-0.934 -0.639,-1.142 -0.346,-0.109 -0.895,0.172 -1.069,0.62 -0.151,0.391 -0.24,0.811 -0.306,1.227 -0.088,0.566 -0.138,1.14 -0.182,1.712 -0.076,0.9360002 -0.124,1.8740002 -0.2,2.8100002 -0.046,0.542 -0.144,1.08 -0.18,1.622 -0.088,1.324 -0.092,2.658 -0.244,3.974 -0.205,1.77099999 -0.044,3.566 -0.428,5.328 -0.192,0.879 -0.139,1.808 -0.254,2.708 -0.09,0.717 -0.291,1.421 -0.398,2.137 -0.124,0.825 -0.504,1.623 -0.209,2.4999998 0.065,0.191 -0.178,0.483 -0.275,0.73 -0.235,0.597 -0.163,0.925 0.253,1.181 0.475,0.29 0.806,0.223 1.274,-0.28 0.725,-0.776 1.431,-1.568 2.163,-2.3329998 0.875,-0.911 1.972,-1.486 3.127,-1.936 0.822,-0.319 1.631,-0.082 2.161,0.645 1.199,1.637 2.365,3.2949998 3.53,4.9539998 0.17,0.243 0.285,0.53 0.394,0.809 0.37,0.946 1.053,1.091 1.808,0.429 0.97,-0.851 1.37,-1.996 1.651,-3.177 0.45,-1.8819998 0.75,-3.7879998 0.769,-5.7389998 0.014,-1.626 0.146,-3.251 0.201,-4.366 z m 0,0 c 0,-1.81600001 -0.109,-3.131 0.024,-4.42 0.229,-2.193 0.142,-4.414 0.632,-6.586 0.171,-0.7630002 0.15,-1.5660002 0.227,-2.3490002 0.035,-0.36 0.126,-0.716 0.135,-1.076 0.006,-0.29 0,-0.623 -0.133,-0.863 -0.147,-0.267 -0.36,-0.57 -0.789,-0.477 -0.563,0.121 -1.082,0.536 -1.15,1.026 -0.069,0.5 -0.071,1.01 -0.132,1.511 -0.244,1.949 -0.569,3.8900002 -0.726,5.8460002 -0.102,1.277 -0.291,2.562 -0.101,3.86 0.06,0.403 -0.125,0.835 -0.132,1.255 -0.026,1.42099999 -0.002,2.843 -0.038,4.264 -0.032,1.285 -0.045,2.578 -0.189,3.854 -0.168,1.497 -0.464,2.9799998 -0.712,4.4689998 -0.024,0.134 -0.117,0.257 -0.178,0.385 -0.099,-0.095 -0.221,-0.175 -0.295,-0.287 -0.561,-0.852 -1.108,-1.7169998 -1.673,-2.5689998 -0.76,-1.145 -1.606,-2.249 -2.707,-3.055 -1.071,-0.783 -2.331,-0.736 -3.546,-0.221 -1.097,0.464 -2.081,1.113 -2.984,1.888 -0.114,0.095 -0.236,0.178 -0.354,0.267 -0.002,-0.175 -0.028,-0.354 0,-0.523 0.103,-0.625 0.256,-1.243 0.331,-1.87 0.274,-2.28 0.535,-4.559 0.578,-6.863 0.031,-1.742 0.237,-3.479 0.377,-5.217 0.168,-2.072 0.346,-4.1430002 0.52,-6.2130002 0.012,-0.151 0.037,-0.301 0.068,-0.449 0.142,-0.718 0.023,-0.934 -0.639,-1.142 -0.346,-0.109 -0.895,0.172 -1.069,0.62 -0.151,0.391 -0.24,0.811 -0.306,1.227 -0.088,0.566 -0.138,1.14 -0.182,1.712 -0.076,0.9360002 -0.124,1.8740002 -0.2,2.8100002 -0.046,0.542 -0.144,1.08 -0.18,1.622 -0.088,1.324 -0.092,2.658 -0.244,3.974 -0.205,1.77099999 -0.044,3.566 -0.428,5.328 -0.192,0.879 -0.139,1.808 -0.254,2.708 -0.09,0.717 -0.291,1.421 -0.398,2.137 -0.124,0.825 -0.504,1.623 -0.209,2.4999998 0.065,0.191 -0.178,0.483 -0.275,0.73 -0.235,0.597 -0.163,0.925 0.253,1.181 0.475,0.29 0.806,0.223 1.274,-0.28 0.725,-0.776 1.431,-1.568 2.163,-2.3329998 0.875,-0.911 1.972,-1.486 3.127,-1.936 0.822,-0.319 1.631,-0.082 2.161,0.645 1.199,1.637 2.365,3.2949998 3.53,4.9539998 0.17,0.243 0.285,0.53 0.394,0.809 0.37,0.946 1.053,1.091 1.808,0.429 0.97,-0.851 1.37,-1.996 1.651,-3.177 0.45,-1.8819998 0.75,-3.7879998 0.769,-5.7389998 0.014,-1.626 0.146,-3.251 0.201,-4.366 M -28.795,-10.0044 c 0.027,3.4029998 0.092,6.8059998 0.067,10.20799978 -0.013,1.81500002 -0.177,3.62900002 -0.282,5.44200002 -0.042,0.716 -0.153,1.43 -0.147,2.144 0.004,0.486 -0.044,0.925 -0.276,1.354 -0.164,0.303 -0.175,0.615 -0.002,0.9500002 0.165,0.317 0.251,0.676 0.38,1.013 0.065,0.17 0.111,0.366 0.227,0.493 1.383,1.524 2.77,3.042 4.763,3.811 0.509,0.196 0.974,0.501 1.478,0.709 1.466,0.606 2.926,0.754 4.329,-0.177 0.986,-0.654 1.739,-1.525 2.189,-2.615 0.492,-1.198 1.001,-2.401 1.337,-3.6470002 0.36,-1.335 0.604,-2.714 0.761,-4.09 0.2,-1.743 0.246,-3.503 0.4,-5.25000002 0.031,-0.373 0.252,-0.726 0.36,-1.095 0.056,-0.187 0.141,-0.42699998 0.071,-0.58199998 -0.498,-1.117 -0.202,-2.283 -0.238,-3.425 -0.015,-0.474 0.117,-0.952 0.121,-1.43 0.02,-1.945 0.317,-3.8529998 0.689,-5.7559998 0.1,-0.503 0.198,-1.011 0.248,-1.521 0.056,-0.594 -0.182,-0.931 -0.663,-1.033 -0.43,-0.09 -1.166,0.226 -1.266,0.62 -0.273,1.082 -0.551,2.166 -0.733,3.264 -0.301,1.8279998 -0.415,3.6729998 -0.393,5.5299998 0.01,0.784 -0.122,1.568 -0.162,2.355 -0.015,0.295 -0.075,0.457 -0.413,0.428 -1.171,-0.101 -2.344,-0.187 -3.517,-0.283 -0.24,-0.019 -0.479,-0.071 -0.721,-0.086 -1.241,-0.077 -2.481,-0.153 -3.723,-0.217 -0.596,-0.031 -1.194,-0.046 -1.789,-0.048 -0.148,-0.001 -0.304,0.053 -0.439,0.119 -0.179,0.085 -0.343,0.203 -0.512,0.309 -0.034,-0.261 -0.096,-0.521 -0.096,-0.781 0,-0.734 0.033,-1.47 0.04,-2.204 0.024,-2.401 0.042,-4.8019998 0.066,-7.2029998 0.003,-0.272 0.111,-0.574 0.024,-0.808 -0.095,-0.252 -0.326,-0.56 -0.561,-0.629 -0.278,-0.082 -0.727,-0.042 -0.916,0.139 -0.287,0.276 -0.524,0.701 -0.587,1.094 -0.149,0.955 -0.185,1.928 -0.266,2.893 0.05,0.003 0.101,0.003 0.152,0.005 z m 2.043,11.8089998 c 0,-0.625 -0.012,-1.32700002 0.007,-2.02700002 0.007,-0.259 0.086,-0.515 0.133,-0.774 0.196,0.073 0.387,0.174 0.59,0.21 0.269,0.05 0.544,0.052 0.817,0.062 1.607,0.065 3.215,0.126 4.821,0.19 0.121,0.005 0.241,0.029 0.363,0.04 0.991,0.108 1.981,0.217 2.972,0.32 0.301,0.031 0.612,0.005 0.904,0.074 0.359,0.085 0.72,0.194 0.469,0.737 -0.105,0.23 -0.064,0.54200002 -0.044,0.81300002 0.107,1.401 -0.096,2.777 -0.344,4.149 -0.133,0.742 -0.289,1.483 -0.38,2.231 -0.216,1.795 -0.852,3.4520002 -1.669,5.0350002 -0.271,0.524 -0.672,1.059 -1.155,1.373 -0.735,0.478 -1.589,0.452 -2.425,0.093 -1.485,-0.636 -2.829,-1.502 -4.126,-2.449 -0.64,-0.469 -1.039,-1.174 -1.192,-1.8850002 -0.156,-0.729 0.023,-1.532 0.052,-2.301 0.069,-1.939 0.137,-3.878 0.207,-5.891 z M -28.795,-10.0044 c 0.027,3.4029998 0.092,6.8059998 0.067,10.20799978 -0.013,1.81500002 -0.177,3.62900002 -0.282,5.44200002 -0.042,0.716 -0.153,1.43 -0.147,2.144 0.004,0.486 -0.044,0.925 -0.276,1.354 -0.164,0.303 -0.175,0.615 -0.002,0.9500002 0.165,0.317 0.251,0.676 0.38,1.013 0.065,0.17 0.111,0.366 0.227,0.493 1.383,1.524 2.77,3.042 4.763,3.811 0.509,0.196 0.974,0.501 1.478,0.709 1.466,0.606 2.926,0.754 4.329,-0.177 0.986,-0.654 1.739,-1.525 2.189,-2.615 0.492,-1.198 1.001,-2.401 1.337,-3.6470002 0.36,-1.335 0.604,-2.714 0.761,-4.09 0.2,-1.743 0.246,-3.503 0.4,-5.25000002 0.031,-0.373 0.252,-0.726 0.36,-1.095 0.056,-0.187 0.141,-0.42699998 0.071,-0.58199998 -0.498,-1.117 -0.202,-2.283 -0.238,-3.425 -0.015,-0.474 0.117,-0.952 0.121,-1.43 0.02,-1.945 0.317,-3.8529998 0.689,-5.7559998 0.1,-0.503 0.198,-1.011 0.248,-1.521 0.056,-0.594 -0.182,-0.931 -0.663,-1.033 -0.43,-0.09 -1.166,0.226 -1.266,0.62 -0.273,1.082 -0.551,2.166 -0.733,3.264 -0.301,1.8279998 -0.415,3.6729998 -0.393,5.5299998 0.01,0.784 -0.122,1.568 -0.162,2.355 -0.015,0.295 -0.075,0.457 -0.413,0.428 -1.171,-0.101 -2.344,-0.187 -3.517,-0.283 -0.24,-0.019 -0.479,-0.071 -0.721,-0.086 -1.241,-0.077 -2.481,-0.153 -3.723,-0.217 -0.596,-0.031 -1.194,-0.046 -1.789,-0.048 -0.148,-0.001 -0.304,0.053 -0.439,0.119 -0.179,0.085 -0.343,0.203 -0.512,0.309 -0.034,-0.261 -0.096,-0.521 -0.096,-0.781 0,-0.734 0.033,-1.47 0.04,-2.204 0.024,-2.401 0.042,-4.8019998 0.066,-7.2029998 0.003,-0.272 0.111,-0.574 0.024,-0.808 -0.095,-0.252 -0.326,-0.56 -0.561,-0.629 -0.278,-0.082 -0.727,-0.042 -0.916,0.139 -0.287,0.276 -0.524,0.701 -0.587,1.094 -0.149,0.955 -0.185,1.928 -0.266,2.893 0.05,0.003 0.101,0.003 0.152,0.005 m 2.043,11.8089998 c 0,-0.625 -0.012,-1.32700002 0.007,-2.02700002 0.007,-0.259 0.086,-0.515 0.133,-0.774 0.196,0.073 0.387,0.174 0.59,0.21 0.269,0.05 0.544,0.052 0.817,0.062 1.607,0.065 3.215,0.126 4.821,0.19 0.121,0.005 0.241,0.029 0.363,0.04 0.991,0.108 1.981,0.217 2.972,0.32 0.301,0.031 0.612,0.005 0.904,0.074 0.359,0.085 0.72,0.194 0.469,0.737 -0.105,0.23 -0.064,0.54200002 -0.044,0.81300002 0.107,1.401 -0.096,2.777 -0.344,4.149 -0.133,0.742 -0.289,1.483 -0.38,2.231 -0.216,1.795 -0.852,3.4520002 -1.669,5.0350002 -0.271,0.524 -0.672,1.059 -1.155,1.373 -0.735,0.478 -1.589,0.452 -2.425,0.093 -1.485,-0.636 -2.829,-1.502 -4.126,-2.449 -0.64,-0.469 -1.039,-1.174 -1.192,-1.8850002 -0.156,-0.729 0.023,-1.532 0.052,-2.301 0.069,-1.939 0.137,-3.878 0.207,-5.891"
           style="fill:none;stroke:#000000;stroke-width:3.57399988;stroke-linecap:round;stroke-linejoin:round;stroke-miterlimit:10;stroke-dasharray:none;stroke-opacity:1"
           id="path6771"
           inkscape:connector-curvature="0" />
      </g>
      <g
         style="fill:none;stroke:#000000"
         transform="matrix(0.35277777,0,0,-0.35277777,78.692533,43.305246)"
         id="g6833">
        <path
           d="M 0,0 C 0.205,0.719 0.401,1.44 0.62,2.154 0.789,2.703 0.986,3.242 1.173,3.784 1.279,4.091 1.36,4.411 1.767,4.475 2.45,4.583 2.933,4.025 2.691,3.353 2.314,2.299 1.934,1.243 1.489,0.217 1.352,-0.099 1.049,-0.414 0.741,-0.565 0.316,-0.775 0.026,-0.497 0,0 Z M 0,0 C 0.205,0.719 0.401,1.44 0.62,2.154 0.789,2.703 0.986,3.242 1.173,3.784 1.279,4.091 1.36,4.411 1.767,4.475 2.45,4.583 2.933,4.025 2.691,3.353 2.314,2.299 1.934,1.243 1.489,0.217 1.352,-0.099 1.049,-0.414 0.741,-0.565 0.316,-0.775 0.026,-0.497 0,0 m -21.066401,0.85399939 c 0.681,0 1.363,-0.034 2.039,0.008 0.997,0.062 1.988,0.20900001 2.984,0.26500001 1.502,0.084 3.008,0.125 4.512,0.168 0.192,0.006 0.434,-0.038 0.569,-0.154 0.201,-0.17700001 0.433,-0.42700001 0.461,-0.66800001 0.041,-0.328 -0.303,-0.474 -0.738,-0.499 -1.121,-0.064 -2.24,-0.162 -3.36,-0.244 -0.225,-0.017 -0.45,-0.022 -0.676,-0.034 -0.899,-0.052 -1.799,-0.118 -2.699,-0.151 -0.355,-0.012 -0.395,-0.184 -0.266,-0.428 0.4,-0.75299999 0.288,-1.56199999 0.302,-2.35999999 0.049,-2.914 0.136,-5.829 0.14,-8.7440004 0.003,-2.542 -0.09,-5.085 -0.141,-7.628 -0.017,-0.843 0.173,-1.674 0.016,-2.531 -0.219,-1.202 -0.309,-2.427 -0.495,-3.636 -0.085,-0.563 -0.554,-0.8 -1.105,-0.69 -0.336,0.068 -0.496,0.246 -0.475,0.565 0.038,0.523 0.069,1.051 0.163,1.565 0.204,1.106 0.278,2.219 0.28,3.341 0.003,1.989 -0.019,3.979 0.007,5.968 0.023,1.8 0.138,3.6 0.133,5.4000004 -0.005,2.216 -0.072,4.432 -0.152,6.647 -0.024,0.67 -0.201,1.332 -0.27,2.00099999 -0.045,0.434 -0.282,0.532 -0.663,0.528 -0.957,-0.01 -1.914,-0.017 -2.87,0.007 -0.344,0.008 -0.694,0.086 -1.028,0.178 -0.243,0.065 -0.474,0.2 -0.433,0.526 0.039,0.312 0.229,0.502 0.519,0.572 0.169,0.04 0.35,0.027 0.526,0.027 0.908,0.002 1.814,0.001 2.72,0.001 z m 0,0 c 0.681,0 1.363,-0.034 2.039,0.008 0.997,0.062 1.988,0.20900001 2.984,0.26500001 1.502,0.084 3.008,0.125 4.512,0.168 0.192,0.006 0.434,-0.038 0.569,-0.154 0.201,-0.17700001 0.433,-0.42700001 0.461,-0.66800001 0.041,-0.328 -0.303,-0.474 -0.738,-0.499 -1.121,-0.064 -2.24,-0.162 -3.36,-0.244 -0.225,-0.017 -0.45,-0.022 -0.676,-0.034 -0.899,-0.052 -1.799,-0.118 -2.699,-0.151 -0.355,-0.012 -0.395,-0.184 -0.266,-0.428 0.4,-0.75299999 0.288,-1.56199999 0.302,-2.35999999 0.049,-2.914 0.136,-5.829 0.14,-8.7440004 0.003,-2.542 -0.09,-5.085 -0.141,-7.628 -0.017,-0.843 0.173,-1.674 0.016,-2.531 -0.219,-1.202 -0.309,-2.427 -0.495,-3.636 -0.085,-0.563 -0.554,-0.8 -1.105,-0.69 -0.336,0.068 -0.496,0.246 -0.475,0.565 0.038,0.523 0.069,1.051 0.163,1.565 0.204,1.106 0.278,2.219 0.28,3.341 0.003,1.989 -0.019,3.979 0.007,5.968 0.023,1.8 0.138,3.6 0.133,5.4000004 -0.005,2.216 -0.072,4.432 -0.152,6.647 -0.024,0.67 -0.201,1.332 -0.27,2.00099999 -0.045,0.434 -0.282,0.532 -0.663,0.528 -0.957,-0.01 -1.914,-0.017 -2.87,0.007 -0.344,0.008 -0.694,0.086 -1.028,0.178 -0.243,0.065 -0.474,0.2 -0.433,0.526 0.039,0.312 0.229,0.502 0.519,0.572 0.169,0.04 0.35,0.027 0.526,0.027 0.908,0.002 1.814,0.001 2.72,0.001 M -51.447199,-25.155701 c 1.209,0 2.418,0.016 3.625,-0.007 0.499,-0.01 1,-0.079 1.491,-0.164 0.412,-0.071 0.612,-0.409 0.558,-0.843 -0.053,-0.429 -0.219,-0.592 -0.703,-0.595 -1.385,-0.008 -2.778,-0.089 -4.153,0.03 -1.313,0.113 -2.608,-0.046 -3.91,-0.018 -1.171,0.024 -2.344,0.17 -3.509,0.313 -0.715,0.088 -1.096,0.582 -1.116,1.366 -0.022,0.88 0,1.762 -0.01,2.644 -0.007,0.669 -0.07,1.337 -0.05,2.005 0.047,1.622 0.137,3.242 0.192,4.863 0.032,0.927 0.024,1.855 0.041,2.781 0.011,0.543 0.006,1.088 0.057,1.627 0.146,1.5480003 0.04,3.0860003 -0.062,4.6320003 -0.078,1.201 -0.016,2.412 -0.016,3.619 -10e-4,1.089 0.006,2.17699999 -0.006,3.26599999 -0.007,0.54 0.193,0.87400001 0.676,1.03600001 0.411,0.138 0.786,-0.014 0.902,-0.43200001 0.104,-0.382 0.175,-0.786 0.179,-1.181 0.017,-1.98999999 -0.009,-3.97999999 0.014,-5.96899999 0.015,-1.163 0.139,-2.326 0.134,-3.489 -0.008,-1.5280003 -0.088,-3.0570003 -0.147,-4.5860003 -0.039,-0.976 -0.11,-1.95 -0.144,-2.926 -0.06,-1.724 -0.123,-3.449 -0.142,-5.175 -0.008,-0.719 0.103,-1.44 0.143,-2.16 0.021,-0.413 0.273,-0.474 0.612,-0.487 1.781,-0.067 3.561,-0.145 5.342,-0.218 0,0.023 10e-4,0.045 0.002,0.068 z m 0,0 c 1.209,0 2.418,0.016 3.625,-0.007 0.499,-0.01 1,-0.079 1.491,-0.164 0.412,-0.071 0.612,-0.409 0.558,-0.843 -0.053,-0.429 -0.219,-0.592 -0.703,-0.595 -1.385,-0.008 -2.778,-0.089 -4.153,0.03 -1.313,0.113 -2.608,-0.046 -3.91,-0.018 -1.171,0.024 -2.344,0.17 -3.509,0.313 -0.715,0.088 -1.096,0.582 -1.116,1.366 -0.022,0.88 0,1.762 -0.01,2.644 -0.007,0.669 -0.07,1.337 -0.05,2.005 0.047,1.622 0.137,3.242 0.192,4.863 0.032,0.927 0.024,1.855 0.041,2.781 0.011,0.543 0.006,1.088 0.057,1.627 0.146,1.5480003 0.04,3.0860003 -0.062,4.6320003 -0.078,1.201 -0.016,2.412 -0.016,3.619 -10e-4,1.089 0.006,2.17699999 -0.006,3.26599999 -0.007,0.54 0.193,0.87400001 0.676,1.03600001 0.411,0.138 0.786,-0.014 0.902,-0.43200001 0.104,-0.382 0.175,-0.786 0.179,-1.181 0.017,-1.98999999 -0.009,-3.97999999 0.014,-5.96899999 0.015,-1.163 0.139,-2.326 0.134,-3.489 -0.008,-1.5280003 -0.088,-3.0570003 -0.147,-4.5860003 -0.039,-0.976 -0.11,-1.95 -0.144,-2.926 -0.06,-1.724 -0.123,-3.449 -0.142,-5.175 -0.008,-0.719 0.103,-1.44 0.143,-2.16 0.021,-0.413 0.273,-0.474 0.612,-0.487 1.781,-0.067 3.561,-0.145 5.342,-0.218 0,0.023 10e-4,0.045 0.002,0.068 m 11.582099,6.735802 c 0,-0.554 -0.029,-1.11 0.006,-1.662 0.088,-1.372 0.184,-2.746 0.318,-4.114 0.07,-0.719 0.372,-0.952 1.168,-0.886 1.068,0.088 2.135,0.22 3.196,0.379 0.49,0.073 0.96,0.263 1.444,0.383 0.235,0.057 0.483,0.111 0.721,0.099 0.324,-0.017 0.666,-0.054 0.701,-0.513 0.032,-0.428 -0.158,-0.837 -0.544,-0.966 -0.663,-0.222 -1.338,-0.411 -2.009,-0.607 -1.373,-0.398 -2.783,-0.307 -4.187,-0.313 -0.226,-0.001 -0.456,0.007 -0.678,-0.024 -0.776,-0.105 -1.226,0.251 -1.3,1.024 -0.04,0.423 -0.06,0.858 -0.179,1.261 -0.281,0.957 -0.266,1.929 -0.279,2.908 -0.01,0.675 -0.12,1.347 -0.134,2.022 -0.022,1.045 10e-4,2.092 0,3.139 -0.002,1.409 0.007,2.818 -0.019,4.225 -0.027,1.354 -0.139,2.7079997 -0.129,4.0619997 0.013,1.693 0.038,3.387 -0.086,5.076 -0.057,0.76 -0.208,1.515 -0.335,2.27 -0.064,0.387 0.114,0.795 0.497,0.888 0.302,0.073 0.628,0.057 0.942,0.056 1.385,-0.006 2.77,-0.062 4.153,-0.019 1.541,0.049 3.08,0.189 4.62,0.279 0.222,0.013 0.456,-0.007 0.672,-0.062 0.601,-0.153 0.761,-0.426 0.655,-1.051 -0.064,-0.37 -0.4,-0.514 -0.919,-0.537 -1.221,-0.054 -2.438,-0.17 -3.657,-0.239 -1.278,-0.072 -2.554,-0.139 -3.833,-0.17 -1.177,-0.029 -1.171,-0.005 -0.983,-1.149 0.04,-0.246 0.026,-0.503 0.027,-0.754 0.001,-2.763 0.001,-5.527 0.001,-8.2899997 0,-0.202 -0.012,-0.404 0.007,-0.604 0.081,-0.762 0.23,-0.861 0.99,-0.907 1.167,-0.069 2.284,0.262 3.425,0.377 0.493,0.05 0.533,0.048 0.562,-0.414 0.041,-0.638 -0.356,-1.096 -1.032,-1.265 -1.118,-0.277 -2.242,-0.42 -3.394,-0.319 -0.359,0.032 -0.408,-0.204 -0.407,-0.485 0.002,-0.806 0,-1.612 -10e-4,-2.418 z m 0,0 c 0,-0.554 -0.029,-1.11 0.006,-1.662 0.088,-1.372 0.184,-2.746 0.318,-4.114 0.07,-0.719 0.372,-0.952 1.168,-0.886 1.068,0.088 2.135,0.22 3.196,0.379 0.49,0.073 0.96,0.263 1.444,0.383 0.235,0.057 0.483,0.111 0.721,0.099 0.324,-0.017 0.666,-0.054 0.701,-0.513 0.032,-0.428 -0.158,-0.837 -0.544,-0.966 -0.663,-0.222 -1.338,-0.411 -2.009,-0.607 -1.373,-0.398 -2.783,-0.307 -4.187,-0.313 -0.226,-0.001 -0.456,0.007 -0.678,-0.024 -0.776,-0.105 -1.226,0.251 -1.3,1.024 -0.04,0.423 -0.06,0.858 -0.179,1.261 -0.281,0.957 -0.266,1.929 -0.279,2.908 -0.01,0.675 -0.12,1.347 -0.134,2.022 -0.022,1.045 10e-4,2.092 0,3.139 -0.002,1.409 0.007,2.818 -0.019,4.225 -0.027,1.354 -0.139,2.7079997 -0.129,4.0619997 0.013,1.693 0.038,3.387 -0.086,5.076 -0.057,0.76 -0.208,1.515 -0.335,2.27 -0.064,0.387 0.114,0.795 0.497,0.888 0.302,0.073 0.628,0.057 0.942,0.056 1.385,-0.006 2.77,-0.062 4.153,-0.019 1.541,0.049 3.08,0.189 4.62,0.279 0.222,0.013 0.456,-0.007 0.672,-0.062 0.601,-0.153 0.761,-0.426 0.655,-1.051 -0.064,-0.37 -0.4,-0.514 -0.919,-0.537 -1.221,-0.054 -2.438,-0.17 -3.657,-0.239 -1.278,-0.072 -2.554,-0.139 -3.833,-0.17 -1.177,-0.029 -1.171,-0.005 -0.983,-1.149 0.04,-0.246 0.026,-0.503 0.027,-0.754 0.001,-2.763 0.001,-5.527 0.001,-8.2899997 0,-0.202 -0.012,-0.404 0.007,-0.604 0.081,-0.762 0.23,-0.861 0.99,-0.907 1.167,-0.069 2.284,0.262 3.425,0.377 0.493,0.05 0.533,0.048 0.562,-0.414 0.041,-0.638 -0.356,-1.096 -1.032,-1.265 -1.118,-0.277 -2.242,-0.42 -3.394,-0.319 -0.359,0.032 -0.408,-0.204 -0.407,-0.485 0.002,-0.806 0,-1.612 -10e-4,-2.418 z m 69.077,2.7529 c 0.107,1.303 -0.599,2.364 -1.167,3.433 -0.63,1.181 -1.609,2.114 -2.723,2.9229999 -0.933,0.679 -1.785,1.46 -2.732,2.118 -0.718,0.498 -1.503,0.928 -2.306,1.292 -1.858,0.845 -3.691,1.71 -5.106,3.191 -0.166,0.174 -0.382,0.305 -0.553,0.476 -0.765,0.767 -0.539,1.60400001 -0.17,2.44300001 0.288,0.654 0.789,1.16099999 1.376,1.55899999 0.75,0.506 1.557,0.936 2.339,1.4 1.097,0.652 2.286,0.644 3.482,0.377 0.454,-0.101 0.896,-0.311 1.125,-0.772 0.286,-0.58 0.648,-1.129 0.878,-1.727 0.189,-0.48399999 -0.136,-0.82399999 -0.672,-0.86199999 -0.292,-0.021 -0.46,0.097 -0.598,0.333 -0.279,0.478 -0.595,0.93699999 -0.876,1.41499999 -0.293,0.499 -0.776,0.628 -1.282,0.495 -1.619,-0.425 -3.054,-1.189 -4.191,-2.37699999 -0.244,-0.254 -0.296,-0.684 -0.404,-1.043 -0.143,-0.46400001 0.222,-0.68500001 0.535,-0.92300001 0.704,-0.532 1.383,-1.096 2.117,-1.586 0.486,-0.324 1.03,-0.585 1.579,-0.802 1.653,-0.652 3.203,-1.453 4.575,-2.557 1.028,-0.828 2.129,-1.578 3.113,-2.451 1.052,-0.9329999 1.809,-2.0949999 2.415,-3.3369999 0.221,-0.451 0.446,-0.902 0.611,-1.372 0.398,-1.132 0.227,-2.272 0.07,-3.429 -0.21,-1.553 -1.072,-2.719 -2.133,-3.838 -0.98,-1.03 -2.079,-1.922 -3.242,-2.736 -1.266,-0.887 -2.733,-1.384 -4.274,-1.676 -0.978,-0.186 -1.953,-0.401 -2.941,-0.533 -0.83,-0.113 -1.704,-0.017 -2.505,-0.212 -0.903,-0.22 -1.679,0.01 -2.482,0.269 -0.99,0.32 -1.813,0.891 -2.528,1.598 -0.6099998,0.602 -0.6969998,1.732 -0.238,2.468 0.325,0.522 0.903,0.632 1.403,0.311 0.389,-0.249 0.367,-0.574 0.189,-0.874 -0.343,-0.574 -0.132,-0.954 0.316,-1.378 0.68,-0.642 1.451,-0.949 2.411,-0.999 0.735,-0.039 1.439,0.052 2.15,0.165 1.377,0.22 2.755,0.439 4.13,0.672 1.542,0.262 2.86,0.973 4.061,1.896 0.662,0.509 1.377,0.981 1.935,1.582 0.981,1.058 2.016,2.117 2.105,3.661 0.027,0.471 0.137,0.938 0.208,1.407 z m 0,0 c 0.107,1.303 -0.599,2.364 -1.167,3.433 -0.63,1.181 -1.609,2.114 -2.723,2.9229999 -0.933,0.679 -1.785,1.46 -2.732,2.118 -0.718,0.498 -1.503,0.928 -2.306,1.292 -1.858,0.845 -3.691,1.71 -5.106,3.191 -0.166,0.174 -0.382,0.305 -0.553,0.476 -0.765,0.767 -0.539,1.60400001 -0.17,2.44300001 0.288,0.654 0.789,1.16099999 1.376,1.55899999 0.75,0.506 1.557,0.936 2.339,1.4 1.097,0.652 2.286,0.644 3.482,0.377 0.454,-0.101 0.896,-0.311 1.125,-0.772 0.286,-0.58 0.648,-1.129 0.878,-1.727 0.189,-0.48399999 -0.136,-0.82399999 -0.672,-0.86199999 -0.292,-0.021 -0.46,0.097 -0.598,0.333 -0.279,0.478 -0.595,0.93699999 -0.876,1.41499999 -0.293,0.499 -0.776,0.628 -1.282,0.495 -1.619,-0.425 -3.054,-1.189 -4.191,-2.37699999 -0.244,-0.254 -0.296,-0.684 -0.404,-1.043 -0.143,-0.46400001 0.222,-0.68500001 0.535,-0.92300001 0.704,-0.532 1.383,-1.096 2.117,-1.586 0.486,-0.324 1.03,-0.585 1.579,-0.802 1.653,-0.652 3.203,-1.453 4.575,-2.557 1.028,-0.828 2.129,-1.578 3.113,-2.451 1.052,-0.9329999 1.809,-2.0949999 2.415,-3.3369999 0.221,-0.451 0.446,-0.902 0.611,-1.372 0.398,-1.132 0.227,-2.272 0.07,-3.429 -0.21,-1.553 -1.072,-2.719 -2.133,-3.838 -0.98,-1.03 -2.079,-1.922 -3.242,-2.736 -1.266,-0.887 -2.733,-1.384 -4.274,-1.676 -0.978,-0.186 -1.953,-0.401 -2.941,-0.533 -0.83,-0.113 -1.704,-0.017 -2.505,-0.212 -0.903,-0.22 -1.679,0.01 -2.482,0.269 -0.99,0.32 -1.813,0.891 -2.528,1.598 -0.6099998,0.602 -0.6969998,1.732 -0.238,2.468 0.325,0.522 0.903,0.632 1.403,0.311 0.389,-0.249 0.367,-0.574 0.189,-0.874 -0.343,-0.574 -0.132,-0.954 0.316,-1.378 0.68,-0.642 1.451,-0.949 2.411,-0.999 0.735,-0.039 1.439,0.052 2.15,0.165 1.377,0.22 2.755,0.439 4.13,0.672 1.542,0.262 2.86,0.973 4.061,1.896 0.662,0.509 1.377,0.981 1.935,1.582 0.981,1.058 2.016,2.117 2.105,3.661 0.027,0.471 0.137,0.938 0.208,1.407"
           style="fill:none;stroke:#000000;stroke-width:2.75699997;stroke-linecap:round;stroke-linejoin:round;stroke-miterlimit:10;stroke-dasharray:none;stroke-opacity:1"
           id="path6835"
           inkscape:connector-curvature="0" />
      </g>
      <g
         style="fill:#000000;stroke:#000000"
         id="g7863"
         transform="matrix(0.35277777,0,0,-0.35277777,71.70348,82.501064)">
        <path
           d="m 0,0 c 0.027,3.403 0.092,6.806 0.067,10.208 -0.013,1.815 -0.177,3.629 -0.282,5.442 -0.042,0.716 -0.153,1.43 -0.147,2.144 0.004,0.486 -0.044,0.925 -0.276,1.354 -0.164,0.303 -0.175,0.615 -0.002,0.95 0.165,0.317 0.251,0.676 0.38,1.013 0.065,0.17 0.111,0.366 0.227,0.493 1.383,1.524 2.77,3.042 4.763,3.811 0.509,0.196 0.974,0.501 1.478,0.709 1.466,0.606 2.926,0.754 4.329,-0.177 0.986,-0.654 1.739,-1.525 2.189,-2.615 0.492,-1.198 1.001,-2.401 1.337,-3.647 0.36,-1.335 0.604,-2.714 0.761,-4.09 0.2,-1.743 0.246,-3.503 0.4,-5.25 0.031,-0.373 0.252,-0.726 0.36,-1.095 0.056,-0.187 0.141,-0.427 0.071,-0.582 -0.498,-1.117 -0.202,-2.283 -0.238,-3.425 -0.015,-0.474 0.117,-0.952 0.121,-1.43 0.02,-1.945 0.317,-3.853 0.689,-5.756 0.1,-0.503 0.198,-1.011 0.248,-1.521 0.056,-0.594 -0.182,-0.931 -0.663,-1.033 -0.43,-0.09 -1.166,0.226 -1.266,0.62 -0.273,1.082 -0.551,2.166 -0.733,3.264 C 13.512,1.215 13.398,3.06 13.42,4.917 13.43,5.701 13.298,6.485 13.258,7.272 13.243,7.567 13.183,7.729 12.845,7.7 11.674,7.599 10.501,7.513 9.328,7.417 9.088,7.398 8.849,7.346 8.607,7.331 7.366,7.254 6.126,7.178 4.884,7.114 4.288,7.083 3.69,7.068 3.095,7.066 2.947,7.065 2.791,7.119 2.656,7.185 2.477,7.27 2.313,7.388 2.144,7.494 2.11,7.233 2.048,6.973 2.048,6.713 2.048,5.979 2.081,5.243 2.088,4.509 2.112,2.108 2.13,-0.293 2.154,-2.694 2.157,-2.966 2.265,-3.268 2.178,-3.502 2.083,-3.754 1.852,-4.062 1.617,-4.131 1.339,-4.213 0.89,-4.173 0.701,-3.992 0.414,-3.716 0.177,-3.291 0.114,-2.898 -0.035,-1.943 -0.071,-0.97 -0.152,-0.005 -0.102,-0.002 -0.051,-0.002 0,0 Z M 2.043,11.809 C 2.043,11.184 2.031,10.482 2.05,9.782 2.057,9.523 2.136,9.267 2.183,9.008 2.379,9.081 2.57,9.182 2.773,9.218 3.042,9.268 3.317,9.27 3.59,9.28 c 1.607,0.065 3.215,0.126 4.821,0.19 0.121,0.005 0.241,0.029 0.363,0.04 0.991,0.108 1.981,0.217 2.972,0.32 0.301,0.031 0.612,0.005 0.904,0.074 0.359,0.085 0.72,0.194 0.469,0.737 -0.105,0.23 -0.064,0.542 -0.044,0.813 0.107,1.401 -0.096,2.777 -0.344,4.149 -0.133,0.742 -0.289,1.483 -0.38,2.231 -0.216,1.795 -0.852,3.452 -1.669,5.035 -0.271,0.524 -0.672,1.059 -1.155,1.373 C 8.792,24.72 7.938,24.694 7.102,24.335 5.617,23.699 4.273,22.833 2.976,21.886 2.336,21.417 1.937,20.712 1.784,20.001 1.628,19.272 1.807,18.469 1.836,17.7 1.905,15.761 1.973,13.822 2.043,11.809 Z"
           style="fill:#000000;stroke:#000000;stroke-width:3.33599997;stroke-linecap:round;stroke-linejoin:round;stroke-miterlimit:10;stroke-dasharray:none;stroke-opacity:1"
           id="path7861"
           inkscape:connector-curvature="0" />
      </g>
    </g>
  </g>
</svg>
