<?xml version="1.0" encoding="UTF-8" standalone="no"?>
<!-- Created with Inkscape (http://www.inkscape.org/) -->

<svg
   xmlns:dc="http://purl.org/dc/elements/1.1/"
   xmlns:cc="http://creativecommons.org/ns#"
   xmlns:rdf="http://www.w3.org/1999/02/22-rdf-syntax-ns#"
   xmlns:svg="http://www.w3.org/2000/svg"
   xmlns="http://www.w3.org/2000/svg"
   xmlns:sodipodi="http://sodipodi.sourceforge.net/DTD/sodipodi-0.dtd"
   xmlns:inkscape="http://www.inkscape.org/namespaces/inkscape"
   version="1.1"
   id="svg2"
   xml:space="preserve"
   width="559.37067"
   height="793.70135"
   viewBox="0 0 559.37067 793.70135"
   sodipodi:docname="titrechic.svg"
   inkscape:version="0.92.0 r15299"><metadata
     id="metadata8"><rdf:RDF><cc:Work
         rdf:about=""><dc:format>image/svg+xml</dc:format><dc:type
           rdf:resource="http://purl.org/dc/dcmitype/StillImage" /><dc:title></dc:title></cc:Work></rdf:RDF></metadata><defs
     id="defs6"><clipPath
       clipPathUnits="userSpaceOnUse"
       id="clipPath20"><path
         d="M 0,0 H 419.528 V 595.276 H 0 Z"
         id="path18"
         inkscape:connector-curvature="0" /></clipPath><clipPath
       id="clipPath5049"
       clipPathUnits="userSpaceOnUse"><path
         inkscape:connector-curvature="0"
         id="path5047"
         d="M 0,0 H 419.528 V 595.276 H 0 Z" /></clipPath></defs><sodipodi:namedview
     pagecolor="#ffffff"
     bordercolor="#666666"
     borderopacity="1"
     objecttolerance="10"
     gridtolerance="10"
     guidetolerance="10"
     inkscape:pageopacity="0"
     inkscape:pageshadow="2"
     inkscape:window-width="1600"
     inkscape:window-height="837"
     id="namedview4"
     showgrid="false"
     inkscape:zoom="0.42050376"
     inkscape:cx="757.60195"
     inkscape:cy="230.69639"
     inkscape:window-x="-8"
     inkscape:window-y="-8"
     inkscape:window-maximized="1"
     inkscape:current-layer="g10" /><g
     id="g10"
     inkscape:groupmode="layer"
     inkscape:label="BookletPantographBruxellesFINAL"
     transform="matrix(1.3333333,0,0,-1.3333333,0,793.70133)"><g
       id="g186"
       transform="rotate(-34.446258,1037.7858,-589.45531)"
       style="fill:#ff0000;stroke:none" /><g
       id="g190"
       transform="rotate(-34.446258,1058.906,-621.31815)"
       style="fill:#ff0000;stroke:none" /><g
       id="g194"
       transform="rotate(-34.446258,1032.2286,-568.11458)"
       style="fill:#ff0000;stroke:none" /><g
       id="g198"
       transform="rotate(-34.446258,1053.8042,-602.59069)"
       style="fill:#ff0000;stroke:none" /><g
       id="g5203"
       transform="translate(847.41425,333.98364)" /><g
       id="g5207"
       transform="translate(847.41425,333.98364)" /><g
       id="g5243"
       transform="translate(822.79525,330.03434)" /><g
       id="g5351"
       transform="translate(560.94553,478.55804)"
       style="fill:#ff0000;stroke:none" /><g
       id="g5487"
       transform="translate(596.56351,491.99745)"
       style="fill:#ff0000" /><g
       style="fill:#ff0000"
       transform="translate(77.87384,583.9335)"
       id="g6933"><path
         id="path6931"
         style="fill:#ff0000;fill-opacity:1;fill-rule:nonzero;stroke:none;stroke-width:0.43309331"
         d="m -18.310057,-16.246908 c -0.401477,0.779568 -1.143366,1.577759 -1.099624,2.329176 0.03898,0.646175 0.948908,1.721546 1.520591,1.754461 1.356015,0.07969 2.090975,-1.00521 1.778281,-2.330042 -0.163276,-0.692516 -0.945875,-1.233883 -1.44913,-1.843678 -0.249895,0.03075 -0.499356,0.06107 -0.750118,0.09008 m 51.393,-17.025897 c -0.401477,0.779568 -1.143366,1.577759 -1.099624,2.329176 0.03898,0.646175 0.948908,1.721546 1.520591,1.754461 1.356015,0.07969 2.090975,-1.00521 1.778281,-2.330042 -0.163276,-0.692516 -0.945875,-1.233883 -1.44913,-1.843678 -0.249895,0.03075 -0.499356,0.06107 -0.750118,0.09008 M 15.77502,-30.46531 c 2.238,0.229 4.472,0.505 6.715,0.671 1.618,0.12 3.264,0.233 4.863,0.052 0.507,-0.059 1.119,-1.03 1.264,-1.676 0.076,-0.336 -0.731,-1.229 -1.194,-1.271 -4.158,-0.374 -8.326,-0.733 -12.497,-0.852 -2.553,-0.074 -3.735,2.376 -2.246,4.523 2.478,3.572 5.118,7.03 7.619,10.584 1.042,1.481 1.641,3.138 1.11,5.283 -0.735,-0.378 -1.248,-0.82 -1.807,-0.888 -0.666,-0.083 -1.764,-0.065 -1.968,0.303 -0.297,0.537 -0.241,1.681 0.157,2.105 0.765,0.814 1.81,1.464 2.858,1.891 1.378,0.562 2.985,-0.184 3.657,-1.569 1.382,-2.852 1.245,-5.682 -0.641,-8.236 -2.277,-3.08 -4.719,-6.036 -7.082,-9.051 -0.35,-0.447 -0.665,-0.919 -0.995,-1.379 0.062,-0.164 0.125,-0.327 0.187,-0.49 z m 26.6531,6.23017 c 0.0583,-1.14363 0.23172,-2.29224 0.15151,-3.42778 -0.12135,-1.65287 1.09831,-2.35885 2.42972,-2.34017 1.58233,0.0205 3.40667,0.28886 4.68871,1.05522 4.55778,2.72492 5.97008,6.47455 4.68598,11.37092 -0.73838,2.81954 -4.00108,4.14745 -6.6207,2.47403 -3.41147,-2.17956 -5.32494,-5.21761 -5.33522,-9.13222 m 16.87842,2.45846 c -0.157,-6.04125 -7.82253,-12.68513 -13.31749,-11.81169 -2.37076,0.37976 -4.7518,1.34658 -6.81061,2.51013 -1.69682,0.95873 -1.87302,2.74608 -1.0558,4.53343 0.29754,0.64807 0.29892,1.46113 0.23516,2.18578 -0.42301,4.92252 3.3244,10.74027 8.24485,12.7119 4.18755,1.67964 9.39389,-0.2677 11.19423,-4.39896 0.78706,-1.80914 1.0229,-3.815 1.50966,-5.73059 z m -78.8548,3.15974 c 1.141515,1.080839 2.68056,1.135971 3.15481,-0.108487 0.384431,-1.009447 0.39184,-2.234429 0.295701,-3.339883 -0.260689,-3.00191 -0.711181,-5.988832 -0.981861,-8.991164 -0.07445,-0.828089 -0.06033,-1.691464 -1.068058,-1.567768 -0.73025,0.0898 -1.816948,0.556262 -2.006307,1.109349 -0.421445,1.23128 -0.592574,2.640103 -0.485476,3.9454 0.243392,2.994371 0.713158,5.970499 1.091191,8.952553 m -23.283953,-6.15873 c -0.194555,-4.190776 -4.401007,-7.201351 -6.961012,-7.756705 -2.849587,-0.618657 -6.040981,2.72838 -5.2835,5.542329 1.067514,3.96429 2.696292,7.749753 5.468806,10.808934 1.094356,1.206557 2.848813,1.947012 4.441293,2.499048 0.576817,0.200972 1.95067,-0.575225 2.266999,-1.238441 0.517957,-1.085268 -0.658334,-1.396489 -1.488238,-1.879816 -1.267655,-0.739668 -2.743029,-1.518756 -3.479377,-2.689542 -1.437676,-2.294048 -2.491225,-4.843081 -3.552545,-7.350404 -0.235071,-0.556639 -0.06772,-1.620914 0.337201,-2.002933 0.309849,-0.292558 1.395174,-0.06446 1.946676,0.256951 1.555789,0.903399 3.005281,1.991268 4.520715,2.968427 0.479207,0.30794 1.036158,0.49586 1.782982,0.842152 m 34.7713866,5.760749 c 1.9339799,3.456075 5.305046,3.445421 8.56742659,3.543268 1.25811691,0.03804 1.73318631,-1.060256 1.47925261,-2.079306 -0.1271201,-0.510632 -1.06135909,-1.144306 -1.64599965,-1.160444 -3.54971585,-0.096 -5.13060945,-1.073122 -6.26243955,-4.383346 -0.5031772,-1.472596 -0.831215,-3.020452 -1.0759307,-4.559978 -0.2072195,-1.30453 0.4627711,-2.198197 1.8373128,-2.18666 2.0192448,0.01801 4.0390136,0.264838 6.05808919,0.249006 0.94353611,-0.0069 2.66691811,-0.338924 2.69077431,-0.632979 0.1060343,-1.318095 -0.8253823,-2.179253 -2.142093,-2.516635 -2.6929923,-0.690899 -5.3537229,-1.543379 -8.1802689,-0.521393 -2.3898369,0.863111 -3.5473723,2.771468 -3.7405223,5.012705 -0.281899,3.292825 0.5835237,6.446243 2.4143986,9.235762 M -29.786777,-25.37428 c -2.255224,-0.307244 -4.208539,-0.520836 -6.134916,-0.879019 -0.435985,-0.08051 -1.024956,-0.613892 -1.113397,-1.031006 -0.22783,-1.058781 -0.274108,-2.169332 -0.276839,-3.258822 -0.0029,-1.100305 -0.310852,-1.864012 -1.548575,-1.806902 -1.21027,0.05647 -2.220106,0.504168 -2.208615,1.921121 0.01109,1.449966 0.01397,2.92861 0.290855,4.341783 0.646936,3.306916 1.392979,6.59921 2.253396,9.856709 0.164696,0.625524 1.013303,1.433132 1.597193,1.476463 0.509216,0.03877 1.441971,-0.805943 1.564051,-1.391705 0.225415,-1.078632 0.07276,-2.262947 -0.07239,-3.383288 -0.116659,-0.894934 -0.45373,-1.761162 -0.792498,-3.008204 2.400269,0.200482 4.505749,0.342445 6.596682,0.601098 0.228948,0.02971 0.446882,0.716939 0.54913,1.129432 0.434948,1.746155 0.714923,3.540399 1.287076,5.237312 0.207297,0.616918 1.099167,1.423955 1.632975,1.392501 0.547097,-0.03329 1.441268,-0.964315 1.473312,-1.541676 0.07542,-1.346815 -0.26578,-2.723382 -0.456569,-4.077755 -0.480135,-3.408399 -1.356411,-6.952486 -1.730653,-10.180092 -0.08533,-0.735896 -0.489825,-1.532685 -1.010804,-1.979315 -0.463194,-0.397744 -1.393584,-0.592662 -1.967524,-0.407567 -0.446066,0.143465 -0.969278,1.040742 -0.917091,1.548203 0.176285,1.713787 0.594661,3.40219 0.985204,5.440729"
         inkscape:connector-curvature="0" /></g></g></svg>