<?xml version="1.0" encoding="UTF-8" standalone="no"?>
<!-- Created with Inkscape (http://www.inkscape.org/) -->

<svg
   xmlns:dc="http://purl.org/dc/elements/1.1/"
   xmlns:cc="http://creativecommons.org/ns#"
   xmlns:rdf="http://www.w3.org/1999/02/22-rdf-syntax-ns#"
   xmlns:svg="http://www.w3.org/2000/svg"
   xmlns="http://www.w3.org/2000/svg"
   xmlns:sodipodi="http://sodipodi.sourceforge.net/DTD/sodipodi-0.dtd"
   xmlns:inkscape="http://www.inkscape.org/namespaces/inkscape"
   width="1900"
   height="1080"
   viewBox="0 0 502.70832 285.75001"
   version="1.1"
   id="svg8"
   inkscape:version="0.92.0 r15299"
   sodipodi:docname="titrebxl2.svg"
   inkscape:export-filename="E:\Github\chic2.0\Video\titrebxl2.png"
   inkscape:export-xdpi="96"
   inkscape:export-ydpi="96">
  <defs
     id="defs2">
    <clipPath
       id="clipPath4534"
       clipPathUnits="userSpaceOnUse">
      <path
         inkscape:connector-curvature="0"
         id="path4532"
         d="M 0,0 H 419.528 V 595.276 H 0 Z" />
    </clipPath>
    <clipPath
       id="clipPath4794"
       clipPathUnits="userSpaceOnUse">
      <path
         inkscape:connector-curvature="0"
         id="path4792"
         d="M 0,0 H 419.528 V 595.276 H 0 Z" />
    </clipPath>
    <filter
       style="color-interpolation-filters:sRGB;"
       inkscape:label="Drop Shadow"
       id="filter6983">
      <feFlood
         flood-opacity="1"
         flood-color="rgb(0,0,0)"
         result="flood"
         id="feFlood6973" />
      <feComposite
         in="SourceGraphic"
         in2="flood"
         operator="in"
         result="composite1"
         id="feComposite6975" />
      <feGaussianBlur
         in="composite1"
         stdDeviation="2"
         result="blur"
         id="feGaussianBlur6977" />
      <feOffset
         dx="0"
         dy="0"
         result="offset"
         id="feOffset6979" />
      <feComposite
         in="SourceGraphic"
         in2="offset"
         operator="over"
         result="composite2"
         id="feComposite6981" />
    </filter>
    <filter
       style="color-interpolation-filters:sRGB;"
       inkscape:label="Drop Shadow"
       id="filter6995">
      <feFlood
         flood-opacity="1"
         flood-color="rgb(0,0,0)"
         result="flood"
         id="feFlood6985" />
      <feComposite
         in="SourceGraphic"
         in2="flood"
         operator="in"
         result="composite1"
         id="feComposite6987" />
      <feGaussianBlur
         in="composite1"
         stdDeviation="2"
         result="blur"
         id="feGaussianBlur6989" />
      <feOffset
         dx="0"
         dy="0"
         result="offset"
         id="feOffset6991" />
      <feComposite
         in="SourceGraphic"
         in2="offset"
         operator="over"
         result="composite2"
         id="feComposite6993" />
    </filter>
    <filter
       style="color-interpolation-filters:sRGB;"
       inkscape:label="Drop Shadow"
       id="filter7007">
      <feFlood
         flood-opacity="1"
         flood-color="rgb(0,0,0)"
         result="flood"
         id="feFlood6997" />
      <feComposite
         in="SourceGraphic"
         in2="flood"
         operator="in"
         result="composite1"
         id="feComposite6999" />
      <feGaussianBlur
         in="composite1"
         stdDeviation="2"
         result="blur"
         id="feGaussianBlur7001" />
      <feOffset
         dx="0"
         dy="0"
         result="offset"
         id="feOffset7003" />
      <feComposite
         in="SourceGraphic"
         in2="offset"
         operator="over"
         result="composite2"
         id="feComposite7005" />
    </filter>
    <filter
       style="color-interpolation-filters:sRGB;"
       inkscape:label="Drop Shadow"
       id="filter7019">
      <feFlood
         flood-opacity="1"
         flood-color="rgb(0,0,0)"
         result="flood"
         id="feFlood7009" />
      <feComposite
         in="SourceGraphic"
         in2="flood"
         operator="in"
         result="composite1"
         id="feComposite7011" />
      <feGaussianBlur
         in="composite1"
         stdDeviation="2"
         result="blur"
         id="feGaussianBlur7013" />
      <feOffset
         dx="0"
         dy="0"
         result="offset"
         id="feOffset7015" />
      <feComposite
         in="SourceGraphic"
         in2="offset"
         operator="over"
         result="composite2"
         id="feComposite7017" />
    </filter>
    <filter
       style="color-interpolation-filters:sRGB;"
       inkscape:label="Drop Shadow"
       id="filter7031">
      <feFlood
         flood-opacity="1"
         flood-color="rgb(0,0,0)"
         result="flood"
         id="feFlood7021" />
      <feComposite
         in="SourceGraphic"
         in2="flood"
         operator="in"
         result="composite1"
         id="feComposite7023" />
      <feGaussianBlur
         in="composite1"
         stdDeviation="2"
         result="blur"
         id="feGaussianBlur7025" />
      <feOffset
         dx="0"
         dy="0"
         result="offset"
         id="feOffset7027" />
      <feComposite
         in="SourceGraphic"
         in2="offset"
         operator="over"
         result="composite2"
         id="feComposite7029" />
    </filter>
    <filter
       style="color-interpolation-filters:sRGB;"
       inkscape:label="Drop Shadow"
       id="filter7043">
      <feFlood
         flood-opacity="1"
         flood-color="rgb(0,0,0)"
         result="flood"
         id="feFlood7033" />
      <feComposite
         in="SourceGraphic"
         in2="flood"
         operator="in"
         result="composite1"
         id="feComposite7035" />
      <feGaussianBlur
         in="composite1"
         stdDeviation="2"
         result="blur"
         id="feGaussianBlur7037" />
      <feOffset
         dx="0"
         dy="0"
         result="offset"
         id="feOffset7039" />
      <feComposite
         in="SourceGraphic"
         in2="offset"
         operator="over"
         result="composite2"
         id="feComposite7041" />
    </filter>
    <filter
       style="color-interpolation-filters:sRGB;"
       inkscape:label="Drop Shadow"
       id="filter7055">
      <feFlood
         flood-opacity="1"
         flood-color="rgb(0,0,0)"
         result="flood"
         id="feFlood7045" />
      <feComposite
         in="SourceGraphic"
         in2="flood"
         operator="in"
         result="composite1"
         id="feComposite7047" />
      <feGaussianBlur
         in="composite1"
         stdDeviation="2"
         result="blur"
         id="feGaussianBlur7049" />
      <feOffset
         dx="0"
         dy="0"
         result="offset"
         id="feOffset7051" />
      <feComposite
         in="SourceGraphic"
         in2="offset"
         operator="over"
         result="composite2"
         id="feComposite7053" />
    </filter>
    <filter
       style="color-interpolation-filters:sRGB;"
       inkscape:label="Drop Shadow"
       id="filter7067">
      <feFlood
         flood-opacity="1"
         flood-color="rgb(0,0,0)"
         result="flood"
         id="feFlood7057" />
      <feComposite
         in="SourceGraphic"
         in2="flood"
         operator="in"
         result="composite1"
         id="feComposite7059" />
      <feGaussianBlur
         in="composite1"
         stdDeviation="2"
         result="blur"
         id="feGaussianBlur7061" />
      <feOffset
         dx="0"
         dy="0"
         result="offset"
         id="feOffset7063" />
      <feComposite
         in="SourceGraphic"
         in2="offset"
         operator="over"
         result="composite2"
         id="feComposite7065" />
    </filter>
    <filter
       style="color-interpolation-filters:sRGB;"
       inkscape:label="Drop Shadow"
       id="filter7079">
      <feFlood
         flood-opacity="1"
         flood-color="rgb(0,0,0)"
         result="flood"
         id="feFlood7069" />
      <feComposite
         in="SourceGraphic"
         in2="flood"
         operator="in"
         result="composite1"
         id="feComposite7071" />
      <feGaussianBlur
         in="composite1"
         stdDeviation="2"
         result="blur"
         id="feGaussianBlur7073" />
      <feOffset
         dx="0"
         dy="0"
         result="offset"
         id="feOffset7075" />
      <feComposite
         in="SourceGraphic"
         in2="offset"
         operator="over"
         result="composite2"
         id="feComposite7077" />
    </filter>
    <filter
       style="color-interpolation-filters:sRGB;"
       inkscape:label="Drop Shadow"
       id="filter7091">
      <feFlood
         flood-opacity="1"
         flood-color="rgb(0,0,0)"
         result="flood"
         id="feFlood7081" />
      <feComposite
         in="SourceGraphic"
         in2="flood"
         operator="in"
         result="composite1"
         id="feComposite7083" />
      <feGaussianBlur
         in="composite1"
         stdDeviation="2"
         result="blur"
         id="feGaussianBlur7085" />
      <feOffset
         dx="0"
         dy="0"
         result="offset"
         id="feOffset7087" />
      <feComposite
         in="SourceGraphic"
         in2="offset"
         operator="over"
         result="composite2"
         id="feComposite7089" />
    </filter>
    <filter
       style="color-interpolation-filters:sRGB;"
       inkscape:label="Drop Shadow"
       id="filter7103">
      <feFlood
         flood-opacity="1"
         flood-color="rgb(0,0,0)"
         result="flood"
         id="feFlood7093" />
      <feComposite
         in="SourceGraphic"
         in2="flood"
         operator="in"
         result="composite1"
         id="feComposite7095" />
      <feGaussianBlur
         in="composite1"
         stdDeviation="2"
         result="blur"
         id="feGaussianBlur7097" />
      <feOffset
         dx="0"
         dy="0"
         result="offset"
         id="feOffset7099" />
      <feComposite
         in="SourceGraphic"
         in2="offset"
         operator="over"
         result="composite2"
         id="feComposite7101" />
    </filter>
    <filter
       style="color-interpolation-filters:sRGB;"
       inkscape:label="Drop Shadow"
       id="filter7115">
      <feFlood
         flood-opacity="1"
         flood-color="rgb(0,0,0)"
         result="flood"
         id="feFlood7105" />
      <feComposite
         in="SourceGraphic"
         in2="flood"
         operator="in"
         result="composite1"
         id="feComposite7107" />
      <feGaussianBlur
         in="composite1"
         stdDeviation="2"
         result="blur"
         id="feGaussianBlur7109" />
      <feOffset
         dx="0"
         dy="0"
         result="offset"
         id="feOffset7111" />
      <feComposite
         in="SourceGraphic"
         in2="offset"
         operator="over"
         result="composite2"
         id="feComposite7113" />
    </filter>
    <filter
       style="color-interpolation-filters:sRGB;"
       inkscape:label="Drop Shadow"
       id="filter7127">
      <feFlood
         flood-opacity="1"
         flood-color="rgb(0,0,0)"
         result="flood"
         id="feFlood7117" />
      <feComposite
         in="SourceGraphic"
         in2="flood"
         operator="in"
         result="composite1"
         id="feComposite7119" />
      <feGaussianBlur
         in="composite1"
         stdDeviation="2"
         result="blur"
         id="feGaussianBlur7121" />
      <feOffset
         dx="0"
         dy="0"
         result="offset"
         id="feOffset7123" />
      <feComposite
         in="SourceGraphic"
         in2="offset"
         operator="over"
         result="composite2"
         id="feComposite7125" />
    </filter>
    <filter
       style="color-interpolation-filters:sRGB;"
       inkscape:label="Drop Shadow"
       id="filter7139">
      <feFlood
         flood-opacity="1"
         flood-color="rgb(0,0,0)"
         result="flood"
         id="feFlood7129" />
      <feComposite
         in="SourceGraphic"
         in2="flood"
         operator="in"
         result="composite1"
         id="feComposite7131" />
      <feGaussianBlur
         in="composite1"
         stdDeviation="2"
         result="blur"
         id="feGaussianBlur7133" />
      <feOffset
         dx="0"
         dy="0"
         result="offset"
         id="feOffset7135" />
      <feComposite
         in="SourceGraphic"
         in2="offset"
         operator="over"
         result="composite2"
         id="feComposite7137" />
    </filter>
    <filter
       style="color-interpolation-filters:sRGB;"
       inkscape:label="Drop Shadow"
       id="filter7151">
      <feFlood
         flood-opacity="1"
         flood-color="rgb(0,0,0)"
         result="flood"
         id="feFlood7141" />
      <feComposite
         in="SourceGraphic"
         in2="flood"
         operator="in"
         result="composite1"
         id="feComposite7143" />
      <feGaussianBlur
         in="composite1"
         stdDeviation="2"
         result="blur"
         id="feGaussianBlur7145" />
      <feOffset
         dx="0"
         dy="0"
         result="offset"
         id="feOffset7147" />
      <feComposite
         in="SourceGraphic"
         in2="offset"
         operator="over"
         result="composite2"
         id="feComposite7149" />
    </filter>
    <filter
       style="color-interpolation-filters:sRGB;"
       inkscape:label="Drop Shadow"
       id="filter7163">
      <feFlood
         flood-opacity="1"
         flood-color="rgb(0,0,0)"
         result="flood"
         id="feFlood7153" />
      <feComposite
         in="SourceGraphic"
         in2="flood"
         operator="in"
         result="composite1"
         id="feComposite7155" />
      <feGaussianBlur
         in="composite1"
         stdDeviation="2"
         result="blur"
         id="feGaussianBlur7157" />
      <feOffset
         dx="0"
         dy="0"
         result="offset"
         id="feOffset7159" />
      <feComposite
         in="SourceGraphic"
         in2="offset"
         operator="over"
         result="composite2"
         id="feComposite7161" />
    </filter>
    <filter
       style="color-interpolation-filters:sRGB;"
       inkscape:label="Drop Shadow"
       id="filter7175">
      <feFlood
         flood-opacity="1"
         flood-color="rgb(0,0,0)"
         result="flood"
         id="feFlood7165" />
      <feComposite
         in="SourceGraphic"
         in2="flood"
         operator="in"
         result="composite1"
         id="feComposite7167" />
      <feGaussianBlur
         in="composite1"
         stdDeviation="2"
         result="blur"
         id="feGaussianBlur7169" />
      <feOffset
         dx="0"
         dy="0"
         result="offset"
         id="feOffset7171" />
      <feComposite
         in="SourceGraphic"
         in2="offset"
         operator="over"
         result="composite2"
         id="feComposite7173" />
    </filter>
    <filter
       style="color-interpolation-filters:sRGB;"
       inkscape:label="Drop Shadow"
       id="filter7187">
      <feFlood
         flood-opacity="1"
         flood-color="rgb(0,0,0)"
         result="flood"
         id="feFlood7177" />
      <feComposite
         in="SourceGraphic"
         in2="flood"
         operator="in"
         result="composite1"
         id="feComposite7179" />
      <feGaussianBlur
         in="composite1"
         stdDeviation="2"
         result="blur"
         id="feGaussianBlur7181" />
      <feOffset
         dx="0"
         dy="0"
         result="offset"
         id="feOffset7183" />
      <feComposite
         in="SourceGraphic"
         in2="offset"
         operator="over"
         result="composite2"
         id="feComposite7185" />
    </filter>
    <filter
       style="color-interpolation-filters:sRGB;"
       inkscape:label="Drop Shadow"
       id="filter7199">
      <feFlood
         flood-opacity="1"
         flood-color="rgb(0,0,0)"
         result="flood"
         id="feFlood7189" />
      <feComposite
         in="SourceGraphic"
         in2="flood"
         operator="in"
         result="composite1"
         id="feComposite7191" />
      <feGaussianBlur
         in="composite1"
         stdDeviation="2"
         result="blur"
         id="feGaussianBlur7193" />
      <feOffset
         dx="0"
         dy="0"
         result="offset"
         id="feOffset7195" />
      <feComposite
         in="SourceGraphic"
         in2="offset"
         operator="over"
         result="composite2"
         id="feComposite7197" />
    </filter>
    <filter
       style="color-interpolation-filters:sRGB;"
       inkscape:label="Drop Shadow"
       id="filter7211">
      <feFlood
         flood-opacity="1"
         flood-color="rgb(0,0,0)"
         result="flood"
         id="feFlood7201" />
      <feComposite
         in="SourceGraphic"
         in2="flood"
         operator="in"
         result="composite1"
         id="feComposite7203" />
      <feGaussianBlur
         in="composite1"
         stdDeviation="2"
         result="blur"
         id="feGaussianBlur7205" />
      <feOffset
         dx="0"
         dy="0"
         result="offset"
         id="feOffset7207" />
      <feComposite
         in="SourceGraphic"
         in2="offset"
         operator="over"
         result="composite2"
         id="feComposite7209" />
    </filter>
    <filter
       style="color-interpolation-filters:sRGB;"
       inkscape:label="Drop Shadow"
       id="filter7223">
      <feFlood
         flood-opacity="1"
         flood-color="rgb(0,0,0)"
         result="flood"
         id="feFlood7213" />
      <feComposite
         in="SourceGraphic"
         in2="flood"
         operator="in"
         result="composite1"
         id="feComposite7215" />
      <feGaussianBlur
         in="composite1"
         stdDeviation="2"
         result="blur"
         id="feGaussianBlur7217" />
      <feOffset
         dx="0"
         dy="0"
         result="offset"
         id="feOffset7219" />
      <feComposite
         in="SourceGraphic"
         in2="offset"
         operator="over"
         result="composite2"
         id="feComposite7221" />
    </filter>
    <filter
       style="color-interpolation-filters:sRGB;"
       inkscape:label="Drop Shadow"
       id="filter7235">
      <feFlood
         flood-opacity="1"
         flood-color="rgb(0,0,0)"
         result="flood"
         id="feFlood7225" />
      <feComposite
         in="SourceGraphic"
         in2="flood"
         operator="in"
         result="composite1"
         id="feComposite7227" />
      <feGaussianBlur
         in="composite1"
         stdDeviation="2"
         result="blur"
         id="feGaussianBlur7229" />
      <feOffset
         dx="0"
         dy="0"
         result="offset"
         id="feOffset7231" />
      <feComposite
         in="SourceGraphic"
         in2="offset"
         operator="over"
         result="composite2"
         id="feComposite7233" />
    </filter>
    <filter
       style="color-interpolation-filters:sRGB;"
       inkscape:label="Drop Shadow"
       id="filter7247">
      <feFlood
         flood-opacity="1"
         flood-color="rgb(0,0,0)"
         result="flood"
         id="feFlood7237" />
      <feComposite
         in="SourceGraphic"
         in2="flood"
         operator="in"
         result="composite1"
         id="feComposite7239" />
      <feGaussianBlur
         in="composite1"
         stdDeviation="2"
         result="blur"
         id="feGaussianBlur7241" />
      <feOffset
         dx="0"
         dy="0"
         result="offset"
         id="feOffset7243" />
      <feComposite
         in="SourceGraphic"
         in2="offset"
         operator="over"
         result="composite2"
         id="feComposite7245" />
    </filter>
    <filter
       style="color-interpolation-filters:sRGB;"
       inkscape:label="Drop Shadow"
       id="filter7259">
      <feFlood
         flood-opacity="1"
         flood-color="rgb(0,0,0)"
         result="flood"
         id="feFlood7249" />
      <feComposite
         in="SourceGraphic"
         in2="flood"
         operator="in"
         result="composite1"
         id="feComposite7251" />
      <feGaussianBlur
         in="composite1"
         stdDeviation="2"
         result="blur"
         id="feGaussianBlur7253" />
      <feOffset
         dx="0"
         dy="0"
         result="offset"
         id="feOffset7255" />
      <feComposite
         in="SourceGraphic"
         in2="offset"
         operator="over"
         result="composite2"
         id="feComposite7257" />
    </filter>
    <filter
       style="color-interpolation-filters:sRGB;"
       inkscape:label="Drop Shadow"
       id="filter7271">
      <feFlood
         flood-opacity="1"
         flood-color="rgb(0,0,0)"
         result="flood"
         id="feFlood7261" />
      <feComposite
         in="SourceGraphic"
         in2="flood"
         operator="in"
         result="composite1"
         id="feComposite7263" />
      <feGaussianBlur
         in="composite1"
         stdDeviation="2"
         result="blur"
         id="feGaussianBlur7265" />
      <feOffset
         dx="0"
         dy="0"
         result="offset"
         id="feOffset7267" />
      <feComposite
         in="SourceGraphic"
         in2="offset"
         operator="over"
         result="composite2"
         id="feComposite7269" />
    </filter>
  </defs>
  <sodipodi:namedview
     id="base"
     pagecolor="#ffffff"
     bordercolor="#666666"
     borderopacity="1.0"
     inkscape:pageopacity="0.0"
     inkscape:pageshadow="2"
     inkscape:zoom="0.35"
     inkscape:cx="774.24264"
     inkscape:cy="595.4155"
     inkscape:document-units="mm"
     inkscape:current-layer="layer1"
     showgrid="false"
     inkscape:window-width="1600"
     inkscape:window-height="837"
     inkscape:window-x="-8"
     inkscape:window-y="-8"
     inkscape:window-maximized="1"
     units="px"
     width="1080px" />
  <metadata
     id="metadata5">
    <rdf:RDF>
      <cc:Work
         rdf:about="">
        <dc:format>image/svg+xml</dc:format>
        <dc:type
           rdf:resource="http://purl.org/dc/dcmitype/StillImage" />
        <dc:title />
      </cc:Work>
    </rdf:RDF>
  </metadata>
  <g
     inkscape:label="Layer 1"
     inkscape:groupmode="layer"
     id="layer1"
     transform="translate(0,-11.250003)">
    <g
       id="g4559"
       transform="translate(-0.75595238,6.047619)"
       style="fill:#e6e6e6;stroke:#808080;">
      <g
         transform="matrix(0.80090486,0,0,-0.80090486,273.46576,172.59354)"
         id="g4636"
         style="fill:#e6e6e6;stroke:#808080">
        <path
           inkscape:connector-curvature="0"
           id="path4638"
           style="fill:#e6e6e6;fill-opacity:1;fill-rule:nonzero;stroke:#808080"
           d="m 0,0 c 0.221,0.098 0.293,0.106 0.323,0.146 2.278,3.023 4.074,2.81 5.553,-0.837 0.824,-2.033 1.277,-4.216 1.906,-6.328 0.414,-1.389 0.689,-2.845 1.3,-4.142 0.904,-1.919 2.283,-2.447 4.261,-1.689 1.004,0.385 1.925,1.065 2.775,1.746 1.211,0.969 0.115,2.033 -0.043,3.042 -0.895,5.693 1.284,10.373 4.847,14.551 0.951,1.116 2.333,0.863 3.457,-0.463 1.37,-1.615 1.612,-3.582 1.466,-5.59 -0.3,-4.079 -1.407,-7.884 -4.256,-11.159 1.573,-1.425 3.334,-1.912 5.031,-1.069 2.102,1.046 4.106,2.38 5.939,3.855 1.848,1.487 3.431,3.304 5.143,4.963 0.238,0.231 0.545,0.39 1.323,0.454 -0.233,-1.226 -0.176,-2.613 -0.753,-3.647 -1.985,-3.564 -4.76,-6.474 -8.327,-8.499 -3.082,-1.75 -6.219,-1.188 -9.181,0.359 -1.203,0.628 -1.99,0.687 -3.077,-0.249 -2.694,-2.323 -6.952,-2.772 -9.704,-0.57 -1.448,1.158 -2.237,3.293 -2.99,5.124 C 4.338,-8.41 4.169,-6.62 3.751,-4.925 3.578,-4.223 3.316,-3.542 2.93,-2.34 2.137,-3.455 1.445,-4.109 1.144,-4.911 c -0.955,-2.538 -1.71,-5.152 -2.658,-7.693 -0.308,-0.829 -0.825,-1.98 -1.497,-2.193 -1.506,-0.479 -2.502,0.532 -2.241,2.148 1.547,9.578 3.156,19.145 4.748,28.715 1.345,8.085 2.696,16.169 4.044,24.253 0.153,0.917 0.136,1.909 0.502,2.729 0.306,0.685 1.059,1.171 1.613,1.744 C 6.206,44.051 6.967,43.379 7.24,42.546 7.447,41.919 6.944,41.091 6.903,40.344 6.187,27.192 2.278,14.615 -0.013,1.747 -0.084,1.348 -0.163,0.948 -0.195,0.545 -0.207,0.398 -0.091,0.241 0,0 m 22.446,2.652 c -2.13,-2.259 -3.765,-7.229 -2.549,-9.516 1.777,2.95 2.446,5.988 2.549,9.516" />
      </g>
      <g
         transform="matrix(0.80090486,0,0,-0.80090486,260.43311,166.06816)"
         id="g4640"
         style="fill:#e6e6e6;stroke:#808080">
        <path
           inkscape:connector-curvature="0"
           id="path4642"
           style="fill:#e6e6e6;fill-opacity:1;fill-rule:nonzero;stroke:#808080"
           d="m 0,0 c -0.991,-1.905 -1.914,-3.75 -2.9,-5.562 -3.47,-6.373 -7.821,-12.118 -12.711,-17.449 -1.523,-1.659 -3.521,-2.601 -5.822,-1.86 -0.727,0.234 -1.669,1.055 -1.769,1.719 -0.185,1.218 1.096,0.895 1.855,1.197 1.458,0.579 3.161,1.133 4.132,2.248 5.358,6.152 10.277,12.639 13.605,20.177 2.559,5.798 5.214,11.556 7.623,17.416 1.458,3.546 2.497,7.262 3.779,10.882 1.145,3.232 2.373,6.433 3.544,9.655 0.308,0.849 0.301,1.968 1.683,1.743 1.19,-0.194 2.074,-1.453 1.806,-2.77 C 14.549,36.035 14.144,34.697 13.729,33.371 11.484,26.211 9.217,19.059 6.97,11.9 6.854,11.528 6.854,11.12 6.755,10.415 c 1.709,1.223 3.177,2.274 4.78,3.421 C 12.333,12.072 12.112,10.701 10.99,9.492 9.372,7.749 7.748,6.007 6.062,4.331 4.076,2.359 3.912,-0.327 3.521,-2.767 2.53,-8.953 1.897,-15.197 1.188,-21.426 c -0.12,-1.053 0.09,-2.145 0.148,-3.22 l 0.691,-0.231 c 1.579,2.875 3.159,5.749 4.738,8.623 0.167,0.012 0.333,0.024 0.499,0.036 0.127,-1.51 0.646,-3.121 0.29,-4.506 -0.543,-2.104 -1.622,-4.086 -2.612,-6.051 -0.655,-1.303 -1.709,-2.214 -3.349,-2.001 -1.797,0.234 -3.205,1.136 -3.429,2.961 -0.297,2.409 -0.506,4.884 -0.286,7.288 C -1.562,-12.407 -0.741,-6.311 0,0" />
      </g>
      <g
         transform="matrix(0.80090486,0,0,-0.80090486,291.44312,170.46931)"
         id="g4700"
         style="fill:#e6e6e6;stroke:#808080">
        <path
           inkscape:connector-curvature="0"
           id="path4702"
           style="fill:#e6e6e6;fill-opacity:1;fill-rule:nonzero;stroke:#808080"
           d="M 0,0 C -0.104,-3.528 -0.772,-6.566 -2.549,-9.517 -3.766,-7.229 -2.13,-2.259 0,0" />
      </g>
      <g
         transform="matrix(0.80090486,0,0,-0.80090486,321.4411,172.65298)"
         id="g4720"
         style="fill:#e6e6e6;stroke:#808080">
        <path
           inkscape:connector-curvature="0"
           id="path4722"
           style="fill:#e6e6e6;fill-opacity:1;fill-rule:nonzero;stroke:#808080"
           d="M 0,0 C 27.997,-3.179 57.186,-1.745 84.66,4.589 87.801,5.313 86.469,10.134 83.33,9.41 56.289,3.177 27.556,1.871 0,5 -3.201,5.363 -3.166,0.359 0,0" />
      </g>
      <g
         transform="matrix(0.80090486,0,0,-0.80090486,231.34402,168.64845)"
         id="g4724"
         style="fill:#e6e6e6;stroke:#808080">
        <path
           inkscape:connector-curvature="0"
           id="path4726"
           style="fill:#e6e6e6;fill-opacity:1;fill-rule:nonzero;stroke:#808080"
           d="m 0,0 c -22.596,-2.926 -45.944,-3.239 -68.332,1.41 -3.147,0.653 -4.486,-4.166 -1.33,-4.821 C -46.816,-8.156 -23.065,-7.986 0,-5 3.151,-4.592 3.191,0.413 0,0" />
      </g>
    </g>
    <g
       id="g4736"
       transform="matrix(0.63497011,0,0,-0.63497011,221.72657,61.685684)"
       style="fill:#e6e6e6;stroke:#808080;">
      <path
         d="M 0,0 C -0.545,0.881 -1.582,1.328 -2.592,1.125 -2.721,1.1 -2.852,1.081 -2.982,1.061 -3.43,0.993 -3.986,0.909 -4.58,0.675 l -4.19,-1.646 c -5.652,-2.219 -11.496,-4.513 -17.224,-6.836 -9.127,-3.7 -18.871,-7.554 -28.865,-10.431 -4.028,-1.161 -8.866,-2.349 -13.807,-2.14 -2.918,0.121 -5.555,0.884 -7.838,2.27 -1.684,1.022 -2.781,3.494 -2.592,5.527 2.895,0.567 5.61,2.312 7.559,4.885 2.119,2.798 3.031,6.205 2.498,9.348 -0.334,1.974 -1.586,4.596 -5.656,5.874 -0.643,0.202 -1.287,0.305 -1.916,0.305 -1.686,0 -3.223,-0.708 -4.7,-2.165 -1.718,-1.696 -2.939,-3.835 -3.845,-6.731 -0.24,-0.765 -0.463,-1.535 -0.66,-2.235 -0.864,-0.156 -1.881,-0.494 -2.495,-1.551 -0.933,-1.618 -0.334,-4.285 1.188,-5.285 0.32,-0.21 0.467,-0.306 0.426,-1.749 -0.018,-0.612 0.013,-1.181 0.045,-1.732 0.017,-0.323 0.037,-0.645 0.041,-0.966 0.007,-0.551 0.054,-1.085 0.127,-1.607 -0.014,-0.011 -0.03,-0.025 -0.043,-0.036 -0.377,-0.33 -0.674,-0.591 -0.959,-0.784 -0.356,-0.24 -0.711,-0.483 -1.065,-0.726 -1.256,-0.862 -2.445,-1.678 -3.691,-2.364 -0.067,0.551 -0.098,1.126 -0.131,1.734 -0.023,0.422 -0.047,0.843 -0.082,1.264 -0.086,1.038 -0.156,2.079 -0.227,3.12 -0.177,2.646 -0.361,5.382 -0.818,8.08 -0.416,2.456 -1.75,4.684 -2.795,6.121 -0.863,1.186 -2.25,2.764 -4.289,2.764 -1.869,0 -3.309,-1.338 -4.355,-2.503 -0.348,-0.388 -0.678,-0.783 -1.002,-1.187 -0.01,0.022 -0.018,0.045 -0.028,0.068 -0.656,1.681 -1.875,2.763 -3.72,3.306 -0.098,0.029 -0.202,0.057 -0.307,0.083 -0.035,0.01 -0.072,0.018 -0.108,0.027 -2.572,2.274 -5.65,2.18 -8.345,-0.312 -1.086,-1.005 -2.039,-2.061 -2.834,-3.137 -0.713,-0.968 -1.395,-1.964 -2.053,-2.927 -0.865,-1.264 -1.684,-2.461 -2.574,-3.607 -0.313,0.296 -0.647,0.571 -0.981,0.846 l -0.365,0.304 c -1.195,1.009 -2.672,1.542 -4.271,1.542 -2.965,0 -5.639,-1.828 -6.653,-4.55 -1.607,-4.316 -2.261,-7.89 -2.049,-11.329 -0.978,-0.563 -1.48,-1.513 -1.701,-3.044 l -0.047,-0.35 c -0.019,-0.151 -0.046,-0.37 -0.078,-0.536 l -0.162,-0.125 c -1.789,-1.383 -3.476,-2.689 -5.316,-3.59 -0.49,-0.24 -0.744,-0.259 -0.783,-0.282 -0.002,0.002 -0.276,0.242 -0.475,1.243 -0.76,3.849 -0.65,7.952 0.346,12.916 0.425,2.123 1.394,3.981 2.949,5.637 0.445,-0.286 0.998,-0.541 1.652,-0.541 0.235,0 0.465,0.033 0.686,0.099 1.049,0.313 2.232,1.3 2.469,2.58 0.257,1.395 0.044,3.409 -2.424,5.08 -0.782,0.529 -1.602,0.797 -2.44,0.797 -0.744,0 -1.869,-0.225 -3,-1.299 l -0.148,-0.138 c -0.629,-0.596 -1.279,-1.211 -1.901,-1.883 -2,-2.169 -3.929,-4.63 -4.494,-7.92 -0.408,-2.379 -0.687,-4.367 -0.877,-6.255 -0.035,-0.367 -0.072,-0.748 -0.103,-1.14 -0.217,-0.056 -0.43,-0.134 -0.623,-0.261 -0.244,-0.16 -0.455,-0.292 -0.643,-0.41 -0.41,-0.256 -0.763,-0.477 -1.121,-0.77 -0.713,-0.585 -1.416,-1.181 -2.119,-1.778 -1.365,-1.157 -2.654,-2.25 -4.02,-3.269 -1.322,-0.986 -2.849,-1.92 -4.709,-2.883 -0.048,0.045 -0.123,0.131 -0.203,0.272 -0.422,0.73 -0.515,1.033 -0.519,1.162 -0.074,2.272 -0.108,4.594 -0.139,6.84 -0.025,1.884 -0.051,3.769 -0.101,5.653 -0.039,1.49 0.642,2.737 1.683,4.471 0.416,0.692 0.836,1.381 1.256,2.071 1.676,2.747 3.408,5.588 4.85,8.565 2.884,5.954 5.855,12.988 4.572,21.136 -0.408,2.585 -1.434,4.767 -3.137,6.67 -0.855,0.956 -2.07,1.505 -3.332,1.505 -1.142,0 -2.185,-0.471 -2.9,-1.341 -0.098,-0.12 -0.223,-0.27 -0.317,-0.373 -1.832,0.266 -2.966,-1.726 -3.189,-2.597 -0.484,-1.896 -0.875,-3.808 -1.225,-5.593 -0.775,-3.945 -1.541,-7.893 -2.306,-11.841 l -1.184,-6.092 c -0.387,-1.991 -0.617,-4.002 -0.84,-5.946 -0.441,-3.859 -0.859,-7.504 -2.41,-10.908 -1.764,-3.873 -4.062,-8.297 -7.742,-11.743 -0.799,-0.748 -1.637,-1.16 -2.36,-1.16 -1.296,0 -1.951,1.347 -2.226,2.15 -0.484,1.416 -0.725,2.965 -0.981,4.605 -0.087,0.567 -0.175,1.134 -0.275,1.697 -0.029,0.171 -0.064,0.348 -0.101,0.53 -0.04,0.202 -0.098,0.491 -0.129,0.722 0.189,0.083 0.425,0.173 0.591,0.237 0.196,0.073 0.385,0.146 0.563,0.221 5.674,2.369 8.252,11.346 6.109,16.576 -0.781,1.908 -2.875,3.241 -5.092,3.241 -1.398,0 -2.591,-0.545 -3.359,-1.535 -1.027,-1.324 -2.012,-2.653 -2.869,-4.049 0.025,0.406 0.049,0.812 0.074,1.217 0.182,2.862 0.363,5.723 0.529,8.585 0.415,7.184 0.706,15.539 -1.121,23.783 -0.072,0.32 -0.125,0.644 -0.179,0.968 l -0.09,0.528 c -0.178,0.985 -1.035,1.699 -2.031,1.699 -0.016,0 -0.032,0 -0.047,-0.001 l -0.487,-0.011 c -1.045,-0.023 -1.906,-0.823 -2.007,-1.862 -0.049,-0.518 -0.112,-1.036 -0.172,-1.554 -0.143,-1.197 -0.287,-2.434 -0.311,-3.706 -0.033,-1.834 -0.019,-3.687 -0.008,-5.48 0.02,-2.818 0.041,-5.733 -0.121,-8.556 -0.406,-7.066 -0.967,-14.252 -1.51,-21.202 -0.152,-1.96 -0.304,-3.92 -0.457,-5.881 -0.341,-4.495 -1.49,-7.916 -3.611,-10.767 l -0.258,-0.353 c -0.197,-0.274 -0.509,-0.707 -0.711,-0.886 -0.082,0.113 -0.25,0.429 -0.402,1.239 l -0.111,0.597 c -0.475,2.517 -0.963,5.12 -1.022,7.605 -0.068,3.036 0.041,6.158 0.147,9.176 0.054,1.567 0.109,3.134 0.142,4.756 0.02,0.894 0.051,2.244 -0.906,3.201 -0.926,0.929 -2.506,1.451 -3.752,1.2 -1.834,-0.368 -2.35,-2.692 -2.394,-3.557 -0.051,-1.041 -0.084,-2.084 -0.118,-3.126 -0.13,-4.186 -0.254,-8.14 -1.617,-11.905 -0.244,-0.676 -0.486,-1.355 -0.726,-2.033 -0.627,-1.764 -1.272,-3.576 -1.977,-5.334 -1.105,2.69 -2.062,5.275 -2.08,8.01 -0.018,2.889 0.084,5.731 0.303,8.447 0.164,2.042 0.47,4.208 0.996,7.025 0.137,0.728 0.363,1.476 0.605,2.268 0.219,0.715 0.446,1.456 0.617,2.235 0.213,0.956 -0.154,1.761 -0.375,2.242 -0.037,0.081 -0.076,0.16 -0.103,0.238 -0.197,0.599 -0.658,1.074 -1.252,1.29 -0.592,0.216 -1.25,0.149 -1.787,-0.181 -0.072,-0.045 -0.156,-0.083 -0.234,-0.123 -0.407,-0.202 -1.018,-0.507 -1.489,-1.125 -1.978,-2.606 -3.006,-5.012 -3.232,-7.571 -0.129,-1.462 -0.205,-2.934 -0.279,-4.359 -0.112,-2.138 -0.217,-4.157 -0.487,-6.174 -0.611,-4.605 0.153,-9.164 2.475,-14.781 0.478,-1.152 1.111,-2.224 1.832,-3.1 1.26,-1.525 3.017,-2.4 4.822,-2.4 2.244,0 4.244,1.298 5.346,3.471 0.156,0.306 0.297,0.615 0.428,0.924 0.601,-1.432 2.021,-4.319 5.455,-4.866 0.414,-0.066 0.828,-0.1 1.226,-0.1 2.406,0 4.455,1.147 6.264,3.505 1.646,2.146 2.896,4.483 3.808,7.142 0.25,-1.279 0.551,-2.564 0.936,-3.855 1.367,-4.595 5.053,-7.564 9.391,-7.564 2.754,0 5.48,1.204 7.677,3.392 1.416,1.409 2.631,2.974 3.797,4.505 0.059,-0.554 0.123,-1.11 0.199,-1.666 0.571,-4.146 3.926,-7.041 8.159,-7.041 1.974,0 3.886,0.648 5.38,1.823 2.616,2.054 5.077,4.293 7.563,6.6 0.117,-0.78 0.262,-1.565 0.467,-2.351 0.91,-3.505 3.355,-5.47 7.07,-5.681 0.219,-0.012 0.434,-0.018 0.649,-0.018 4.439,0 7.375,2.621 9.207,4.62 1.33,-0.825 2.966,-1.26 4.736,-1.26 2.594,0 5.115,0.953 6.742,2.55 0.561,0.548 0.822,1.231 0.965,1.6 0.182,0.471 0.35,0.948 0.519,1.424 0.272,0.77 0.53,1.498 0.834,2.184 1.623,3.64 2.239,6.847 1.92,10.05 1.375,0.929 2.85,1.95 4.063,3.357 -0.031,-0.682 -0.063,-1.365 -0.088,-2.047 -0.139,-3.499 -0.291,-7.565 -0.363,-11.552 -0.008,-0.419 0.029,-2.563 1.484,-3.575 0.59,-0.41 1.385,-0.636 2.236,-0.636 0.479,0 1.194,0.071 1.873,0.41 1.399,0.699 1.7,2.438 1.754,3.413 0.014,0.268 0.028,0.536 0.041,0.804 0.1,-0.406 0.282,-0.784 0.541,-1.116 0.635,-0.812 1.68,-1.276 3.01,-1.307 1.457,0.001 3.094,1.112 3.578,2.43 0.34,0.93 0.418,1.859 0.487,2.679 0.027,0.328 0.052,0.657 0.101,0.98 0.166,1.096 0.319,2.195 0.473,3.293 0.385,2.757 0.781,5.607 1.373,8.327 0.197,0.91 0.594,1.758 1.183,2.535 0.581,-3.142 1.067,-6.235 1.448,-9.202 0.117,-0.904 0.164,-1.833 0.217,-2.815 0.072,-1.403 0.148,-2.852 0.435,-4.313 0.58,-2.949 3.254,-5.259 6.088,-5.259 0.32,0 0.641,0.031 0.949,0.093 3.217,0.641 5.973,2.366 8.211,5.107 0.721,-0.781 1.561,-1.489 2.543,-2.098 4.379,-2.714 9.191,-4.09 14.305,-4.09 0.871,0 1.761,0.04 2.648,0.12 7.723,0.694 14.862,3.071 20.824,5.305 11.307,4.235 22.76,8.892 32.864,13.001 3.47,1.411 7.422,3.234 10.377,7.034 C 0.484,-2.005 0.545,-0.88 0,0 m -111.715,-21.544 c 0.029,0.717 0.057,1.434 0.084,2.151 0.067,1.715 0.133,3.464 0.235,5.208 0.169,-2.499 0.162,-4.937 -0.319,-7.359"
         style="fill:#e6e6e6;fill-opacity:1;fill-rule:nonzero;stroke:#808080"
         id="path4738"
         inkscape:connector-curvature="0" />
    </g>
    <g
       id="g4744"
       transform="matrix(0.63497011,0,0,-0.63497011,159.19093,103.25914)"
       style="fill:#e6e6e6;stroke:#808080;">
      <path
         d="m 0,0 c -4.984,-4.46 -9.842,-8.958 -15.338,-12.699 -1.506,1.805 -4.639,2.333 -6.152,-0.315 -1.932,-3.379 -3.391,-7.223 -4.119,-11.111 -0.481,0.061 -1.004,0.026 -1.569,-0.14 -5.228,-1.543 -5.431,7.083 -5.41,11.714 2.625,1.337 5.193,2.746 7.578,4.499 1.643,1.207 2.459,3.227 1.346,5.13 -0.953,1.625 -3.481,2.559 -5.131,1.345 -1.129,-0.83 -2.307,-1.571 -3.504,-2.278 0.342,4.736 0.832,9.485 0.496,14.178 -0.342,4.796 -7.843,4.829 -7.5,0 0.713,-9.987 -6.767,-47.965 14.104,-41.825 1.689,-2.972 5.582,-3.915 9.326,-2.214 5.107,2.32 7.459,9.092 6.978,14.393 -0.058,0.649 -0.181,1.22 -0.334,1.754 5.118,3.726 9.784,8.017 14.532,12.265 C 8.916,-2.072 3.592,3.213 0,0 m -19.008,-27.147 c -0.994,-0.733 -0.65,0.878 0,0 m 0.645,0.622 c -0.135,-0.153 -0.256,-0.278 -0.366,-0.383 -0.027,1.39 0.436,3.068 1.073,4.707 0.39,-0.031 0.789,0.011 1.187,0.12 -0.119,-0.612 -0.295,-1.216 -0.47,-1.811 -0.282,-0.954 -0.77,-1.883 -1.424,-2.633"
         style="fill:#e6e6e6;fill-opacity:1;fill-rule:nonzero;stroke:#808080"
         id="path4746"
         inkscape:connector-curvature="0" />
    </g>
    <g
       id="g5834"
       transform="matrix(2.7374425,0,0,2.7374425,-44.214793,-378.1147)"
       style="fill:#ececec;stroke:#999999;">
      <g
         transform="matrix(0.35277777,0,0,-0.35277777,16.941859,248.57266)"
         id="g4752"
         style="fill:#ececec;stroke:#999999">
        <path
           inkscape:connector-curvature="0"
           id="path4754"
           style="fill:#ececec;fill-opacity:1;fill-rule:nonzero;stroke:#999999"
           d="m 0,0 c 1.854,3.509 29.86,48.184 31.597,51.722 3.381,6.881 6.195,13.993 6.955,21.689 0.278,2.822 0.169,5.788 -0.382,8.567 -1.02,5.158 -4.757,7.323 -9.886,6.102 C 23.862,87.029 20.212,84.518 16.819,81.645 9.744,75.656 4.144,68.413 -0.749,60.591 c -0.423,-0.679 -0.832,-1.368 -1.335,-2.198 -1.233,0.749 -2.39,1.452 -3.844,2.335 2.089,3.093 4.081,6.253 6.282,9.259 4.485,6.124 9.459,11.812 15.531,16.443 4.365,3.329 9.049,5.965 15.102,6.443 -6.036,5.576 -9.663,12.097 -10.791,20.533 -1.342,-2.209 -2.362,-3.889 -3.381,-5.567 -0.198,0.021 -0.396,0.042 -0.594,0.064 -0.096,1.127 -0.31,2.258 -0.27,3.381 0.203,5.798 1.991,11.188 4.545,16.322 4.083,8.207 9.359,15.501 17.04,20.732 12.672,8.633 30.109,7.664 41.976,-2.211 C 91.166,136.429 95.46,119.856 89.569,106.036 85.306,96.034 79.554,86.932 71.527,79.44 c -1.146,-1.07 -2.506,-1.912 -3.77,-2.86 -0.198,0.125 -0.396,0.249 -0.594,0.374 1.064,3.063 2.128,6.126 3.32,9.557 C 60.699,82.376 51.164,82.675 41.486,86.414 45.073,76.259 42.451,66.832 38.865,57.67 36.365,51.281 6.988,3.973 3.966,-2.41 2.328,-1.414 1.21,-0.735 0,0 m 36.917,91.936 c 11.601,-7.061 26.505,-4.945 34.751,4.219 0.642,0.713 1.059,1.877 1.092,2.848 0.232,6.577 -3.286,11.263 -8.055,15.19 -5.427,4.468 -9.399,9.857 -11.081,16.769 -0.848,3.487 -0.932,3.618 -4.493,3.932 -1.061,0.093 -2.149,0.114 -3.205,-0.006 -7.195,-0.823 -12.672,-4.75 -17.396,-9.894 -2.411,-2.626 -4.289,-5.438 -4.281,-9.379 0.024,-10.758 5.654,-18.193 12.668,-23.679" />
      </g>
      <g
         transform="matrix(0.35277777,0,0,-0.35277777,31.013106,214.76713)"
         id="g4756"
         style="fill:#ececec;stroke:#999999">
        <path
           inkscape:connector-curvature="0"
           id="path4758"
           style="fill:#ececec;fill-opacity:1;fill-rule:nonzero;stroke:#999999"
           d="M 0,0 C -1.725,1.876 -3.391,3.588 -4.935,5.405 -5.738,6.349 -5.666,7.482 -4.62,8.232 -3.573,8.984 -2.528,8.646 -1.83,7.628 0.428,4.341 3.492,2.493 7.452,1.904 8.139,1.801 9.088,0.665 9.173,-0.077 9.316,-1.346 8.191,-2.029 7.003,-1.788 4.673,-1.315 2.387,-0.623 0,0" />
      </g>
      <g
         transform="matrix(0.35277777,0,0,-0.35277777,36.638853,212.37593)"
         id="g4760"
         style="fill:#ececec;stroke:#999999">
        <path
           inkscape:connector-curvature="0"
           id="path4762"
           style="fill:#ececec;fill-opacity:1;fill-rule:nonzero;stroke:#999999"
           d="M 0,0 C -1.791,1.107 -2.399,3.448 -1.362,5.244 -0.299,7.083 2.196,7.682 4.048,6.545 5.918,5.396 6.473,2.955 5.277,1.139 4.111,-0.63 1.821,-1.124 0,0" />
      </g>
      <g
         transform="matrix(0.35277777,0,0,-0.35277777,30.447074,208.6144)"
         id="g4764"
         style="fill:#ececec;stroke:#999999">
        <path
           inkscape:connector-curvature="0"
           id="path4766"
           style="fill:#ececec;fill-opacity:1;fill-rule:nonzero;stroke:#999999"
           d="M 0,0 C -1.781,1.116 -2.37,3.476 -1.312,5.256 -0.221,7.091 2.265,7.665 4.112,6.505 5.885,5.393 6.474,3.023 5.418,1.241 4.323,-0.604 1.864,-1.169 0,0" />
      </g>
    </g>
    <g
       id="g5824"
       transform="matrix(2.7557803,0,0,2.7557803,41.461232,-214.45882)"
       style="fill:#e6e6e6;stroke:#808080;">
      <g
         transform="matrix(0.35277777,0,0,-0.35277777,154.30901,121.92025)"
         id="g4768"
         style="fill:#e6e6e6;stroke:#808080">
        <path
           inkscape:connector-curvature="0"
           id="path4770"
           style="fill:#e6e6e6;fill-opacity:1;fill-rule:nonzero;stroke:#808080"
           d="m 0,0 c -6.398,-2.956 -13.121,-3.732 -20.129,-2.703 -0.757,0.112 -1.932,-0.704 -2.484,-1.42 -3.393,-4.393 -7.023,-8.557 -11.949,-11.242 -2.506,-1.367 -5.229,-2.597 -8.001,-3.163 -6.249,-1.274 -11.181,2.119 -12.661,8.334 -1.367,5.745 -0.142,11.244 1.919,16.592 0.883,2.288 1.934,4.539 3.178,6.647 0.853,1.447 0.608,2.334 -0.342,3.602 -6.043,8.072 -9.7,17.076 -10.288,27.23 -1.374,23.736 21.561,42.327 45.821,34.303 C 5.239,71.507 20.201,50.853 19.729,29.651 19.593,23.499 17.746,17.828 14.456,12.629 c -0.271,-0.428 -0.562,-0.843 -0.832,-1.271 -0.076,-0.12 -0.109,-0.267 -0.241,-0.604 8.597,0.143 15.952,-3.271 22.898,-7.786 6.541,-4.252 12.239,-9.489 17.434,-15.284 0.903,-1.008 1.727,-2.085 2.662,-3.221 -1.165,-0.96 -2.258,-1.86 -3.381,-2.784 -2.967,3.03 -5.783,6.14 -8.847,8.983 C 37.249,-2.937 29.793,2.679 20.53,5.22 9.596,8.218 3.362,2.969 4.31,-8.344 c 0.667,-7.959 3.619,-15.196 7.577,-21.999 2.798,-4.807 26.545,-43.029 29.695,-47.864 -0.91,-0.75 -1.99,-1.639 -3.422,-2.818 C 27.673,-66.987 -2.189,-18.978 0,0 m -23.297,40.208 c -1.486,-1.376 -3.941,-3.526 -6.256,-5.818 -5.218,-5.17 -9.762,-10.87 -13.32,-17.326 -0.524,-0.952 -0.58,-1.641 0.279,-2.461 C -37.295,9.529 -31.365,5.506 -24.318,3.238 -7.131,-2.29 10.302,7.069 14.223,24.257 16.836,35.711 13.34,45.99 7.135,55.57 6.297,56.863 5.396,56.472 4.345,56.125 -5.561,52.863 -14.229,47.431 -23.297,40.208 m -2.998,-41.307 c -7.559,2.619 -13.81,6.781 -19.516,12.287 -3.037,-5.311 -5.128,-10.626 -5.175,-16.562 -0.063,-7.838 4.334,-10.633 11.46,-7.343 5.477,2.53 9.561,6.66 13.231,11.618 M 1.809,62.032 c -3.197,3.324 -6.934,6.213 -12.089,6.227 -4.72,0.011 -8.471,-2.122 -10.564,-6.358 -1.962,-3.97 0.028,-7.454 1.792,-10.604 7.093,3.651 13.929,7.168 20.861,10.735" />
      </g>
      <g
         transform="matrix(0.35277777,0,0,-0.35277777,154.84336,117.66279)"
         id="g4772"
         style="fill:#e6e6e6;stroke:#808080">
        <path
           inkscape:connector-curvature="0"
           id="path4774"
           style="fill:#e6e6e6;fill-opacity:1;fill-rule:nonzero;stroke:#808080"
           d="m 0,0 c -2.515,-1.108 -4.845,-2.236 -7.254,-3.157 -1.319,-0.505 -2.719,10e-4 -2.79,1.473 -0.041,0.811 0.945,2.173 1.749,2.44 3.998,1.326 7.015,3.64 8.862,7.469 C 1.143,9.416 2.308,10.093 3.4,9.228 4.033,8.725 4.563,7.162 4.239,6.549 3.043,4.282 1.473,2.21 0,0" />
      </g>
      <g
         transform="matrix(0.35277777,0,0,-0.35277777,148.57637,114.01323)"
         id="g4776"
         style="fill:#e6e6e6;stroke:#808080">
        <path
           inkscape:connector-curvature="0"
           id="path4778"
           style="fill:#e6e6e6;fill-opacity:1;fill-rule:nonzero;stroke:#808080"
           d="M 0,0 C 1.449,-1.819 1.195,-4.296 -0.594,-5.779 -2.422,-7.294 -5.116,-7.03 -6.565,-5.192 -8.022,-3.344 -7.664,-0.71 -5.757,0.75 -3.919,2.156 -1.462,1.836 0,0" />
      </g>
      <g
         transform="matrix(0.35277777,0,0,-0.35277777,152.54099,108.80941)"
         id="g4780"
         style="fill:#e6e6e6;stroke:#808080">
        <path
           inkscape:connector-curvature="0"
           id="path4782"
           style="fill:#e6e6e6;fill-opacity:1;fill-rule:nonzero;stroke:#808080"
           d="M 0,0 C 1.811,1.476 4.266,1.251 5.775,-0.528 7.35,-2.383 7.123,-4.94 5.25,-6.463 3.47,-7.912 0.924,-7.686 -0.561,-5.951 -2.107,-4.141 -1.86,-1.517 0,0" />
      </g>
    </g>
    <g
       id="g4784"
       transform="matrix(0.35277777,0,0,-0.35277777,18.226111,153.84191)"
       style="">
      <path
         d="M 0,0 V -292.518 Z"
         style="fill:#ffffff;fill-opacity:1;fill-rule:nonzero;stroke:none"
         id="path4786"
         inkscape:connector-curvature="0" />
    </g>
    <g
       id="g4796"
       transform="matrix(0.35277777,0,0,-0.35277777,57.771582,187.22499)"
       style="fill:#000000;" />
    <g
       id="g4804"
       transform="matrix(0.35277777,0,0,-0.35277777,53.138975,186.30516)"
       style="fill:#000000;" />
    <g
       id="g4812"
       transform="matrix(0.35277777,0,0,-0.35277777,99.349758,187.44167)"
       style="fill:#000000;" />
    <g
       id="g4820"
       transform="matrix(0.35277777,0,0,-0.35277777,130.76903,186.14288)"
       style="fill:#000000;" />
    <g
       id="g4828"
       transform="matrix(0.35277777,0,0,-0.35277777,137.26303,185.77133)"
       style="fill:#000000;" />
    <g
       id="g4836"
       transform="matrix(0.35277777,0,0,-0.35277777,75.343654,186.43434)"
       style="fill:#000000;" />
    <g
       id="g4844"
       transform="matrix(0.35277777,0,0,-0.35277777,128.4553,185.70656)"
       style="fill:#000000;" />
    <g
       id="g4852"
       transform="matrix(0.35277777,0,0,-0.35277777,80.891614,186.02816)"
       style="fill:#000000;stroke:none;" />
    <g
       id="g4860"
       transform="matrix(0.35277777,0,0,-0.35277777,110.09054,186.72577)"
       style="fill:#000000;" />
    <g
       id="g4868"
       transform="matrix(0.35277777,0,0,-0.35277777,116.36783,184.83873)"
       style="fill:#000000;" />
    <g
       id="g4876"
       transform="matrix(0.35277777,0,0,-0.35277777,71.888901,186.0404)"
       style="fill:#000000;" />
    <g
       id="g4884"
       transform="matrix(0.35277777,0,0,-0.35277777,68.468615,185.26577)"
       style="fill:#000000;" />
    <g
       id="g4892"
       transform="matrix(0.35277777,0,0,-0.35277777,104.23767,186.53302)"
       style="fill:#000000;" />
    <g
       id="g4900"
       transform="matrix(0.35277777,0,0,-0.35277777,89.483693,186.15992)"
       style="fill:#000000;" />
    <g
       id="g4908"
       transform="matrix(0.35277777,0,0,-0.35277777,47.054934,185.87985)"
       style="fill:#000000;" />
    <g
       id="g4916"
       transform="matrix(0.35277777,0,0,-0.35277777,83.23808,188.0108)"
       style="fill:#000000;" />
    <g
       id="g4924"
       transform="matrix(0.35277777,0,0,-0.35277777,124.67603,187.27974)"
       style="fill:#000000;" />
    <g
       id="g4932"
       transform="matrix(1.1753832,0,0,-1.1753832,186.15078,227.9347)"
       style="fill:#e6e6e6;stroke:#808080;">
      <path
         id="path4934"
         style="fill:#e6e6e6;fill-opacity:1;fill-rule:nonzero;stroke:#808080"
         d="M 0,0 C 0.5,-0.034 1.011,-0.019 1.495,-0.122 1.729,-0.172 2.073,-0.436 2.082,-0.617 2.093,-0.863 1.892,-1.248 1.675,-1.349 1.233,-1.557 0.728,-1.683 0.237,-1.721 -0.999,-1.818 -2.241,-1.897 -3.48,-1.889 c -0.798,0.005 -0.978,-0.32 -0.95,-1.05 0.085,-2.214 0.16,-4.432 0.146,-6.647 -0.016,-2.295 -0.142,-4.59 -0.217,-6.885 -0.016,-0.471 -0.039,-0.954 -0.668,-0.961 -0.677,-0.006 -1.017,0.376 -1,1.049 0.045,1.663 0.164,3.327 0.133,4.987 -0.055,2.929 -0.203,5.855 -0.303,8.782 -0.015,0.45 -0.23,0.509 -0.621,0.452 -0.729,-0.107 -1.464,-0.192 -2.199,-0.238 -0.568,-0.037 -1.09,0.085 -1.097,0.818 -0.006,0.675 0.461,0.936 1.025,0.986 2.179,0.192 4.361,0.367 6.544,0.508 0.893,0.058 1.791,0.01 2.689,0.01 C 0.001,-0.052 0.001,-0.026 0,0 m 173.95021,-13.506293 c 0.134,-1.056 -0.34,-1.887 -1.144,-2.398 -2.075,-1.319 -4.405,-1.679 -6.823,-1.473 -0.351,0.03 -0.751,0.297 -0.991,0.574 -0.15,0.173 -0.129,0.604 -0.025,0.854 0.069,0.169 0.416,0.318 0.635,0.314 0.823,-0.013 1.666,-0.232 2.463,-0.114 1.085,0.162 2.161,0.493 3.192,0.881 0.95,0.359 1.104,0.923 0.928,1.907 -0.441,2.478 -1.971,3.9369998 -4.246,4.7839998 -1.086,0.404 -2.173,0.836 -3.197,1.374 -2.259,1.187 -2.78,4.422 -0.565,6.00999999 1.151,0.825 2.4,1.512 3.627,2.22500001 0.457,0.268 0.913,0.162 1.296,-0.231 0.488,-0.50000001 0.366,-1.19800001 -0.318,-1.33200001 -1.453,-0.285 -2.527,-1.16599999 -3.564,-2.11299999 -1.128,-1.032 -0.897,-2.618 0.485,-3.241 1.323,-0.597 2.717,-1.045 4.014,-1.69 2.599,-1.292 3.973,-3.4569998 4.233,-6.3309998 M 56.488301,-15.578589 c 0,2.668 0.011,5.336 -0.006,8.0029997 -0.007,1.187 -0.066,2.372 -0.104,3.559 -0.029,0.904 0.506,1.584 1.095,2.096 1.195,1.03599998 2.613,1.65899998 4.227,1.78999998 1.555,0.126 2.503,-0.738 3.15,-1.96099998 1.772,-3.344 -0.232,-7.245 -3.49,-8.3809997 -0.815,-0.284 -1.67,-0.475 -2.518,-0.642 -0.421,-0.083 -0.565,-0.214 -0.552,-0.661 0.043,-1.532 0.021,-3.065 0.05,-4.597 0.01,-0.576 -0.119,-1.018 -0.775,-1.058 -0.519,-0.031 -0.928,0.506 -0.917,1.141 0.005,0.237 0.001,0.474 0.001,0.711 z m 1.776,9.1329997 c -0.013,-0.001 -0.027,-0.001 -0.042,-0.002 0,-0.818 0.029,-1.637 -0.008,-2.453 -0.03,-0.637 0.283,-0.739 0.782,-0.588 0.652,0.197 1.328,0.358 1.936,0.654 1.685,0.822 2.667,2.207 2.909,4.063 0.206,1.585 -0.649,2.831 -1.881,2.859 -1.211,0.027 -2.295,-0.413 -3.229,-1.115 -0.326,-0.245 -0.494,-0.837 -0.537,-1.289 -0.065,-0.701 0.038,-1.419 0.07,-2.129 m -104.3424,-3.0925117 c -0.114,-2.244 -0.232,-4.487 -0.339,-6.731 -0.028,-0.596 -0.103,-1.149 -0.867,-1.163 -0.582,-0.009 -0.828,0.435 -0.817,1.254 0.049,3.962 0.081,7.924 0.131,11.886 0.01,0.819 0.024,1.643 0.132,2.452 0.036,0.279 0.328,0.708 0.559,0.746 1.319,0.222 2.655,0.465 3.988,0.48 2.182,0.026 3.794,-1.656 3.96,-3.847 0.244,-3.23 -1.518,-5.37 -3.834,-7.222 -0.33,-0.263 -0.684,-0.498 -1.049,-0.709 -0.523,-0.303 -1.348,-0.137 -1.535,0.339 -0.234,0.598 0.187,0.884 0.633,1.188 1.815,1.239 3.508,2.624 3.923,4.942 0.134,0.743 0.073,1.609 -0.184,2.316 -0.463,1.278 -1.689,1.673 -3.403,1.305 -1.31,-0.28 -1.382,-0.398 -1.367,-1.756 0.018,-1.825 0.004,-3.651 0.004,-5.476 0.021,-0.002 0.044,-0.003 0.065,-0.004 M 74.192402,-10.332 c -1.417,-0.262 -2.654,-0.489 -3.992,-0.736 0.034,-0.501 0.086,-1.041 0.104,-1.582 0.042,-1.241 0.099,-2.483 0.081,-3.723 -0.007,-0.474 -0.048,-1.082 -0.779,-1.058 -0.659,0.022 -0.856,0.45 -0.914,1.062 -0.382,4.071 -0.789,8.1409998 -1.191,12.2099998 -0.024,0.236 -0.059,0.473 -0.118,0.702 -0.171,0.66 0.061,1.137 0.72,1.251 0.602,0.104 0.997,-0.296 1.167,-0.844 0.11,-0.348 0.115,-0.729 0.149,-1.097 0.124,-1.422 0.25,-2.843 0.353,-4.266 0.039,-0.525 0.277,-0.794 0.806,-0.718 1.016,0.146 2.034,0.295 3.039,0.502 0.144,0.03 0.325,0.401 0.311,0.603 -0.095,1.448 -0.238,2.893 -0.363,4.34 -0.015,0.183 -0.035,0.369 -0.021,0.552 0.033,0.456 0.069,0.928 0.671,0.996 0.589,0.067 0.976,-0.245 1.169,-0.752 0.11,-0.285 0.079,-0.624 0.109,-0.939 0.269,-2.916 0.539,-5.832 0.809,-8.7469998 0.089,-0.972 0.201,-1.942 0.26,-2.916 0.036,-0.587 -0.215,-1.129 -0.846,-1.128 -0.608,0.001 -0.809,0.51 -0.874,1.108 -0.182,1.7 -0.421,3.393 -0.65,5.18 m 41.822298,-1.057607 c 0.04,2.4200004 0.555,4.7250004 1.746,6.8420004 0.346,0.614 0.813,1.167 1.277,1.701 0.173,0.197 0.578,0.431 0.743,0.355 0.722,-0.332 1.307,0.062 1.954,0.209 1.638,0.374 3.432,-0.552 4.18,-2.296 1.037,-2.421 1.382,-4.967 0.453,-7.4880004 -0.715,-1.938 -2.056,-3.518 -3.677,-4.781 -1.381,-1.078 -3.814,-0.586 -5.276,0.841 -1.33,1.298 -1.421,2.932 -1.4,4.617 m 9.255,2.5640004 c -0.228,1.108 -0.407,2.229 -0.696,3.32 -0.268,1.005 -1.479,1.914 -2.33,1.65 -0.88,-0.273 -1.812,-0.667 -2.481,-1.274 -1.324,-1.199 -1.56,-2.96 -1.86,-4.618 -0.249,-1.3770004 -0.408,-2.7840004 0.107,-4.1560004 0.573,-1.526 2.627,-2.333 3.76,-1.366 1.957,1.671 3.523,3.606 3.5,6.4440004 M 14.6221,-7.7974017 c -0.196,-3.0960003 -1.656,-5.4700003 -3.781,-7.5150003 -0.438,-0.421 -0.8889995,-0.826 -1.3589995,-1.211 -1.827,-1.496 -4.226,-1.133 -5.676,1.006 -1.208,1.781 -1.181,3.791 -0.903,5.8140003 0.276,2.009 0.845,3.923 2.073,5.573 0.359,0.481 0.818,0.893 1.257,1.307 0.504,0.474 1.047,0.539 1.641,0.109 0.15,-0.109 0.462,-0.177 0.602,-0.096 2.0269995,1.175 4.5009995,-0.352 5.4149995,-2.428 0.354,-0.805 0.493,-1.703 0.731,-2.559 m -4.7349995,3.862 c -0.574,-0.183 -1.16,-0.334 -1.716,-0.558 -0.387,-0.156 -0.721,-0.553 -1.105,-0.592 -0.745,-0.074 -1.07,-0.586 -1.327,-1.111 -0.895,-1.828 -1.404,-3.78 -1.321,-5.8160003 0.034,-0.837 0.296,-1.731 0.689,-2.473 0.693,-1.306 2.315,-1.568 3.369,-0.537 1.164,1.138 2.2889995,2.345 3.2419995,3.658 1.023,1.4110003 1.389,3.0660003 0.987,4.8270003 -0.317,1.392 -1.575,2.532 -2.8179995,2.602 M 24.3174,-9.9932034 c -0.508,0.088 -0.926,0.06 -1.217,0.239 -0.304,0.189 -0.648,0.566 -0.669,0.881 -0.014,0.233 0.438,0.679 0.724,0.717 1.353,0.18 2.721,0.267 4.087,0.35 0.228,0.014 0.64,-0.116 0.666,-0.241 0.055,-0.269 -0.007,-0.637 -0.169,-0.855 -0.193,-0.258 -0.515,-0.481 -0.824,-0.58 -0.658,-0.208 -0.831,-0.6389996 -0.806,-1.2629996 0.061,-1.453 0.103,-2.905 0.134,-4.358 0.008,-0.341 0.038,-0.735 -0.113,-1.01 -0.153,-0.277 -0.522,-0.607 -0.789,-0.599 -0.224,0.006 -0.544,0.43 -0.629,0.726 -0.136,0.468 -0.11,0.981 -0.158,1.535 -0.536,-0.689 -0.989,-1.325 -1.499,-1.912 -0.699,-0.809 -1.568,-1.297 -2.666,-0.961 -1.132,0.347 -1.855,1.189 -2.06,2.315 -0.188,1.029 -0.25,2.109 -0.171,3.153 0.272,3.6109996 1.161,7.0499996 3.331,10.0269996 0.563,0.775 1.314,1.43000003 2.047,2.06000003 0.469,0.403 1.035,0.284 1.369,-0.247 0.302,-0.477 0.09,-0.856 -0.346,-1.21400003 -1.416,-1.164 -2.37,-2.675 -3.109,-4.337 -1.135,-2.552 -1.676,-5.2249996 -1.671,-8.0119996 0,-0.34 -0.02,-0.735 0.139,-1.006 0.223,-0.381 0.567,-0.87 0.93,-0.938 0.342,-0.064 0.946,0.256 1.139,0.583 0.776,1.314 1.447,2.691 2.133,4.057 0.121,0.244 0.125,0.547 0.197,0.8899996 m 126.08201,3.4063088 c 0.241,-0.253 0.391,-0.435 0.564,-0.588 3.112,-2.741 6.23,-5.4740004 9.332,-8.2240004 0.331,-0.292 0.644,-0.648 0.826,-1.041 0.103,-0.222 0.011,-0.647 -0.154,-0.847 -0.124,-0.149 -0.565,-0.192 -0.763,-0.088 -0.461,0.243 -0.883,0.575 -1.282,0.918 -2.695,2.332 -5.38,4.678 -8.074,7.0140004 -0.669,0.582 -1.352,1.149 -2.146,1.823 -0.368,-1.049 -0.182,-1.957 -0.137,-2.8480004 0.059,-1.161 0.175,-2.319 0.243,-3.478 0.032,-0.528 -0.125,-1.01 -0.766,-0.942 -0.544,0.059 -0.996,0.312 -1.03,0.994 -0.096,1.972 -0.301,3.9410004 -0.312,5.9120004 -0.014,2.377 0.11,4.755 0.23,7.12999997 0.012,0.245 0.419,0.674 0.617,0.66 0.362,-0.025 0.872,-0.236 1.012,-0.52 0.204,-0.41499997 0.194,-0.96599997 0.172,-1.45499997 -0.046,-1.043 -0.157,-2.082 -0.258,-3.317 1.326,0.773 2.479,1.442 3.627,2.116 0.956,0.562 1.903,1.141 2.866,1.69 0.374,0.214 0.902,0.414 1.107,-0.065 0.128,-0.298 -0.037,-0.945 -0.296,-1.148 -1.18,-0.927 -2.435,-1.76 -3.673,-2.613 -0.519,-0.357 -1.064,-0.677 -1.705,-1.083 m -17.7939,-5.3490904 c 0,-1.5 -0.007,-3 0.005,-4.5 0.003,-0.484 -0.024,-0.944 -0.631,-0.992 -0.635,-0.05 -1.103,0.448 -1.092,1.079 0.045,2.618 0.065,5.235 0.138,7.8510005 0.032,1.135 0.16,2.267 0.269,3.398 0.018,0.199 0.11,0.506 0.245,0.557 0.847,0.324 0.911,1.162 1.266,1.809 0.601,1.089 1.218,2.12599998 2.737,1.99899998 1.339,-0.112 2.275,-0.91699998 2.59,-2.36999998 0.417,-1.926 -0.291,-3.603 -1.247,-5.186 -0.474,-0.787 -1.096,-1.487 -1.681,-2.2040005 -0.302,-0.372 -0.41,-0.696 -0.114,-1.132 1.107,-1.633 4.916,-3.401 6.987,-1.909 0.431,0.311 0.746,-0.002 0.656,-0.374 -0.128,-0.524 -0.357,-1.155 -0.757,-1.447 -0.472,-0.346 -1.179,-0.545 -1.77,-0.52 -2.67,0.112 -4.903,1.157 -6.536,3.346 -0.206,0.276 -0.488,0.494 -0.734,0.74 -0.109,-0.048 -0.221,-0.097 -0.331,-0.145 m 0.212,2.1190005 c 0.288,0.051 0.456,0.028 0.535,0.102 0.584,0.549 1.232,1.055 1.705,1.691 1.066,1.432 1.788,3.002 1.346,4.867 -0.186,0.779 -0.864,1.039 -1.507,0.554 -0.286,-0.215 -0.531,-0.518 -0.714,-0.829 -1.136,-1.943 -1.165,-4.118 -1.365,-6.385 M 49.836902,-9.9585073 c -1.301,-0.1969997 -2.488,-0.3529997 -3.66,-0.5839997 -0.164,-0.032 -0.333,-0.425 -0.361,-0.668 -0.136,-1.128 -0.212,-2.262 -0.329,-3.392 -0.052,-0.513 -0.327,-0.884 -0.88,-0.789 -0.539,0.093 -0.958,0.309 -0.922,1.043 0.144,3.009 0.218,6.0209997 0.344,9.0309997 0.044,1.054 0.137,2.108 0.272,3.154 0.033,0.256 0.308,0.668 0.497,0.683 0.796,0.064 1.107,0.62199999 1.409,1.19799999 0.799,1.53000001 1.768,1.56400001 2.691,-0.079 1.46,-2.60799999 2.449,-5.42999999 2.606,-8.42299999 0.134,-2.5519997 -0.058,-5.1199997 -0.08,-7.6809997 -0.004,-0.574 -0.218,-0.986 -0.781,-0.965 -0.556,0.021 -0.908,0.428 -0.9,1.018 0.02,1.587 0.065,3.174 0.092,4.761 0.012,0.595 0.002,1.191 0.002,1.6929997 m -2.16,8.539 c -0.214,-0.128 -0.293,-0.154 -0.339,-0.208 -0.085,-0.099 -0.163,-0.209 -0.22,-0.327 -0.923,-1.923 -1.166,-3.992 -1.289,-6.086 -0.025,-0.435 0.182,-0.644 0.619,-0.606 0.894,0.076 1.786,0.171 2.681,0.228 0.51,0.033 0.631,0.273 0.519,0.731 -0.223,0.896 -0.38,1.813 -0.662,2.69 -0.383,1.193 -0.857,2.356 -1.309,3.578 M 184.6631,-9.0468852 c -1.854,-0.049 -3.588,-0.099 -5.322,-0.137 -0.666,-0.014 -0.492,-0.481 -0.477,-0.8519998 0.088,-2.14 0.205,-4.28 0.256,-6.42 0.007,-0.313 -0.211,-0.752 -0.465,-0.913 -0.21,-0.134 -0.689,-0.037 -0.931,0.13 -0.209,0.144 -0.342,0.526 -0.355,0.81 -0.193,4.226 -0.353,8.4529998 -0.543,12.6789998 -0.045,1.003 -0.181,2.001 -0.254,3.00299996 -0.069,0.937 0.187,1.374 0.771,1.389 0.653,0.017 1.115,-0.494 1.151,-1.338 0.081,-1.87499996 0.139,-3.74999996 0.205,-5.62599996 0.036,-1.032 0.036,-1.051 1.099,-1.052 1.427,-0.002 2.855,0.049 4.283,0.029 0.466,-0.006 0.635,0.171 0.631,0.588 -0.014,1.373 -0.037,2.745 -0.051,4.118 -0.008,0.767 -0.011,1.535 0.007,2.30099996 0.013,0.51 0.25,0.912 0.803,0.872 0.53,-0.038 0.996,-0.317 0.994,-0.932 -0.012,-3.24399996 -0.042,-6.48699996 -0.079,-9.73199976 -0.022,-1.82 -0.076,-3.64 -0.099,-5.46 -0.007,-0.496 0.026,-1.063 -0.64,-1.045 -0.577,0.015 -1.077,0.319 -1.067,1.028 0.021,1.583 0.058,3.165 0.082,4.748 0.009,0.626 10e-4,1.2529998 10e-4,1.8119998 M 34.1104,-11.109884 c 2.084,-1.818 4.164,-3.461 7.003,-3.687 0.224,-0.018 0.429,-0.271 0.643,-0.414 -0.185,-0.257 -0.315,-0.634 -0.565,-0.749 -0.879,-0.403 -1.796,-0.314 -2.708,-0.035 -1.678,0.514 -3.105,1.438 -4.393,2.609 -0.271,0.248 -0.559,0.484 -0.863,0.69 -0.629,0.428 -1.494,0.014 -1.536,-0.759 -0.052,-0.976 -0.006,-1.958 -0.062,-2.933 -0.05,-0.859 -0.43,-1.217 -1.044,-0.965 -0.287,0.118 -0.633,0.535 -0.636,0.821 -0.029,1.951 0.051,3.902 0.048,5.853 -0.002,1.7970003 -0.083,3.5920003 -0.09,5.3890003 -0.003,1.041 0.319,1.415 1.142,1.521 0.271,0.668 0.529,1.329 0.803,1.983 0.512,1.21199999 1.485,1.96099999 2.606,2.55199999 0.689,0.36500001 1.297,0.142 1.811,-0.342 1.216,-1.145 1.41,-2.67099999 1.463,-4.22099999 0.089,-2.557 -1.162,-4.541 -2.787,-6.3550003 -0.276,-0.31 -0.545,-0.626 -0.835,-0.958 m -2.354,0.438 c 0.077,-0.043 0.151,-0.088 0.226,-0.133 0.399,0.368 0.822,0.715 1.198,1.1070003 1.371,1.431 2.623,2.976 2.796,5.029 0.086,1.02 -0.101,2.097 -0.348,3.103 -0.203,0.81699999 -0.58,0.91299999 -1.185,0.364 -0.593,-0.537 -1.207,-1.154 -1.536,-1.864 -1.115,-2.414 -0.964,-5.04 -1.151,-7.6060003 m 177.8735,1.4413988 c 0.059,-1.0199998 0.196,-2.1449998 0.169,-3.2669998 -0.037,-1.445 -0.179,-2.891 -0.351,-4.327 -0.028,-0.239 -0.504,-0.65 -0.662,-0.604 -0.349,0.102 -0.676,0.407 -0.916,0.707 -0.112,0.14 -0.04,0.469 0.015,0.695 0.647,2.696 -0.048,5.365 -0.143,8.0459998 -0.063,1.738 -0.096,3.48 -0.075,5.219 0.006,0.475 0.254,0.948 0.397,1.42 0.022,0.07 0.127,0.139 0.115,0.192 -0.384,1.72599996 1.01,2.05499996 2.08,2.466 1.764,0.678 3.641,0.675 5.463,0.264 1.137,-0.257 2.375,-0.575 3.285,-1.24900004 2.661,-1.97499996 2.427,-5.54399996 -0.391,-7.40499996 -2.144,-1.417 -4.505,-2.334 -7.058,-2.637 -0.576,-0.069 -1.204,0.287 -1.928,0.48 m -0.13,0.883 c 0.565,0.14 1.07,0.308 1.59,0.386 2.495,0.373 4.803,1.208 6.827,2.742 0.839,0.637 1.272,1.544 1.159,2.557 -0.123,1.111 -0.853,1.88199996 -1.945,2.16699996 -0.888,0.231 -1.805,0.432 -2.716,0.471 -1.389,0.057 -2.805,0.107 -4.12,-0.501 -0.583,-0.27 -1.041,-0.59999996 -0.742,-1.39799996 0.109,-0.29 -0.048,-0.671 -0.05,-1.012 -0.007,-1.832 -0.003,-3.665 -0.003,-5.412 m -18.27819,-1.9362128 c 0.064,2.7030001 0.533,4.7510001 1.372,6.7190001 1.052,2.467 3.039,3.79200004 5.524,4.45300004 0.475,0.12599996 1.073,0.052 1.545,-0.118 3.193,-1.144 5.053,-4.28500004 4.808,-7.66200004 -0.274,-3.7900001 -2.176,-6.6800001 -4.795,-9.1910001 -2.285,-2.193 -4.498,-1.532 -6.693,0.688 -1.558,1.578 -1.744,3.605 -1.761,5.111 m 11.65,3.6380001 c 0.064,3.037 -1.789,5.502 -3.771,5.92700004 -0.393,0.085 -0.945,0.002 -1.255,-0.23 -0.603,-0.45000004 -1.097,-1.04900004 -1.614,-1.60700004 -0.606,-0.653 -1.197,-1.317 -1.773,-1.996 -0.285,-0.337 -0.659,-0.686 -0.749,-1.085 -0.316,-1.413 -0.623,-2.84 -0.752,-4.279 -0.137,-1.5500001 0.104,-3.0820001 1.184,-4.3210001 1.256,-1.441 2.725,-2.079 4.325,-0.463 0.408,0.411 0.808,0.832 1.207,1.251 2.072,2.181 3.196,4.7540001 3.198,6.8030001 M 102.1592,-13.965307 c -0.082,-0.236 -0.164,-0.429 -0.216,-0.629 -0.145,-0.554 -0.442,-1.091 -1.036,-1.01 -0.487,0.066 -1.109999,0.366 -1.346999,0.759 -0.364,0.609 -0.598,1.38 -0.628,2.093 -0.122,2.9809996 -0.147,5.9659996 -0.205,8.9489996 -0.01,0.546 0.328,0.77 0.812,0.75 0.599999,-0.025 1.032999,-0.359 1.045999,-0.973 0.017,-0.817 -0.107,-1.636 -0.113,-2.455 -0.012,-1.664 0.013,-3.33 0.029,-4.9939996 0.002,-0.138 0.055,-0.277 0.227,-0.405 0,0.431 0.02,0.864 -0.005,1.293 -0.029,0.496 -0.086,1.0389996 0.561,1.1189996 0.596,0.073 1.099,-0.201 1.237,-0.8449996 0.384,-1.778 1.315,-3.218 2.899,-4.07 1.119,-0.602 2.374,-0.989 3.608,-1.327 1,-0.274 1.551,0.537 2.003,1.248 1.097,1.724 1.588,3.677 1.957,5.6559996 0.405,2.177 0.352,4.318 -0.678,6.35 -0.243,0.478 -0.438,0.947 -1.102,0.458 -0.381,-0.281 -0.623,-0.024 -0.629,0.359 -0.007,0.525 0.015,1.06400001 0.129,1.57400001 0.127,0.571 0.785,0.719 1.353,0.287 1.293,-0.983 2.034,-2.33900001 2.449,-3.88100001 0.766,-2.846 0.256,-5.625 -0.55,-8.3599996 -0.318,-1.079 -0.761,-2.147 -1.312,-3.128 -1.235,-2.197 -2.703,-2.699 -5.135,-1.974 -1.786,0.532 -3.327,1.466 -4.692,2.715 -0.137,0.125 -0.275,0.248 -0.42,0.364 -0.036,0.03 -0.096,0.032 -0.242,0.077 m -130.991198,3.221603 c 0,2.1919998 0.098,4.3899998 -0.039,6.5729998 -0.079,1.275 -0.479,2.543 -0.836,3.78400003 -0.313,1.09 -0.71,1.243 -1.638,0.615 -1.433,-0.971 -2.586,-2.13200003 -2.562,-4.08400003 0.014,-1.211 -0.154,-2.427 -0.297,-3.635 -0.081,-0.679 0.127,-0.94 0.81,-0.83 0.911,0.147 1.825,0.275 2.739,0.401 0.339,0.047 0.683,0.101 1.023,0.088 0.571,-0.02 0.748,-0.347 0.366,-0.751 -0.334,-0.353 -0.762,-0.698 -1.214,-0.84 -1.08,-0.338 -2.189,-0.5909998 -3.3,-0.8049998 -0.529,-0.101 -0.768,-0.297 -0.823,-0.847 -0.107,-1.051 -0.281,-2.095 -0.436,-3.14 -0.088,-0.584 -0.354,-1.025 -1.027,-0.956 -0.613,0.062 -0.8,0.506 -0.716,1.246 0.385,3.388 0.748,6.7779998 1.102,10.1689998 0.099,0.945 0.134,1.898 0.217,2.84500003 0.054,0.62 0.312,1.029 1.031,1.061 0.269,0.012 0.55,0.233 0.786,0.411 0.627,0.47199997 1.184,1.05899997 1.858,1.44499997 1.521,0.872 3.013,0.284 3.601,-1.53299997 0.543,-1.67600003 1.034,-3.41100003 1.213,-5.15500003 0.223,-2.144 0.112,-4.324 0.121,-6.4879998 0.006,-1.72 -0.025,-3.438 -0.041,-5.157 -0.004,-0.503 0.073,-1.065 -0.679,-1.103 -0.672,-0.034 -1.124,0.406 -1.129,1.133 -0.012,1.851 -0.004,3.702 -0.004,5.553 z m 13.1318,-2.607392 c 0.17,1.003 0.443,1.919 0.461,2.84 0.045,2.5069996 -0.022,5.0149996 -0.035,7.5229996 -0.008,1.537 -0.059,3.09800004 0.944,4.403 0.182,0.236 0.603,0.288 0.913,0.425 0.136,-0.316 0.464,-0.703 0.378,-0.93799996 -1.126,-3.06100004 -0.137,-6.20200004 -0.395,-9.29100004 -0.174,-2.0719996 -0.094,-4.1749996 -0.91,-6.1529996 -0.098,-0.24 -0.128,-0.513 -0.163,-0.774 -0.058,-0.444 -0.023,-1.041 -0.616,-1.023 -0.466,0.013 -1.08,0.212 -1.348,0.55 -0.585,0.738 -1.004,1.61 -1.469,2.439 -1.485,2.644 -2.959,5.2919996 -4.619,7.8889996 0.104,-1.508 0.255,-3.014 0.303,-4.524 0.069,-2.1139996 0.072,-4.2309996 0.08,-6.3459996 0.003,-0.539 -0.034,-1.128 -0.807,-1.1 -0.711,0.027 -0.828,0.553 -0.841,1.119 -0.032,1.478 -0.012,2.958 -0.09,4.433 -0.132,2.4779996 -0.328,4.9509996 -0.486,7.4269996 -0.027,0.422 -0.007,0.847 0.011,1.27 0.033,0.826 0.546,1.517 1.316,1.792 0.535,0.192 1.143,-0.107 1.369,-0.742 1.404,-3.939 3.912,-7.307 5.69,-11.0519996 0.008,-0.019 0.043,-0.025 0.314,-0.167"
         inkscape:connector-curvature="0" />
    </g>
    <g
       id="g4940"
       transform="matrix(0.35277777,0,0,-0.35277777,80.129579,186.11325)"
       style="fill:#000000;" />
  </g>
</svg>
