<?xml version="1.0" encoding="utf-8"?>
<!-- Generator: Adobe Illustrator 16.0.0, SVG Export Plug-In . SVG Version: 6.00 Build 0)  -->
<!DOCTYPE svg PUBLIC "-//W3C//DTD SVG 1.0//EN" "http://www.w3.org/TR/2001/REC-SVG-20010904/DTD/svg10.dtd">
<svg version="1.0" xmlns="http://www.w3.org/2000/svg" xmlns:xlink="http://www.w3.org/1999/xlink" x="0px" y="0px"
	 width="841.89px" height="653.28px" viewBox="0 0 841.89 653.28" enable-background="new 0 0 841.89 653.28" xml:space="preserve">
<g id="Layer_04">
</g>
<g id="Dessin2D::visible::lignes">
	<g>
		<path fill="none" stroke="#3BBFF0" stroke-width="0.25" stroke-linecap="round" stroke-linejoin="round" d="M207.773,65.078
			c-0.818,0.775-1.328,1.871-1.328,3.086c0,2.349,1.903,4.252,4.252,4.252c1.658,0,3.094-0.949,3.795-2.333"/>
		<path fill="none" stroke="#3BBFF0" stroke-width="0.25" stroke-linecap="round" stroke-linejoin="round" d="M214.493,70.083
			c0.292-0.577,0.456-1.229,0.456-1.919c0-2.348-1.902-4.252-4.251-4.252c-1.133,0-2.163,0.443-2.924,1.166"/>
		
			<line fill="none" stroke="#000000" stroke-width="0.25" stroke-linecap="round" stroke-linejoin="round" x1="237.068" y1="68.053" x2="237.464" y2="226.325"/>
		
			<line fill="none" stroke="#000000" stroke-width="0.25" stroke-linecap="round" stroke-linejoin="round" x1="184.326" y1="68.185" x2="184.721" y2="226.457"/>
		<path fill="none" stroke="#000000" stroke-width="0.25" stroke-linecap="round" stroke-linejoin="round" d="M237.068,68.053
			c-0.035-14.564-11.871-26.342-26.436-26.306c-14.564,0.037-26.342,11.873-26.307,26.437"/>
		<path fill="none" stroke="#3BBFF0" stroke-width="0.25" stroke-linecap="round" stroke-linejoin="round" d="M203.074,218.374
			c-2.052,2.052-3.321,4.886-3.321,8.018c0,6.262,5.076,11.339,11.339,11.339c2.98,0,5.691-1.149,7.715-3.029"/>
		<path fill="none" stroke="#3BBFF0" stroke-width="0.25" stroke-linecap="round" stroke-linejoin="round" d="M218.808,234.701
			c2.229-2.071,3.624-5.028,3.624-8.31c0-6.262-5.076-11.338-11.339-11.338c-3.131,0-5.966,1.269-8.018,3.321"/>
		<path fill="none" stroke="#000000" stroke-width="0.25" stroke-linecap="round" stroke-linejoin="round" d="M237.464,226.325
			c0.035,14.564-11.742,26.401-26.307,26.437c-14.564,0.037-26.4-11.741-26.437-26.305"/>
	</g>
	<g>
		<path fill="none" stroke="#3BBFF0" stroke-width="0.25" stroke-linecap="round" stroke-linejoin="round" d="M143.585,65.954
			c-0.375,0.632-0.591,1.369-0.593,2.157c-0.006,2.349,1.893,4.257,4.242,4.263c1.426,0.004,2.69-0.696,3.464-1.772"/>
		<path fill="none" stroke="#3BBFF0" stroke-width="0.25" stroke-linecap="round" stroke-linejoin="round" d="M150.698,70.602
			c0.5-0.695,0.796-1.548,0.798-2.469c0.006-2.348-1.893-4.257-4.242-4.263c-1.56-0.004-2.926,0.833-3.669,2.084"/>
		<path fill="none" stroke="#3BBFF0" stroke-width="0.25" stroke-linecap="round" stroke-linejoin="round" d="M143.307,418.128
			c-0.202,0.494-0.314,1.034-0.315,1.6c-0.006,2.348,1.893,4.256,4.242,4.262c1.174,0.003,2.238-0.47,3.009-1.238"/>
		<path fill="none" stroke="#3BBFF0" stroke-width="0.25" stroke-linecap="round" stroke-linejoin="round" d="M150.243,422.752
			c0.771-0.768,1.25-1.829,1.253-3.003c0.006-2.348-1.893-4.257-4.242-4.263c-1.782-0.004-3.311,1.088-3.947,2.642"/>
		<path fill="none" stroke="#3BBFF0" stroke-width="0.25" stroke-linecap="round" stroke-linejoin="round" d="M143.486,593.555
			c-0.314,0.591-0.492,1.265-0.494,1.98c-0.006,2.349,1.893,4.257,4.242,4.263c0.99,0.002,1.902-0.334,2.626-0.901"/>
		<path fill="none" stroke="#3BBFF0" stroke-width="0.25" stroke-linecap="round" stroke-linejoin="round" d="M149.86,598.897
			c0.992-0.775,1.632-1.983,1.635-3.34c0.006-2.349-1.893-4.257-4.242-4.263c-1.632-0.004-3.052,0.913-3.768,2.261"/>
		<path fill="none" stroke="#000000" stroke-width="0.25" stroke-linecap="round" stroke-linejoin="round" d="M120.873,595.546
			c0-101.712,0-203.425,0-305.138c0-50.856,0-101.712,0-152.568c0-12.714,0-25.427,0-38.142c0-6.357,0-12.714,0-19.071
			c0-3.178,0-6.357,0-9.535c0-3.057-0.002-6.059,0.719-9.084c3.099-13.005,15.387-21.614,28.668-20.085
			c13.312,1.532,23.355,12.798,23.355,26.198c0,101.712,0,203.425,0,305.137c0,50.856,0,101.712,0,152.569
			c0,12.714,0,25.428,0,38.142c0,6.357,0,12.714,0,19.071c0,3.178,0,6.357,0,9.535c0,3.057,0.003,6.059-0.719,9.084
			c-3.099,13.005-15.387,21.614-28.668,20.085C130.916,620.212,120.873,608.947,120.873,595.546z"/>
	</g>
	<g>
		<path fill="none" stroke="#000000" stroke-width="0.25" stroke-linecap="round" stroke-linejoin="round" d="M297.936,419.739
			c0,14.564-11.807,26.371-26.371,26.371s-26.371-11.807-26.371-26.371"/>
		<path fill="none" stroke="#000000" stroke-width="0.25" stroke-linecap="round" stroke-linejoin="round" d="M297.936,419.739
			c0-65.508,0-131.016,0-196.523c0-32.754,0-65.507,0-98.261c0-16.376,0-32.753,0-49.13c0-8.912,0.77-15.271-5.086-23.276
			c-4.975-6.799-12.86-10.801-21.285-10.801c-8.424,0-16.31,4.002-21.283,10.801c-5.856,8.005-5.088,14.364-5.088,23.276
			c0,16.377,0,32.754,0,49.13c0,32.754,0,65.507,0,98.261c0,65.507,0,131.015,0,196.523"/>
		<path fill="none" stroke="#3BBFF0" stroke-width="0.25" stroke-linecap="round" stroke-linejoin="round" d="M274.738,71.051
			c0.772-0.812,1.225-1.926,1.168-3.133c-0.111-2.346-2.104-4.157-4.449-4.045c-1.173,0.056-2.212,0.582-2.944,1.387"/>
		<path fill="none" stroke="#3BBFF0" stroke-width="0.25" stroke-linecap="round" stroke-linejoin="round" d="M268.513,65.259
			c-0.732,0.805-1.157,1.889-1.101,3.062c0.111,2.346,2.104,4.157,4.449,4.045c1.138-0.054,2.149-0.551,2.877-1.315"/>
		<path fill="none" stroke="#3BBFF0" stroke-width="0.25" stroke-linecap="round" stroke-linejoin="round" d="M279.669,427.668
			c2.126-2.173,3.377-5.191,3.222-8.467c-0.297-6.255-5.609-11.085-11.863-10.788c-2.975,0.142-5.628,1.417-7.56,3.389"/>
		<path fill="none" stroke="#3BBFF0" stroke-width="0.25" stroke-linecap="round" stroke-linejoin="round" d="M263.468,411.802
			c-2.131,2.174-3.385,5.195-3.229,8.475c0.297,6.255,5.608,11.085,11.863,10.788c2.979-0.142,5.634-1.42,7.566-3.396"/>
	</g>
	<path fill="none" stroke="#000000" stroke-width="0.25" stroke-linecap="round" stroke-linejoin="round" d="M361.121,595.544
		c0,14.564-11.807,26.371-26.371,26.371s-26.371-11.807-26.371-26.371"/>
	<path fill="none" stroke="#000000" stroke-width="0.25" stroke-linecap="round" stroke-linejoin="round" d="M361.121,68.119
		c0-14.564-11.807-26.371-26.371-26.371s-26.371,11.807-26.371,26.371"/>
	
		<line fill="none" stroke="#000000" stroke-width="0.25" stroke-linecap="round" stroke-linejoin="round" x1="308.379" y1="68.119" x2="308.379" y2="595.544"/>
	
		<line fill="none" stroke="#000000" stroke-width="0.25" stroke-linecap="round" stroke-linejoin="round" x1="361.121" y1="68.119" x2="361.121" y2="595.544"/>
	<path fill="none" stroke="#3BBFF0" stroke-width="0.25" stroke-linecap="round" stroke-linejoin="round" d="M331.328,587.444
		c-3.155,1.334-5.369,4.458-5.369,8.1c0,4.854,3.936,8.791,8.791,8.791c3.641,0,6.765-2.213,8.099-5.369"/>
	<path fill="none" stroke="#3BBFF0" stroke-width="0.25" stroke-linecap="round" stroke-linejoin="round" d="M342.849,598.966
		c0.445-1.052,0.691-2.208,0.691-3.422c0-4.855-3.936-8.791-8.79-8.791c-1.214,0-2.37,0.246-3.422,0.691"/>
	<path fill="none" stroke="#3BBFF0" stroke-width="0.25" stroke-linecap="round" stroke-linejoin="round" d="M330.899,242.191
		c-0.258,0.549-0.403,1.162-0.403,1.809c0,2.348,1.904,4.252,4.252,4.252c1.174,0,2.237-0.476,3.006-1.246"/>
	<path fill="none" stroke="#3BBFF0" stroke-width="0.25" stroke-linecap="round" stroke-linejoin="round" d="M337.754,247.006
		c0.77-0.77,1.246-1.833,1.246-3.006c0-2.349-1.904-4.252-4.252-4.252c-1.701,0-3.169,0.999-3.849,2.443"/>
	<path fill="none" stroke="#3BBFF0" stroke-width="0.25" stroke-linecap="round" stroke-linejoin="round" d="M337.756,71.125
		c0.77-0.769,1.246-1.832,1.246-3.006c0-2.348-1.904-4.252-4.252-4.252c-2.076,0-3.804,1.487-4.177,3.454"/>
	<path fill="none" stroke="#3BBFF0" stroke-width="0.25" stroke-linecap="round" stroke-linejoin="round" d="M330.573,67.32
		c-0.049,0.259-0.075,0.525-0.075,0.798c0,2.348,1.903,4.252,4.252,4.252c1.174,0,2.237-0.476,3.006-1.246"/>
	<g>
		
			<line fill="none" stroke="#D02117" stroke-width="0.25" stroke-linecap="round" stroke-linejoin="round" x1="369" y1="446.144" x2="421.743" y2="446.144"/>
		<path fill="none" stroke="#3BBFF0" stroke-width="0.25" stroke-linecap="round" stroke-linejoin="round" d="M385.329,414.505
			c-0.908,1.729-1.382,3.714-1.282,5.806c0.296,6.255,5.607,11.085,11.863,10.788c4.667-0.222,8.54-3.235,10.083-7.348"/>
		<path fill="none" stroke="#3BBFF0" stroke-width="0.25" stroke-linecap="round" stroke-linejoin="round" d="M405.993,423.75
			c0.525-1.4,0.78-2.927,0.704-4.516c-0.297-6.255-5.608-11.085-11.863-10.788c-4.164,0.198-7.696,2.618-9.505,6.058"/>
		<path fill="none" stroke="#3BBFF0" stroke-width="0.25" stroke-linecap="round" stroke-linejoin="round" d="M391.506,66.601
			c-0.212,0.541-0.317,1.135-0.288,1.753c0.111,2.346,2.104,4.157,4.449,4.045c1.759-0.083,3.217-1.225,3.79-2.78"/>
		<path fill="none" stroke="#3BBFF0" stroke-width="0.25" stroke-linecap="round" stroke-linejoin="round" d="M399.458,69.62
			c0.191-0.518,0.283-1.083,0.255-1.669c-0.111-2.346-2.104-4.157-4.449-4.045c-1.727,0.082-3.164,1.184-3.757,2.696"/>
		<path fill="none" stroke="#000000" stroke-width="0.25" stroke-linecap="round" stroke-linejoin="round" d="M421.743,446.144
			c0-67.705,0-135.41,0-203.116c0-33.852,0-67.705,0-101.558c0-16.871,0-33.741,0-50.612c0-4.217,0-8.435,0-12.653
			c0-4.145,0.269-8.278-0.107-12.433c-0.794-8.77-5.899-16.55-13.629-20.769c-16.193-8.839-36.169,1.194-38.747,19.462
			c-0.389,2.752-0.26,22.426-0.26,25.16c0,8.491,0,16.982,0,25.472c0,33.853,0,67.706,0,101.558c0,67.705,0,135.41,0,203.116"/>
		
			<line fill="none" stroke="#000000" stroke-width="0.25" stroke-linecap="round" stroke-linejoin="round" x1="369" y1="419.773" x2="369" y2="446.144"/>
		<path fill="none" stroke="#3BBFF0" stroke-width="0.25" stroke-linecap="round" stroke-linejoin="round" d="M394.834,492.569
			c-7.281-0.426-10.992-8.112-10.792-14.487c0.202-6.447,4.469-13.842,11.868-13.409c7.28,0.426,10.992,8.113,10.792,14.487
			C406.5,485.607,402.232,493.001,394.834,492.569z"/>
		
			<line fill="none" stroke="#000000" stroke-width="0.25" stroke-linecap="round" stroke-linejoin="round" x1="369" y1="531.631" x2="369" y2="446.144"/>
		
			<line fill="none" stroke="#000000" stroke-width="0.25" stroke-linecap="round" stroke-linejoin="round" x1="421.743" y1="531.631" x2="369" y2="531.631"/>
		
			<line fill="none" stroke="#000000" stroke-width="0.25" stroke-linecap="round" stroke-linejoin="round" x1="421.743" y1="446.144" x2="421.743" y2="531.631"/>
	</g>
	<g>
		
			<line fill="none" stroke="#000000" stroke-width="0.25" stroke-linecap="round" stroke-linejoin="round" x1="237.645" y1="443.404" x2="237.645" y2="469.709"/>
		<polyline fill="none" stroke="#000000" stroke-width="0.25" stroke-linecap="round" stroke-linejoin="round" points="
			184.376,285.132 184.771,443.404 184.771,469.709 		"/>
		<path fill="none" stroke="#3BBFF0" stroke-width="0.25" stroke-linecap="round" stroke-linejoin="round" d="M210.604,516.135
			c-7.279-0.426-10.991-8.113-10.791-14.487c0.201-6.447,4.469-13.842,11.867-13.409c7.281,0.426,10.992,8.113,10.793,14.487
			C222.271,509.173,218.004,516.567,210.604,516.135z"/>
		
			<line fill="none" stroke="#000000" stroke-width="0.25" stroke-linecap="round" stroke-linejoin="round" x1="184.771" y1="555.197" x2="184.771" y2="469.709"/>
		
			<line fill="none" stroke="#000000" stroke-width="0.25" stroke-linecap="round" stroke-linejoin="round" x1="237.514" y1="555.197" x2="184.771" y2="555.197"/>
		
			<line fill="none" stroke="#000000" stroke-width="0.25" stroke-linecap="round" stroke-linejoin="round" x1="237.514" y1="469.709" x2="237.514" y2="555.197"/>
		<path fill="none" stroke="#3BBFF0" stroke-width="0.25" stroke-linecap="round" stroke-linejoin="round" d="M204.611,452.609
			c1.847,1.303,4.1,2.068,6.531,2.068c6.262,0,11.338-5.077,11.338-11.339c0-4.111-2.188-7.711-5.462-9.699"/>
		<path fill="none" stroke="#3BBFF0" stroke-width="0.25" stroke-linecap="round" stroke-linejoin="round" d="M217.018,433.64
			c-1.713-1.041-3.725-1.64-5.875-1.64c-6.262,0-11.34,5.076-11.34,11.338c0,3.831,1.9,7.217,4.809,9.271"/>
		<path fill="none" stroke="#000000" stroke-width="0.25" stroke-linecap="round" stroke-linejoin="round" d="M237.118,285
			c-0.036-14.564-11.872-26.342-26.437-26.306c-14.564,0.037-26.342,11.873-26.306,26.437"/>
		
			<line fill="none" stroke="#000000" stroke-width="0.25" stroke-linecap="round" stroke-linejoin="round" x1="237.118" y1="285" x2="237.514" y2="443.272"/>
		<path fill="none" stroke="#3BBFF0" stroke-width="0.25" stroke-linecap="round" stroke-linejoin="round" d="M207.138,282.863
			c-0.407,0.652-0.642,1.423-0.642,2.249c0,2.349,1.902,4.252,4.252,4.252c1.63,0,3.046-0.917,3.76-2.265"/>
		<path fill="none" stroke="#3BBFF0" stroke-width="0.25" stroke-linecap="round" stroke-linejoin="round" d="M214.508,287.099
			c0.314-0.593,0.492-1.27,0.492-1.987c0-2.348-1.904-4.252-4.252-4.252c-1.523,0-2.859,0.8-3.61,2.003"/>
		
			<line fill="none" stroke="#D02117" stroke-width="0.25" stroke-linecap="round" stroke-linejoin="round" x1="184.771" y1="469.709" x2="237.514" y2="469.709"/>
	</g>
</g>
</svg>
